<svg width="20" height="20" viewBox="0 0 20 20" fill="none" xmlns="http://www.w3.org/2000/svg">
<rect width="20" height="20" fill="white"/>
<path opacity="0.4" d="M6.14975 18.3333C3.9077 18.3333 2.08334 16.5259 2.08334 14.3038V9.86284C2.08334 7.64077 3.9077 5.83331 6.14975 5.83331H13.8503C16.0923 5.83331 17.9167 7.64077 17.9167 9.86284V14.3038C17.9167 16.5259 16.0923 18.3333 13.8503 18.3333H6.14975Z" fill="white"/>
<path d="M12.5086 7.73128V5.2974C12.5086 3.95925 11.3863 2.87075 10.0074 2.87075C9.37265 2.87075 8.70641 3.11799 8.23218 3.57314C7.75712 4.02989 7.49393 4.63756 7.49145 5.28616V7.73128C7.49145 8.06361 7.21336 8.33332 6.87072 8.33332C6.52808 8.33332 6.25 8.06361 6.25 7.73128V5.2974C6.25414 4.31085 6.64809 3.40055 7.3582 2.71903C8.06748 2.03591 8.9845 1.69315 10.0099 1.66666C12.0707 1.66666 13.75 3.29539 13.75 5.2974V7.73128C13.75 8.06361 13.4719 8.33332 13.1293 8.33332C12.7866 8.33332 12.5086 8.06361 12.5086 7.73128Z" fill="white"/>
</svg>
