<svg width="131" height="208" viewBox="0 0 131 208" fill="none" xmlns="http://www.w3.org/2000/svg">
<rect width="131" height="208" fill="white"/>
<rect x="16" y="16" width="99" height="32" rx="16" fill="#00A2FD"/>
<path d="M39.1914 27.9268V29H34.2148V27.9268H39.1914ZM34.4746 19.0469V29H33.1553V19.0469H34.4746ZM40.1758 25.3838V25.2266C40.1758 24.6934 40.2533 24.1989 40.4082 23.7432C40.5632 23.2829 40.7865 22.8841 41.0781 22.5469C41.3698 22.2051 41.723 21.9408 42.1377 21.7539C42.5524 21.5625 43.0173 21.4668 43.5322 21.4668C44.0518 21.4668 44.5189 21.5625 44.9336 21.7539C45.3529 21.9408 45.7083 22.2051 46 22.5469C46.2962 22.8841 46.5218 23.2829 46.6768 23.7432C46.8317 24.1989 46.9092 24.6934 46.9092 25.2266V25.3838C46.9092 25.917 46.8317 26.4115 46.6768 26.8672C46.5218 27.3229 46.2962 27.7217 46 28.0635C45.7083 28.4007 45.3551 28.665 44.9404 28.8564C44.5303 29.0433 44.0654 29.1367 43.5459 29.1367C43.0264 29.1367 42.5592 29.0433 42.1445 28.8564C41.7298 28.665 41.3743 28.4007 41.0781 28.0635C40.7865 27.7217 40.5632 27.3229 40.4082 26.8672C40.2533 26.4115 40.1758 25.917 40.1758 25.3838ZM41.4404 25.2266V25.3838C41.4404 25.7529 41.4837 26.1016 41.5703 26.4297C41.6569 26.7533 41.7868 27.0404 41.96 27.291C42.1377 27.5417 42.3587 27.7399 42.623 27.8857C42.8874 28.027 43.195 28.0977 43.5459 28.0977C43.8923 28.0977 44.1953 28.027 44.4551 27.8857C44.7194 27.7399 44.9382 27.5417 45.1113 27.291C45.2845 27.0404 45.4144 26.7533 45.501 26.4297C45.5921 26.1016 45.6377 25.7529 45.6377 25.3838V25.2266C45.6377 24.862 45.5921 24.5179 45.501 24.1943C45.4144 23.8662 45.2822 23.5768 45.1045 23.3262C44.9313 23.071 44.7126 22.8704 44.4482 22.7246C44.1885 22.5788 43.8831 22.5059 43.5322 22.5059C43.1859 22.5059 42.8805 22.5788 42.6162 22.7246C42.3564 22.8704 42.1377 23.071 41.96 23.3262C41.7868 23.5768 41.6569 23.8662 41.5703 24.1943C41.4837 24.5179 41.4404 24.862 41.4404 25.2266ZM52.8564 27.7354V23.9277C52.8564 23.6361 52.7972 23.3831 52.6787 23.1689C52.5648 22.9502 52.3916 22.7816 52.1592 22.6631C51.9268 22.5446 51.6396 22.4854 51.2979 22.4854C50.9788 22.4854 50.6986 22.54 50.457 22.6494C50.2201 22.7588 50.0332 22.9023 49.8965 23.0801C49.7643 23.2578 49.6982 23.4492 49.6982 23.6543H48.4336C48.4336 23.39 48.502 23.1279 48.6387 22.8682C48.7754 22.6084 48.9714 22.3737 49.2266 22.1641C49.4863 21.9499 49.7962 21.7812 50.1562 21.6582C50.5208 21.5306 50.9264 21.4668 51.373 21.4668C51.9108 21.4668 52.3848 21.5579 52.7949 21.7402C53.2096 21.9225 53.5332 22.1982 53.7656 22.5674C54.0026 22.932 54.1211 23.39 54.1211 23.9414V27.3867C54.1211 27.6328 54.1416 27.8949 54.1826 28.1729C54.2282 28.4508 54.2943 28.6901 54.3809 28.8906V29H53.0615C52.9977 28.8542 52.9476 28.6605 52.9111 28.4189C52.8747 28.1729 52.8564 27.945 52.8564 27.7354ZM53.0752 24.5156L53.0889 25.4043H51.8105C51.4505 25.4043 51.1292 25.4339 50.8467 25.4932C50.5641 25.5479 50.3271 25.6322 50.1357 25.7461C49.9443 25.86 49.7985 26.0036 49.6982 26.1768C49.598 26.3454 49.5479 26.5436 49.5479 26.7715C49.5479 27.0039 49.6003 27.2158 49.7051 27.4072C49.8099 27.5986 49.9671 27.7513 50.1768 27.8652C50.391 27.9746 50.653 28.0293 50.9629 28.0293C51.3503 28.0293 51.6921 27.9473 51.9883 27.7832C52.2845 27.6191 52.5192 27.4186 52.6924 27.1816C52.8701 26.9447 52.9658 26.7145 52.9795 26.4912L53.5195 27.0996C53.4876 27.291 53.401 27.5029 53.2598 27.7354C53.1185 27.9678 52.9294 28.1911 52.6924 28.4053C52.46 28.6149 52.182 28.7904 51.8584 28.9316C51.5394 29.0684 51.1794 29.1367 50.7783 29.1367C50.277 29.1367 49.8372 29.0387 49.459 28.8428C49.0853 28.6468 48.7936 28.3848 48.584 28.0566C48.3789 27.724 48.2764 27.3525 48.2764 26.9424C48.2764 26.5459 48.3538 26.1973 48.5088 25.8965C48.6637 25.5911 48.887 25.3382 49.1787 25.1377C49.4704 24.9326 49.8213 24.7777 50.2314 24.6729C50.6416 24.568 51.0996 24.5156 51.6055 24.5156H53.0752ZM60.7725 27.5645V18.5H62.0439V29H60.8818L60.7725 27.5645ZM55.7959 25.3838V25.2402C55.7959 24.6751 55.8643 24.1624 56.001 23.7021C56.1423 23.2373 56.3405 22.8385 56.5957 22.5059C56.8555 22.1732 57.1631 21.918 57.5186 21.7402C57.8786 21.5579 58.2796 21.4668 58.7217 21.4668C59.1865 21.4668 59.5921 21.5488 59.9385 21.7129C60.2894 21.8724 60.5856 22.1071 60.8271 22.417C61.0732 22.7223 61.2669 23.0915 61.4082 23.5244C61.5495 23.9574 61.6475 24.4473 61.7021 24.9941V25.623C61.652 26.1654 61.554 26.653 61.4082 27.0859C61.2669 27.5189 61.0732 27.888 60.8271 28.1934C60.5856 28.4987 60.2894 28.7334 59.9385 28.8975C59.5876 29.057 59.1774 29.1367 58.708 29.1367C58.2751 29.1367 57.8786 29.0433 57.5186 28.8564C57.1631 28.6696 56.8555 28.4076 56.5957 28.0703C56.3405 27.7331 56.1423 27.3366 56.001 26.8809C55.8643 26.4206 55.7959 25.9215 55.7959 25.3838ZM57.0674 25.2402V25.3838C57.0674 25.7529 57.1038 26.0993 57.1768 26.4229C57.2542 26.7464 57.3727 27.0312 57.5322 27.2773C57.6917 27.5234 57.8945 27.7171 58.1406 27.8584C58.3867 27.9951 58.6807 28.0635 59.0225 28.0635C59.4417 28.0635 59.7858 27.9746 60.0547 27.7969C60.3281 27.6191 60.5469 27.3844 60.7109 27.0928C60.875 26.8011 61.0026 26.4844 61.0938 26.1426V24.4951C61.0391 24.2445 60.9593 24.0029 60.8545 23.7705C60.7542 23.5335 60.6221 23.3239 60.458 23.1416C60.2985 22.9548 60.1003 22.8066 59.8633 22.6973C59.6309 22.5879 59.3551 22.5332 59.0361 22.5332C58.6898 22.5332 58.3913 22.6061 58.1406 22.752C57.8945 22.8932 57.6917 23.0892 57.5322 23.3398C57.3727 23.5859 57.2542 23.873 57.1768 24.2012C57.1038 24.5247 57.0674 24.8711 57.0674 25.2402ZM68.0938 19.0469H69.3721L72.6328 27.1611L75.8867 19.0469H77.1719L73.125 29H72.127L68.0938 19.0469ZM67.6768 19.0469H68.8047L68.9893 25.1172V29H67.6768V19.0469ZM76.4541 19.0469H77.582V29H76.2695V25.1172L76.4541 19.0469ZM79.373 25.3838V25.2266C79.373 24.6934 79.4505 24.1989 79.6055 23.7432C79.7604 23.2829 79.9837 22.8841 80.2754 22.5469C80.5671 22.2051 80.9202 21.9408 81.335 21.7539C81.7497 21.5625 82.2145 21.4668 82.7295 21.4668C83.249 21.4668 83.7161 21.5625 84.1309 21.7539C84.5501 21.9408 84.9056 22.2051 85.1973 22.5469C85.4935 22.8841 85.7191 23.2829 85.874 23.7432C86.029 24.1989 86.1064 24.6934 86.1064 25.2266V25.3838C86.1064 25.917 86.029 26.4115 85.874 26.8672C85.7191 27.3229 85.4935 27.7217 85.1973 28.0635C84.9056 28.4007 84.5524 28.665 84.1377 28.8564C83.7275 29.0433 83.2627 29.1367 82.7432 29.1367C82.2236 29.1367 81.7565 29.0433 81.3418 28.8564C80.9271 28.665 80.5716 28.4007 80.2754 28.0635C79.9837 27.7217 79.7604 27.3229 79.6055 26.8672C79.4505 26.4115 79.373 25.917 79.373 25.3838ZM80.6377 25.2266V25.3838C80.6377 25.7529 80.681 26.1016 80.7676 26.4297C80.8542 26.7533 80.984 27.0404 81.1572 27.291C81.335 27.5417 81.556 27.7399 81.8203 27.8857C82.0846 28.027 82.3923 28.0977 82.7432 28.0977C83.0895 28.0977 83.3926 28.027 83.6523 27.8857C83.9167 27.7399 84.1354 27.5417 84.3086 27.291C84.4818 27.0404 84.6117 26.7533 84.6982 26.4297C84.7894 26.1016 84.835 25.7529 84.835 25.3838V25.2266C84.835 24.862 84.7894 24.5179 84.6982 24.1943C84.6117 23.8662 84.4795 23.5768 84.3018 23.3262C84.1286 23.071 83.9098 22.8704 83.6455 22.7246C83.3857 22.5788 83.0804 22.5059 82.7295 22.5059C82.3831 22.5059 82.0778 22.5788 81.8135 22.7246C81.5537 22.8704 81.335 23.071 81.1572 23.3262C80.984 23.5768 80.8542 23.8662 80.7676 24.1943C80.681 24.5179 80.6377 24.862 80.6377 25.2266ZM88.957 22.7656V29H87.6924V21.6035H88.9229L88.957 22.7656ZM91.2676 21.5625L91.2607 22.7383C91.1559 22.7155 91.0557 22.7018 90.96 22.6973C90.8688 22.6882 90.764 22.6836 90.6455 22.6836C90.3538 22.6836 90.0964 22.7292 89.873 22.8203C89.6497 22.9115 89.4606 23.0391 89.3057 23.2031C89.1507 23.3672 89.0277 23.5632 88.9365 23.791C88.8499 24.0143 88.793 24.2604 88.7656 24.5293L88.4102 24.7344C88.4102 24.2878 88.4535 23.8685 88.54 23.4766C88.6312 23.0846 88.7702 22.7383 88.957 22.4375C89.1439 22.1322 89.3809 21.8952 89.668 21.7266C89.9596 21.5534 90.306 21.4668 90.707 21.4668C90.7982 21.4668 90.903 21.4782 91.0215 21.501C91.14 21.5192 91.222 21.5397 91.2676 21.5625ZM95.3691 29.1367C94.8542 29.1367 94.387 29.0501 93.9678 28.877C93.5531 28.6992 93.1953 28.4508 92.8945 28.1318C92.5983 27.8128 92.3704 27.4346 92.2109 26.9971C92.0514 26.5596 91.9717 26.0811 91.9717 25.5615V25.2744C91.9717 24.6729 92.0605 24.1374 92.2383 23.668C92.416 23.194 92.6576 22.793 92.9629 22.4648C93.2682 22.1367 93.6146 21.8883 94.002 21.7197C94.3893 21.5511 94.7904 21.4668 95.2051 21.4668C95.7337 21.4668 96.1895 21.5579 96.5723 21.7402C96.9596 21.9225 97.2764 22.1777 97.5225 22.5059C97.7686 22.8294 97.9508 23.2122 98.0693 23.6543C98.1878 24.0918 98.2471 24.5703 98.2471 25.0898V25.6572H92.7236V24.625H96.9824V24.5293C96.9642 24.2012 96.8958 23.8822 96.7773 23.5723C96.6634 23.2624 96.4811 23.0072 96.2305 22.8066C95.9798 22.6061 95.638 22.5059 95.2051 22.5059C94.918 22.5059 94.6536 22.5674 94.4121 22.6904C94.1706 22.8089 93.9632 22.9867 93.79 23.2236C93.6169 23.4606 93.4824 23.75 93.3867 24.0918C93.291 24.4336 93.2432 24.8278 93.2432 25.2744V25.5615C93.2432 25.9124 93.291 26.2428 93.3867 26.5527C93.487 26.8581 93.6305 27.127 93.8174 27.3594C94.0088 27.5918 94.2389 27.7741 94.5078 27.9062C94.7812 28.0384 95.0911 28.1045 95.4375 28.1045C95.8841 28.1045 96.2624 28.0133 96.5723 27.8311C96.8822 27.6488 97.1533 27.4049 97.3857 27.0996L98.1514 27.708C97.9919 27.9495 97.7891 28.1797 97.543 28.3984C97.2969 28.6172 96.9938 28.7949 96.6338 28.9316C96.2783 29.0684 95.8568 29.1367 95.3691 29.1367Z" fill="#010613"/>
<path d="M39.1914 75.9268V77H34.2148V75.9268H39.1914ZM34.4746 67.0469V77H33.1553V67.0469H34.4746ZM40.1758 73.3838V73.2266C40.1758 72.6934 40.2533 72.1989 40.4082 71.7432C40.5632 71.2829 40.7865 70.8841 41.0781 70.5469C41.3698 70.2051 41.723 69.9408 42.1377 69.7539C42.5524 69.5625 43.0173 69.4668 43.5322 69.4668C44.0518 69.4668 44.5189 69.5625 44.9336 69.7539C45.3529 69.9408 45.7083 70.2051 46 70.5469C46.2962 70.8841 46.5218 71.2829 46.6768 71.7432C46.8317 72.1989 46.9092 72.6934 46.9092 73.2266V73.3838C46.9092 73.917 46.8317 74.4115 46.6768 74.8672C46.5218 75.3229 46.2962 75.7217 46 76.0635C45.7083 76.4007 45.3551 76.665 44.9404 76.8564C44.5303 77.0433 44.0654 77.1367 43.5459 77.1367C43.0264 77.1367 42.5592 77.0433 42.1445 76.8564C41.7298 76.665 41.3743 76.4007 41.0781 76.0635C40.7865 75.7217 40.5632 75.3229 40.4082 74.8672C40.2533 74.4115 40.1758 73.917 40.1758 73.3838ZM41.4404 73.2266V73.3838C41.4404 73.7529 41.4837 74.1016 41.5703 74.4297C41.6569 74.7533 41.7868 75.0404 41.96 75.291C42.1377 75.5417 42.3587 75.7399 42.623 75.8857C42.8874 76.027 43.195 76.0977 43.5459 76.0977C43.8923 76.0977 44.1953 76.027 44.4551 75.8857C44.7194 75.7399 44.9382 75.5417 45.1113 75.291C45.2845 75.0404 45.4144 74.7533 45.501 74.4297C45.5921 74.1016 45.6377 73.7529 45.6377 73.3838V73.2266C45.6377 72.862 45.5921 72.5179 45.501 72.1943C45.4144 71.8662 45.2822 71.5768 45.1045 71.3262C44.9313 71.071 44.7126 70.8704 44.4482 70.7246C44.1885 70.5788 43.8831 70.5059 43.5322 70.5059C43.1859 70.5059 42.8805 70.5788 42.6162 70.7246C42.3564 70.8704 42.1377 71.071 41.96 71.3262C41.7868 71.5768 41.6569 71.8662 41.5703 72.1943C41.4837 72.5179 41.4404 72.862 41.4404 73.2266ZM52.8564 75.7354V71.9277C52.8564 71.6361 52.7972 71.3831 52.6787 71.1689C52.5648 70.9502 52.3916 70.7816 52.1592 70.6631C51.9268 70.5446 51.6396 70.4854 51.2979 70.4854C50.9788 70.4854 50.6986 70.54 50.457 70.6494C50.2201 70.7588 50.0332 70.9023 49.8965 71.0801C49.7643 71.2578 49.6982 71.4492 49.6982 71.6543H48.4336C48.4336 71.39 48.502 71.1279 48.6387 70.8682C48.7754 70.6084 48.9714 70.3737 49.2266 70.1641C49.4863 69.9499 49.7962 69.7812 50.1562 69.6582C50.5208 69.5306 50.9264 69.4668 51.373 69.4668C51.9108 69.4668 52.3848 69.5579 52.7949 69.7402C53.2096 69.9225 53.5332 70.1982 53.7656 70.5674C54.0026 70.932 54.1211 71.39 54.1211 71.9414V75.3867C54.1211 75.6328 54.1416 75.8949 54.1826 76.1729C54.2282 76.4508 54.2943 76.6901 54.3809 76.8906V77H53.0615C52.9977 76.8542 52.9476 76.6605 52.9111 76.4189C52.8747 76.1729 52.8564 75.945 52.8564 75.7354ZM53.0752 72.5156L53.0889 73.4043H51.8105C51.4505 73.4043 51.1292 73.4339 50.8467 73.4932C50.5641 73.5479 50.3271 73.6322 50.1357 73.7461C49.9443 73.86 49.7985 74.0036 49.6982 74.1768C49.598 74.3454 49.5479 74.5436 49.5479 74.7715C49.5479 75.0039 49.6003 75.2158 49.7051 75.4072C49.8099 75.5986 49.9671 75.7513 50.1768 75.8652C50.391 75.9746 50.653 76.0293 50.9629 76.0293C51.3503 76.0293 51.6921 75.9473 51.9883 75.7832C52.2845 75.6191 52.5192 75.4186 52.6924 75.1816C52.8701 74.9447 52.9658 74.7145 52.9795 74.4912L53.5195 75.0996C53.4876 75.291 53.401 75.5029 53.2598 75.7354C53.1185 75.9678 52.9294 76.1911 52.6924 76.4053C52.46 76.6149 52.182 76.7904 51.8584 76.9316C51.5394 77.0684 51.1794 77.1367 50.7783 77.1367C50.277 77.1367 49.8372 77.0387 49.459 76.8428C49.0853 76.6468 48.7936 76.3848 48.584 76.0566C48.3789 75.724 48.2764 75.3525 48.2764 74.9424C48.2764 74.5459 48.3538 74.1973 48.5088 73.8965C48.6637 73.5911 48.887 73.3382 49.1787 73.1377C49.4704 72.9326 49.8213 72.7777 50.2314 72.6729C50.6416 72.568 51.0996 72.5156 51.6055 72.5156H53.0752ZM60.7725 75.5645V66.5H62.0439V77H60.8818L60.7725 75.5645ZM55.7959 73.3838V73.2402C55.7959 72.6751 55.8643 72.1624 56.001 71.7021C56.1423 71.2373 56.3405 70.8385 56.5957 70.5059C56.8555 70.1732 57.1631 69.918 57.5186 69.7402C57.8786 69.5579 58.2796 69.4668 58.7217 69.4668C59.1865 69.4668 59.5921 69.5488 59.9385 69.7129C60.2894 69.8724 60.5856 70.1071 60.8271 70.417C61.0732 70.7223 61.2669 71.0915 61.4082 71.5244C61.5495 71.9574 61.6475 72.4473 61.7021 72.9941V73.623C61.652 74.1654 61.554 74.653 61.4082 75.0859C61.2669 75.5189 61.0732 75.888 60.8271 76.1934C60.5856 76.4987 60.2894 76.7334 59.9385 76.8975C59.5876 77.057 59.1774 77.1367 58.708 77.1367C58.2751 77.1367 57.8786 77.0433 57.5186 76.8564C57.1631 76.6696 56.8555 76.4076 56.5957 76.0703C56.3405 75.7331 56.1423 75.3366 56.001 74.8809C55.8643 74.4206 55.7959 73.9215 55.7959 73.3838ZM57.0674 73.2402V73.3838C57.0674 73.7529 57.1038 74.0993 57.1768 74.4229C57.2542 74.7464 57.3727 75.0312 57.5322 75.2773C57.6917 75.5234 57.8945 75.7171 58.1406 75.8584C58.3867 75.9951 58.6807 76.0635 59.0225 76.0635C59.4417 76.0635 59.7858 75.9746 60.0547 75.7969C60.3281 75.6191 60.5469 75.3844 60.7109 75.0928C60.875 74.8011 61.0026 74.4844 61.0938 74.1426V72.4951C61.0391 72.2445 60.9593 72.0029 60.8545 71.7705C60.7542 71.5335 60.6221 71.3239 60.458 71.1416C60.2985 70.9548 60.1003 70.8066 59.8633 70.6973C59.6309 70.5879 59.3551 70.5332 59.0361 70.5332C58.6898 70.5332 58.3913 70.6061 58.1406 70.752C57.8945 70.8932 57.6917 71.0892 57.5322 71.3398C57.3727 71.5859 57.2542 71.873 57.1768 72.2012C57.1038 72.5247 57.0674 72.8711 57.0674 73.2402ZM68.0938 67.0469H69.3721L72.6328 75.1611L75.8867 67.0469H77.1719L73.125 77H72.127L68.0938 67.0469ZM67.6768 67.0469H68.8047L68.9893 73.1172V77H67.6768V67.0469ZM76.4541 67.0469H77.582V77H76.2695V73.1172L76.4541 67.0469ZM79.373 73.3838V73.2266C79.373 72.6934 79.4505 72.1989 79.6055 71.7432C79.7604 71.2829 79.9837 70.8841 80.2754 70.5469C80.5671 70.2051 80.9202 69.9408 81.335 69.7539C81.7497 69.5625 82.2145 69.4668 82.7295 69.4668C83.249 69.4668 83.7161 69.5625 84.1309 69.7539C84.5501 69.9408 84.9056 70.2051 85.1973 70.5469C85.4935 70.8841 85.7191 71.2829 85.874 71.7432C86.029 72.1989 86.1064 72.6934 86.1064 73.2266V73.3838C86.1064 73.917 86.029 74.4115 85.874 74.8672C85.7191 75.3229 85.4935 75.7217 85.1973 76.0635C84.9056 76.4007 84.5524 76.665 84.1377 76.8564C83.7275 77.0433 83.2627 77.1367 82.7432 77.1367C82.2236 77.1367 81.7565 77.0433 81.3418 76.8564C80.9271 76.665 80.5716 76.4007 80.2754 76.0635C79.9837 75.7217 79.7604 75.3229 79.6055 74.8672C79.4505 74.4115 79.373 73.917 79.373 73.3838ZM80.6377 73.2266V73.3838C80.6377 73.7529 80.681 74.1016 80.7676 74.4297C80.8542 74.7533 80.984 75.0404 81.1572 75.291C81.335 75.5417 81.556 75.7399 81.8203 75.8857C82.0846 76.027 82.3923 76.0977 82.7432 76.0977C83.0895 76.0977 83.3926 76.027 83.6523 75.8857C83.9167 75.7399 84.1354 75.5417 84.3086 75.291C84.4818 75.0404 84.6117 74.7533 84.6982 74.4297C84.7894 74.1016 84.835 73.7529 84.835 73.3838V73.2266C84.835 72.862 84.7894 72.5179 84.6982 72.1943C84.6117 71.8662 84.4795 71.5768 84.3018 71.3262C84.1286 71.071 83.9098 70.8704 83.6455 70.7246C83.3857 70.5788 83.0804 70.5059 82.7295 70.5059C82.3831 70.5059 82.0778 70.5788 81.8135 70.7246C81.5537 70.8704 81.335 71.071 81.1572 71.3262C80.984 71.5768 80.8542 71.8662 80.7676 72.1943C80.681 72.5179 80.6377 72.862 80.6377 73.2266ZM88.957 70.7656V77H87.6924V69.6035H88.9229L88.957 70.7656ZM91.2676 69.5625L91.2607 70.7383C91.1559 70.7155 91.0557 70.7018 90.96 70.6973C90.8688 70.6882 90.764 70.6836 90.6455 70.6836C90.3538 70.6836 90.0964 70.7292 89.873 70.8203C89.6497 70.9115 89.4606 71.0391 89.3057 71.2031C89.1507 71.3672 89.0277 71.5632 88.9365 71.791C88.8499 72.0143 88.793 72.2604 88.7656 72.5293L88.4102 72.7344C88.4102 72.2878 88.4535 71.8685 88.54 71.4766C88.6312 71.0846 88.7702 70.7383 88.957 70.4375C89.1439 70.1322 89.3809 69.8952 89.668 69.7266C89.9596 69.5534 90.306 69.4668 90.707 69.4668C90.7982 69.4668 90.903 69.4782 91.0215 69.501C91.14 69.5192 91.222 69.5397 91.2676 69.5625ZM95.3691 77.1367C94.8542 77.1367 94.387 77.0501 93.9678 76.877C93.5531 76.6992 93.1953 76.4508 92.8945 76.1318C92.5983 75.8128 92.3704 75.4346 92.2109 74.9971C92.0514 74.5596 91.9717 74.0811 91.9717 73.5615V73.2744C91.9717 72.6729 92.0605 72.1374 92.2383 71.668C92.416 71.194 92.6576 70.793 92.9629 70.4648C93.2682 70.1367 93.6146 69.8883 94.002 69.7197C94.3893 69.5511 94.7904 69.4668 95.2051 69.4668C95.7337 69.4668 96.1895 69.5579 96.5723 69.7402C96.9596 69.9225 97.2764 70.1777 97.5225 70.5059C97.7686 70.8294 97.9508 71.2122 98.0693 71.6543C98.1878 72.0918 98.2471 72.5703 98.2471 73.0898V73.6572H92.7236V72.625H96.9824V72.5293C96.9642 72.2012 96.8958 71.8822 96.7773 71.5723C96.6634 71.2624 96.4811 71.0072 96.2305 70.8066C95.9798 70.6061 95.638 70.5059 95.2051 70.5059C94.918 70.5059 94.6536 70.5674 94.4121 70.6904C94.1706 70.8089 93.9632 70.9867 93.79 71.2236C93.6169 71.4606 93.4824 71.75 93.3867 72.0918C93.291 72.4336 93.2432 72.8278 93.2432 73.2744V73.5615C93.2432 73.9124 93.291 74.2428 93.3867 74.5527C93.487 74.8581 93.6305 75.127 93.8174 75.3594C94.0088 75.5918 94.2389 75.7741 94.5078 75.9062C94.7812 76.0384 95.0911 76.1045 95.4375 76.1045C95.8841 76.1045 96.2624 76.0133 96.5723 75.8311C96.8822 75.6488 97.1533 75.4049 97.3857 75.0996L98.1514 75.708C97.9919 75.9495 97.7891 76.1797 97.543 76.3984C97.2969 76.6172 96.9938 76.7949 96.6338 76.9316C96.2783 77.0684 95.8568 77.1367 95.3691 77.1367Z" fill="#00A2FD"/>
<rect x="16" y="112" width="99" height="32" rx="16" fill="#00A2FD"/>
<path d="M39.1914 123.927V125H34.2148V123.927H39.1914ZM34.4746 115.047V125H33.1553V115.047H34.4746ZM40.1758 121.384V121.227C40.1758 120.693 40.2533 120.199 40.4082 119.743C40.5632 119.283 40.7865 118.884 41.0781 118.547C41.3698 118.205 41.723 117.941 42.1377 117.754C42.5524 117.562 43.0173 117.467 43.5322 117.467C44.0518 117.467 44.5189 117.562 44.9336 117.754C45.3529 117.941 45.7083 118.205 46 118.547C46.2962 118.884 46.5218 119.283 46.6768 119.743C46.8317 120.199 46.9092 120.693 46.9092 121.227V121.384C46.9092 121.917 46.8317 122.411 46.6768 122.867C46.5218 123.323 46.2962 123.722 46 124.063C45.7083 124.401 45.3551 124.665 44.9404 124.856C44.5303 125.043 44.0654 125.137 43.5459 125.137C43.0264 125.137 42.5592 125.043 42.1445 124.856C41.7298 124.665 41.3743 124.401 41.0781 124.063C40.7865 123.722 40.5632 123.323 40.4082 122.867C40.2533 122.411 40.1758 121.917 40.1758 121.384ZM41.4404 121.227V121.384C41.4404 121.753 41.4837 122.102 41.5703 122.43C41.6569 122.753 41.7868 123.04 41.96 123.291C42.1377 123.542 42.3587 123.74 42.623 123.886C42.8874 124.027 43.195 124.098 43.5459 124.098C43.8923 124.098 44.1953 124.027 44.4551 123.886C44.7194 123.74 44.9382 123.542 45.1113 123.291C45.2845 123.04 45.4144 122.753 45.501 122.43C45.5921 122.102 45.6377 121.753 45.6377 121.384V121.227C45.6377 120.862 45.5921 120.518 45.501 120.194C45.4144 119.866 45.2822 119.577 45.1045 119.326C44.9313 119.071 44.7126 118.87 44.4482 118.725C44.1885 118.579 43.8831 118.506 43.5322 118.506C43.1859 118.506 42.8805 118.579 42.6162 118.725C42.3564 118.87 42.1377 119.071 41.96 119.326C41.7868 119.577 41.6569 119.866 41.5703 120.194C41.4837 120.518 41.4404 120.862 41.4404 121.227ZM52.8564 123.735V119.928C52.8564 119.636 52.7972 119.383 52.6787 119.169C52.5648 118.95 52.3916 118.782 52.1592 118.663C51.9268 118.545 51.6396 118.485 51.2979 118.485C50.9788 118.485 50.6986 118.54 50.457 118.649C50.2201 118.759 50.0332 118.902 49.8965 119.08C49.7643 119.258 49.6982 119.449 49.6982 119.654H48.4336C48.4336 119.39 48.502 119.128 48.6387 118.868C48.7754 118.608 48.9714 118.374 49.2266 118.164C49.4863 117.95 49.7962 117.781 50.1562 117.658C50.5208 117.531 50.9264 117.467 51.373 117.467C51.9108 117.467 52.3848 117.558 52.7949 117.74C53.2096 117.923 53.5332 118.198 53.7656 118.567C54.0026 118.932 54.1211 119.39 54.1211 119.941V123.387C54.1211 123.633 54.1416 123.895 54.1826 124.173C54.2282 124.451 54.2943 124.69 54.3809 124.891V125H53.0615C52.9977 124.854 52.9476 124.66 52.9111 124.419C52.8747 124.173 52.8564 123.945 52.8564 123.735ZM53.0752 120.516L53.0889 121.404H51.8105C51.4505 121.404 51.1292 121.434 50.8467 121.493C50.5641 121.548 50.3271 121.632 50.1357 121.746C49.9443 121.86 49.7985 122.004 49.6982 122.177C49.598 122.345 49.5479 122.544 49.5479 122.771C49.5479 123.004 49.6003 123.216 49.7051 123.407C49.8099 123.599 49.9671 123.751 50.1768 123.865C50.391 123.975 50.653 124.029 50.9629 124.029C51.3503 124.029 51.6921 123.947 51.9883 123.783C52.2845 123.619 52.5192 123.419 52.6924 123.182C52.8701 122.945 52.9658 122.715 52.9795 122.491L53.5195 123.1C53.4876 123.291 53.401 123.503 53.2598 123.735C53.1185 123.968 52.9294 124.191 52.6924 124.405C52.46 124.615 52.182 124.79 51.8584 124.932C51.5394 125.068 51.1794 125.137 50.7783 125.137C50.277 125.137 49.8372 125.039 49.459 124.843C49.0853 124.647 48.7936 124.385 48.584 124.057C48.3789 123.724 48.2764 123.353 48.2764 122.942C48.2764 122.546 48.3538 122.197 48.5088 121.896C48.6637 121.591 48.887 121.338 49.1787 121.138C49.4704 120.933 49.8213 120.778 50.2314 120.673C50.6416 120.568 51.0996 120.516 51.6055 120.516H53.0752ZM60.7725 123.564V114.5H62.0439V125H60.8818L60.7725 123.564ZM55.7959 121.384V121.24C55.7959 120.675 55.8643 120.162 56.001 119.702C56.1423 119.237 56.3405 118.839 56.5957 118.506C56.8555 118.173 57.1631 117.918 57.5186 117.74C57.8786 117.558 58.2796 117.467 58.7217 117.467C59.1865 117.467 59.5921 117.549 59.9385 117.713C60.2894 117.872 60.5856 118.107 60.8271 118.417C61.0732 118.722 61.2669 119.091 61.4082 119.524C61.5495 119.957 61.6475 120.447 61.7021 120.994V121.623C61.652 122.165 61.554 122.653 61.4082 123.086C61.2669 123.519 61.0732 123.888 60.8271 124.193C60.5856 124.499 60.2894 124.733 59.9385 124.897C59.5876 125.057 59.1774 125.137 58.708 125.137C58.2751 125.137 57.8786 125.043 57.5186 124.856C57.1631 124.67 56.8555 124.408 56.5957 124.07C56.3405 123.733 56.1423 123.337 56.001 122.881C55.8643 122.421 55.7959 121.922 55.7959 121.384ZM57.0674 121.24V121.384C57.0674 121.753 57.1038 122.099 57.1768 122.423C57.2542 122.746 57.3727 123.031 57.5322 123.277C57.6917 123.523 57.8945 123.717 58.1406 123.858C58.3867 123.995 58.6807 124.063 59.0225 124.063C59.4417 124.063 59.7858 123.975 60.0547 123.797C60.3281 123.619 60.5469 123.384 60.7109 123.093C60.875 122.801 61.0026 122.484 61.0938 122.143V120.495C61.0391 120.244 60.9593 120.003 60.8545 119.771C60.7542 119.534 60.6221 119.324 60.458 119.142C60.2985 118.955 60.1003 118.807 59.8633 118.697C59.6309 118.588 59.3551 118.533 59.0361 118.533C58.6898 118.533 58.3913 118.606 58.1406 118.752C57.8945 118.893 57.6917 119.089 57.5322 119.34C57.3727 119.586 57.2542 119.873 57.1768 120.201C57.1038 120.525 57.0674 120.871 57.0674 121.24ZM68.0938 115.047H69.3721L72.6328 123.161L75.8867 115.047H77.1719L73.125 125H72.127L68.0938 115.047ZM67.6768 115.047H68.8047L68.9893 121.117V125H67.6768V115.047ZM76.4541 115.047H77.582V125H76.2695V121.117L76.4541 115.047ZM79.373 121.384V121.227C79.373 120.693 79.4505 120.199 79.6055 119.743C79.7604 119.283 79.9837 118.884 80.2754 118.547C80.5671 118.205 80.9202 117.941 81.335 117.754C81.7497 117.562 82.2145 117.467 82.7295 117.467C83.249 117.467 83.7161 117.562 84.1309 117.754C84.5501 117.941 84.9056 118.205 85.1973 118.547C85.4935 118.884 85.7191 119.283 85.874 119.743C86.029 120.199 86.1064 120.693 86.1064 121.227V121.384C86.1064 121.917 86.029 122.411 85.874 122.867C85.7191 123.323 85.4935 123.722 85.1973 124.063C84.9056 124.401 84.5524 124.665 84.1377 124.856C83.7275 125.043 83.2627 125.137 82.7432 125.137C82.2236 125.137 81.7565 125.043 81.3418 124.856C80.9271 124.665 80.5716 124.401 80.2754 124.063C79.9837 123.722 79.7604 123.323 79.6055 122.867C79.4505 122.411 79.373 121.917 79.373 121.384ZM80.6377 121.227V121.384C80.6377 121.753 80.681 122.102 80.7676 122.43C80.8542 122.753 80.984 123.04 81.1572 123.291C81.335 123.542 81.556 123.74 81.8203 123.886C82.0846 124.027 82.3923 124.098 82.7432 124.098C83.0895 124.098 83.3926 124.027 83.6523 123.886C83.9167 123.74 84.1354 123.542 84.3086 123.291C84.4818 123.04 84.6117 122.753 84.6982 122.43C84.7894 122.102 84.835 121.753 84.835 121.384V121.227C84.835 120.862 84.7894 120.518 84.6982 120.194C84.6117 119.866 84.4795 119.577 84.3018 119.326C84.1286 119.071 83.9098 118.87 83.6455 118.725C83.3857 118.579 83.0804 118.506 82.7295 118.506C82.3831 118.506 82.0778 118.579 81.8135 118.725C81.5537 118.87 81.335 119.071 81.1572 119.326C80.984 119.577 80.8542 119.866 80.7676 120.194C80.681 120.518 80.6377 120.862 80.6377 121.227ZM88.957 118.766V125H87.6924V117.604H88.9229L88.957 118.766ZM91.2676 117.562L91.2607 118.738C91.1559 118.715 91.0557 118.702 90.96 118.697C90.8688 118.688 90.764 118.684 90.6455 118.684C90.3538 118.684 90.0964 118.729 89.873 118.82C89.6497 118.911 89.4606 119.039 89.3057 119.203C89.1507 119.367 89.0277 119.563 88.9365 119.791C88.8499 120.014 88.793 120.26 88.7656 120.529L88.4102 120.734C88.4102 120.288 88.4535 119.868 88.54 119.477C88.6312 119.085 88.7702 118.738 88.957 118.438C89.1439 118.132 89.3809 117.895 89.668 117.727C89.9596 117.553 90.306 117.467 90.707 117.467C90.7982 117.467 90.903 117.478 91.0215 117.501C91.14 117.519 91.222 117.54 91.2676 117.562ZM95.3691 125.137C94.8542 125.137 94.387 125.05 93.9678 124.877C93.5531 124.699 93.1953 124.451 92.8945 124.132C92.5983 123.813 92.3704 123.435 92.2109 122.997C92.0514 122.56 91.9717 122.081 91.9717 121.562V121.274C91.9717 120.673 92.0605 120.137 92.2383 119.668C92.416 119.194 92.6576 118.793 92.9629 118.465C93.2682 118.137 93.6146 117.888 94.002 117.72C94.3893 117.551 94.7904 117.467 95.2051 117.467C95.7337 117.467 96.1895 117.558 96.5723 117.74C96.9596 117.923 97.2764 118.178 97.5225 118.506C97.7686 118.829 97.9508 119.212 98.0693 119.654C98.1878 120.092 98.2471 120.57 98.2471 121.09V121.657H92.7236V120.625H96.9824V120.529C96.9642 120.201 96.8958 119.882 96.7773 119.572C96.6634 119.262 96.4811 119.007 96.2305 118.807C95.9798 118.606 95.638 118.506 95.2051 118.506C94.918 118.506 94.6536 118.567 94.4121 118.69C94.1706 118.809 93.9632 118.987 93.79 119.224C93.6169 119.461 93.4824 119.75 93.3867 120.092C93.291 120.434 93.2432 120.828 93.2432 121.274V121.562C93.2432 121.912 93.291 122.243 93.3867 122.553C93.487 122.858 93.6305 123.127 93.8174 123.359C94.0088 123.592 94.2389 123.774 94.5078 123.906C94.7812 124.038 95.0911 124.104 95.4375 124.104C95.8841 124.104 96.2624 124.013 96.5723 123.831C96.8822 123.649 97.1533 123.405 97.3857 123.1L98.1514 123.708C97.9919 123.95 97.7891 124.18 97.543 124.398C97.2969 124.617 96.9938 124.795 96.6338 124.932C96.2783 125.068 95.8568 125.137 95.3691 125.137Z" fill="white"/>
<rect x="16" y="160" width="99" height="32" rx="16" fill="#373B3B"/>
<path d="M39.1914 171.927V173H34.2148V171.927H39.1914ZM34.4746 163.047V173H33.1553V163.047H34.4746ZM40.1758 169.384V169.227C40.1758 168.693 40.2533 168.199 40.4082 167.743C40.5632 167.283 40.7865 166.884 41.0781 166.547C41.3698 166.205 41.723 165.941 42.1377 165.754C42.5524 165.562 43.0173 165.467 43.5322 165.467C44.0518 165.467 44.5189 165.562 44.9336 165.754C45.3529 165.941 45.7083 166.205 46 166.547C46.2962 166.884 46.5218 167.283 46.6768 167.743C46.8317 168.199 46.9092 168.693 46.9092 169.227V169.384C46.9092 169.917 46.8317 170.411 46.6768 170.867C46.5218 171.323 46.2962 171.722 46 172.063C45.7083 172.401 45.3551 172.665 44.9404 172.856C44.5303 173.043 44.0654 173.137 43.5459 173.137C43.0264 173.137 42.5592 173.043 42.1445 172.856C41.7298 172.665 41.3743 172.401 41.0781 172.063C40.7865 171.722 40.5632 171.323 40.4082 170.867C40.2533 170.411 40.1758 169.917 40.1758 169.384ZM41.4404 169.227V169.384C41.4404 169.753 41.4837 170.102 41.5703 170.43C41.6569 170.753 41.7868 171.04 41.96 171.291C42.1377 171.542 42.3587 171.74 42.623 171.886C42.8874 172.027 43.195 172.098 43.5459 172.098C43.8923 172.098 44.1953 172.027 44.4551 171.886C44.7194 171.74 44.9382 171.542 45.1113 171.291C45.2845 171.04 45.4144 170.753 45.501 170.43C45.5921 170.102 45.6377 169.753 45.6377 169.384V169.227C45.6377 168.862 45.5921 168.518 45.501 168.194C45.4144 167.866 45.2822 167.577 45.1045 167.326C44.9313 167.071 44.7126 166.87 44.4482 166.725C44.1885 166.579 43.8831 166.506 43.5322 166.506C43.1859 166.506 42.8805 166.579 42.6162 166.725C42.3564 166.87 42.1377 167.071 41.96 167.326C41.7868 167.577 41.6569 167.866 41.5703 168.194C41.4837 168.518 41.4404 168.862 41.4404 169.227ZM52.8564 171.735V167.928C52.8564 167.636 52.7972 167.383 52.6787 167.169C52.5648 166.95 52.3916 166.782 52.1592 166.663C51.9268 166.545 51.6396 166.485 51.2979 166.485C50.9788 166.485 50.6986 166.54 50.457 166.649C50.2201 166.759 50.0332 166.902 49.8965 167.08C49.7643 167.258 49.6982 167.449 49.6982 167.654H48.4336C48.4336 167.39 48.502 167.128 48.6387 166.868C48.7754 166.608 48.9714 166.374 49.2266 166.164C49.4863 165.95 49.7962 165.781 50.1562 165.658C50.5208 165.531 50.9264 165.467 51.373 165.467C51.9108 165.467 52.3848 165.558 52.7949 165.74C53.2096 165.923 53.5332 166.198 53.7656 166.567C54.0026 166.932 54.1211 167.39 54.1211 167.941V171.387C54.1211 171.633 54.1416 171.895 54.1826 172.173C54.2282 172.451 54.2943 172.69 54.3809 172.891V173H53.0615C52.9977 172.854 52.9476 172.66 52.9111 172.419C52.8747 172.173 52.8564 171.945 52.8564 171.735ZM53.0752 168.516L53.0889 169.404H51.8105C51.4505 169.404 51.1292 169.434 50.8467 169.493C50.5641 169.548 50.3271 169.632 50.1357 169.746C49.9443 169.86 49.7985 170.004 49.6982 170.177C49.598 170.345 49.5479 170.544 49.5479 170.771C49.5479 171.004 49.6003 171.216 49.7051 171.407C49.8099 171.599 49.9671 171.751 50.1768 171.865C50.391 171.975 50.653 172.029 50.9629 172.029C51.3503 172.029 51.6921 171.947 51.9883 171.783C52.2845 171.619 52.5192 171.419 52.6924 171.182C52.8701 170.945 52.9658 170.715 52.9795 170.491L53.5195 171.1C53.4876 171.291 53.401 171.503 53.2598 171.735C53.1185 171.968 52.9294 172.191 52.6924 172.405C52.46 172.615 52.182 172.79 51.8584 172.932C51.5394 173.068 51.1794 173.137 50.7783 173.137C50.277 173.137 49.8372 173.039 49.459 172.843C49.0853 172.647 48.7936 172.385 48.584 172.057C48.3789 171.724 48.2764 171.353 48.2764 170.942C48.2764 170.546 48.3538 170.197 48.5088 169.896C48.6637 169.591 48.887 169.338 49.1787 169.138C49.4704 168.933 49.8213 168.778 50.2314 168.673C50.6416 168.568 51.0996 168.516 51.6055 168.516H53.0752ZM60.7725 171.564V162.5H62.0439V173H60.8818L60.7725 171.564ZM55.7959 169.384V169.24C55.7959 168.675 55.8643 168.162 56.001 167.702C56.1423 167.237 56.3405 166.839 56.5957 166.506C56.8555 166.173 57.1631 165.918 57.5186 165.74C57.8786 165.558 58.2796 165.467 58.7217 165.467C59.1865 165.467 59.5921 165.549 59.9385 165.713C60.2894 165.872 60.5856 166.107 60.8271 166.417C61.0732 166.722 61.2669 167.091 61.4082 167.524C61.5495 167.957 61.6475 168.447 61.7021 168.994V169.623C61.652 170.165 61.554 170.653 61.4082 171.086C61.2669 171.519 61.0732 171.888 60.8271 172.193C60.5856 172.499 60.2894 172.733 59.9385 172.897C59.5876 173.057 59.1774 173.137 58.708 173.137C58.2751 173.137 57.8786 173.043 57.5186 172.856C57.1631 172.67 56.8555 172.408 56.5957 172.07C56.3405 171.733 56.1423 171.337 56.001 170.881C55.8643 170.421 55.7959 169.922 55.7959 169.384ZM57.0674 169.24V169.384C57.0674 169.753 57.1038 170.099 57.1768 170.423C57.2542 170.746 57.3727 171.031 57.5322 171.277C57.6917 171.523 57.8945 171.717 58.1406 171.858C58.3867 171.995 58.6807 172.063 59.0225 172.063C59.4417 172.063 59.7858 171.975 60.0547 171.797C60.3281 171.619 60.5469 171.384 60.7109 171.093C60.875 170.801 61.0026 170.484 61.0938 170.143V168.495C61.0391 168.244 60.9593 168.003 60.8545 167.771C60.7542 167.534 60.6221 167.324 60.458 167.142C60.2985 166.955 60.1003 166.807 59.8633 166.697C59.6309 166.588 59.3551 166.533 59.0361 166.533C58.6898 166.533 58.3913 166.606 58.1406 166.752C57.8945 166.893 57.6917 167.089 57.5322 167.34C57.3727 167.586 57.2542 167.873 57.1768 168.201C57.1038 168.525 57.0674 168.871 57.0674 169.24ZM68.0938 163.047H69.3721L72.6328 171.161L75.8867 163.047H77.1719L73.125 173H72.127L68.0938 163.047ZM67.6768 163.047H68.8047L68.9893 169.117V173H67.6768V163.047ZM76.4541 163.047H77.582V173H76.2695V169.117L76.4541 163.047ZM79.373 169.384V169.227C79.373 168.693 79.4505 168.199 79.6055 167.743C79.7604 167.283 79.9837 166.884 80.2754 166.547C80.5671 166.205 80.9202 165.941 81.335 165.754C81.7497 165.562 82.2145 165.467 82.7295 165.467C83.249 165.467 83.7161 165.562 84.1309 165.754C84.5501 165.941 84.9056 166.205 85.1973 166.547C85.4935 166.884 85.7191 167.283 85.874 167.743C86.029 168.199 86.1064 168.693 86.1064 169.227V169.384C86.1064 169.917 86.029 170.411 85.874 170.867C85.7191 171.323 85.4935 171.722 85.1973 172.063C84.9056 172.401 84.5524 172.665 84.1377 172.856C83.7275 173.043 83.2627 173.137 82.7432 173.137C82.2236 173.137 81.7565 173.043 81.3418 172.856C80.9271 172.665 80.5716 172.401 80.2754 172.063C79.9837 171.722 79.7604 171.323 79.6055 170.867C79.4505 170.411 79.373 169.917 79.373 169.384ZM80.6377 169.227V169.384C80.6377 169.753 80.681 170.102 80.7676 170.43C80.8542 170.753 80.984 171.04 81.1572 171.291C81.335 171.542 81.556 171.74 81.8203 171.886C82.0846 172.027 82.3923 172.098 82.7432 172.098C83.0895 172.098 83.3926 172.027 83.6523 171.886C83.9167 171.74 84.1354 171.542 84.3086 171.291C84.4818 171.04 84.6117 170.753 84.6982 170.43C84.7894 170.102 84.835 169.753 84.835 169.384V169.227C84.835 168.862 84.7894 168.518 84.6982 168.194C84.6117 167.866 84.4795 167.577 84.3018 167.326C84.1286 167.071 83.9098 166.87 83.6455 166.725C83.3857 166.579 83.0804 166.506 82.7295 166.506C82.3831 166.506 82.0778 166.579 81.8135 166.725C81.5537 166.87 81.335 167.071 81.1572 167.326C80.984 167.577 80.8542 167.866 80.7676 168.194C80.681 168.518 80.6377 168.862 80.6377 169.227ZM88.957 166.766V173H87.6924V165.604H88.9229L88.957 166.766ZM91.2676 165.562L91.2607 166.738C91.1559 166.715 91.0557 166.702 90.96 166.697C90.8688 166.688 90.764 166.684 90.6455 166.684C90.3538 166.684 90.0964 166.729 89.873 166.82C89.6497 166.911 89.4606 167.039 89.3057 167.203C89.1507 167.367 89.0277 167.563 88.9365 167.791C88.8499 168.014 88.793 168.26 88.7656 168.529L88.4102 168.734C88.4102 168.288 88.4535 167.868 88.54 167.477C88.6312 167.085 88.7702 166.738 88.957 166.438C89.1439 166.132 89.3809 165.895 89.668 165.727C89.9596 165.553 90.306 165.467 90.707 165.467C90.7982 165.467 90.903 165.478 91.0215 165.501C91.14 165.519 91.222 165.54 91.2676 165.562ZM95.3691 173.137C94.8542 173.137 94.387 173.05 93.9678 172.877C93.5531 172.699 93.1953 172.451 92.8945 172.132C92.5983 171.813 92.3704 171.435 92.2109 170.997C92.0514 170.56 91.9717 170.081 91.9717 169.562V169.274C91.9717 168.673 92.0605 168.137 92.2383 167.668C92.416 167.194 92.6576 166.793 92.9629 166.465C93.2682 166.137 93.6146 165.888 94.002 165.72C94.3893 165.551 94.7904 165.467 95.2051 165.467C95.7337 165.467 96.1895 165.558 96.5723 165.74C96.9596 165.923 97.2764 166.178 97.5225 166.506C97.7686 166.829 97.9508 167.212 98.0693 167.654C98.1878 168.092 98.2471 168.57 98.2471 169.09V169.657H92.7236V168.625H96.9824V168.529C96.9642 168.201 96.8958 167.882 96.7773 167.572C96.6634 167.262 96.4811 167.007 96.2305 166.807C95.9798 166.606 95.638 166.506 95.2051 166.506C94.918 166.506 94.6536 166.567 94.4121 166.69C94.1706 166.809 93.9632 166.987 93.79 167.224C93.6169 167.461 93.4824 167.75 93.3867 168.092C93.291 168.434 93.2432 168.828 93.2432 169.274V169.562C93.2432 169.912 93.291 170.243 93.3867 170.553C93.487 170.858 93.6305 171.127 93.8174 171.359C94.0088 171.592 94.2389 171.774 94.5078 171.906C94.7812 172.038 95.0911 172.104 95.4375 172.104C95.8841 172.104 96.2624 172.013 96.5723 171.831C96.8822 171.649 97.1533 171.405 97.3857 171.1L98.1514 171.708C97.9919 171.95 97.7891 172.18 97.543 172.398C97.2969 172.617 96.9938 172.795 96.6338 172.932C96.2783 173.068 95.8568 173.137 95.3691 173.137Z" fill="#00A2FD"/>
</svg>
