<svg width="111" height="108" viewBox="0 0 111 108" fill="none" xmlns="http://www.w3.org/2000/svg">
<rect width="110.819" height="108" fill="white"/>
<rect x="16" y="16" width="70" height="30" rx="15" fill="#202425"/>
<g clip-path="url(#clip0_0_1246)">
<rect x="24" y="16" width="62.8186" height="30" rx="15" fill="#202425"/>
<path d="M38.4102 27.0801V28H33.8926V27.0801H38.4102ZM34.1211 19.4688V28H32.9902V19.4688H34.1211ZM37.8125 23.1367V24.0566H33.8926V23.1367H37.8125ZM38.3516 19.4688V20.3945H33.8926V19.4688H38.3516ZM43.0801 19.4688V28H41.9668V19.4688H43.0801ZM45.8223 19.4688V20.3945H39.2305V19.4688H45.8223ZM52.6602 23.1367V24.0566H48.043V23.1367H52.6602ZM48.2188 19.4688V28H47.0879V19.4688H48.2188ZM53.6445 19.4688V28H52.5195V19.4688H53.6445Z" fill="white"/>
<rect x="65" y="24.0908" width="13.8186" height="13.8184" rx="6.90918" fill="#373B3B"/>
<path d="M72.6313 31.0005L73.6684 29.9633C73.8679 29.7644 73.8679 29.4407 73.6684 29.2418C73.4689 29.0411 73.1464 29.0417 72.9469 29.2412L71.9091 30.2783L70.8714 29.24C70.6719 29.0405 70.3487 29.0417 70.1492 29.24C69.9503 29.4395 69.9503 29.7633 70.1492 29.9622L71.1875 31.0005L70.1515 32.0359C69.952 32.2354 69.952 32.5592 70.1515 32.7575C70.2513 32.8578 70.3814 32.9074 70.512 32.9074C70.6433 32.9074 70.7734 32.8578 70.8731 32.7581L71.9091 31.7221L72.9474 32.7598C73.0472 32.8596 73.1773 32.9092 73.3079 32.9092C73.4386 32.9092 73.5693 32.859 73.669 32.7598C73.8685 32.5603 73.8685 32.2372 73.669 32.0377L72.6313 31.0005Z" fill="white"/>
</g>
<rect x="16" y="62" width="70" height="30" rx="15" fill="#202425"/>
<g clip-path="url(#clip1_0_1246)">
<rect x="24.0001" y="62" width="62.8184" height="30" rx="15" fill="#202425"/>
<path d="M38.4103 73.0801V74H33.8927V73.0801H38.4103ZM34.1212 65.4688V74H32.9904V65.4688H34.1212ZM37.8126 69.1367V70.0566H33.8927V69.1367H37.8126ZM38.3517 65.4688V66.3945H33.8927V65.4688H38.3517ZM43.0802 65.4688V74H41.9669V65.4688H43.0802ZM45.8224 65.4688V66.3945H39.2306V65.4688H45.8224ZM52.6603 69.1367V70.0566H48.0431V69.1367H52.6603ZM48.2189 65.4688V74H47.088V65.4688H48.2189ZM53.6447 65.4688V74H52.5197V65.4688H53.6447Z" fill="#00A2FD"/>
<rect x="78.8185" y="70.0907" width="13.8186" height="13.8184" rx="6.90918" transform="rotate(90 78.8185 70.0907)" fill="#373B3B"/>
<path d="M71.9088 77.7219L72.946 78.7591C73.1449 78.9586 73.4686 78.9586 73.6675 78.7591C73.8682 78.5596 73.8676 78.237 73.6681 78.0375L72.631 76.9998L73.6693 75.962C73.8688 75.7625 73.8676 75.4394 73.6693 75.2399C73.4698 75.0409 73.146 75.0409 72.9471 75.2399L71.9088 76.2782L70.8734 75.2422C70.6739 75.0427 70.3501 75.0427 70.1518 75.2422C70.0515 75.3419 70.0019 75.472 70.0019 75.6027C70.0019 75.7339 70.0515 75.864 70.1512 75.9638L71.1872 76.9998L70.1495 78.0381C70.0497 78.1379 70.0001 78.2679 70.0001 78.3986C70.0001 78.5293 70.0503 78.6599 70.1495 78.7597C70.349 78.9592 70.6721 78.9592 70.8716 78.7597L71.9088 77.7219Z" fill="#00A2FD"/>
</g>
<defs>
<clipPath id="clip0_0_1246">
<rect width="62.8186" height="30" fill="white" transform="translate(24 16)"/>
</clipPath>
<clipPath id="clip1_0_1246">
<rect width="62.8184" height="30" fill="white" transform="translate(24.0001 62)"/>
</clipPath>
</defs>
</svg>
