<svg width="651" height="68" viewBox="0 0 651 68" fill="none" xmlns="http://www.w3.org/2000/svg">
<path d="M0.368 27.664C0.368 23.312 1.37067 19.408 3.376 15.952C5.424 12.496 8.176 9.808 11.632 7.888C15.1307 5.92533 18.9493 4.944 23.088 4.944C27.824 4.944 32.0267 6.11733 35.696 8.464C39.408 10.768 42.096 14.0533 43.76 18.32H34.992C33.84 15.9733 32.24 14.224 30.192 13.072C28.144 11.92 25.776 11.344 23.088 11.344C20.144 11.344 17.52 12.0053 15.216 13.328C12.912 14.6507 11.0987 16.5493 9.776 19.024C8.496 21.4987 7.856 24.3787 7.856 27.664C7.856 30.9493 8.496 33.8293 9.776 36.304C11.0987 38.7787 12.912 40.6987 15.216 42.064C17.52 43.3867 20.144 44.048 23.088 44.048C25.776 44.048 28.144 43.472 30.192 42.32C32.24 41.168 33.84 39.4187 34.992 37.072H43.76C42.096 41.3387 39.408 44.624 35.696 46.928C32.0267 49.232 27.824 50.384 23.088 50.384C18.9067 50.384 15.088 49.424 11.632 47.504C8.176 45.5413 5.424 42.832 3.376 39.376C1.37067 35.92 0.368 32.016 0.368 27.664ZM67.596 50.576C64.268 50.576 61.26 49.8293 58.572 48.336C55.884 46.8 53.772 44.6667 52.236 41.936C50.7 39.1627 49.932 35.9627 49.932 32.336C49.932 28.752 50.7213 25.5733 52.3 22.8C53.8787 20.0267 56.0333 17.8933 58.764 16.4C61.4947 14.9067 64.5453 14.16 67.916 14.16C71.2867 14.16 74.3373 14.9067 77.068 16.4C79.7987 17.8933 81.9533 20.0267 83.532 22.8C85.1107 25.5733 85.9 28.752 85.9 32.336C85.9 35.92 85.0893 39.0987 83.468 41.872C81.8467 44.6453 79.628 46.8 76.812 48.336C74.0387 49.8293 70.9667 50.576 67.596 50.576ZM67.596 44.24C69.4733 44.24 71.2227 43.792 72.844 42.896C74.508 42 75.852 40.656 76.876 38.864C77.9 37.072 78.412 34.896 78.412 32.336C78.412 29.776 77.9213 27.6213 76.94 25.872C75.9587 24.08 74.6573 22.736 73.036 21.84C71.4147 20.944 69.6653 20.496 67.788 20.496C65.9107 20.496 64.1613 20.944 62.54 21.84C60.9613 22.736 59.7027 24.08 58.764 25.872C57.8253 27.6213 57.356 29.776 57.356 32.336C57.356 36.1333 58.316 39.0773 60.236 41.168C62.1987 43.216 64.652 44.24 67.596 44.24ZM135.801 14.16C138.574 14.16 141.049 14.736 143.225 15.888C145.443 17.04 147.171 18.7467 148.409 21.008C149.689 23.2693 150.329 26 150.329 29.2V50H143.097V30.288C143.097 27.1307 142.307 24.72 140.729 23.056C139.15 21.3493 136.995 20.496 134.265 20.496C131.534 20.496 129.358 21.3493 127.737 23.056C126.158 24.72 125.369 27.1307 125.369 30.288V50H118.137V30.288C118.137 27.1307 117.347 24.72 115.769 23.056C114.19 21.3493 112.035 20.496 109.305 20.496C106.574 20.496 104.398 21.3493 102.777 23.056C101.198 24.72 100.409 27.1307 100.409 30.288V50H93.1125V14.736H100.409V18.768C101.603 17.3173 103.118 16.1867 104.953 15.376C106.787 14.5653 108.75 14.16 110.841 14.16C113.657 14.16 116.174 14.7573 118.393 15.952C120.611 17.1467 122.318 18.8747 123.513 21.136C124.579 19.0027 126.243 17.3173 128.505 16.08C130.766 14.8 133.198 14.16 135.801 14.16ZM166.909 19.92C168.146 18.2987 169.831 16.9333 171.965 15.824C174.098 14.7147 176.509 14.16 179.197 14.16C182.269 14.16 185.063 14.928 187.581 16.464C190.141 17.9573 192.146 20.0693 193.597 22.8C195.047 25.5307 195.773 28.6667 195.773 32.208C195.773 35.7493 195.047 38.928 193.597 41.744C192.146 44.5173 190.141 46.6933 187.581 48.272C185.063 49.808 182.269 50.576 179.197 50.576C176.509 50.576 174.119 50.0427 172.029 48.976C169.938 47.8667 168.231 46.5013 166.909 44.88V66.768H159.613V14.736H166.909V19.92ZM188.349 32.208C188.349 29.776 187.837 27.6853 186.812 25.936C185.831 24.144 184.509 22.8 182.845 21.904C181.223 20.9653 179.474 20.496 177.597 20.496C175.762 20.496 174.013 20.9653 172.349 21.904C170.727 22.8427 169.405 24.208 168.381 26C167.399 27.792 166.909 29.904 166.909 32.336C166.909 34.768 167.399 36.9013 168.381 38.736C169.405 40.528 170.727 41.8933 172.349 42.832C174.013 43.7707 175.762 44.24 177.597 44.24C179.474 44.24 181.223 43.7707 182.845 42.832C184.509 41.8507 185.831 40.4427 186.812 38.608C187.837 36.7733 188.349 34.64 188.349 32.208ZM218.284 50.576C214.956 50.576 211.948 49.8293 209.26 48.336C206.572 46.8 204.46 44.6667 202.924 41.936C201.388 39.1627 200.62 35.9627 200.62 32.336C200.62 28.752 201.409 25.5733 202.988 22.8C204.566 20.0267 206.721 17.8933 209.452 16.4C212.182 14.9067 215.233 14.16 218.604 14.16C221.974 14.16 225.025 14.9067 227.756 16.4C230.486 17.8933 232.641 20.0267 234.22 22.8C235.798 25.5733 236.588 28.752 236.588 32.336C236.588 35.92 235.777 39.0987 234.156 41.872C232.534 44.6453 230.316 46.8 227.5 48.336C224.726 49.8293 221.654 50.576 218.284 50.576ZM218.284 44.24C220.161 44.24 221.91 43.792 223.532 42.896C225.196 42 226.54 40.656 227.564 38.864C228.588 37.072 229.1 34.896 229.1 32.336C229.1 29.776 228.609 27.6213 227.628 25.872C226.646 24.08 225.345 22.736 223.724 21.84C222.102 20.944 220.353 20.496 218.476 20.496C216.598 20.496 214.849 20.944 213.228 21.84C211.649 22.736 210.39 24.08 209.452 25.872C208.513 27.6213 208.044 29.776 208.044 32.336C208.044 36.1333 209.004 39.0773 210.924 41.168C212.886 43.216 215.34 44.24 218.284 44.24ZM261.592 14.16C264.365 14.16 266.84 14.736 269.016 15.888C271.235 17.04 272.963 18.7467 274.2 21.008C275.437 23.2693 276.056 26 276.056 29.2V50H268.824V30.288C268.824 27.1307 268.035 24.72 266.456 23.056C264.877 21.3493 262.723 20.496 259.992 20.496C257.261 20.496 255.085 21.3493 253.464 23.056C251.885 24.72 251.096 27.1307 251.096 30.288V50H243.8V14.736H251.096V18.768C252.291 17.3173 253.805 16.1867 255.64 15.376C257.517 14.5653 259.501 14.16 261.592 14.16ZM317.683 31.504C317.683 32.8267 317.597 34.0213 317.427 35.088H290.483C290.696 37.904 291.741 40.1653 293.619 41.872C295.496 43.5787 297.8 44.432 300.531 44.432C304.456 44.432 307.229 42.7893 308.851 39.504H316.722C315.656 42.7467 313.715 45.4133 310.899 47.504C308.125 49.552 304.669 50.576 300.531 50.576C297.16 50.576 294.131 49.8293 291.443 48.336C288.797 46.8 286.707 44.6667 285.171 41.936C283.677 39.1627 282.931 35.9627 282.931 32.336C282.931 28.7093 283.656 25.5307 285.107 22.8C286.6 20.0267 288.669 17.8933 291.315 16.4C294.003 14.9067 297.075 14.16 300.531 14.16C303.859 14.16 306.824 14.8853 309.427 16.336C312.029 17.7867 314.056 19.8347 315.507 22.48C316.957 25.0827 317.683 28.0907 317.683 31.504ZM310.067 29.2C310.024 26.512 309.064 24.3573 307.187 22.736C305.309 21.1147 302.984 20.304 300.211 20.304C297.693 20.304 295.539 21.1147 293.747 22.736C291.955 24.3147 290.888 26.4693 290.547 29.2H310.067ZM342.655 14.16C345.428 14.16 347.903 14.736 350.079 15.888C352.297 17.04 354.025 18.7467 355.263 21.008C356.5 23.2693 357.119 26 357.119 29.2V50H349.887V30.288C349.887 27.1307 349.097 24.72 347.519 23.056C345.94 21.3493 343.785 20.496 341.055 20.496C338.324 20.496 336.148 21.3493 334.527 23.056C332.948 24.72 332.159 27.1307 332.159 30.288V50H324.863V14.736H332.159V18.768C333.353 17.3173 334.868 16.1867 336.703 15.376C338.58 14.5653 340.564 14.16 342.655 14.16ZM374.937 20.688V40.208C374.937 41.5307 375.236 42.4907 375.833 43.088C376.473 43.6427 377.54 43.92 379.033 43.92H383.513V50H377.753C374.468 50 371.95 49.232 370.201 47.696C368.452 46.16 367.577 43.664 367.577 40.208V20.688H363.417V14.736H367.577V5.968H374.937V14.736H383.513V20.688H374.937ZM403.038 50.576C400.264 50.576 397.768 50.0853 395.55 49.104C393.374 48.08 391.646 46.7147 390.366 45.008C389.086 43.2587 388.403 41.3173 388.318 39.184H395.87C395.998 40.6773 396.702 41.936 397.982 42.96C399.304 43.9413 400.947 44.432 402.91 44.432C404.958 44.432 406.536 44.048 407.646 43.28C408.798 42.4693 409.374 41.4453 409.374 40.208C409.374 38.8853 408.734 37.904 407.454 37.264C406.216 36.624 404.232 35.92 401.502 35.152C398.856 34.4267 396.702 33.7227 395.038 33.04C393.374 32.3573 391.923 31.312 390.686 29.904C389.491 28.496 388.894 26.64 388.894 24.336C388.894 22.4587 389.448 20.752 390.558 19.216C391.667 17.6373 393.246 16.4 395.294 15.504C397.384 14.608 399.774 14.16 402.462 14.16C406.472 14.16 409.694 15.184 412.126 17.232C414.6 19.2373 415.923 21.9893 416.094 25.488H408.798C408.67 23.9093 408.03 22.6507 406.878 21.712C405.726 20.7733 404.168 20.304 402.206 20.304C400.286 20.304 398.814 20.6667 397.79 21.392C396.766 22.1173 396.254 23.0773 396.254 24.272C396.254 25.2107 396.595 26 397.278 26.64C397.96 27.28 398.792 27.792 399.774 28.176C400.755 28.5173 402.206 28.9653 404.126 29.52C406.686 30.2027 408.776 30.9067 410.398 31.632C412.062 32.3147 413.491 33.3387 414.686 34.704C415.88 36.0693 416.499 37.8827 416.542 40.144C416.542 42.1493 415.987 43.9413 414.878 45.52C413.768 47.0987 412.19 48.336 410.142 49.232C408.136 50.128 405.768 50.576 403.038 50.576ZM438.618 32.208C438.618 28.6667 439.343 25.5307 440.794 22.8C442.287 20.0693 444.293 17.9573 446.81 16.464C449.37 14.928 452.207 14.16 455.322 14.16C457.626 14.16 459.887 14.672 462.106 15.696C464.367 16.6773 466.159 18 467.482 19.664V2.64H474.842V50H467.482V44.688C466.287 46.3947 464.623 47.8027 462.49 48.912C460.399 50.0213 457.989 50.576 455.258 50.576C452.186 50.576 449.37 49.808 446.81 48.272C444.293 46.6933 442.287 44.5173 440.794 41.744C439.343 38.928 438.618 35.7493 438.618 32.208ZM467.482 32.336C467.482 29.904 466.97 27.792 465.946 26C464.965 24.208 463.663 22.8427 462.042 21.904C460.421 20.9653 458.671 20.496 456.794 20.496C454.917 20.496 453.167 20.9653 451.546 21.904C449.925 22.8 448.602 24.144 447.578 25.936C446.597 27.6853 446.106 29.776 446.106 32.208C446.106 34.64 446.597 36.7733 447.578 38.608C448.602 40.4427 449.925 41.8507 451.546 42.832C453.21 43.7707 454.959 44.24 456.794 44.24C458.671 44.24 460.421 43.7707 462.042 42.832C463.663 41.8933 464.965 40.528 465.946 38.736C466.97 36.9013 467.482 34.768 467.482 32.336ZM516.745 31.504C516.745 32.8267 516.66 34.0213 516.489 35.088H489.545C489.758 37.904 490.804 40.1653 492.681 41.872C494.558 43.5787 496.862 44.432 499.593 44.432C503.518 44.432 506.292 42.7893 507.913 39.504H515.785C514.718 42.7467 512.777 45.4133 509.961 47.504C507.188 49.552 503.732 50.576 499.593 50.576C496.222 50.576 493.193 49.8293 490.505 48.336C487.86 46.8 485.769 44.6667 484.233 41.936C482.74 39.1627 481.993 35.9627 481.993 32.336C481.993 28.7093 482.718 25.5307 484.169 22.8C485.662 20.0267 487.732 17.8933 490.377 16.4C493.065 14.9067 496.137 14.16 499.593 14.16C502.921 14.16 505.886 14.8853 508.489 16.336C511.092 17.7867 513.118 19.8347 514.569 22.48C516.02 25.0827 516.745 28.0907 516.745 31.504ZM509.129 29.2C509.086 26.512 508.126 24.3573 506.249 22.736C504.372 21.1147 502.046 20.304 499.273 20.304C496.756 20.304 494.601 21.1147 492.809 22.736C491.017 24.3147 489.95 26.4693 489.609 29.2H509.129ZM536.725 50.576C533.952 50.576 531.456 50.0853 529.237 49.104C527.061 48.08 525.333 46.7147 524.053 45.008C522.773 43.2587 522.09 41.3173 522.005 39.184H529.557C529.685 40.6773 530.389 41.936 531.669 42.96C532.992 43.9413 534.634 44.432 536.597 44.432C538.645 44.432 540.224 44.048 541.333 43.28C542.485 42.4693 543.061 41.4453 543.061 40.208C543.061 38.8853 542.421 37.904 541.141 37.264C539.904 36.624 537.92 35.92 535.189 35.152C532.544 34.4267 530.389 33.7227 528.725 33.04C527.061 32.3573 525.61 31.312 524.373 29.904C523.178 28.496 522.581 26.64 522.581 24.336C522.581 22.4587 523.136 20.752 524.245 19.216C525.354 17.6373 526.933 16.4 528.981 15.504C531.072 14.608 533.461 14.16 536.149 14.16C540.16 14.16 543.381 15.184 545.813 17.232C548.288 19.2373 549.61 21.9893 549.781 25.488H542.485C542.357 23.9093 541.717 22.6507 540.565 21.712C539.413 20.7733 537.856 20.304 535.893 20.304C533.973 20.304 532.501 20.6667 531.477 21.392C530.453 22.1173 529.941 23.0773 529.941 24.272C529.941 25.2107 530.282 26 530.965 26.64C531.648 27.28 532.48 27.792 533.461 28.176C534.442 28.5173 535.893 28.9653 537.813 29.52C540.373 30.2027 542.464 30.9067 544.085 31.632C545.749 32.3147 547.178 33.3387 548.373 34.704C549.568 36.0693 550.186 37.8827 550.229 40.144C550.229 42.1493 549.674 43.9413 548.565 45.52C547.456 47.0987 545.877 48.336 543.829 49.232C541.824 50.128 539.456 50.576 536.725 50.576ZM561.825 10.064C560.502 10.064 559.393 9.616 558.497 8.72C557.601 7.824 557.153 6.71467 557.153 5.392C557.153 4.06933 557.601 2.96 558.497 2.064C559.393 1.168 560.502 0.719997 561.825 0.719997C563.105 0.719997 564.193 1.168 565.089 2.064C565.985 2.96 566.433 4.06933 566.433 5.392C566.433 6.71467 565.985 7.824 565.089 8.72C564.193 9.616 563.105 10.064 561.825 10.064ZM565.409 14.736V50H558.113V14.736H565.409ZM589.196 14.16C591.926 14.16 594.337 14.7147 596.428 15.824C598.561 16.8907 600.225 18.2347 601.42 19.856V14.736H608.78V50.576C608.78 53.8187 608.097 56.6987 606.732 59.216C605.366 61.776 603.382 63.7813 600.78 65.232C598.22 66.6827 595.148 67.408 591.564 67.408C586.785 67.408 582.817 66.2773 579.66 64.016C576.502 61.7973 574.71 58.768 574.284 54.928H581.516C582.07 56.7627 583.244 58.2347 585.036 59.344C586.87 60.496 589.046 61.072 591.564 61.072C594.508 61.072 596.876 60.176 598.668 58.384C600.502 56.592 601.42 53.9893 601.42 50.576V44.688C600.182 46.352 598.497 47.76 596.364 48.912C594.273 50.0213 591.884 50.576 589.196 50.576C586.124 50.576 583.308 49.808 580.748 48.272C578.23 46.6933 576.225 44.5173 574.732 41.744C573.281 38.928 572.556 35.7493 572.556 32.208C572.556 28.6667 573.281 25.5307 574.732 22.8C576.225 20.0693 578.23 17.9573 580.748 16.464C583.308 14.928 586.124 14.16 589.196 14.16ZM601.42 32.336C601.42 29.904 600.908 27.792 599.884 26C598.902 24.208 597.601 22.8427 595.98 21.904C594.358 20.9653 592.609 20.496 590.732 20.496C588.854 20.496 587.105 20.9653 585.484 21.904C583.862 22.8 582.54 24.144 581.516 25.936C580.534 27.6853 580.044 29.776 580.044 32.208C580.044 34.64 580.534 36.7733 581.516 38.608C582.54 40.4427 583.862 41.8507 585.484 42.832C587.148 43.7707 588.897 44.24 590.732 44.24C592.609 44.24 594.358 43.7707 595.98 42.832C597.601 41.8933 598.902 40.528 599.884 38.736C600.908 36.9013 601.42 34.768 601.42 32.336ZM636.155 14.16C638.928 14.16 641.403 14.736 643.579 15.888C645.797 17.04 647.525 18.7467 648.763 21.008C650 23.2693 650.619 26 650.619 29.2V50H643.387V30.288C643.387 27.1307 642.597 24.72 641.019 23.056C639.44 21.3493 637.285 20.496 634.555 20.496C631.824 20.496 629.648 21.3493 628.027 23.056C626.448 24.72 625.659 27.1307 625.659 30.288V50H618.363V14.736H625.659V18.768C626.853 17.3173 628.368 16.1867 630.203 15.376C632.08 14.5653 634.064 14.16 636.155 14.16Z" fill="white"/>
</svg>
