<svg width="24" height="24" viewBox="0 0 24 24" fill="none" xmlns="http://www.w3.org/2000/svg">
<rect width="24" height="24" fill="white"/>
<path opacity="0.4" d="M11.9999 21.9999C6.47689 21.9999 1.99989 17.5229 1.99989 11.9999C1.99989 6.47791 6.47689 1.99991 11.9999 1.99991C17.5229 1.99991 21.9999 6.47791 21.9999 11.9999C21.9999 17.5229 17.5229 21.9999 11.9999 21.9999Z" fill="white"/>
<path d="M14.2398 13.8249C14.1798 14.0349 14.0098 14.2049 13.7998 14.2659L8.69979 15.8649C8.35979 15.9759 8.02979 15.6449 8.13979 15.3049L9.73979 10.1749C9.79979 9.9649 9.96979 9.8049 10.1798 9.7349L15.2998 8.1349C15.6498 8.0249 15.9698 8.3549 15.8598 8.7049L14.2398 13.8249Z" fill="white"/>
</svg>
