<svg width="4" height="4" viewBox="0 0 4 4" fill="none" xmlns="http://www.w3.org/2000/svg">
<path d="M2.63127 1.90969L3.66844 0.872521C3.86794 0.673605 3.86794 0.349855 3.66844 0.150938C3.46894 -0.0497289 3.14635 -0.0491455 2.94685 0.150355L1.9091 1.18752L0.871354 0.149188C0.671854 -0.0503122 0.348688 -0.0491455 0.149188 0.149188C-0.0497292 0.348688 -0.0497292 0.672438 0.149188 0.871355L1.18752 1.90969L0.151521 2.94511C-0.0479792 3.14461 -0.0479792 3.46836 0.151521 3.66669C0.251271 3.76702 0.381354 3.81661 0.512021 3.81661C0.643271 3.81661 0.773354 3.76702 0.873104 3.66727L1.9091 2.63127L2.94744 3.66902C3.04719 3.76877 3.17727 3.81836 3.30794 3.81836C3.4386 3.81836 3.56927 3.76819 3.66902 3.66902C3.86852 3.46952 3.86852 3.14636 3.66902 2.94686L2.63127 1.90969Z" fill="white"/>
</svg>
