<svg width="32" height="32" viewBox="0 0 32 32" fill="none" xmlns="http://www.w3.org/2000/svg">
<rect width="32" height="32" fill="white"/>
<path d="M9.77778 2.66666C5.23852 2.66666 2.66667 5.23851 2.66667 9.77777V22.2222C2.66667 26.7496 5.22667 29.3333 9.77778 29.3333H22.2222C26.7615 29.3333 29.3333 26.7496 29.3333 22.2222V9.77777C29.3333 5.23851 26.7615 2.66666 22.2222 2.66666H9.77778Z" fill="#003452"/>
<path d="M16.9994 16.9444V20.3426C16.9994 20.8898 16.5519 21.3333 16 21.3333C15.4481 21.3333 15.0006 20.8898 15.0006 20.3426V16.9444H11.5727C11.0579 16.8916 10.6667 16.4615 10.6667 15.9484C10.6667 15.4353 11.0579 15.0052 11.5727 14.9524H14.9899V11.5649C15.0432 11.0545 15.477 10.6667 15.9946 10.6667C16.5122 10.6667 16.946 11.0545 16.9994 11.5649V14.9524H20.4273C20.9421 15.0052 21.3333 15.4353 21.3333 15.9484C21.3333 16.4615 20.9421 16.8916 20.4273 16.9444H16.9994Z" fill="#00A2FD"/>
</svg>
