<svg width="345" height="395" viewBox="0 0 345 395" fill="none" xmlns="http://www.w3.org/2000/svg">
<g clip-path="url(#clip0_0_1039)">
<rect width="279" height="379" rx="18" fill="#030A1D"/>
<g filter="url(#filter0_f_0_1039)">
<rect x="75" y="82" width="127" height="157" rx="32" fill="black" fill-opacity="0.01"/>
</g>
<g clip-path="url(#clip1_0_1039)">
<path d="M31.1406 271.287H32.2656C32.207 271.826 32.0527 272.309 31.8027 272.734C31.5527 273.16 31.1992 273.498 30.7422 273.748C30.2852 273.994 29.7148 274.117 29.0312 274.117C28.5312 274.117 28.0762 274.023 27.666 273.836C27.2598 273.648 26.9102 273.383 26.6172 273.039C26.3242 272.691 26.0977 272.275 25.9375 271.791C25.7812 271.303 25.7031 270.76 25.7031 270.162V269.312C25.7031 268.715 25.7812 268.174 25.9375 267.689C26.0977 267.201 26.3262 266.783 26.623 266.436C26.9238 266.088 27.2852 265.82 27.707 265.633C28.1289 265.445 28.6035 265.352 29.1309 265.352C29.7754 265.352 30.3203 265.473 30.7656 265.715C31.2109 265.957 31.5566 266.293 31.8027 266.723C32.0527 267.148 32.207 267.643 32.2656 268.205H31.1406C31.0859 267.807 30.9844 267.465 30.8359 267.18C30.6875 266.891 30.4766 266.668 30.2031 266.512C29.9297 266.355 29.5723 266.277 29.1309 266.277C28.752 266.277 28.418 266.35 28.1289 266.494C27.8438 266.639 27.6035 266.844 27.4082 267.109C27.2168 267.375 27.0723 267.693 26.9746 268.064C26.877 268.436 26.8281 268.848 26.8281 269.301V270.162C26.8281 270.58 26.8711 270.973 26.957 271.34C27.0469 271.707 27.1816 272.029 27.3613 272.307C27.541 272.584 27.7695 272.803 28.0469 272.963C28.3242 273.119 28.6523 273.197 29.0312 273.197C29.5117 273.197 29.8945 273.121 30.1797 272.969C30.4648 272.816 30.6797 272.598 30.8242 272.312C30.9727 272.027 31.0781 271.686 31.1406 271.287ZM34.7266 268.656V274H33.6426V267.66H34.6973L34.7266 268.656ZM36.707 267.625L36.7012 268.633C36.6113 268.613 36.5254 268.602 36.4434 268.598C36.3652 268.59 36.2754 268.586 36.1738 268.586C35.9238 268.586 35.7031 268.625 35.5117 268.703C35.3203 268.781 35.1582 268.891 35.0254 269.031C34.8926 269.172 34.7871 269.34 34.709 269.535C34.6348 269.727 34.5859 269.938 34.5625 270.168L34.2578 270.344C34.2578 269.961 34.2949 269.602 34.3691 269.266C34.4473 268.93 34.5664 268.633 34.7266 268.375C34.8867 268.113 35.0898 267.91 35.3359 267.766C35.5859 267.617 35.8828 267.543 36.2266 267.543C36.3047 267.543 36.3945 267.553 36.4961 267.572C36.5977 267.588 36.668 267.605 36.707 267.625ZM39.5957 273.344L41.3594 267.66H42.5195L39.9766 274.979C39.918 275.135 39.8398 275.303 39.7422 275.482C39.6484 275.666 39.5273 275.84 39.3789 276.004C39.2305 276.168 39.0508 276.301 38.8398 276.402C38.6328 276.508 38.3848 276.561 38.0957 276.561C38.0098 276.561 37.9004 276.549 37.7676 276.525C37.6348 276.502 37.541 276.482 37.4863 276.467L37.4805 275.588C37.5117 275.592 37.5605 275.596 37.627 275.6C37.6973 275.607 37.7461 275.611 37.7734 275.611C38.0195 275.611 38.2285 275.578 38.4004 275.512C38.5723 275.449 38.7168 275.342 38.834 275.189C38.9551 275.041 39.0586 274.836 39.1445 274.574L39.5957 273.344ZM38.3008 267.66L39.9473 272.582L40.2285 273.725L39.4492 274.123L37.1172 267.66H38.3008ZM44.582 268.879V276.438H43.4922V267.66H44.4883L44.582 268.879ZM48.8535 270.777V270.9C48.8535 271.361 48.7988 271.789 48.6895 272.184C48.5801 272.574 48.4199 272.914 48.209 273.203C48.002 273.492 47.7461 273.717 47.4414 273.877C47.1367 274.037 46.7871 274.117 46.3926 274.117C45.9902 274.117 45.6348 274.051 45.3262 273.918C45.0176 273.785 44.7559 273.592 44.541 273.338C44.3262 273.084 44.1543 272.779 44.0254 272.424C43.9004 272.068 43.8145 271.668 43.7676 271.223V270.566C43.8145 270.098 43.9023 269.678 44.0312 269.307C44.1602 268.936 44.3301 268.619 44.541 268.357C44.7559 268.092 45.0156 267.891 45.3203 267.754C45.625 267.613 45.9766 267.543 46.375 267.543C46.7734 267.543 47.127 267.621 47.4355 267.777C47.7441 267.93 48.0039 268.148 48.2148 268.434C48.4258 268.719 48.584 269.061 48.6895 269.459C48.7988 269.854 48.8535 270.293 48.8535 270.777ZM47.7637 270.9V270.777C47.7637 270.461 47.7305 270.164 47.6641 269.887C47.5977 269.605 47.4941 269.359 47.3535 269.148C47.2168 268.934 47.041 268.766 46.8262 268.645C46.6113 268.52 46.3555 268.457 46.0586 268.457C45.7852 268.457 45.5469 268.504 45.3438 268.598C45.1445 268.691 44.9746 268.818 44.834 268.979C44.6934 269.135 44.5781 269.314 44.4883 269.518C44.4023 269.717 44.3379 269.924 44.2949 270.139V271.656C44.373 271.93 44.4824 272.188 44.623 272.43C44.7637 272.668 44.9512 272.861 45.1855 273.01C45.4199 273.154 45.7148 273.227 46.0703 273.227C46.3633 273.227 46.6152 273.166 46.8262 273.045C47.041 272.92 47.2168 272.75 47.3535 272.535C47.4941 272.32 47.5977 272.074 47.6641 271.797C47.7305 271.516 47.7637 271.217 47.7637 270.9ZM52.8906 267.66V268.492H49.4629V267.66H52.8906ZM50.623 266.119H51.707V272.43C51.707 272.645 51.7402 272.807 51.8066 272.916C51.873 273.025 51.959 273.098 52.0645 273.133C52.1699 273.168 52.2832 273.186 52.4043 273.186C52.4941 273.186 52.5879 273.178 52.6855 273.162C52.7871 273.143 52.8633 273.127 52.9141 273.115L52.9199 274C52.834 274.027 52.7207 274.053 52.5801 274.076C52.4434 274.104 52.2773 274.117 52.082 274.117C51.8164 274.117 51.5723 274.064 51.3496 273.959C51.127 273.854 50.9492 273.678 50.8164 273.432C50.6875 273.182 50.623 272.846 50.623 272.424V266.119ZM53.7578 270.9V270.766C53.7578 270.309 53.8242 269.885 53.957 269.494C54.0898 269.1 54.2812 268.758 54.5312 268.469C54.7812 268.176 55.084 267.949 55.4395 267.789C55.7949 267.625 56.1934 267.543 56.6348 267.543C57.0801 267.543 57.4805 267.625 57.8359 267.789C58.1953 267.949 58.5 268.176 58.75 268.469C59.0039 268.758 59.1973 269.1 59.3301 269.494C59.4629 269.885 59.5293 270.309 59.5293 270.766V270.9C59.5293 271.357 59.4629 271.781 59.3301 272.172C59.1973 272.562 59.0039 272.904 58.75 273.197C58.5 273.486 58.1973 273.713 57.8418 273.877C57.4902 274.037 57.0918 274.117 56.6465 274.117C56.2012 274.117 55.8008 274.037 55.4453 273.877C55.0898 273.713 54.7852 273.486 54.5312 273.197C54.2812 272.904 54.0898 272.562 53.957 272.172C53.8242 271.781 53.7578 271.357 53.7578 270.9ZM54.8418 270.766V270.9C54.8418 271.217 54.8789 271.516 54.9531 271.797C55.0273 272.074 55.1387 272.32 55.2871 272.535C55.4395 272.75 55.6289 272.92 55.8555 273.045C56.082 273.166 56.3457 273.227 56.6465 273.227C56.9434 273.227 57.2031 273.166 57.4258 273.045C57.6523 272.92 57.8398 272.75 57.9883 272.535C58.1367 272.32 58.248 272.074 58.3223 271.797C58.4004 271.516 58.4395 271.217 58.4395 270.9V270.766C58.4395 270.453 58.4004 270.158 58.3223 269.881C58.248 269.6 58.1348 269.352 57.9824 269.137C57.834 268.918 57.6465 268.746 57.4199 268.621C57.1973 268.496 56.9355 268.434 56.6348 268.434C56.3379 268.434 56.0762 268.496 55.8496 268.621C55.627 268.746 55.4395 268.918 55.2871 269.137C55.1387 269.352 55.0273 269.6 54.9531 269.881C54.8789 270.158 54.8418 270.453 54.8418 270.766ZM69.6016 269.137V270.057H64.9844V269.137H69.6016ZM65.1602 265.469V274H64.0293V265.469H65.1602ZM70.5859 265.469V274H69.4609V265.469H70.5859ZM75.0625 274.117C74.6211 274.117 74.2207 274.043 73.8613 273.895C73.5059 273.742 73.1992 273.529 72.9414 273.256C72.6875 272.982 72.4922 272.658 72.3555 272.283C72.2188 271.908 72.1504 271.498 72.1504 271.053V270.807C72.1504 270.291 72.2266 269.832 72.3789 269.43C72.5312 269.023 72.7383 268.68 73 268.398C73.2617 268.117 73.5586 267.904 73.8906 267.76C74.2227 267.615 74.5664 267.543 74.9219 267.543C75.375 267.543 75.7656 267.621 76.0938 267.777C76.4258 267.934 76.6973 268.152 76.9082 268.434C77.1191 268.711 77.2754 269.039 77.377 269.418C77.4785 269.793 77.5293 270.203 77.5293 270.648V271.135H72.7949V270.25H76.4453V270.168C76.4297 269.887 76.3711 269.613 76.2695 269.348C76.1719 269.082 76.0156 268.863 75.8008 268.691C75.5859 268.52 75.293 268.434 74.9219 268.434C74.6758 268.434 74.4492 268.486 74.2422 268.592C74.0352 268.693 73.8574 268.846 73.709 269.049C73.5605 269.252 73.4453 269.5 73.3633 269.793C73.2812 270.086 73.2402 270.424 73.2402 270.807V271.053C73.2402 271.354 73.2812 271.637 73.3633 271.902C73.4492 272.164 73.5723 272.395 73.7324 272.594C73.8965 272.793 74.0938 272.949 74.3242 273.062C74.5586 273.176 74.8242 273.232 75.1211 273.232C75.5039 273.232 75.8281 273.154 76.0938 272.998C76.3594 272.842 76.5918 272.633 76.791 272.371L77.4473 272.893C77.3105 273.1 77.1367 273.297 76.9258 273.484C76.7148 273.672 76.4551 273.824 76.1465 273.941C75.8418 274.059 75.4805 274.117 75.0625 274.117ZM79.8789 268.656V274H78.7949V267.66H79.8496L79.8789 268.656ZM81.8594 267.625L81.8535 268.633C81.7637 268.613 81.6777 268.602 81.5957 268.598C81.5176 268.59 81.4277 268.586 81.3262 268.586C81.0762 268.586 80.8555 268.625 80.6641 268.703C80.4727 268.781 80.3105 268.891 80.1777 269.031C80.0449 269.172 79.9395 269.34 79.8613 269.535C79.7871 269.727 79.7383 269.938 79.7148 270.168L79.4102 270.344C79.4102 269.961 79.4473 269.602 79.5215 269.266C79.5996 268.93 79.7188 268.633 79.8789 268.375C80.0391 268.113 80.2422 267.91 80.4883 267.766C80.7383 267.617 81.0352 267.543 81.3789 267.543C81.457 267.543 81.5469 267.553 81.6484 267.572C81.75 267.588 81.8203 267.605 81.8594 267.625ZM82.457 270.9V270.766C82.457 270.309 82.5234 269.885 82.6562 269.494C82.7891 269.1 82.9805 268.758 83.2305 268.469C83.4805 268.176 83.7832 267.949 84.1387 267.789C84.4941 267.625 84.8926 267.543 85.334 267.543C85.7793 267.543 86.1797 267.625 86.5352 267.789C86.8945 267.949 87.1992 268.176 87.4492 268.469C87.7031 268.758 87.8965 269.1 88.0293 269.494C88.1621 269.885 88.2285 270.309 88.2285 270.766V270.9C88.2285 271.357 88.1621 271.781 88.0293 272.172C87.8965 272.562 87.7031 272.904 87.4492 273.197C87.1992 273.486 86.8965 273.713 86.541 273.877C86.1895 274.037 85.791 274.117 85.3457 274.117C84.9004 274.117 84.5 274.037 84.1445 273.877C83.7891 273.713 83.4844 273.486 83.2305 273.197C82.9805 272.904 82.7891 272.562 82.6562 272.172C82.5234 271.781 82.457 271.357 82.457 270.9ZM83.541 270.766V270.9C83.541 271.217 83.5781 271.516 83.6523 271.797C83.7266 272.074 83.8379 272.32 83.9863 272.535C84.1387 272.75 84.3281 272.92 84.5547 273.045C84.7812 273.166 85.0449 273.227 85.3457 273.227C85.6426 273.227 85.9023 273.166 86.125 273.045C86.3516 272.92 86.5391 272.75 86.6875 272.535C86.8359 272.32 86.9473 272.074 87.0215 271.797C87.0996 271.516 87.1387 271.217 87.1387 270.9V270.766C87.1387 270.453 87.0996 270.158 87.0215 269.881C86.9473 269.6 86.834 269.352 86.6816 269.137C86.5332 268.918 86.3457 268.746 86.1191 268.621C85.8965 268.496 85.6348 268.434 85.334 268.434C85.0371 268.434 84.7754 268.496 84.5488 268.621C84.3262 268.746 84.1387 268.918 83.9863 269.137C83.8379 269.352 83.7266 269.6 83.6523 269.881C83.5781 270.158 83.541 270.453 83.541 270.766ZM93.0859 265.469H94.1816L96.9766 272.424L99.7656 265.469H100.867L97.3984 274H96.543L93.0859 265.469ZM92.7285 265.469H93.6953L93.8535 270.672V274H92.7285V265.469ZM100.252 265.469H101.219V274H100.094V270.672L100.252 265.469ZM106.779 272.916V269.652C106.779 269.402 106.729 269.186 106.627 269.002C106.529 268.814 106.381 268.67 106.182 268.568C105.982 268.467 105.736 268.416 105.443 268.416C105.17 268.416 104.93 268.463 104.723 268.557C104.52 268.65 104.359 268.773 104.242 268.926C104.129 269.078 104.072 269.242 104.072 269.418H102.988C102.988 269.191 103.047 268.967 103.164 268.744C103.281 268.521 103.449 268.32 103.668 268.141C103.891 267.957 104.156 267.812 104.465 267.707C104.777 267.598 105.125 267.543 105.508 267.543C105.969 267.543 106.375 267.621 106.727 267.777C107.082 267.934 107.359 268.17 107.559 268.486C107.762 268.799 107.863 269.191 107.863 269.664V272.617C107.863 272.828 107.881 273.053 107.916 273.291C107.955 273.529 108.012 273.734 108.086 273.906V274H106.955C106.9 273.875 106.857 273.709 106.826 273.502C106.795 273.291 106.779 273.096 106.779 272.916ZM106.967 270.156L106.979 270.918H105.883C105.574 270.918 105.299 270.943 105.057 270.994C104.814 271.041 104.611 271.113 104.447 271.211C104.283 271.309 104.158 271.432 104.072 271.58C103.986 271.725 103.943 271.895 103.943 272.09C103.943 272.289 103.988 272.471 104.078 272.635C104.168 272.799 104.303 272.93 104.482 273.027C104.666 273.121 104.891 273.168 105.156 273.168C105.488 273.168 105.781 273.098 106.035 272.957C106.289 272.816 106.49 272.645 106.639 272.441C106.791 272.238 106.873 272.041 106.885 271.85L107.348 272.371C107.32 272.535 107.246 272.717 107.125 272.916C107.004 273.115 106.842 273.307 106.639 273.49C106.439 273.67 106.201 273.82 105.924 273.941C105.65 274.059 105.342 274.117 104.998 274.117C104.568 274.117 104.191 274.033 103.867 273.865C103.547 273.697 103.297 273.473 103.117 273.191C102.941 272.906 102.854 272.588 102.854 272.236C102.854 271.896 102.92 271.598 103.053 271.34C103.186 271.078 103.377 270.861 103.627 270.689C103.877 270.514 104.178 270.381 104.529 270.291C104.881 270.201 105.273 270.156 105.707 270.156H106.967ZM110.652 268.656V274H109.568V267.66H110.623L110.652 268.656ZM112.633 267.625L112.627 268.633C112.537 268.613 112.451 268.602 112.369 268.598C112.291 268.59 112.201 268.586 112.1 268.586C111.85 268.586 111.629 268.625 111.438 268.703C111.246 268.781 111.084 268.891 110.951 269.031C110.818 269.172 110.713 269.34 110.635 269.535C110.561 269.727 110.512 269.938 110.488 270.168L110.184 270.344C110.184 269.961 110.221 269.602 110.295 269.266C110.373 268.93 110.492 268.633 110.652 268.375C110.812 268.113 111.016 267.91 111.262 267.766C111.512 267.617 111.809 267.543 112.152 267.543C112.23 267.543 112.32 267.553 112.422 267.572C112.523 267.588 112.594 267.605 112.633 267.625ZM116.055 273.227C116.312 273.227 116.551 273.174 116.77 273.068C116.988 272.963 117.168 272.818 117.309 272.635C117.449 272.447 117.529 272.234 117.549 271.996H118.58C118.561 272.371 118.434 272.721 118.199 273.045C117.969 273.365 117.666 273.625 117.291 273.824C116.916 274.02 116.504 274.117 116.055 274.117C115.578 274.117 115.162 274.033 114.807 273.865C114.455 273.697 114.162 273.467 113.928 273.174C113.697 272.881 113.523 272.545 113.406 272.166C113.293 271.783 113.236 271.379 113.236 270.953V270.707C113.236 270.281 113.293 269.879 113.406 269.5C113.523 269.117 113.697 268.779 113.928 268.486C114.162 268.193 114.455 267.963 114.807 267.795C115.162 267.627 115.578 267.543 116.055 267.543C116.551 267.543 116.984 267.645 117.355 267.848C117.727 268.047 118.018 268.32 118.229 268.668C118.443 269.012 118.561 269.402 118.58 269.84H117.549C117.529 269.578 117.455 269.342 117.326 269.131C117.201 268.92 117.029 268.752 116.811 268.627C116.596 268.498 116.344 268.434 116.055 268.434C115.723 268.434 115.443 268.5 115.217 268.633C114.994 268.762 114.816 268.938 114.684 269.16C114.555 269.379 114.461 269.623 114.402 269.893C114.348 270.158 114.32 270.43 114.32 270.707V270.953C114.32 271.23 114.348 271.504 114.402 271.773C114.457 272.043 114.549 272.287 114.678 272.506C114.811 272.725 114.988 272.9 115.211 273.033C115.438 273.162 115.719 273.227 116.055 273.227ZM122.43 274.117C121.988 274.117 121.588 274.043 121.229 273.895C120.873 273.742 120.566 273.529 120.309 273.256C120.055 272.982 119.859 272.658 119.723 272.283C119.586 271.908 119.518 271.498 119.518 271.053V270.807C119.518 270.291 119.594 269.832 119.746 269.43C119.898 269.023 120.105 268.68 120.367 268.398C120.629 268.117 120.926 267.904 121.258 267.76C121.59 267.615 121.934 267.543 122.289 267.543C122.742 267.543 123.133 267.621 123.461 267.777C123.793 267.934 124.064 268.152 124.275 268.434C124.486 268.711 124.643 269.039 124.744 269.418C124.846 269.793 124.896 270.203 124.896 270.648V271.135H120.162V270.25H123.812V270.168C123.797 269.887 123.738 269.613 123.637 269.348C123.539 269.082 123.383 268.863 123.168 268.691C122.953 268.52 122.66 268.434 122.289 268.434C122.043 268.434 121.816 268.486 121.609 268.592C121.402 268.693 121.225 268.846 121.076 269.049C120.928 269.252 120.812 269.5 120.73 269.793C120.648 270.086 120.607 270.424 120.607 270.807V271.053C120.607 271.354 120.648 271.637 120.73 271.902C120.816 272.164 120.939 272.395 121.1 272.594C121.264 272.793 121.461 272.949 121.691 273.062C121.926 273.176 122.191 273.232 122.488 273.232C122.871 273.232 123.195 273.154 123.461 272.998C123.727 272.842 123.959 272.633 124.158 272.371L124.814 272.893C124.678 273.1 124.504 273.297 124.293 273.484C124.082 273.672 123.822 273.824 123.514 273.941C123.209 274.059 122.848 274.117 122.43 274.117Z" fill="#00A2FD"/>
<path d="M32.875 295.297H34.8281C34.7656 296.042 34.5573 296.706 34.2031 297.289C33.849 297.867 33.3516 298.323 32.7109 298.656C32.0703 298.99 31.2917 299.156 30.375 299.156C29.6719 299.156 29.0391 299.031 28.4766 298.781C27.9141 298.526 27.4323 298.167 27.0312 297.703C26.6302 297.234 26.3229 296.669 26.1094 296.008C25.901 295.346 25.7969 294.607 25.7969 293.789V292.844C25.7969 292.026 25.9036 291.286 26.1172 290.625C26.3359 289.964 26.6484 289.398 27.0547 288.93C27.4609 288.456 27.9479 288.094 28.5156 287.844C29.0885 287.594 29.7318 287.469 30.4453 287.469C31.3516 287.469 32.1172 287.635 32.7422 287.969C33.3672 288.302 33.8516 288.763 34.1953 289.352C34.5443 289.94 34.7578 290.615 34.8359 291.375H32.8828C32.8307 290.885 32.7161 290.466 32.5391 290.117C32.3672 289.768 32.112 289.503 31.7734 289.32C31.4349 289.133 30.9922 289.039 30.4453 289.039C29.9974 289.039 29.6068 289.122 29.2734 289.289C28.9401 289.456 28.6615 289.701 28.4375 290.023C28.2135 290.346 28.0443 290.745 27.9297 291.219C27.8203 291.688 27.7656 292.224 27.7656 292.828V293.789C27.7656 294.362 27.8151 294.883 27.9141 295.352C28.0182 295.815 28.1745 296.214 28.3828 296.547C28.5964 296.88 28.8672 297.138 29.1953 297.32C29.5234 297.503 29.9167 297.594 30.375 297.594C30.9323 297.594 31.3828 297.505 31.7266 297.328C32.0755 297.151 32.3385 296.893 32.5156 296.555C32.6979 296.211 32.8177 295.792 32.875 295.297ZM38.3125 292.156V299H36.4297V290.547H38.2266L38.3125 292.156ZM40.8984 290.492L40.8828 292.242C40.7682 292.221 40.6432 292.206 40.5078 292.195C40.3776 292.185 40.2474 292.18 40.1172 292.18C39.7943 292.18 39.5104 292.227 39.2656 292.32C39.0208 292.409 38.8151 292.539 38.6484 292.711C38.487 292.878 38.362 293.081 38.2734 293.32C38.1849 293.56 38.1328 293.828 38.1172 294.125L37.6875 294.156C37.6875 293.625 37.7396 293.133 37.8438 292.68C37.9479 292.227 38.1042 291.828 38.3125 291.484C38.526 291.141 38.7917 290.872 39.1094 290.68C39.4323 290.487 39.8047 290.391 40.2266 290.391C40.3411 290.391 40.4635 290.401 40.5938 290.422C40.7292 290.443 40.8307 290.466 40.8984 290.492ZM44.6719 298.078L46.9688 290.547H48.9844L45.5938 300.289C45.5156 300.497 45.4141 300.724 45.2891 300.969C45.1641 301.214 45 301.445 44.7969 301.664C44.599 301.888 44.3516 302.068 44.0547 302.203C43.7578 302.344 43.3984 302.414 42.9766 302.414C42.8099 302.414 42.6484 302.398 42.4922 302.367C42.3411 302.341 42.1979 302.312 42.0625 302.281L42.0547 300.844C42.1068 300.849 42.1693 300.854 42.2422 300.859C42.3203 300.865 42.3828 300.867 42.4297 300.867C42.7422 300.867 43.0026 300.828 43.2109 300.75C43.4193 300.677 43.5885 300.557 43.7188 300.391C43.8542 300.224 43.9688 300 44.0625 299.719L44.6719 298.078ZM43.375 290.547L45.3828 296.875L45.7188 298.859L44.4141 299.195L41.3438 290.547H43.375ZM51.9531 292.172V302.25H50.0703V290.547H51.8047L51.9531 292.172ZM57.4609 294.695V294.859C57.4609 295.474 57.388 296.044 57.2422 296.57C57.1016 297.091 56.8906 297.547 56.6094 297.938C56.3333 298.323 55.9922 298.622 55.5859 298.836C55.1797 299.049 54.7109 299.156 54.1797 299.156C53.6536 299.156 53.1927 299.06 52.7969 298.867C52.4062 298.669 52.0755 298.391 51.8047 298.031C51.5339 297.672 51.3151 297.25 51.1484 296.766C50.987 296.276 50.8724 295.74 50.8047 295.156V294.523C50.8724 293.904 50.987 293.341 51.1484 292.836C51.3151 292.331 51.5339 291.896 51.8047 291.531C52.0755 291.167 52.4062 290.885 52.7969 290.688C53.1875 290.49 53.6432 290.391 54.1641 290.391C54.6953 290.391 55.1667 290.495 55.5781 290.703C55.9896 290.906 56.3359 291.198 56.6172 291.578C56.8984 291.953 57.1094 292.406 57.25 292.938C57.3906 293.464 57.4609 294.049 57.4609 294.695ZM55.5781 294.859V294.695C55.5781 294.305 55.5417 293.943 55.4688 293.609C55.3958 293.271 55.2812 292.974 55.125 292.719C54.9688 292.464 54.7682 292.266 54.5234 292.125C54.2839 291.979 53.9948 291.906 53.6562 291.906C53.3229 291.906 53.0365 291.964 52.7969 292.078C52.5573 292.188 52.3568 292.341 52.1953 292.539C52.0339 292.737 51.9089 292.969 51.8203 293.234C51.7318 293.495 51.6693 293.779 51.6328 294.086V295.602C51.6953 295.977 51.8021 296.32 51.9531 296.633C52.1042 296.945 52.3177 297.195 52.5938 297.383C52.875 297.565 53.2344 297.656 53.6719 297.656C54.0104 297.656 54.2995 297.583 54.5391 297.438C54.7786 297.292 54.974 297.091 55.125 296.836C55.2812 296.576 55.3958 296.276 55.4688 295.938C55.5417 295.599 55.5781 295.24 55.5781 294.859ZM62.9375 290.547V291.922H58.1719V290.547H62.9375ZM59.5469 288.477H61.4297V296.664C61.4297 296.924 61.4661 297.125 61.5391 297.266C61.6172 297.401 61.724 297.492 61.8594 297.539C61.9948 297.586 62.1536 297.609 62.3359 297.609C62.4661 297.609 62.5911 297.602 62.7109 297.586C62.8307 297.57 62.9271 297.555 63 297.539L63.0078 298.977C62.8516 299.023 62.6693 299.065 62.4609 299.102C62.2578 299.138 62.0234 299.156 61.7578 299.156C61.3255 299.156 60.9427 299.081 60.6094 298.93C60.276 298.773 60.0156 298.521 59.8281 298.172C59.6406 297.823 59.5469 297.359 59.5469 296.781V288.477ZM63.8438 294.867V294.688C63.8438 294.078 63.9323 293.513 64.1094 292.992C64.2865 292.466 64.5417 292.01 64.875 291.625C65.2135 291.234 65.625 290.932 66.1094 290.719C66.599 290.5 67.151 290.391 67.7656 290.391C68.3854 290.391 68.9375 290.5 69.4219 290.719C69.9115 290.932 70.3255 291.234 70.6641 291.625C71.0026 292.01 71.2604 292.466 71.4375 292.992C71.6146 293.513 71.7031 294.078 71.7031 294.688V294.867C71.7031 295.477 71.6146 296.042 71.4375 296.562C71.2604 297.083 71.0026 297.539 70.6641 297.93C70.3255 298.315 69.9141 298.617 69.4297 298.836C68.9453 299.049 68.3958 299.156 67.7812 299.156C67.1615 299.156 66.6068 299.049 66.1172 298.836C65.6328 298.617 65.2214 298.315 64.8828 297.93C64.5443 297.539 64.2865 297.083 64.1094 296.562C63.9323 296.042 63.8438 295.477 63.8438 294.867ZM65.7266 294.688V294.867C65.7266 295.247 65.7656 295.607 65.8438 295.945C65.9219 296.284 66.0443 296.581 66.2109 296.836C66.3776 297.091 66.5911 297.292 66.8516 297.438C67.112 297.583 67.4219 297.656 67.7812 297.656C68.1302 297.656 68.4323 297.583 68.6875 297.438C68.9479 297.292 69.1615 297.091 69.3281 296.836C69.4948 296.581 69.6172 296.284 69.6953 295.945C69.7786 295.607 69.8203 295.247 69.8203 294.867V294.688C69.8203 294.312 69.7786 293.958 69.6953 293.625C69.6172 293.286 69.4922 292.987 69.3203 292.727C69.1536 292.466 68.9401 292.263 68.6797 292.117C68.4245 291.966 68.1198 291.891 67.7656 291.891C67.4115 291.891 67.1042 291.966 66.8438 292.117C66.5885 292.263 66.3776 292.466 66.2109 292.727C66.0443 292.987 65.9219 293.286 65.8438 293.625C65.7656 293.958 65.7266 294.312 65.7266 294.688ZM84.9688 292.375V293.93H78.9297V292.375H84.9688ZM79.4141 287.625V299H77.4531V287.625H79.4141ZM86.4766 287.625V299H84.5234V287.625H86.4766ZM92.3516 299.156C91.7266 299.156 91.1615 299.055 90.6562 298.852C90.1562 298.643 89.7292 298.354 89.375 297.984C89.026 297.615 88.7578 297.18 88.5703 296.68C88.3828 296.18 88.2891 295.641 88.2891 295.062V294.75C88.2891 294.089 88.3854 293.49 88.5781 292.953C88.7708 292.417 89.0391 291.958 89.3828 291.578C89.7266 291.193 90.1328 290.898 90.6016 290.695C91.0703 290.492 91.5781 290.391 92.125 290.391C92.7292 290.391 93.2578 290.492 93.7109 290.695C94.1641 290.898 94.5391 291.185 94.8359 291.555C95.138 291.919 95.362 292.354 95.5078 292.859C95.6589 293.365 95.7344 293.922 95.7344 294.531V295.336H89.2031V293.984H93.875V293.836C93.8646 293.497 93.7969 293.18 93.6719 292.883C93.5521 292.586 93.3672 292.346 93.1172 292.164C92.8672 291.982 92.5339 291.891 92.1172 291.891C91.8047 291.891 91.526 291.958 91.2812 292.094C91.0417 292.224 90.8411 292.414 90.6797 292.664C90.5182 292.914 90.3932 293.216 90.3047 293.57C90.2214 293.919 90.1797 294.312 90.1797 294.75V295.062C90.1797 295.432 90.2292 295.776 90.3281 296.094C90.4323 296.406 90.5833 296.68 90.7812 296.914C90.9792 297.148 91.2188 297.333 91.5 297.469C91.7812 297.599 92.1016 297.664 92.4609 297.664C92.9141 297.664 93.3177 297.573 93.6719 297.391C94.026 297.208 94.3333 296.951 94.5938 296.617L95.5859 297.578C95.4036 297.844 95.1667 298.099 94.875 298.344C94.5833 298.583 94.2266 298.779 93.8047 298.93C93.388 299.081 92.9036 299.156 92.3516 299.156ZM99.0938 292.156V299H97.2109V290.547H99.0078L99.0938 292.156ZM101.68 290.492L101.664 292.242C101.549 292.221 101.424 292.206 101.289 292.195C101.159 292.185 101.029 292.18 100.898 292.18C100.576 292.18 100.292 292.227 100.047 292.32C99.8021 292.409 99.5964 292.539 99.4297 292.711C99.2682 292.878 99.1432 293.081 99.0547 293.32C98.9661 293.56 98.9141 293.828 98.8984 294.125L98.4688 294.156C98.4688 293.625 98.5208 293.133 98.625 292.68C98.7292 292.227 98.8854 291.828 99.0938 291.484C99.3073 291.141 99.5729 290.872 99.8906 290.68C100.214 290.487 100.586 290.391 101.008 290.391C101.122 290.391 101.245 290.401 101.375 290.422C101.51 290.443 101.612 290.466 101.68 290.492ZM102.297 294.867V294.688C102.297 294.078 102.385 293.513 102.562 292.992C102.74 292.466 102.995 292.01 103.328 291.625C103.667 291.234 104.078 290.932 104.562 290.719C105.052 290.5 105.604 290.391 106.219 290.391C106.839 290.391 107.391 290.5 107.875 290.719C108.365 290.932 108.779 291.234 109.117 291.625C109.456 292.01 109.714 292.466 109.891 292.992C110.068 293.513 110.156 294.078 110.156 294.688V294.867C110.156 295.477 110.068 296.042 109.891 296.562C109.714 297.083 109.456 297.539 109.117 297.93C108.779 298.315 108.367 298.617 107.883 298.836C107.398 299.049 106.849 299.156 106.234 299.156C105.615 299.156 105.06 299.049 104.57 298.836C104.086 298.617 103.674 298.315 103.336 297.93C102.997 297.539 102.74 297.083 102.562 296.562C102.385 296.042 102.297 295.477 102.297 294.867ZM104.18 294.688V294.867C104.18 295.247 104.219 295.607 104.297 295.945C104.375 296.284 104.497 296.581 104.664 296.836C104.831 297.091 105.044 297.292 105.305 297.438C105.565 297.583 105.875 297.656 106.234 297.656C106.583 297.656 106.885 297.583 107.141 297.438C107.401 297.292 107.615 297.091 107.781 296.836C107.948 296.581 108.07 296.284 108.148 295.945C108.232 295.607 108.273 295.247 108.273 294.867V294.688C108.273 294.312 108.232 293.958 108.148 293.625C108.07 293.286 107.945 292.987 107.773 292.727C107.607 292.466 107.393 292.263 107.133 292.117C106.878 291.966 106.573 291.891 106.219 291.891C105.865 291.891 105.557 291.966 105.297 292.117C105.042 292.263 104.831 292.466 104.664 292.727C104.497 292.987 104.375 293.286 104.297 293.625C104.219 293.958 104.18 294.312 104.18 294.688ZM116.703 287.625H118.453L121.742 296.398L125.023 287.625H126.773L122.43 299H121.039L116.703 287.625ZM115.906 287.625H117.57L117.859 295.219V299H115.906V287.625ZM125.906 287.625H127.578V299H125.617V295.219L125.906 287.625ZM134.484 297.305V293.273C134.484 292.971 134.43 292.711 134.32 292.492C134.211 292.273 134.044 292.104 133.82 291.984C133.602 291.865 133.326 291.805 132.992 291.805C132.685 291.805 132.419 291.857 132.195 291.961C131.971 292.065 131.797 292.206 131.672 292.383C131.547 292.56 131.484 292.76 131.484 292.984H129.609C129.609 292.651 129.69 292.328 129.852 292.016C130.013 291.703 130.247 291.424 130.555 291.18C130.862 290.935 131.229 290.742 131.656 290.602C132.083 290.461 132.562 290.391 133.094 290.391C133.729 290.391 134.292 290.497 134.781 290.711C135.276 290.924 135.664 291.247 135.945 291.68C136.232 292.107 136.375 292.643 136.375 293.289V297.047C136.375 297.432 136.401 297.779 136.453 298.086C136.51 298.388 136.591 298.651 136.695 298.875V299H134.766C134.677 298.797 134.607 298.539 134.555 298.227C134.508 297.909 134.484 297.602 134.484 297.305ZM134.758 293.859L134.773 295.023H133.422C133.073 295.023 132.766 295.057 132.5 295.125C132.234 295.188 132.013 295.281 131.836 295.406C131.659 295.531 131.526 295.682 131.438 295.859C131.349 296.036 131.305 296.237 131.305 296.461C131.305 296.685 131.357 296.891 131.461 297.078C131.565 297.26 131.716 297.404 131.914 297.508C132.117 297.612 132.362 297.664 132.648 297.664C133.034 297.664 133.37 297.586 133.656 297.43C133.948 297.268 134.177 297.073 134.344 296.844C134.51 296.609 134.599 296.388 134.609 296.18L135.219 297.016C135.156 297.229 135.049 297.458 134.898 297.703C134.747 297.948 134.549 298.182 134.305 298.406C134.065 298.625 133.776 298.805 133.438 298.945C133.104 299.086 132.719 299.156 132.281 299.156C131.729 299.156 131.237 299.047 130.805 298.828C130.372 298.604 130.034 298.305 129.789 297.93C129.544 297.549 129.422 297.12 129.422 296.641C129.422 296.193 129.505 295.797 129.672 295.453C129.844 295.104 130.094 294.812 130.422 294.578C130.755 294.344 131.161 294.167 131.641 294.047C132.12 293.922 132.667 293.859 133.281 293.859H134.758ZM140.234 292.156V299H138.352V290.547H140.148L140.234 292.156ZM142.82 290.492L142.805 292.242C142.69 292.221 142.565 292.206 142.43 292.195C142.299 292.185 142.169 292.18 142.039 292.18C141.716 292.18 141.432 292.227 141.188 292.32C140.943 292.409 140.737 292.539 140.57 292.711C140.409 292.878 140.284 293.081 140.195 293.32C140.107 293.56 140.055 293.828 140.039 294.125L139.609 294.156C139.609 293.625 139.661 293.133 139.766 292.68C139.87 292.227 140.026 291.828 140.234 291.484C140.448 291.141 140.714 290.872 141.031 290.68C141.354 290.487 141.727 290.391 142.148 290.391C142.263 290.391 142.385 290.401 142.516 290.422C142.651 290.443 142.753 290.466 142.82 290.492ZM147.297 297.656C147.604 297.656 147.88 297.596 148.125 297.477C148.375 297.352 148.576 297.18 148.727 296.961C148.883 296.742 148.969 296.49 148.984 296.203H150.758C150.747 296.75 150.586 297.247 150.273 297.695C149.961 298.143 149.547 298.5 149.031 298.766C148.516 299.026 147.945 299.156 147.32 299.156C146.674 299.156 146.112 299.047 145.633 298.828C145.154 298.604 144.755 298.297 144.438 297.906C144.12 297.516 143.88 297.065 143.719 296.555C143.562 296.044 143.484 295.497 143.484 294.914V294.641C143.484 294.057 143.562 293.51 143.719 293C143.88 292.484 144.12 292.031 144.438 291.641C144.755 291.25 145.154 290.945 145.633 290.727C146.112 290.503 146.672 290.391 147.312 290.391C147.99 290.391 148.583 290.526 149.094 290.797C149.604 291.062 150.005 291.435 150.297 291.914C150.594 292.388 150.747 292.94 150.758 293.57H148.984C148.969 293.258 148.891 292.977 148.75 292.727C148.615 292.471 148.422 292.268 148.172 292.117C147.927 291.966 147.633 291.891 147.289 291.891C146.909 291.891 146.594 291.969 146.344 292.125C146.094 292.276 145.898 292.484 145.758 292.75C145.617 293.01 145.516 293.305 145.453 293.633C145.396 293.956 145.367 294.292 145.367 294.641V294.914C145.367 295.263 145.396 295.602 145.453 295.93C145.51 296.258 145.609 296.552 145.75 296.812C145.896 297.068 146.094 297.273 146.344 297.43C146.594 297.581 146.911 297.656 147.297 297.656ZM155.93 299.156C155.305 299.156 154.74 299.055 154.234 298.852C153.734 298.643 153.307 298.354 152.953 297.984C152.604 297.615 152.336 297.18 152.148 296.68C151.961 296.18 151.867 295.641 151.867 295.062V294.75C151.867 294.089 151.964 293.49 152.156 292.953C152.349 292.417 152.617 291.958 152.961 291.578C153.305 291.193 153.711 290.898 154.18 290.695C154.648 290.492 155.156 290.391 155.703 290.391C156.307 290.391 156.836 290.492 157.289 290.695C157.742 290.898 158.117 291.185 158.414 291.555C158.716 291.919 158.94 292.354 159.086 292.859C159.237 293.365 159.312 293.922 159.312 294.531V295.336H152.781V293.984H157.453V293.836C157.443 293.497 157.375 293.18 157.25 292.883C157.13 292.586 156.945 292.346 156.695 292.164C156.445 291.982 156.112 291.891 155.695 291.891C155.383 291.891 155.104 291.958 154.859 292.094C154.62 292.224 154.419 292.414 154.258 292.664C154.096 292.914 153.971 293.216 153.883 293.57C153.799 293.919 153.758 294.312 153.758 294.75V295.062C153.758 295.432 153.807 295.776 153.906 296.094C154.01 296.406 154.161 296.68 154.359 296.914C154.557 297.148 154.797 297.333 155.078 297.469C155.359 297.599 155.68 297.664 156.039 297.664C156.492 297.664 156.896 297.573 157.25 297.391C157.604 297.208 157.911 296.951 158.172 296.617L159.164 297.578C158.982 297.844 158.745 298.099 158.453 298.344C158.161 298.583 157.805 298.779 157.383 298.93C156.966 299.081 156.482 299.156 155.93 299.156Z" fill="white"/>
<path d="M230.137 263.654H227.857V262.734H230.137C230.578 262.734 230.936 262.664 231.209 262.523C231.482 262.383 231.682 262.188 231.807 261.938C231.936 261.688 232 261.402 232 261.082C232 260.789 231.936 260.514 231.807 260.256C231.682 259.998 231.482 259.791 231.209 259.635C230.936 259.475 230.578 259.395 230.137 259.395H228.121V267H226.99V258.469H230.137C230.781 258.469 231.326 258.58 231.771 258.803C232.217 259.025 232.555 259.334 232.785 259.729C233.016 260.119 233.131 260.566 233.131 261.07C233.131 261.617 233.016 262.084 232.785 262.471C232.555 262.857 232.217 263.152 231.771 263.355C231.326 263.555 230.781 263.654 230.137 263.654ZM235.48 261.656V267H234.396V260.66H235.451L235.48 261.656ZM237.461 260.625L237.455 261.633C237.365 261.613 237.279 261.602 237.197 261.598C237.119 261.59 237.029 261.586 236.928 261.586C236.678 261.586 236.457 261.625 236.266 261.703C236.074 261.781 235.912 261.891 235.779 262.031C235.646 262.172 235.541 262.34 235.463 262.535C235.389 262.727 235.34 262.938 235.316 263.168L235.012 263.344C235.012 262.961 235.049 262.602 235.123 262.266C235.201 261.93 235.32 261.633 235.48 261.375C235.641 261.113 235.844 260.91 236.09 260.766C236.34 260.617 236.637 260.543 236.98 260.543C237.059 260.543 237.148 260.553 237.25 260.572C237.352 260.588 237.422 260.605 237.461 260.625ZM239.641 260.66V267H238.551V260.66H239.641ZM238.469 258.979C238.469 258.803 238.521 258.654 238.627 258.533C238.736 258.412 238.896 258.352 239.107 258.352C239.314 258.352 239.473 258.412 239.582 258.533C239.695 258.654 239.752 258.803 239.752 258.979C239.752 259.146 239.695 259.291 239.582 259.412C239.473 259.529 239.314 259.588 239.107 259.588C238.896 259.588 238.736 259.529 238.627 259.412C238.521 259.291 238.469 259.146 238.469 258.979ZM243.918 266.227C244.176 266.227 244.414 266.174 244.633 266.068C244.852 265.963 245.031 265.818 245.172 265.635C245.312 265.447 245.393 265.234 245.412 264.996H246.443C246.424 265.371 246.297 265.721 246.062 266.045C245.832 266.365 245.529 266.625 245.154 266.824C244.779 267.02 244.367 267.117 243.918 267.117C243.441 267.117 243.025 267.033 242.67 266.865C242.318 266.697 242.025 266.467 241.791 266.174C241.561 265.881 241.387 265.545 241.27 265.166C241.156 264.783 241.1 264.379 241.1 263.953V263.707C241.1 263.281 241.156 262.879 241.27 262.5C241.387 262.117 241.561 261.779 241.791 261.486C242.025 261.193 242.318 260.963 242.67 260.795C243.025 260.627 243.441 260.543 243.918 260.543C244.414 260.543 244.848 260.645 245.219 260.848C245.59 261.047 245.881 261.32 246.092 261.668C246.307 262.012 246.424 262.402 246.443 262.84H245.412C245.393 262.578 245.318 262.342 245.189 262.131C245.064 261.92 244.893 261.752 244.674 261.627C244.459 261.498 244.207 261.434 243.918 261.434C243.586 261.434 243.307 261.5 243.08 261.633C242.857 261.762 242.68 261.938 242.547 262.16C242.418 262.379 242.324 262.623 242.266 262.893C242.211 263.158 242.184 263.43 242.184 263.707V263.953C242.184 264.23 242.211 264.504 242.266 264.773C242.32 265.043 242.412 265.287 242.541 265.506C242.674 265.725 242.852 265.9 243.074 266.033C243.301 266.162 243.582 266.227 243.918 266.227ZM250.293 267.117C249.852 267.117 249.451 267.043 249.092 266.895C248.736 266.742 248.43 266.529 248.172 266.256C247.918 265.982 247.723 265.658 247.586 265.283C247.449 264.908 247.381 264.498 247.381 264.053V263.807C247.381 263.291 247.457 262.832 247.609 262.43C247.762 262.023 247.969 261.68 248.23 261.398C248.492 261.117 248.789 260.904 249.121 260.76C249.453 260.615 249.797 260.543 250.152 260.543C250.605 260.543 250.996 260.621 251.324 260.777C251.656 260.934 251.928 261.152 252.139 261.434C252.35 261.711 252.506 262.039 252.607 262.418C252.709 262.793 252.76 263.203 252.76 263.648V264.135H248.025V263.25H251.676V263.168C251.66 262.887 251.602 262.613 251.5 262.348C251.402 262.082 251.246 261.863 251.031 261.691C250.816 261.52 250.523 261.434 250.152 261.434C249.906 261.434 249.68 261.486 249.473 261.592C249.266 261.693 249.088 261.846 248.939 262.049C248.791 262.252 248.676 262.5 248.594 262.793C248.512 263.086 248.471 263.424 248.471 263.807V264.053C248.471 264.354 248.512 264.637 248.594 264.902C248.68 265.164 248.803 265.395 248.963 265.594C249.127 265.793 249.324 265.949 249.555 266.062C249.789 266.176 250.055 266.232 250.352 266.232C250.734 266.232 251.059 266.154 251.324 265.998C251.59 265.842 251.822 265.633 252.021 265.371L252.678 265.893C252.541 266.1 252.367 266.297 252.156 266.484C251.945 266.672 251.686 266.824 251.377 266.941C251.072 267.059 250.711 267.117 250.293 267.117Z" fill="#827D9D"/>
<path d="M204.383 276.805V279.141H203.18V276.805H204.383ZM204.234 289.562V291.656H203.039V289.562H204.234ZM205.414 287.039C205.414 286.737 205.352 286.474 205.227 286.25C205.107 286.021 204.909 285.815 204.633 285.633C204.357 285.445 203.987 285.271 203.523 285.109C202.857 284.875 202.273 284.612 201.773 284.32C201.279 284.023 200.893 283.659 200.617 283.227C200.346 282.789 200.211 282.245 200.211 281.594C200.211 280.953 200.357 280.398 200.648 279.93C200.945 279.461 201.357 279.099 201.883 278.844C202.409 278.589 203.023 278.461 203.727 278.461C204.268 278.461 204.755 278.542 205.188 278.703C205.625 278.865 205.997 279.102 206.305 279.414C206.612 279.727 206.846 280.112 207.008 280.57C207.174 281.023 207.258 281.544 207.258 282.133H205.383C205.383 281.799 205.344 281.503 205.266 281.242C205.193 280.977 205.083 280.753 204.938 280.57C204.792 280.383 204.615 280.24 204.406 280.141C204.203 280.042 203.971 279.992 203.711 279.992C203.341 279.992 203.036 280.062 202.797 280.203C202.557 280.339 202.38 280.526 202.266 280.766C202.156 281.005 202.102 281.279 202.102 281.586C202.102 281.883 202.159 282.143 202.273 282.367C202.388 282.591 202.583 282.794 202.859 282.977C203.141 283.154 203.526 283.333 204.016 283.516C204.688 283.755 205.268 284.023 205.758 284.32C206.253 284.612 206.633 284.974 206.898 285.406C207.169 285.833 207.305 286.372 207.305 287.023C207.305 287.695 207.148 288.266 206.836 288.734C206.529 289.203 206.096 289.56 205.539 289.805C204.987 290.044 204.344 290.164 203.609 290.164C203.146 290.164 202.685 290.104 202.227 289.984C201.773 289.859 201.362 289.656 200.992 289.375C200.622 289.094 200.328 288.721 200.109 288.258C199.891 287.789 199.781 287.216 199.781 286.539H201.672C201.672 286.945 201.727 287.284 201.836 287.555C201.945 287.826 202.094 288.039 202.281 288.195C202.469 288.352 202.677 288.464 202.906 288.531C203.141 288.599 203.375 288.633 203.609 288.633C204 288.633 204.328 288.568 204.594 288.438C204.865 288.302 205.068 288.115 205.203 287.875C205.344 287.63 205.414 287.352 205.414 287.039ZM214.641 278.555H214.875V280.094H214.742C214.07 280.094 213.49 280.198 213 280.406C212.516 280.615 212.117 280.901 211.805 281.266C211.492 281.63 211.258 282.057 211.102 282.547C210.951 283.031 210.875 283.547 210.875 284.094V285.883C210.875 286.336 210.924 286.737 211.023 287.086C211.122 287.43 211.26 287.719 211.438 287.953C211.62 288.182 211.828 288.357 212.062 288.477C212.297 288.596 212.549 288.656 212.82 288.656C213.102 288.656 213.357 288.599 213.586 288.484C213.815 288.365 214.01 288.201 214.172 287.992C214.333 287.784 214.456 287.536 214.539 287.25C214.622 286.964 214.664 286.651 214.664 286.312C214.664 285.99 214.622 285.688 214.539 285.406C214.461 285.12 214.344 284.87 214.188 284.656C214.031 284.438 213.836 284.268 213.602 284.148C213.372 284.023 213.107 283.961 212.805 283.961C212.43 283.961 212.089 284.049 211.781 284.227C211.479 284.404 211.234 284.635 211.047 284.922C210.865 285.203 210.766 285.503 210.75 285.82L210.031 285.586C210.073 285.102 210.18 284.667 210.352 284.281C210.529 283.896 210.76 283.568 211.047 283.297C211.333 283.026 211.664 282.82 212.039 282.68C212.419 282.534 212.836 282.461 213.289 282.461C213.841 282.461 214.32 282.565 214.727 282.773C215.133 282.982 215.469 283.266 215.734 283.625C216.005 283.979 216.206 284.385 216.336 284.844C216.471 285.297 216.539 285.771 216.539 286.266C216.539 286.812 216.456 287.323 216.289 287.797C216.122 288.266 215.878 288.677 215.555 289.031C215.237 289.385 214.849 289.661 214.391 289.859C213.938 290.057 213.422 290.156 212.844 290.156C212.234 290.156 211.69 290.039 211.211 289.805C210.737 289.57 210.333 289.247 210 288.836C209.672 288.424 209.422 287.951 209.25 287.414C209.078 286.878 208.992 286.31 208.992 285.711V284.93C208.992 284.065 209.102 283.25 209.32 282.484C209.539 281.714 209.875 281.034 210.328 280.445C210.786 279.857 211.372 279.396 212.086 279.062C212.799 278.724 213.651 278.555 214.641 278.555ZM223.734 278.555H223.969V280.094H223.836C223.164 280.094 222.583 280.198 222.094 280.406C221.609 280.615 221.211 280.901 220.898 281.266C220.586 281.63 220.352 282.057 220.195 282.547C220.044 283.031 219.969 283.547 219.969 284.094V285.883C219.969 286.336 220.018 286.737 220.117 287.086C220.216 287.43 220.354 287.719 220.531 287.953C220.714 288.182 220.922 288.357 221.156 288.477C221.391 288.596 221.643 288.656 221.914 288.656C222.195 288.656 222.451 288.599 222.68 288.484C222.909 288.365 223.104 288.201 223.266 287.992C223.427 287.784 223.549 287.536 223.633 287.25C223.716 286.964 223.758 286.651 223.758 286.312C223.758 285.99 223.716 285.688 223.633 285.406C223.555 285.12 223.438 284.87 223.281 284.656C223.125 284.438 222.93 284.268 222.695 284.148C222.466 284.023 222.201 283.961 221.898 283.961C221.523 283.961 221.182 284.049 220.875 284.227C220.573 284.404 220.328 284.635 220.141 284.922C219.958 285.203 219.859 285.503 219.844 285.82L219.125 285.586C219.167 285.102 219.273 284.667 219.445 284.281C219.622 283.896 219.854 283.568 220.141 283.297C220.427 283.026 220.758 282.82 221.133 282.68C221.513 282.534 221.93 282.461 222.383 282.461C222.935 282.461 223.414 282.565 223.82 282.773C224.227 282.982 224.562 283.266 224.828 283.625C225.099 283.979 225.299 284.385 225.43 284.844C225.565 285.297 225.633 285.771 225.633 286.266C225.633 286.812 225.549 287.323 225.383 287.797C225.216 288.266 224.971 288.677 224.648 289.031C224.331 289.385 223.943 289.661 223.484 289.859C223.031 290.057 222.516 290.156 221.938 290.156C221.328 290.156 220.784 290.039 220.305 289.805C219.831 289.57 219.427 289.247 219.094 288.836C218.766 288.424 218.516 287.951 218.344 287.414C218.172 286.878 218.086 286.31 218.086 285.711V284.93C218.086 284.065 218.195 283.25 218.414 282.484C218.633 281.714 218.969 281.034 219.422 280.445C219.88 279.857 220.466 279.396 221.18 279.062C221.893 278.724 222.745 278.555 223.734 278.555ZM229.117 284.711L227.617 284.344L228.234 278.625H234.367V280.219H229.797L229.484 283.008C229.661 282.904 229.906 282.802 230.219 282.703C230.531 282.599 230.888 282.547 231.289 282.547C231.826 282.547 232.305 282.635 232.727 282.812C233.154 282.984 233.516 283.237 233.812 283.57C234.109 283.898 234.336 284.299 234.492 284.773C234.648 285.242 234.727 285.771 234.727 286.359C234.727 286.885 234.648 287.378 234.492 287.836C234.341 288.294 234.112 288.698 233.805 289.047C233.497 289.396 233.109 289.669 232.641 289.867C232.177 290.06 231.628 290.156 230.992 290.156C230.518 290.156 230.062 290.089 229.625 289.953C229.193 289.812 228.805 289.607 228.461 289.336C228.117 289.06 227.841 288.721 227.633 288.32C227.424 287.914 227.305 287.448 227.273 286.922H229.117C229.164 287.292 229.266 287.607 229.422 287.867C229.583 288.122 229.797 288.318 230.062 288.453C230.328 288.589 230.635 288.656 230.984 288.656C231.302 288.656 231.576 288.602 231.805 288.492C232.034 288.378 232.224 288.216 232.375 288.008C232.531 287.794 232.646 287.544 232.719 287.258C232.797 286.971 232.836 286.654 232.836 286.305C232.836 285.971 232.792 285.667 232.703 285.391C232.62 285.115 232.492 284.875 232.32 284.672C232.154 284.469 231.943 284.312 231.688 284.203C231.432 284.089 231.138 284.031 230.805 284.031C230.357 284.031 230.013 284.096 229.773 284.227C229.539 284.357 229.32 284.518 229.117 284.711ZM241.922 278.555H242.156V280.094H242.023C241.352 280.094 240.771 280.198 240.281 280.406C239.797 280.615 239.398 280.901 239.086 281.266C238.773 281.63 238.539 282.057 238.383 282.547C238.232 283.031 238.156 283.547 238.156 284.094V285.883C238.156 286.336 238.206 286.737 238.305 287.086C238.404 287.43 238.542 287.719 238.719 287.953C238.901 288.182 239.109 288.357 239.344 288.477C239.578 288.596 239.831 288.656 240.102 288.656C240.383 288.656 240.638 288.599 240.867 288.484C241.096 288.365 241.292 288.201 241.453 287.992C241.615 287.784 241.737 287.536 241.82 287.25C241.904 286.964 241.945 286.651 241.945 286.312C241.945 285.99 241.904 285.688 241.82 285.406C241.742 285.12 241.625 284.87 241.469 284.656C241.312 284.438 241.117 284.268 240.883 284.148C240.654 284.023 240.388 283.961 240.086 283.961C239.711 283.961 239.37 284.049 239.062 284.227C238.76 284.404 238.516 284.635 238.328 284.922C238.146 285.203 238.047 285.503 238.031 285.82L237.312 285.586C237.354 285.102 237.461 284.667 237.633 284.281C237.81 283.896 238.042 283.568 238.328 283.297C238.615 283.026 238.945 282.82 239.32 282.68C239.701 282.534 240.117 282.461 240.57 282.461C241.122 282.461 241.602 282.565 242.008 282.773C242.414 282.982 242.75 283.266 243.016 283.625C243.286 283.979 243.487 284.385 243.617 284.844C243.753 285.297 243.82 285.771 243.82 286.266C243.82 286.812 243.737 287.323 243.57 287.797C243.404 288.266 243.159 288.677 242.836 289.031C242.518 289.385 242.13 289.661 241.672 289.859C241.219 290.057 240.703 290.156 240.125 290.156C239.516 290.156 238.971 290.039 238.492 289.805C238.018 289.57 237.615 289.247 237.281 288.836C236.953 288.424 236.703 287.951 236.531 287.414C236.359 286.878 236.273 286.31 236.273 285.711V284.93C236.273 284.065 236.383 283.25 236.602 282.484C236.82 281.714 237.156 281.034 237.609 280.445C238.068 279.857 238.654 279.396 239.367 279.062C240.081 278.724 240.932 278.555 241.922 278.555ZM247.305 284.711L245.805 284.344L246.422 278.625H252.555V280.219H247.984L247.672 283.008C247.849 282.904 248.094 282.802 248.406 282.703C248.719 282.599 249.076 282.547 249.477 282.547C250.013 282.547 250.492 282.635 250.914 282.812C251.341 282.984 251.703 283.237 252 283.57C252.297 283.898 252.523 284.299 252.68 284.773C252.836 285.242 252.914 285.771 252.914 286.359C252.914 286.885 252.836 287.378 252.68 287.836C252.529 288.294 252.299 288.698 251.992 289.047C251.685 289.396 251.297 289.669 250.828 289.867C250.365 290.06 249.815 290.156 249.18 290.156C248.706 290.156 248.25 290.089 247.812 289.953C247.38 289.812 246.992 289.607 246.648 289.336C246.305 289.06 246.029 288.721 245.82 288.32C245.612 287.914 245.492 287.448 245.461 286.922H247.305C247.352 287.292 247.453 287.607 247.609 287.867C247.771 288.122 247.984 288.318 248.25 288.453C248.516 288.589 248.823 288.656 249.172 288.656C249.49 288.656 249.763 288.602 249.992 288.492C250.221 288.378 250.411 288.216 250.562 288.008C250.719 287.794 250.833 287.544 250.906 287.258C250.984 286.971 251.023 286.654 251.023 286.305C251.023 285.971 250.979 285.667 250.891 285.391C250.807 285.115 250.68 284.875 250.508 284.672C250.341 284.469 250.13 284.312 249.875 284.203C249.62 284.089 249.326 284.031 248.992 284.031C248.544 284.031 248.201 284.096 247.961 284.227C247.727 284.357 247.508 284.518 247.305 284.711Z" fill="white"/>
<path d="M26.25 320H252.75" stroke="#282828"/>
<path d="M31.4219 335.859H28.5234L28.5078 334.43H31.0391C31.4661 334.43 31.8281 334.367 32.125 334.242C32.4271 334.112 32.6562 333.927 32.8125 333.688C32.9688 333.443 33.0469 333.148 33.0469 332.805C33.0469 332.424 32.974 332.115 32.8281 331.875C32.6823 331.635 32.4583 331.461 32.1562 331.352C31.8594 331.242 31.4792 331.188 31.0156 331.188H29.1172V341H27.1562V329.625H31.0156C31.6406 329.625 32.1979 329.685 32.6875 329.805C33.1823 329.924 33.6016 330.112 33.9453 330.367C34.2943 330.617 34.5573 330.935 34.7344 331.32C34.9167 331.706 35.0078 332.164 35.0078 332.695C35.0078 333.164 34.8958 333.594 34.6719 333.984C34.4479 334.37 34.1172 334.685 33.6797 334.93C33.2422 335.174 32.6979 335.32 32.0469 335.367L31.4219 335.859ZM31.3359 341H27.9062L28.7891 339.445H31.3359C31.7786 339.445 32.1484 339.372 32.4453 339.227C32.7422 339.076 32.9635 338.87 33.1094 338.609C33.2604 338.344 33.3359 338.034 33.3359 337.68C33.3359 337.31 33.2708 336.99 33.1406 336.719C33.0104 336.443 32.8047 336.232 32.5234 336.086C32.2422 335.935 31.875 335.859 31.4219 335.859H29.2188L29.2344 334.43H32.1016L32.5469 334.969C33.1719 334.99 33.6849 335.128 34.0859 335.383C34.4922 335.638 34.7943 335.969 34.9922 336.375C35.1901 336.781 35.2891 337.219 35.2891 337.688C35.2891 338.411 35.1302 339.018 34.8125 339.508C34.5 339.997 34.0495 340.37 33.4609 340.625C32.8724 340.875 32.1641 341 31.3359 341ZM42.1641 339.008V332.547H44.0547V341H42.2734L42.1641 339.008ZM42.4297 337.25L43.0625 337.234C43.0625 337.802 43 338.326 42.875 338.805C42.75 339.279 42.5573 339.693 42.2969 340.047C42.0365 340.396 41.7031 340.669 41.2969 340.867C40.8906 341.06 40.4036 341.156 39.8359 341.156C39.4245 341.156 39.0469 341.096 38.7031 340.977C38.3594 340.857 38.0625 340.672 37.8125 340.422C37.5677 340.172 37.3776 339.846 37.2422 339.445C37.1068 339.044 37.0391 338.565 37.0391 338.008V332.547H38.9219V338.023C38.9219 338.331 38.9583 338.589 39.0312 338.797C39.1042 339 39.2031 339.164 39.3281 339.289C39.4531 339.414 39.599 339.503 39.7656 339.555C39.9323 339.607 40.1094 339.633 40.2969 339.633C40.8333 339.633 41.2552 339.529 41.5625 339.32C41.875 339.107 42.0964 338.82 42.2266 338.461C42.362 338.102 42.4297 337.698 42.4297 337.25ZM48.4375 340.078L50.7344 332.547H52.75L49.3594 342.289C49.2812 342.497 49.1797 342.724 49.0547 342.969C48.9297 343.214 48.7656 343.445 48.5625 343.664C48.3646 343.888 48.1172 344.068 47.8203 344.203C47.5234 344.344 47.1641 344.414 46.7422 344.414C46.5755 344.414 46.4141 344.398 46.2578 344.367C46.1068 344.341 45.9635 344.312 45.8281 344.281L45.8203 342.844C45.8724 342.849 45.9349 342.854 46.0078 342.859C46.0859 342.865 46.1484 342.867 46.1953 342.867C46.5078 342.867 46.7682 342.828 46.9766 342.75C47.1849 342.677 47.3542 342.557 47.4844 342.391C47.6198 342.224 47.7344 342 47.8281 341.719L48.4375 340.078ZM47.1406 332.547L49.1484 338.875L49.4844 340.859L48.1797 341.195L45.1094 332.547H47.1406ZM67.0234 329.625V341H65.0625L59.9609 332.852V341H58V329.625H59.9609L65.0781 337.789V329.625H67.0234ZM68.8125 336.867V336.688C68.8125 336.078 68.901 335.513 69.0781 334.992C69.2552 334.466 69.5104 334.01 69.8438 333.625C70.1823 333.234 70.5938 332.932 71.0781 332.719C71.5677 332.5 72.1198 332.391 72.7344 332.391C73.3542 332.391 73.9062 332.5 74.3906 332.719C74.8802 332.932 75.2943 333.234 75.6328 333.625C75.9714 334.01 76.2292 334.466 76.4062 334.992C76.5833 335.513 76.6719 336.078 76.6719 336.688V336.867C76.6719 337.477 76.5833 338.042 76.4062 338.562C76.2292 339.083 75.9714 339.539 75.6328 339.93C75.2943 340.315 74.8828 340.617 74.3984 340.836C73.9141 341.049 73.3646 341.156 72.75 341.156C72.1302 341.156 71.5755 341.049 71.0859 340.836C70.6016 340.617 70.1901 340.315 69.8516 339.93C69.513 339.539 69.2552 339.083 69.0781 338.562C68.901 338.042 68.8125 337.477 68.8125 336.867ZM70.6953 336.688V336.867C70.6953 337.247 70.7344 337.607 70.8125 337.945C70.8906 338.284 71.013 338.581 71.1797 338.836C71.3464 339.091 71.5599 339.292 71.8203 339.438C72.0807 339.583 72.3906 339.656 72.75 339.656C73.099 339.656 73.401 339.583 73.6562 339.438C73.9167 339.292 74.1302 339.091 74.2969 338.836C74.4635 338.581 74.5859 338.284 74.6641 337.945C74.7474 337.607 74.7891 337.247 74.7891 336.867V336.688C74.7891 336.312 74.7474 335.958 74.6641 335.625C74.5859 335.286 74.4609 334.987 74.2891 334.727C74.1224 334.466 73.9089 334.263 73.6484 334.117C73.3932 333.966 73.0885 333.891 72.7344 333.891C72.3802 333.891 72.0729 333.966 71.8125 334.117C71.5573 334.263 71.3464 334.466 71.1797 334.727C71.013 334.987 70.8906 335.286 70.8125 335.625C70.7344 335.958 70.6953 336.312 70.6953 336.688ZM80.5469 339.125L82.5 332.547H83.7031L83.375 334.516L81.4062 341H80.3281L80.5469 339.125ZM79.3984 332.547L80.9219 339.156L81.0469 341H79.8438L77.5547 332.547H79.3984ZM85.5312 339.078L87.0078 332.547H88.8438L86.5625 341H85.3594L85.5312 339.078ZM83.9062 332.547L85.8359 339.047L86.0781 341H85L83.0078 334.508L82.6797 332.547H83.9062Z" fill="white"/>
<path d="M198.363 338.875V340H192.645V339.033L195.422 336.004C195.727 335.66 195.967 335.363 196.143 335.113C196.318 334.863 196.441 334.639 196.512 334.439C196.586 334.236 196.623 334.039 196.623 333.848C196.623 333.578 196.572 333.342 196.471 333.139C196.373 332.932 196.229 332.77 196.037 332.652C195.846 332.531 195.613 332.471 195.34 332.471C195.023 332.471 194.758 332.539 194.543 332.676C194.328 332.812 194.166 333.002 194.057 333.244C193.947 333.482 193.893 333.756 193.893 334.064H192.48C192.48 333.568 192.594 333.115 192.82 332.705C193.047 332.291 193.375 331.963 193.805 331.721C194.234 331.475 194.752 331.352 195.357 331.352C195.928 331.352 196.412 331.447 196.811 331.639C197.209 331.83 197.512 332.102 197.719 332.453C197.93 332.805 198.035 333.221 198.035 333.701C198.035 333.967 197.992 334.23 197.906 334.492C197.82 334.754 197.697 335.016 197.537 335.277C197.381 335.535 197.195 335.795 196.98 336.057C196.766 336.314 196.529 336.576 196.271 336.842L194.426 338.875H198.363ZM206.402 338.688V331H207.82V340H206.537L206.402 338.688ZM202.277 336.9V336.777C202.277 336.297 202.334 335.859 202.447 335.465C202.561 335.066 202.725 334.725 202.939 334.439C203.154 334.15 203.416 333.93 203.725 333.777C204.033 333.621 204.381 333.543 204.768 333.543C205.15 333.543 205.486 333.617 205.775 333.766C206.064 333.914 206.311 334.127 206.514 334.404C206.717 334.678 206.879 335.006 207 335.389C207.121 335.768 207.207 336.189 207.258 336.654V337.047C207.207 337.5 207.121 337.914 207 338.289C206.879 338.664 206.717 338.988 206.514 339.262C206.311 339.535 206.062 339.746 205.77 339.895C205.48 340.043 205.143 340.117 204.756 340.117C204.373 340.117 204.027 340.037 203.719 339.877C203.414 339.717 203.154 339.492 202.939 339.203C202.725 338.914 202.561 338.574 202.447 338.184C202.334 337.789 202.277 337.361 202.277 336.9ZM203.689 336.777V336.9C203.689 337.189 203.715 337.459 203.766 337.709C203.82 337.959 203.904 338.18 204.018 338.371C204.131 338.559 204.277 338.707 204.457 338.816C204.641 338.922 204.859 338.975 205.113 338.975C205.434 338.975 205.697 338.904 205.904 338.764C206.111 338.623 206.273 338.434 206.391 338.195C206.512 337.953 206.594 337.684 206.637 337.387V336.326C206.613 336.096 206.564 335.881 206.49 335.682C206.42 335.482 206.324 335.309 206.203 335.16C206.082 335.008 205.932 334.891 205.752 334.809C205.576 334.723 205.367 334.68 205.125 334.68C204.867 334.68 204.648 334.734 204.469 334.844C204.289 334.953 204.141 335.104 204.023 335.295C203.91 335.486 203.826 335.709 203.771 335.963C203.717 336.217 203.689 336.488 203.689 336.777ZM212.871 338.729V335.705C212.871 335.479 212.83 335.283 212.748 335.119C212.666 334.955 212.541 334.828 212.373 334.738C212.209 334.648 212.002 334.604 211.752 334.604C211.521 334.604 211.322 334.643 211.154 334.721C210.986 334.799 210.855 334.904 210.762 335.037C210.668 335.17 210.621 335.32 210.621 335.488H209.215C209.215 335.238 209.275 334.996 209.396 334.762C209.518 334.527 209.693 334.318 209.924 334.135C210.154 333.951 210.43 333.807 210.75 333.701C211.07 333.596 211.43 333.543 211.828 333.543C212.305 333.543 212.727 333.623 213.094 333.783C213.465 333.943 213.756 334.186 213.967 334.51C214.182 334.83 214.289 335.232 214.289 335.717V338.535C214.289 338.824 214.309 339.084 214.348 339.314C214.391 339.541 214.451 339.738 214.529 339.906V340H213.082C213.016 339.848 212.963 339.654 212.924 339.42C212.889 339.182 212.871 338.951 212.871 338.729ZM213.076 336.145L213.088 337.018H212.074C211.812 337.018 211.582 337.043 211.383 337.094C211.184 337.141 211.018 337.211 210.885 337.305C210.752 337.398 210.652 337.512 210.586 337.645C210.52 337.777 210.486 337.928 210.486 338.096C210.486 338.264 210.525 338.418 210.604 338.559C210.682 338.695 210.795 338.803 210.943 338.881C211.096 338.959 211.279 338.998 211.494 338.998C211.783 338.998 212.035 338.939 212.25 338.822C212.469 338.701 212.641 338.555 212.766 338.383C212.891 338.207 212.957 338.041 212.965 337.885L213.422 338.512C213.375 338.672 213.295 338.844 213.182 339.027C213.068 339.211 212.92 339.387 212.736 339.555C212.557 339.719 212.34 339.854 212.086 339.959C211.836 340.064 211.547 340.117 211.219 340.117C210.805 340.117 210.436 340.035 210.111 339.871C209.787 339.703 209.533 339.479 209.35 339.197C209.166 338.912 209.074 338.59 209.074 338.23C209.074 337.895 209.137 337.598 209.262 337.34C209.391 337.078 209.578 336.859 209.824 336.684C210.074 336.508 210.379 336.375 210.738 336.285C211.098 336.191 211.508 336.145 211.969 336.145H213.076ZM217.512 339.309L219.234 333.66H220.746L218.203 340.967C218.145 341.123 218.068 341.293 217.975 341.477C217.881 341.66 217.758 341.834 217.605 341.998C217.457 342.166 217.271 342.301 217.049 342.402C216.826 342.508 216.557 342.561 216.24 342.561C216.115 342.561 215.994 342.549 215.877 342.525C215.764 342.506 215.656 342.484 215.555 342.461L215.549 341.383C215.588 341.387 215.635 341.391 215.689 341.395C215.748 341.398 215.795 341.4 215.83 341.4C216.064 341.4 216.26 341.371 216.416 341.312C216.572 341.258 216.699 341.168 216.797 341.043C216.898 340.918 216.984 340.75 217.055 340.539L217.512 339.309ZM216.539 333.66L218.045 338.406L218.297 339.895L217.318 340.146L215.016 333.66H216.539ZM225.111 338.283C225.111 338.143 225.076 338.016 225.006 337.902C224.936 337.785 224.801 337.68 224.602 337.586C224.406 337.492 224.117 337.406 223.734 337.328C223.398 337.254 223.09 337.166 222.809 337.064C222.531 336.959 222.293 336.832 222.094 336.684C221.895 336.535 221.74 336.359 221.631 336.156C221.521 335.953 221.467 335.719 221.467 335.453C221.467 335.195 221.523 334.951 221.637 334.721C221.75 334.49 221.912 334.287 222.123 334.111C222.334 333.936 222.59 333.797 222.891 333.695C223.195 333.594 223.535 333.543 223.91 333.543C224.441 333.543 224.896 333.633 225.275 333.812C225.658 333.988 225.951 334.229 226.154 334.533C226.357 334.834 226.459 335.174 226.459 335.553H225.047C225.047 335.385 225.004 335.229 224.918 335.084C224.836 334.936 224.711 334.816 224.543 334.727C224.375 334.633 224.164 334.586 223.91 334.586C223.668 334.586 223.467 334.625 223.307 334.703C223.15 334.777 223.033 334.875 222.955 334.996C222.881 335.117 222.844 335.25 222.844 335.395C222.844 335.5 222.863 335.596 222.902 335.682C222.945 335.764 223.016 335.84 223.113 335.91C223.211 335.977 223.344 336.039 223.512 336.098C223.684 336.156 223.898 336.213 224.156 336.268C224.641 336.369 225.057 336.5 225.404 336.66C225.756 336.816 226.025 337.02 226.213 337.27C226.4 337.516 226.494 337.828 226.494 338.207C226.494 338.488 226.434 338.746 226.312 338.98C226.195 339.211 226.023 339.412 225.797 339.584C225.57 339.752 225.299 339.883 224.982 339.977C224.67 340.07 224.318 340.117 223.928 340.117C223.354 340.117 222.867 340.016 222.469 339.812C222.07 339.605 221.768 339.342 221.561 339.021C221.357 338.697 221.256 338.361 221.256 338.014H222.621C222.637 338.275 222.709 338.484 222.838 338.641C222.971 338.793 223.135 338.904 223.33 338.975C223.529 339.041 223.734 339.074 223.945 339.074C224.199 339.074 224.412 339.041 224.584 338.975C224.756 338.904 224.887 338.811 224.977 338.693C225.066 338.572 225.111 338.436 225.111 338.283ZM232.23 331V340H230.812V331H232.23ZM236.572 340.117C236.104 340.117 235.68 340.041 235.301 339.889C234.926 339.732 234.605 339.516 234.34 339.238C234.078 338.961 233.877 338.635 233.736 338.26C233.596 337.885 233.525 337.48 233.525 337.047V336.812C233.525 336.316 233.598 335.867 233.742 335.465C233.887 335.062 234.088 334.719 234.346 334.434C234.604 334.145 234.908 333.924 235.26 333.771C235.611 333.619 235.992 333.543 236.402 333.543C236.855 333.543 237.252 333.619 237.592 333.771C237.932 333.924 238.213 334.139 238.436 334.416C238.662 334.689 238.83 335.016 238.939 335.395C239.053 335.773 239.109 336.191 239.109 336.648V337.252H234.211V336.238H237.715V336.127C237.707 335.873 237.656 335.635 237.562 335.412C237.473 335.189 237.334 335.01 237.146 334.873C236.959 334.736 236.709 334.668 236.396 334.668C236.162 334.668 235.953 334.719 235.77 334.82C235.59 334.918 235.439 335.061 235.318 335.248C235.197 335.436 235.104 335.662 235.037 335.928C234.975 336.189 234.943 336.484 234.943 336.812V337.047C234.943 337.324 234.98 337.582 235.055 337.82C235.133 338.055 235.246 338.26 235.395 338.436C235.543 338.611 235.723 338.75 235.934 338.852C236.145 338.949 236.385 338.998 236.654 338.998C236.994 338.998 237.297 338.93 237.562 338.793C237.828 338.656 238.059 338.463 238.254 338.213L238.998 338.934C238.861 339.133 238.684 339.324 238.465 339.508C238.246 339.688 237.979 339.834 237.662 339.947C237.35 340.061 236.986 340.117 236.572 340.117ZM242.121 340H240.709V333.051C240.709 332.578 240.797 332.182 240.973 331.861C241.152 331.537 241.408 331.293 241.74 331.129C242.072 330.961 242.465 330.877 242.918 330.877C243.059 330.877 243.197 330.887 243.334 330.906C243.471 330.922 243.604 330.947 243.732 330.982L243.697 332.072C243.619 332.053 243.533 332.039 243.439 332.031C243.35 332.023 243.252 332.02 243.146 332.02C242.932 332.02 242.746 332.061 242.59 332.143C242.438 332.221 242.32 332.336 242.238 332.488C242.16 332.641 242.121 332.828 242.121 333.051V340ZM243.428 333.66V334.691H239.736V333.66H243.428ZM247.359 333.66V334.691H243.785V333.66H247.359ZM244.816 332.107H246.229V338.248C246.229 338.443 246.256 338.594 246.311 338.699C246.369 338.801 246.449 338.869 246.551 338.904C246.652 338.939 246.771 338.957 246.908 338.957C247.006 338.957 247.1 338.951 247.189 338.939C247.279 338.928 247.352 338.916 247.406 338.904L247.412 339.982C247.295 340.018 247.158 340.049 247.002 340.076C246.85 340.104 246.674 340.117 246.475 340.117C246.15 340.117 245.863 340.061 245.613 339.947C245.363 339.83 245.168 339.641 245.027 339.379C244.887 339.117 244.816 338.77 244.816 338.336V332.107Z" fill="#827D9D"/>
</g>
</g>
<defs>
<filter id="filter0_f_0_1039" x="-6.54845" y="0.451546" width="290.097" height="320.097" filterUnits="userSpaceOnUse" color-interpolation-filters="sRGB">
<feFlood flood-opacity="0" result="BackgroundImageFix"/>
<feBlend mode="normal" in="SourceGraphic" in2="BackgroundImageFix" result="shape"/>
<feGaussianBlur stdDeviation="40.7742" result="effect1_foregroundBlur_0_1039"/>
</filter>
<clipPath id="clip0_0_1039">
<rect width="279" height="379" fill="white"/>
</clipPath>
<clipPath id="clip1_0_1039">
<rect width="229" height="92" fill="white" transform="translate(25 263)"/>
</clipPath>
</defs>
</svg>
