<svg width="249" height="290" viewBox="0 0 249 290" fill="none" xmlns="http://www.w3.org/2000/svg">
<rect width="249" height="290" fill="white"/>
<rect width="249" height="288" rx="18" fill="#030A1D"/>
<g clip-path="url(#clip0_0_941)">
<path d="M33.96 19.624V28H32.28V22.552L30.036 28H28.764L26.508 22.552V28H24.828V19.624H26.736L29.4 25.852L32.064 19.624H33.96ZM41.757 26.404H38.421L37.869 28H36.105L39.117 19.612H41.073L44.085 28H42.309L41.757 26.404ZM41.301 25.06L40.089 21.556L38.877 25.06H41.301ZM50.5308 28L48.6828 24.736H47.8908V28H46.2108V19.624H49.3548C50.0028 19.624 50.5548 19.74 51.0108 19.972C51.4668 20.196 51.8068 20.504 52.0308 20.896C52.2628 21.28 52.3788 21.712 52.3788 22.192C52.3788 22.744 52.2188 23.244 51.8988 23.692C51.5788 24.132 51.1028 24.436 50.4708 24.604L52.4748 28H50.5308ZM47.8908 23.476H49.2948C49.7508 23.476 50.0908 23.368 50.3148 23.152C50.5388 22.928 50.6508 22.62 50.6508 22.228C50.6508 21.844 50.5388 21.548 50.3148 21.34C50.0908 21.124 49.7508 21.016 49.2948 21.016H47.8908V23.476ZM59.6263 28L56.5783 24.268V28H54.8983V19.624H56.5783V23.38L59.6263 19.624H61.6543L58.1983 23.776L61.7503 28H59.6263ZM65.5353 20.98V23.08H68.3553V24.412H65.5353V26.632H68.7153V28H63.8553V19.612H68.7153V20.98H65.5353ZM76.9421 19.624V20.98H74.7101V28H73.0301V20.98H70.7981V19.624H76.9421ZM89.1352 22.216C89.1352 22.664 89.0272 23.084 88.8112 23.476C88.6032 23.868 88.2712 24.184 87.8152 24.424C87.3672 24.664 86.7992 24.784 86.1112 24.784H84.7072V28H83.0272V19.624H86.1112C86.7592 19.624 87.3112 19.736 87.7672 19.96C88.2232 20.184 88.5632 20.492 88.7872 20.884C89.0192 21.276 89.1352 21.72 89.1352 22.216ZM86.0392 23.428C86.5032 23.428 86.8472 23.324 87.0712 23.116C87.2952 22.9 87.4072 22.6 87.4072 22.216C87.4072 21.4 86.9512 20.992 86.0392 20.992H84.7072V23.428H86.0392ZM93.008 26.668H95.768V28H91.328V19.624H93.008V26.668ZM102.972 26.404H99.6358L99.0838 28H97.3198L100.332 19.612H102.288L105.3 28H103.524L102.972 26.404ZM102.516 25.06L101.304 21.556L100.092 25.06H102.516ZM107.018 23.8C107.018 22.976 107.202 22.24 107.57 21.592C107.946 20.936 108.454 20.428 109.094 20.068C109.742 19.7 110.466 19.516 111.266 19.516C112.202 19.516 113.022 19.756 113.726 20.236C114.43 20.716 114.922 21.38 115.202 22.228H113.27C113.078 21.828 112.806 21.528 112.454 21.328C112.11 21.128 111.71 21.028 111.254 21.028C110.766 21.028 110.33 21.144 109.946 21.376C109.57 21.6 109.274 21.92 109.058 22.336C108.85 22.752 108.746 23.24 108.746 23.8C108.746 24.352 108.85 24.84 109.058 25.264C109.274 25.68 109.57 26.004 109.946 26.236C110.33 26.46 110.766 26.572 111.254 26.572C111.71 26.572 112.11 26.472 112.454 26.272C112.806 26.064 113.078 25.76 113.27 25.36H115.202C114.922 26.216 114.43 26.884 113.726 27.364C113.03 27.836 112.21 28.072 111.266 28.072C110.466 28.072 109.742 27.892 109.094 27.532C108.454 27.164 107.946 26.656 107.57 26.008C107.202 25.36 107.018 24.624 107.018 23.8ZM119.317 20.98V23.08H122.137V24.412H119.317V26.632H122.497V28H117.637V19.612H122.497V20.98H119.317Z" fill="#00A2FD"/>
</g>
<path fill-rule="evenodd" clip-rule="evenodd" d="M29.9245 57.5C31.3268 57.5 32.463 58.6459 32.463 60.06V63.4745C32.463 64.8886 31.3268 66.0345 29.9245 66.0345H26.5385C25.1363 66.0345 24 64.8886 24 63.4745V60.06C24 58.6459 25.1363 57.5 26.5385 57.5H29.9245ZM29.9245 68.9655C31.3268 68.9655 32.463 70.1114 32.463 71.5255V74.94C32.463 76.3532 31.3268 77.5 29.9245 77.5H26.5385C25.1363 77.5 24 76.3532 24 74.94V71.5255C24 70.1114 25.1363 68.9655 26.5385 68.9655H29.9245ZM43.9999 71.5255C43.9999 70.1114 42.8636 68.9655 41.4614 68.9655H38.0754C36.6731 68.9655 35.5369 70.1114 35.5369 71.5255V74.94C35.5369 76.3532 36.6731 77.5 38.0754 77.5H41.4614C42.8636 77.5 43.9999 76.3532 43.9999 74.94V71.5255Z" fill="white"/>
<path opacity="0.4" d="M41.4616 57.5C42.8639 57.5 44.0001 58.6459 44.0001 60.06V63.4745C44.0001 64.8886 42.8639 66.0345 41.4616 66.0345H38.0756C36.6734 66.0345 35.5371 64.8886 35.5371 63.4745V60.06C35.5371 58.6459 36.6734 57.5 38.0756 57.5H41.4616Z" fill="white"/>
<path d="M71.298 62.27V72H69.702V65.336L66.734 72H65.628L62.646 65.336V72H61.05V62.27H62.772L66.188 69.9L69.59 62.27H71.298ZM72.8637 68.108C72.8637 67.3333 73.0224 66.6473 73.3397 66.05C73.6664 65.4527 74.105 64.9907 74.6557 64.664C75.2157 64.328 75.8317 64.16 76.5037 64.16C77.1104 64.16 77.6377 64.2813 78.0857 64.524C78.543 64.7573 78.907 65.0513 79.1777 65.406V64.286H80.7877V72H79.1777V70.852C78.907 71.216 78.5384 71.5193 78.0717 71.762C77.605 72.0047 77.073 72.126 76.4757 72.126C75.813 72.126 75.2064 71.958 74.6557 71.622C74.105 71.2767 73.6664 70.8007 73.3397 70.194C73.0224 69.578 72.8637 68.8827 72.8637 68.108ZM79.1777 68.136C79.1777 67.604 79.0657 67.142 78.8417 66.75C78.627 66.358 78.3424 66.0593 77.9877 65.854C77.633 65.6487 77.2504 65.546 76.8397 65.546C76.429 65.546 76.0464 65.6487 75.6917 65.854C75.337 66.05 75.0477 66.344 74.8237 66.736C74.609 67.1187 74.5017 67.576 74.5017 68.108C74.5017 68.64 74.609 69.1067 74.8237 69.508C75.0477 69.9093 75.337 70.2173 75.6917 70.432C76.0557 70.6373 76.4384 70.74 76.8397 70.74C77.2504 70.74 77.633 70.6373 77.9877 70.432C78.3424 70.2267 78.627 69.928 78.8417 69.536C79.0657 69.1347 79.1777 68.668 79.1777 68.136ZM84.48 65.406C84.7133 65.014 85.0213 64.7107 85.404 64.496C85.796 64.272 86.258 64.16 86.79 64.16V65.812H86.384C85.7587 65.812 85.2827 65.9707 84.956 66.288C84.6387 66.6053 84.48 67.156 84.48 67.94V72H82.884V64.286H84.48V65.406ZM91.309 68.15L94.865 72H92.709L89.853 68.682V72H88.257V61.64H89.853V67.66L92.653 64.286H94.865L91.309 68.15ZM103.079 67.954C103.079 68.2433 103.06 68.5047 103.023 68.738H97.129C97.1757 69.354 97.4043 69.8487 97.815 70.222C98.2257 70.5953 98.7297 70.782 99.327 70.782C100.186 70.782 100.792 70.4227 101.147 69.704H102.869C102.636 70.4133 102.211 70.9967 101.595 71.454C100.988 71.902 100.232 72.126 99.327 72.126C98.5897 72.126 97.927 71.9627 97.339 71.636C96.7603 71.3 96.303 70.8333 95.967 70.236C95.6403 69.6293 95.477 68.9293 95.477 68.136C95.477 67.3427 95.6357 66.6473 95.953 66.05C96.2797 65.4433 96.7323 64.9767 97.311 64.65C97.899 64.3233 98.571 64.16 99.327 64.16C100.055 64.16 100.704 64.3187 101.273 64.636C101.842 64.9533 102.286 65.4013 102.603 65.98C102.92 66.5493 103.079 67.2073 103.079 67.954ZM101.413 67.45C101.404 66.862 101.194 66.3907 100.783 66.036C100.372 65.6813 99.8637 65.504 99.257 65.504C98.7063 65.504 98.235 65.6813 97.843 66.036C97.451 66.3813 97.2177 66.8527 97.143 67.45H101.413ZM106.512 65.588V69.858C106.512 70.1473 106.577 70.3573 106.708 70.488C106.848 70.6093 107.081 70.67 107.408 70.67H108.388V72H107.128C106.409 72 105.858 71.832 105.476 71.496C105.093 71.16 104.902 70.614 104.902 69.858V65.588H103.992V64.286H104.902V62.368H106.512V64.286H108.388V65.588H106.512ZM111.455 65.42C111.725 65.0653 112.094 64.7667 112.561 64.524C113.027 64.2813 113.555 64.16 114.143 64.16C114.815 64.16 115.426 64.328 115.977 64.664C116.537 64.9907 116.975 65.4527 117.293 66.05C117.61 66.6473 117.769 67.3333 117.769 68.108C117.769 68.8827 117.61 69.578 117.293 70.194C116.975 70.8007 116.537 71.2767 115.977 71.622C115.426 71.958 114.815 72.126 114.143 72.126C113.555 72.126 113.032 72.0093 112.575 71.776C112.117 71.5333 111.744 71.2347 111.455 70.88V75.668H109.859V64.286H111.455V65.42ZM116.145 68.108C116.145 67.576 116.033 67.1187 115.809 66.736C115.594 66.344 115.305 66.05 114.941 65.854C114.586 65.6487 114.203 65.546 113.793 65.546C113.391 65.546 113.009 65.6487 112.645 65.854C112.29 66.0593 112.001 66.358 111.777 66.75C111.562 67.142 111.455 67.604 111.455 68.136C111.455 68.668 111.562 69.1347 111.777 69.536C112.001 69.928 112.29 70.2267 112.645 70.432C113.009 70.6373 113.391 70.74 113.793 70.74C114.203 70.74 114.586 70.6373 114.941 70.432C115.305 70.2173 115.594 69.9093 115.809 69.508C116.033 69.1067 116.145 68.64 116.145 68.108ZM120.943 61.64V72H119.347V61.64H120.943ZM122.506 68.108C122.506 67.3333 122.665 66.6473 122.982 66.05C123.309 65.4527 123.748 64.9907 124.298 64.664C124.858 64.328 125.474 64.16 126.146 64.16C126.753 64.16 127.28 64.2813 127.728 64.524C128.186 64.7573 128.55 65.0513 128.82 65.406V64.286H130.43V72H128.82V70.852C128.55 71.216 128.181 71.5193 127.714 71.762C127.248 72.0047 126.716 72.126 126.118 72.126C125.456 72.126 124.849 71.958 124.298 71.622C123.748 71.2767 123.309 70.8007 122.982 70.194C122.665 69.578 122.506 68.8827 122.506 68.108ZM128.82 68.136C128.82 67.604 128.708 67.142 128.484 66.75C128.27 66.358 127.985 66.0593 127.63 65.854C127.276 65.6487 126.893 65.546 126.482 65.546C126.072 65.546 125.689 65.6487 125.334 65.854C124.98 66.05 124.69 66.344 124.466 66.736C124.252 67.1187 124.144 67.576 124.144 68.108C124.144 68.64 124.252 69.1067 124.466 69.508C124.69 69.9093 124.98 70.2173 125.334 70.432C125.698 70.6373 126.081 70.74 126.482 70.74C126.893 70.74 127.276 70.6373 127.63 70.432C127.985 70.2267 128.27 69.928 128.484 69.536C128.708 69.1347 128.82 68.668 128.82 68.136ZM131.995 68.136C131.995 67.3427 132.153 66.6473 132.471 66.05C132.797 65.4433 133.245 64.9767 133.815 64.65C134.384 64.3233 135.037 64.16 135.775 64.16C136.708 64.16 137.478 64.384 138.085 64.832C138.701 65.2707 139.116 65.9007 139.331 66.722H137.609C137.469 66.3393 137.245 66.0407 136.937 65.826C136.629 65.6113 136.241 65.504 135.775 65.504C135.121 65.504 134.599 65.7373 134.207 66.204C133.824 66.6613 133.633 67.3053 133.633 68.136C133.633 68.9667 133.824 69.6153 134.207 70.082C134.599 70.5487 135.121 70.782 135.775 70.782C136.699 70.782 137.31 70.376 137.609 69.564H139.331C139.107 70.348 138.687 70.9733 138.071 71.44C137.455 71.8973 136.689 72.126 135.775 72.126C135.037 72.126 134.384 71.9627 133.815 71.636C133.245 71.3 132.797 70.8333 132.471 70.236C132.153 69.6293 131.995 68.9293 131.995 68.136ZM147.991 67.954C147.991 68.2433 147.972 68.5047 147.935 68.738H142.041C142.088 69.354 142.316 69.8487 142.727 70.222C143.138 70.5953 143.642 70.782 144.239 70.782C145.098 70.782 145.704 70.4227 146.059 69.704H147.781C147.548 70.4133 147.123 70.9967 146.507 71.454C145.9 71.902 145.144 72.126 144.239 72.126C143.502 72.126 142.839 71.9627 142.251 71.636C141.672 71.3 141.215 70.8333 140.879 70.236C140.552 69.6293 140.389 68.9293 140.389 68.136C140.389 67.3427 140.548 66.6473 140.865 66.05C141.192 65.4433 141.644 64.9767 142.223 64.65C142.811 64.3233 143.483 64.16 144.239 64.16C144.967 64.16 145.616 64.3187 146.185 64.636C146.754 64.9533 147.198 65.4013 147.515 65.98C147.832 66.5493 147.991 67.2073 147.991 67.954ZM146.325 67.45C146.316 66.862 146.106 66.3907 145.695 66.036C145.284 65.6813 144.776 65.504 144.169 65.504C143.618 65.504 143.147 65.6813 142.755 66.036C142.363 66.3813 142.13 66.8527 142.055 67.45H146.325Z" fill="#827D9D"/>
<path d="M220.286 70.2955C220.246 70.2699 220.081 70.1506 219.974 70.0568L219.916 70.0057C219.031 69.2898 217.699 67.5085 217.272 66.6051C217.262 66.6051 217.009 66.0682 217 65.8125L217 65.7784C217 65.3864 217.252 65.0199 217.66 64.8324C217.885 64.7301 218.536 64.6364 218.545 64.6278C219.129 64.5511 220.023 64.5 221.005 64.5C222.034 64.5 222.968 64.5511 223.542 64.6449C223.552 64.6449 224.077 64.7386 224.252 64.7983C224.503 64.892 224.718 65.0625 224.854 65.2756C224.95 65.446 225 65.625 225 65.8125C224.989 66.0085 224.844 66.375 224.776 66.5199C224.349 67.4744 222.949 69.2983 222.094 69.9972C221.957 70.1165 221.791 70.2443 221.753 70.2784C221.539 70.4233 221.277 70.5 220.995 70.5C220.742 70.5 220.489 70.4318 220.286 70.2955Z" fill="#00A2FD"/>
<path opacity="0.4" d="M30.1112 96.1667C27.2742 96.1667 25.6667 97.7741 25.6667 100.611V108.389C25.6667 111.226 27.2742 112.833 30.1112 112.833H37.8964C40.7334 112.833 42.3334 111.226 42.3334 108.389V100.611C42.3334 97.7741 40.7334 96.1667 37.8964 96.1667H30.1112Z" fill="white"/>
<path d="M29.4519 103.004V108.73C29.4519 109.107 29.763 109.419 30.1408 109.419C30.526 109.419 30.8371 109.107 30.8371 108.73V103.004C30.8371 102.619 30.526 102.307 30.1408 102.307C29.763 102.307 29.4519 102.619 29.4519 103.004Z" fill="white"/>
<path d="M33.3406 100.27V108.73C33.3406 109.107 33.6517 109.419 34.0295 109.419C34.4147 109.419 34.7258 109.107 34.7258 108.73V100.27C34.7258 99.8852 34.4147 99.5741 34.0295 99.5741C33.6517 99.5741 33.3406 99.8852 33.3406 100.27Z" fill="white"/>
<path d="M37.1704 106.026V108.73C37.1704 109.107 37.4815 109.419 37.8593 109.419C38.2445 109.419 38.5556 109.107 38.5556 108.73V106.026C38.5556 105.641 38.2445 105.33 37.8667 105.33C37.4815 105.33 37.1704 105.641 37.1704 106.026Z" fill="white"/>
<path d="M64.256 109.098C63.6027 109.098 63.0147 108.986 62.492 108.762C61.9693 108.529 61.5587 108.202 61.26 107.782C60.9613 107.362 60.812 106.872 60.812 106.312H62.52C62.5573 106.732 62.7207 107.077 63.01 107.348C63.3087 107.619 63.724 107.754 64.256 107.754C64.8067 107.754 65.236 107.623 65.544 107.362C65.852 107.091 66.006 106.746 66.006 106.326C66.006 105.999 65.908 105.733 65.712 105.528C65.5253 105.323 65.2873 105.164 64.998 105.052C64.718 104.94 64.326 104.819 63.822 104.688C63.1873 104.52 62.6693 104.352 62.268 104.184C61.876 104.007 61.54 103.736 61.26 103.372C60.98 103.008 60.84 102.523 60.84 101.916C60.84 101.356 60.98 100.866 61.26 100.446C61.54 100.026 61.932 99.704 62.436 99.48C62.94 99.256 63.5233 99.144 64.186 99.144C65.1287 99.144 65.8987 99.382 66.496 99.858C67.1027 100.325 67.4387 100.969 67.504 101.79H65.74C65.712 101.435 65.544 101.132 65.236 100.88C64.928 100.628 64.522 100.502 64.018 100.502C63.5607 100.502 63.1873 100.619 62.898 100.852C62.6087 101.085 62.464 101.421 62.464 101.86C62.464 102.159 62.5527 102.406 62.73 102.602C62.9167 102.789 63.15 102.938 63.43 103.05C63.71 103.162 64.0927 103.283 64.578 103.414C65.222 103.591 65.7447 103.769 66.146 103.946C66.5567 104.123 66.902 104.399 67.182 104.772C67.4713 105.136 67.616 105.626 67.616 106.242C67.616 106.737 67.4807 107.203 67.21 107.642C66.9487 108.081 66.5613 108.435 66.048 108.706C65.544 108.967 64.9467 109.098 64.256 109.098ZM71.3612 102.588V106.858C71.3612 107.147 71.4266 107.357 71.5572 107.488C71.6972 107.609 71.9306 107.67 72.2572 107.67H73.2372V109H71.9772C71.2586 109 70.7079 108.832 70.3252 108.496C69.9426 108.16 69.7512 107.614 69.7512 106.858V102.588H68.8412V101.286H69.7512V99.368H71.3612V101.286H73.2372V102.588H71.3612ZM74.1762 105.108C74.1762 104.333 74.3349 103.647 74.6522 103.05C74.9789 102.453 75.4175 101.991 75.9682 101.664C76.5282 101.328 77.1442 101.16 77.8162 101.16C78.4229 101.16 78.9502 101.281 79.3982 101.524C79.8555 101.757 80.2195 102.051 80.4902 102.406V101.286H82.1002V109H80.4902V107.852C80.2195 108.216 79.8509 108.519 79.3842 108.762C78.9175 109.005 78.3855 109.126 77.7882 109.126C77.1255 109.126 76.5189 108.958 75.9682 108.622C75.4175 108.277 74.9789 107.801 74.6522 107.194C74.3349 106.578 74.1762 105.883 74.1762 105.108ZM80.4902 105.136C80.4902 104.604 80.3782 104.142 80.1542 103.75C79.9395 103.358 79.6549 103.059 79.3002 102.854C78.9455 102.649 78.5629 102.546 78.1522 102.546C77.7415 102.546 77.3589 102.649 77.0042 102.854C76.6495 103.05 76.3602 103.344 76.1362 103.736C75.9215 104.119 75.8142 104.576 75.8142 105.108C75.8142 105.64 75.9215 106.107 76.1362 106.508C76.3602 106.909 76.6495 107.217 77.0042 107.432C77.3682 107.637 77.7509 107.74 78.1522 107.74C78.5629 107.74 78.9455 107.637 79.3002 107.432C79.6549 107.227 79.9395 106.928 80.1542 106.536C80.3782 106.135 80.4902 105.668 80.4902 105.136ZM86.0585 102.588V106.858C86.0585 107.147 86.1238 107.357 86.2545 107.488C86.3945 107.609 86.6278 107.67 86.9545 107.67H87.9345V109H86.6745C85.9558 109 85.4052 108.832 85.0225 108.496C84.6398 108.16 84.4485 107.614 84.4485 106.858V102.588H83.5385V101.286H84.4485V99.368H86.0585V101.286H87.9345V102.588H86.0585ZM92.2055 109.126C91.5988 109.126 91.0528 109.019 90.5675 108.804C90.0915 108.58 89.7135 108.281 89.4335 107.908C89.1535 107.525 89.0041 107.101 88.9855 106.634H90.6375C90.6655 106.961 90.8195 107.236 91.0995 107.46C91.3888 107.675 91.7481 107.782 92.1775 107.782C92.6255 107.782 92.9708 107.698 93.2135 107.53C93.4655 107.353 93.5915 107.129 93.5915 106.858C93.5915 106.569 93.4515 106.354 93.1715 106.214C92.9008 106.074 92.4668 105.92 91.8695 105.752C91.2908 105.593 90.8195 105.439 90.4555 105.29C90.0915 105.141 89.7741 104.912 89.5035 104.604C89.2421 104.296 89.1115 103.89 89.1115 103.386C89.1115 102.975 89.2328 102.602 89.4755 102.266C89.7181 101.921 90.0635 101.65 90.5115 101.454C90.9688 101.258 91.4915 101.16 92.0795 101.16C92.9568 101.16 93.6615 101.384 94.1935 101.832C94.7348 102.271 95.0241 102.873 95.0615 103.638H93.4655C93.4375 103.293 93.2975 103.017 93.0455 102.812C92.7935 102.607 92.4528 102.504 92.0235 102.504C91.6035 102.504 91.2815 102.583 91.0575 102.742C90.8335 102.901 90.7215 103.111 90.7215 103.372C90.7215 103.577 90.7961 103.75 90.9455 103.89C91.0948 104.03 91.2768 104.142 91.4915 104.226C91.7061 104.301 92.0235 104.399 92.4435 104.52C93.0035 104.669 93.4608 104.823 93.8155 104.982C94.1795 105.131 94.4921 105.355 94.7535 105.654C95.0148 105.953 95.1501 106.349 95.1595 106.844C95.1595 107.283 95.0381 107.675 94.7955 108.02C94.5528 108.365 94.2075 108.636 93.7595 108.832C93.3208 109.028 92.8028 109.126 92.2055 109.126Z" fill="#827D9D"/>
<path d="M220.286 107.295C220.246 107.27 220.081 107.151 219.974 107.057L219.916 107.006C219.031 106.29 217.699 104.509 217.272 103.605C217.262 103.605 217.009 103.068 217 102.813L217 102.778C217 102.386 217.252 102.02 217.66 101.832C217.885 101.73 218.536 101.636 218.545 101.628C219.129 101.551 220.023 101.5 221.005 101.5C222.034 101.5 222.968 101.551 223.542 101.645C223.552 101.645 224.077 101.739 224.252 101.798C224.503 101.892 224.718 102.063 224.854 102.276C224.95 102.446 225 102.625 225 102.813C224.989 103.009 224.844 103.375 224.776 103.52C224.349 104.474 222.949 106.298 222.094 106.997C221.957 107.116 221.791 107.244 221.753 107.278C221.539 107.423 221.277 107.5 220.995 107.5C220.742 107.5 220.489 107.432 220.286 107.295Z" fill="#00A2FD"/>
<path opacity="0.4" d="M38.179 139.009C36.6657 139.009 35.4214 137.757 35.4214 136.229V133.549C35.4214 133.338 35.253 133.167 35.0443 133.167H30.6364C28.5794 133.167 26.9167 134.855 26.9167 136.924V145.903C26.9167 148.074 28.6586 149.833 30.8081 149.833H37.372C39.4216 149.833 41.0834 148.156 41.0834 146.085V139.392C41.0834 139.181 40.9159 139.01 40.7063 139.011C40.354 139.013 39.9315 139.017 39.6741 139.017C39.2978 139.017 38.7995 139.009 38.179 139.009Z" fill="white"/>
<path opacity="0.4" d="M36.7192 133.918V136.115C36.7192 137.037 37.4784 137.795 38.4001 137.795C38.9809 137.802 39.7876 137.804 40.4726 137.802C40.8234 137.801 41.0017 137.382 40.7584 137.129C39.8792 136.214 38.3051 134.576 37.4034 133.639C37.1542 133.38 36.7192 133.559 36.7192 133.918Z" fill="white"/>
<path fill-rule="evenodd" clip-rule="evenodd" d="M30.8584 140.37C30.8584 140.712 31.1359 140.99 31.4784 140.99H34.2992C34.6417 140.99 34.9201 140.712 34.9201 140.37C34.9201 140.027 34.6417 139.749 34.2992 139.749H31.4784C31.1359 139.749 30.8584 140.027 30.8584 140.37ZM30.8584 144.531C30.8584 144.874 31.1359 145.151 31.4784 145.151H36.0151C36.3576 145.151 36.6359 144.874 36.6359 144.531C36.6359 144.189 36.3576 143.911 36.0151 143.911H31.4784C31.1359 143.911 30.8584 144.189 30.8584 144.531Z" fill="white"/>
<path d="M66.104 146L63.864 142.108H62.646V146H61.05V136.27H64.41C65.1567 136.27 65.7867 136.401 66.3 136.662C66.8227 136.923 67.21 137.273 67.462 137.712C67.7233 138.151 67.854 138.641 67.854 139.182C67.854 139.817 67.6673 140.395 67.294 140.918C66.93 141.431 66.3653 141.781 65.6 141.968L68.008 146H66.104ZM62.646 140.834H64.41C65.0073 140.834 65.4553 140.685 65.754 140.386C66.062 140.087 66.216 139.686 66.216 139.182C66.216 138.678 66.0667 138.286 65.768 138.006C65.4693 137.717 65.0167 137.572 64.41 137.572H62.646V140.834ZM76.9657 141.954C76.9657 142.243 76.947 142.505 76.9097 142.738H71.0157C71.0624 143.354 71.291 143.849 71.7017 144.222C72.1124 144.595 72.6164 144.782 73.2137 144.782C74.0724 144.782 74.679 144.423 75.0337 143.704H76.7557C76.5224 144.413 76.0977 144.997 75.4817 145.454C74.875 145.902 74.119 146.126 73.2137 146.126C72.4764 146.126 71.8137 145.963 71.2257 145.636C70.647 145.3 70.1897 144.833 69.8537 144.236C69.527 143.629 69.3637 142.929 69.3637 142.136C69.3637 141.343 69.5224 140.647 69.8397 140.05C70.1664 139.443 70.619 138.977 71.1977 138.65C71.7857 138.323 72.4577 138.16 73.2137 138.16C73.9417 138.16 74.5904 138.319 75.1597 138.636C75.729 138.953 76.1724 139.401 76.4897 139.98C76.807 140.549 76.9657 141.207 76.9657 141.954ZM75.2997 141.45C75.2904 140.862 75.0804 140.391 74.6697 140.036C74.259 139.681 73.7504 139.504 73.1437 139.504C72.593 139.504 72.1217 139.681 71.7297 140.036C71.3377 140.381 71.1044 140.853 71.0297 141.45H75.2997ZM81.3363 146.126C80.7297 146.126 80.1837 146.019 79.6983 145.804C79.2223 145.58 78.8443 145.281 78.5643 144.908C78.2843 144.525 78.135 144.101 78.1163 143.634H79.7683C79.7963 143.961 79.9503 144.236 80.2303 144.46C80.5197 144.675 80.879 144.782 81.3083 144.782C81.7563 144.782 82.1017 144.698 82.3443 144.53C82.5963 144.353 82.7223 144.129 82.7223 143.858C82.7223 143.569 82.5823 143.354 82.3023 143.214C82.0317 143.074 81.5977 142.92 81.0003 142.752C80.4217 142.593 79.9503 142.439 79.5863 142.29C79.2223 142.141 78.905 141.912 78.6343 141.604C78.373 141.296 78.2423 140.89 78.2423 140.386C78.2423 139.975 78.3637 139.602 78.6063 139.266C78.849 138.921 79.1943 138.65 79.6423 138.454C80.0997 138.258 80.6223 138.16 81.2103 138.16C82.0877 138.16 82.7923 138.384 83.3243 138.832C83.8657 139.271 84.155 139.873 84.1923 140.638H82.5963C82.5683 140.293 82.4283 140.017 82.1763 139.812C81.9243 139.607 81.5837 139.504 81.1543 139.504C80.7343 139.504 80.4123 139.583 80.1883 139.742C79.9643 139.901 79.8523 140.111 79.8523 140.372C79.8523 140.577 79.927 140.75 80.0763 140.89C80.2257 141.03 80.4077 141.142 80.6223 141.226C80.837 141.301 81.1543 141.399 81.5743 141.52C82.1343 141.669 82.5917 141.823 82.9463 141.982C83.3103 142.131 83.623 142.355 83.8843 142.654C84.1457 142.953 84.281 143.349 84.2903 143.844C84.2903 144.283 84.169 144.675 83.9263 145.02C83.6837 145.365 83.3383 145.636 82.8903 145.832C82.4517 146.028 81.9337 146.126 81.3363 146.126ZM89.3608 146.126C88.6328 146.126 87.9748 145.963 87.3868 145.636C86.7988 145.3 86.3368 144.833 86.0008 144.236C85.6648 143.629 85.4968 142.929 85.4968 142.136C85.4968 141.352 85.6695 140.657 86.0148 140.05C86.3602 139.443 86.8315 138.977 87.4288 138.65C88.0262 138.323 88.6935 138.16 89.4308 138.16C90.1682 138.16 90.8355 138.323 91.4328 138.65C92.0302 138.977 92.5015 139.443 92.8468 140.05C93.1922 140.657 93.3648 141.352 93.3648 142.136C93.3648 142.92 93.1875 143.615 92.8328 144.222C92.4782 144.829 91.9928 145.3 91.3768 145.636C90.7702 145.963 90.0982 146.126 89.3608 146.126ZM89.3608 144.74C89.7715 144.74 90.1542 144.642 90.5088 144.446C90.8728 144.25 91.1668 143.956 91.3908 143.564C91.6148 143.172 91.7268 142.696 91.7268 142.136C91.7268 141.576 91.6195 141.105 91.4048 140.722C91.1902 140.33 90.9055 140.036 90.5508 139.84C90.1962 139.644 89.8135 139.546 89.4028 139.546C88.9922 139.546 88.6095 139.644 88.2548 139.84C87.9095 140.036 87.6342 140.33 87.4288 140.722C87.2235 141.105 87.1208 141.576 87.1208 142.136C87.1208 142.967 87.3308 143.611 87.7508 144.068C88.1802 144.516 88.7168 144.74 89.3608 144.74ZM101.929 138.286V146H100.333V145.09C100.081 145.407 99.7492 145.659 99.3386 145.846C98.9372 146.023 98.5079 146.112 98.0506 146.112C97.4439 146.112 96.8979 145.986 96.4126 145.734C95.9366 145.482 95.5586 145.109 95.2786 144.614C95.0079 144.119 94.8726 143.522 94.8726 142.822V138.286H96.4546V142.584C96.4546 143.275 96.6272 143.807 96.9726 144.18C97.3179 144.544 97.7892 144.726 98.3866 144.726C98.9839 144.726 99.4552 144.544 99.8006 144.18C100.155 143.807 100.333 143.275 100.333 142.584V138.286H101.929ZM105.63 139.406C105.864 139.014 106.172 138.711 106.554 138.496C106.946 138.272 107.408 138.16 107.94 138.16V139.812H107.534C106.909 139.812 106.433 139.971 106.106 140.288C105.789 140.605 105.63 141.156 105.63 141.94V146H104.034V138.286H105.63V139.406ZM108.875 142.136C108.875 141.343 109.034 140.647 109.351 140.05C109.678 139.443 110.126 138.977 110.695 138.65C111.265 138.323 111.918 138.16 112.655 138.16C113.589 138.16 114.359 138.384 114.965 138.832C115.581 139.271 115.997 139.901 116.211 140.722H114.489C114.349 140.339 114.125 140.041 113.817 139.826C113.509 139.611 113.122 139.504 112.655 139.504C112.002 139.504 111.479 139.737 111.087 140.204C110.705 140.661 110.513 141.305 110.513 142.136C110.513 142.967 110.705 143.615 111.087 144.082C111.479 144.549 112.002 144.782 112.655 144.782C113.579 144.782 114.191 144.376 114.489 143.564H116.211C115.987 144.348 115.567 144.973 114.951 145.44C114.335 145.897 113.57 146.126 112.655 146.126C111.918 146.126 111.265 145.963 110.695 145.636C110.126 145.3 109.678 144.833 109.351 144.236C109.034 143.629 108.875 142.929 108.875 142.136ZM124.872 141.954C124.872 142.243 124.853 142.505 124.816 142.738H118.922C118.969 143.354 119.197 143.849 119.608 144.222C120.019 144.595 120.523 144.782 121.12 144.782C121.979 144.782 122.585 144.423 122.94 143.704H124.662C124.429 144.413 124.004 144.997 123.388 145.454C122.781 145.902 122.025 146.126 121.12 146.126C120.383 146.126 119.72 145.963 119.132 145.636C118.553 145.3 118.096 144.833 117.76 144.236C117.433 143.629 117.27 142.929 117.27 142.136C117.27 141.343 117.429 140.647 117.746 140.05C118.073 139.443 118.525 138.977 119.104 138.65C119.692 138.323 120.364 138.16 121.12 138.16C121.848 138.16 122.497 138.319 123.066 138.636C123.635 138.953 124.079 139.401 124.396 139.98C124.713 140.549 124.872 141.207 124.872 141.954ZM123.206 141.45C123.197 140.862 122.987 140.391 122.576 140.036C122.165 139.681 121.657 139.504 121.05 139.504C120.499 139.504 120.028 139.681 119.636 140.036C119.244 140.381 119.011 140.853 118.936 141.45H123.206ZM129.243 146.126C128.636 146.126 128.09 146.019 127.605 145.804C127.129 145.58 126.751 145.281 126.471 144.908C126.191 144.525 126.041 144.101 126.023 143.634H127.675C127.703 143.961 127.857 144.236 128.137 144.46C128.426 144.675 128.785 144.782 129.215 144.782C129.663 144.782 130.008 144.698 130.251 144.53C130.503 144.353 130.629 144.129 130.629 143.858C130.629 143.569 130.489 143.354 130.209 143.214C129.938 143.074 129.504 142.92 128.907 142.752C128.328 142.593 127.857 142.439 127.493 142.29C127.129 142.141 126.811 141.912 126.541 141.604C126.279 141.296 126.149 140.89 126.149 140.386C126.149 139.975 126.27 139.602 126.513 139.266C126.755 138.921 127.101 138.65 127.549 138.454C128.006 138.258 128.529 138.16 129.117 138.16C129.994 138.16 130.699 138.384 131.231 138.832C131.772 139.271 132.061 139.873 132.099 140.638H130.503C130.475 140.293 130.335 140.017 130.083 139.812C129.831 139.607 129.49 139.504 129.061 139.504C128.641 139.504 128.319 139.583 128.095 139.742C127.871 139.901 127.759 140.111 127.759 140.372C127.759 140.577 127.833 140.75 127.983 140.89C128.132 141.03 128.314 141.142 128.529 141.226C128.743 141.301 129.061 141.399 129.481 141.52C130.041 141.669 130.498 141.823 130.853 141.982C131.217 142.131 131.529 142.355 131.791 142.654C132.052 142.953 132.187 143.349 132.197 143.844C132.197 144.283 132.075 144.675 131.833 145.02C131.59 145.365 131.245 145.636 130.797 145.832C130.358 146.028 129.84 146.126 129.243 146.126Z" fill="#827D9D"/>
<path d="M220.286 144.295C220.246 144.27 220.081 144.151 219.974 144.057L219.916 144.006C219.031 143.29 217.699 141.509 217.272 140.605C217.262 140.605 217.009 140.068 217 139.813L217 139.778C217 139.386 217.252 139.02 217.66 138.832C217.885 138.73 218.536 138.636 218.545 138.628C219.129 138.551 220.023 138.5 221.005 138.5C222.034 138.5 222.968 138.551 223.542 138.645C223.552 138.645 224.077 138.739 224.252 138.798C224.503 138.892 224.718 139.063 224.854 139.276C224.95 139.446 225 139.625 225 139.813C224.989 140.009 224.844 140.375 224.776 140.52C224.349 141.474 222.949 143.298 222.094 143.997C221.957 144.116 221.791 144.244 221.753 144.278C221.539 144.423 221.277 144.5 220.995 144.5C220.742 144.5 220.489 144.432 220.286 144.295Z" fill="#00A2FD"/>
<path opacity="0.4" d="M38.179 176.009C36.6657 176.009 35.4214 174.757 35.4214 173.229V170.549C35.4214 170.338 35.253 170.167 35.0443 170.167H30.6364C28.5794 170.167 26.9167 171.855 26.9167 173.924V182.903C26.9167 185.074 28.6586 186.833 30.8081 186.833H37.372C39.4216 186.833 41.0834 185.156 41.0834 183.085V176.393C41.0834 176.181 40.9159 176.01 40.7063 176.011C40.354 176.013 39.9315 176.018 39.6741 176.018C39.2978 176.018 38.7995 176.009 38.179 176.009Z" fill="white"/>
<path opacity="0.4" d="M36.7192 170.918V173.115C36.7192 174.037 37.4784 174.795 38.4001 174.795C38.9809 174.802 39.7876 174.804 40.4726 174.802C40.8234 174.801 41.0017 174.382 40.7584 174.129C39.8792 173.214 38.3051 171.576 37.4034 170.639C37.1542 170.38 36.7192 170.559 36.7192 170.918Z" fill="white"/>
<path fill-rule="evenodd" clip-rule="evenodd" d="M30.8584 177.37C30.8584 177.712 31.1359 177.99 31.4784 177.99H34.2992C34.6417 177.99 34.9201 177.712 34.9201 177.37C34.9201 177.027 34.6417 176.749 34.2992 176.749H31.4784C31.1359 176.749 30.8584 177.027 30.8584 177.37ZM30.8584 181.531C30.8584 181.874 31.1359 182.151 31.4784 182.151H36.0151C36.3576 182.151 36.6359 181.874 36.6359 181.531C36.6359 181.189 36.3576 180.911 36.0151 180.911H31.4784C31.1359 180.911 30.8584 181.189 30.8584 181.531Z" fill="white"/>
<path d="M66.104 183L63.864 179.108H62.646V183H61.05V173.27H64.41C65.1567 173.27 65.7867 173.401 66.3 173.662C66.8227 173.923 67.21 174.273 67.462 174.712C67.7233 175.151 67.854 175.641 67.854 176.182C67.854 176.817 67.6673 177.395 67.294 177.918C66.93 178.431 66.3653 178.781 65.6 178.968L68.008 183H66.104ZM62.646 177.834H64.41C65.0073 177.834 65.4553 177.685 65.754 177.386C66.062 177.087 66.216 176.686 66.216 176.182C66.216 175.678 66.0667 175.286 65.768 175.006C65.4693 174.717 65.0167 174.572 64.41 174.572H62.646V177.834ZM76.9657 178.954C76.9657 179.243 76.947 179.505 76.9097 179.738H71.0157C71.0624 180.354 71.291 180.849 71.7017 181.222C72.1124 181.595 72.6164 181.782 73.2137 181.782C74.0724 181.782 74.679 181.423 75.0337 180.704H76.7557C76.5224 181.413 76.0977 181.997 75.4817 182.454C74.875 182.902 74.119 183.126 73.2137 183.126C72.4764 183.126 71.8137 182.963 71.2257 182.636C70.647 182.3 70.1897 181.833 69.8537 181.236C69.527 180.629 69.3637 179.929 69.3637 179.136C69.3637 178.343 69.5224 177.647 69.8397 177.05C70.1664 176.443 70.619 175.977 71.1977 175.65C71.7857 175.323 72.4577 175.16 73.2137 175.16C73.9417 175.16 74.5904 175.319 75.1597 175.636C75.729 175.953 76.1724 176.401 76.4897 176.98C76.807 177.549 76.9657 178.207 76.9657 178.954ZM75.2997 178.45C75.2904 177.862 75.0804 177.391 74.6697 177.036C74.259 176.681 73.7504 176.504 73.1437 176.504C72.593 176.504 72.1217 176.681 71.7297 177.036C71.3377 177.381 71.1044 177.853 71.0297 178.45H75.2997ZM81.3363 183.126C80.7297 183.126 80.1837 183.019 79.6983 182.804C79.2223 182.58 78.8443 182.281 78.5643 181.908C78.2843 181.525 78.135 181.101 78.1163 180.634H79.7683C79.7963 180.961 79.9503 181.236 80.2303 181.46C80.5197 181.675 80.879 181.782 81.3083 181.782C81.7563 181.782 82.1017 181.698 82.3443 181.53C82.5963 181.353 82.7223 181.129 82.7223 180.858C82.7223 180.569 82.5823 180.354 82.3023 180.214C82.0317 180.074 81.5977 179.92 81.0003 179.752C80.4217 179.593 79.9503 179.439 79.5863 179.29C79.2223 179.141 78.905 178.912 78.6343 178.604C78.373 178.296 78.2423 177.89 78.2423 177.386C78.2423 176.975 78.3637 176.602 78.6063 176.266C78.849 175.921 79.1943 175.65 79.6423 175.454C80.0997 175.258 80.6223 175.16 81.2103 175.16C82.0877 175.16 82.7923 175.384 83.3243 175.832C83.8657 176.271 84.155 176.873 84.1923 177.638H82.5963C82.5683 177.293 82.4283 177.017 82.1763 176.812C81.9243 176.607 81.5837 176.504 81.1543 176.504C80.7343 176.504 80.4123 176.583 80.1883 176.742C79.9643 176.901 79.8523 177.111 79.8523 177.372C79.8523 177.577 79.927 177.75 80.0763 177.89C80.2257 178.03 80.4077 178.142 80.6223 178.226C80.837 178.301 81.1543 178.399 81.5743 178.52C82.1343 178.669 82.5917 178.823 82.9463 178.982C83.3103 179.131 83.623 179.355 83.8843 179.654C84.1457 179.953 84.281 180.349 84.2903 180.844C84.2903 181.283 84.169 181.675 83.9263 182.02C83.6837 182.365 83.3383 182.636 82.8903 182.832C82.4517 183.028 81.9337 183.126 81.3363 183.126ZM89.3608 183.126C88.6328 183.126 87.9748 182.963 87.3868 182.636C86.7988 182.3 86.3368 181.833 86.0008 181.236C85.6648 180.629 85.4968 179.929 85.4968 179.136C85.4968 178.352 85.6695 177.657 86.0148 177.05C86.3602 176.443 86.8315 175.977 87.4288 175.65C88.0262 175.323 88.6935 175.16 89.4308 175.16C90.1682 175.16 90.8355 175.323 91.4328 175.65C92.0302 175.977 92.5015 176.443 92.8468 177.05C93.1922 177.657 93.3648 178.352 93.3648 179.136C93.3648 179.92 93.1875 180.615 92.8328 181.222C92.4782 181.829 91.9928 182.3 91.3768 182.636C90.7702 182.963 90.0982 183.126 89.3608 183.126ZM89.3608 181.74C89.7715 181.74 90.1542 181.642 90.5088 181.446C90.8728 181.25 91.1668 180.956 91.3908 180.564C91.6148 180.172 91.7268 179.696 91.7268 179.136C91.7268 178.576 91.6195 178.105 91.4048 177.722C91.1902 177.33 90.9055 177.036 90.5508 176.84C90.1962 176.644 89.8135 176.546 89.4028 176.546C88.9922 176.546 88.6095 176.644 88.2548 176.84C87.9095 177.036 87.6342 177.33 87.4288 177.722C87.2235 178.105 87.1208 178.576 87.1208 179.136C87.1208 179.967 87.3308 180.611 87.7508 181.068C88.1802 181.516 88.7168 181.74 89.3608 181.74ZM101.929 175.286V183H100.333V182.09C100.081 182.407 99.7492 182.659 99.3386 182.846C98.9372 183.023 98.5079 183.112 98.0506 183.112C97.4439 183.112 96.8979 182.986 96.4126 182.734C95.9366 182.482 95.5586 182.109 95.2786 181.614C95.0079 181.119 94.8726 180.522 94.8726 179.822V175.286H96.4546V179.584C96.4546 180.275 96.6272 180.807 96.9726 181.18C97.3179 181.544 97.7892 181.726 98.3866 181.726C98.9839 181.726 99.4552 181.544 99.8006 181.18C100.155 180.807 100.333 180.275 100.333 179.584V175.286H101.929ZM105.63 176.406C105.864 176.014 106.172 175.711 106.554 175.496C106.946 175.272 107.408 175.16 107.94 175.16V176.812H107.534C106.909 176.812 106.433 176.971 106.106 177.288C105.789 177.605 105.63 178.156 105.63 178.94V183H104.034V175.286H105.63V176.406ZM108.875 179.136C108.875 178.343 109.034 177.647 109.351 177.05C109.678 176.443 110.126 175.977 110.695 175.65C111.265 175.323 111.918 175.16 112.655 175.16C113.589 175.16 114.359 175.384 114.965 175.832C115.581 176.271 115.997 176.901 116.211 177.722H114.489C114.349 177.339 114.125 177.041 113.817 176.826C113.509 176.611 113.122 176.504 112.655 176.504C112.002 176.504 111.479 176.737 111.087 177.204C110.705 177.661 110.513 178.305 110.513 179.136C110.513 179.967 110.705 180.615 111.087 181.082C111.479 181.549 112.002 181.782 112.655 181.782C113.579 181.782 114.191 181.376 114.489 180.564H116.211C115.987 181.348 115.567 181.973 114.951 182.44C114.335 182.897 113.57 183.126 112.655 183.126C111.918 183.126 111.265 182.963 110.695 182.636C110.126 182.3 109.678 181.833 109.351 181.236C109.034 180.629 108.875 179.929 108.875 179.136ZM124.872 178.954C124.872 179.243 124.853 179.505 124.816 179.738H118.922C118.969 180.354 119.197 180.849 119.608 181.222C120.019 181.595 120.523 181.782 121.12 181.782C121.979 181.782 122.585 181.423 122.94 180.704H124.662C124.429 181.413 124.004 181.997 123.388 182.454C122.781 182.902 122.025 183.126 121.12 183.126C120.383 183.126 119.72 182.963 119.132 182.636C118.553 182.3 118.096 181.833 117.76 181.236C117.433 180.629 117.27 179.929 117.27 179.136C117.27 178.343 117.429 177.647 117.746 177.05C118.073 176.443 118.525 175.977 119.104 175.65C119.692 175.323 120.364 175.16 121.12 175.16C121.848 175.16 122.497 175.319 123.066 175.636C123.635 175.953 124.079 176.401 124.396 176.98C124.713 177.549 124.872 178.207 124.872 178.954ZM123.206 178.45C123.197 177.862 122.987 177.391 122.576 177.036C122.165 176.681 121.657 176.504 121.05 176.504C120.499 176.504 120.028 176.681 119.636 177.036C119.244 177.381 119.011 177.853 118.936 178.45H123.206ZM129.243 183.126C128.636 183.126 128.09 183.019 127.605 182.804C127.129 182.58 126.751 182.281 126.471 181.908C126.191 181.525 126.041 181.101 126.023 180.634H127.675C127.703 180.961 127.857 181.236 128.137 181.46C128.426 181.675 128.785 181.782 129.215 181.782C129.663 181.782 130.008 181.698 130.251 181.53C130.503 181.353 130.629 181.129 130.629 180.858C130.629 180.569 130.489 180.354 130.209 180.214C129.938 180.074 129.504 179.92 128.907 179.752C128.328 179.593 127.857 179.439 127.493 179.29C127.129 179.141 126.811 178.912 126.541 178.604C126.279 178.296 126.149 177.89 126.149 177.386C126.149 176.975 126.27 176.602 126.513 176.266C126.755 175.921 127.101 175.65 127.549 175.454C128.006 175.258 128.529 175.16 129.117 175.16C129.994 175.16 130.699 175.384 131.231 175.832C131.772 176.271 132.061 176.873 132.099 177.638H130.503C130.475 177.293 130.335 177.017 130.083 176.812C129.831 176.607 129.49 176.504 129.061 176.504C128.641 176.504 128.319 176.583 128.095 176.742C127.871 176.901 127.759 177.111 127.759 177.372C127.759 177.577 127.833 177.75 127.983 177.89C128.132 178.03 128.314 178.142 128.529 178.226C128.743 178.301 129.061 178.399 129.481 178.52C130.041 178.669 130.498 178.823 130.853 178.982C131.217 179.131 131.529 179.355 131.791 179.654C132.052 179.953 132.187 180.349 132.197 180.844C132.197 181.283 132.075 181.675 131.833 182.02C131.59 182.365 131.245 182.636 130.797 182.832C130.358 183.028 129.84 183.126 129.243 183.126Z" fill="#827D9D"/>
<path d="M220.286 181.295C220.246 181.27 220.081 181.151 219.974 181.057L219.916 181.006C219.031 180.29 217.699 178.509 217.272 177.605C217.262 177.605 217.009 177.068 217 176.813L217 176.778C217 176.386 217.252 176.02 217.66 175.832C217.885 175.73 218.536 175.636 218.545 175.628C219.129 175.551 220.023 175.5 221.005 175.5C222.034 175.5 222.968 175.551 223.542 175.645C223.552 175.645 224.077 175.739 224.252 175.798C224.503 175.892 224.718 176.063 224.854 176.276C224.95 176.446 225 176.625 225 176.813C224.989 177.009 224.844 177.375 224.776 177.52C224.349 178.474 222.949 180.298 222.094 180.997C221.957 181.116 221.791 181.244 221.753 181.278C221.539 181.423 221.277 181.5 220.995 181.5C220.742 181.5 220.489 181.432 220.286 181.295Z" fill="#00A2FD"/>
<path opacity="0.4" d="M38.179 213.009C36.6657 213.009 35.4214 211.757 35.4214 210.229V207.549C35.4214 207.338 35.253 207.167 35.0443 207.167H30.6364C28.5794 207.167 26.9167 208.855 26.9167 210.924V219.903C26.9167 222.074 28.6586 223.833 30.8081 223.833H37.372C39.4216 223.833 41.0834 222.156 41.0834 220.085V213.393C41.0834 213.181 40.9159 213.01 40.7063 213.011C40.354 213.013 39.9315 213.018 39.6741 213.018C39.2978 213.018 38.7995 213.009 38.179 213.009Z" fill="white"/>
<path opacity="0.4" d="M36.7192 207.918V210.115C36.7192 211.037 37.4784 211.795 38.4001 211.795C38.9809 211.802 39.7876 211.804 40.4726 211.802C40.8234 211.801 41.0017 211.382 40.7584 211.129C39.8792 210.214 38.3051 208.576 37.4034 207.639C37.1542 207.38 36.7192 207.559 36.7192 207.918Z" fill="white"/>
<path fill-rule="evenodd" clip-rule="evenodd" d="M30.8584 214.37C30.8584 214.712 31.1359 214.99 31.4784 214.99H34.2992C34.6417 214.99 34.9201 214.712 34.9201 214.37C34.9201 214.027 34.6417 213.749 34.2992 213.749H31.4784C31.1359 213.749 30.8584 214.027 30.8584 214.37ZM30.8584 218.531C30.8584 218.874 31.1359 219.151 31.4784 219.151H36.0151C36.3576 219.151 36.6359 218.874 36.6359 218.531C36.6359 218.189 36.3576 217.911 36.0151 217.911H31.4784C31.1359 217.911 30.8584 218.189 30.8584 218.531Z" fill="white"/>
<path d="M66.104 220L63.864 216.108H62.646V220H61.05V210.27H64.41C65.1567 210.27 65.7867 210.401 66.3 210.662C66.8227 210.923 67.21 211.273 67.462 211.712C67.7233 212.151 67.854 212.641 67.854 213.182C67.854 213.817 67.6673 214.395 67.294 214.918C66.93 215.431 66.3653 215.781 65.6 215.968L68.008 220H66.104ZM62.646 214.834H64.41C65.0073 214.834 65.4553 214.685 65.754 214.386C66.062 214.087 66.216 213.686 66.216 213.182C66.216 212.678 66.0667 212.286 65.768 212.006C65.4693 211.717 65.0167 211.572 64.41 211.572H62.646V214.834ZM76.9657 215.954C76.9657 216.243 76.947 216.505 76.9097 216.738H71.0157C71.0624 217.354 71.291 217.849 71.7017 218.222C72.1124 218.595 72.6164 218.782 73.2137 218.782C74.0724 218.782 74.679 218.423 75.0337 217.704H76.7557C76.5224 218.413 76.0977 218.997 75.4817 219.454C74.875 219.902 74.119 220.126 73.2137 220.126C72.4764 220.126 71.8137 219.963 71.2257 219.636C70.647 219.3 70.1897 218.833 69.8537 218.236C69.527 217.629 69.3637 216.929 69.3637 216.136C69.3637 215.343 69.5224 214.647 69.8397 214.05C70.1664 213.443 70.619 212.977 71.1977 212.65C71.7857 212.323 72.4577 212.16 73.2137 212.16C73.9417 212.16 74.5904 212.319 75.1597 212.636C75.729 212.953 76.1724 213.401 76.4897 213.98C76.807 214.549 76.9657 215.207 76.9657 215.954ZM75.2997 215.45C75.2904 214.862 75.0804 214.391 74.6697 214.036C74.259 213.681 73.7504 213.504 73.1437 213.504C72.593 213.504 72.1217 213.681 71.7297 214.036C71.3377 214.381 71.1044 214.853 71.0297 215.45H75.2997ZM81.3363 220.126C80.7297 220.126 80.1837 220.019 79.6983 219.804C79.2223 219.58 78.8443 219.281 78.5643 218.908C78.2843 218.525 78.135 218.101 78.1163 217.634H79.7683C79.7963 217.961 79.9503 218.236 80.2303 218.46C80.5197 218.675 80.879 218.782 81.3083 218.782C81.7563 218.782 82.1017 218.698 82.3443 218.53C82.5963 218.353 82.7223 218.129 82.7223 217.858C82.7223 217.569 82.5823 217.354 82.3023 217.214C82.0317 217.074 81.5977 216.92 81.0003 216.752C80.4217 216.593 79.9503 216.439 79.5863 216.29C79.2223 216.141 78.905 215.912 78.6343 215.604C78.373 215.296 78.2423 214.89 78.2423 214.386C78.2423 213.975 78.3637 213.602 78.6063 213.266C78.849 212.921 79.1943 212.65 79.6423 212.454C80.0997 212.258 80.6223 212.16 81.2103 212.16C82.0877 212.16 82.7923 212.384 83.3243 212.832C83.8657 213.271 84.155 213.873 84.1923 214.638H82.5963C82.5683 214.293 82.4283 214.017 82.1763 213.812C81.9243 213.607 81.5837 213.504 81.1543 213.504C80.7343 213.504 80.4123 213.583 80.1883 213.742C79.9643 213.901 79.8523 214.111 79.8523 214.372C79.8523 214.577 79.927 214.75 80.0763 214.89C80.2257 215.03 80.4077 215.142 80.6223 215.226C80.837 215.301 81.1543 215.399 81.5743 215.52C82.1343 215.669 82.5917 215.823 82.9463 215.982C83.3103 216.131 83.623 216.355 83.8843 216.654C84.1457 216.953 84.281 217.349 84.2903 217.844C84.2903 218.283 84.169 218.675 83.9263 219.02C83.6837 219.365 83.3383 219.636 82.8903 219.832C82.4517 220.028 81.9337 220.126 81.3363 220.126ZM89.3608 220.126C88.6328 220.126 87.9748 219.963 87.3868 219.636C86.7988 219.3 86.3368 218.833 86.0008 218.236C85.6648 217.629 85.4968 216.929 85.4968 216.136C85.4968 215.352 85.6695 214.657 86.0148 214.05C86.3602 213.443 86.8315 212.977 87.4288 212.65C88.0262 212.323 88.6935 212.16 89.4308 212.16C90.1682 212.16 90.8355 212.323 91.4328 212.65C92.0302 212.977 92.5015 213.443 92.8468 214.05C93.1922 214.657 93.3648 215.352 93.3648 216.136C93.3648 216.92 93.1875 217.615 92.8328 218.222C92.4782 218.829 91.9928 219.3 91.3768 219.636C90.7702 219.963 90.0982 220.126 89.3608 220.126ZM89.3608 218.74C89.7715 218.74 90.1542 218.642 90.5088 218.446C90.8728 218.25 91.1668 217.956 91.3908 217.564C91.6148 217.172 91.7268 216.696 91.7268 216.136C91.7268 215.576 91.6195 215.105 91.4048 214.722C91.1902 214.33 90.9055 214.036 90.5508 213.84C90.1962 213.644 89.8135 213.546 89.4028 213.546C88.9922 213.546 88.6095 213.644 88.2548 213.84C87.9095 214.036 87.6342 214.33 87.4288 214.722C87.2235 215.105 87.1208 215.576 87.1208 216.136C87.1208 216.967 87.3308 217.611 87.7508 218.068C88.1802 218.516 88.7168 218.74 89.3608 218.74ZM101.929 212.286V220H100.333V219.09C100.081 219.407 99.7492 219.659 99.3386 219.846C98.9372 220.023 98.5079 220.112 98.0506 220.112C97.4439 220.112 96.8979 219.986 96.4126 219.734C95.9366 219.482 95.5586 219.109 95.2786 218.614C95.0079 218.119 94.8726 217.522 94.8726 216.822V212.286H96.4546V216.584C96.4546 217.275 96.6272 217.807 96.9726 218.18C97.3179 218.544 97.7892 218.726 98.3866 218.726C98.9839 218.726 99.4552 218.544 99.8006 218.18C100.155 217.807 100.333 217.275 100.333 216.584V212.286H101.929ZM105.63 213.406C105.864 213.014 106.172 212.711 106.554 212.496C106.946 212.272 107.408 212.16 107.94 212.16V213.812H107.534C106.909 213.812 106.433 213.971 106.106 214.288C105.789 214.605 105.63 215.156 105.63 215.94V220H104.034V212.286H105.63V213.406ZM108.875 216.136C108.875 215.343 109.034 214.647 109.351 214.05C109.678 213.443 110.126 212.977 110.695 212.65C111.265 212.323 111.918 212.16 112.655 212.16C113.589 212.16 114.359 212.384 114.965 212.832C115.581 213.271 115.997 213.901 116.211 214.722H114.489C114.349 214.339 114.125 214.041 113.817 213.826C113.509 213.611 113.122 213.504 112.655 213.504C112.002 213.504 111.479 213.737 111.087 214.204C110.705 214.661 110.513 215.305 110.513 216.136C110.513 216.967 110.705 217.615 111.087 218.082C111.479 218.549 112.002 218.782 112.655 218.782C113.579 218.782 114.191 218.376 114.489 217.564H116.211C115.987 218.348 115.567 218.973 114.951 219.44C114.335 219.897 113.57 220.126 112.655 220.126C111.918 220.126 111.265 219.963 110.695 219.636C110.126 219.3 109.678 218.833 109.351 218.236C109.034 217.629 108.875 216.929 108.875 216.136ZM124.872 215.954C124.872 216.243 124.853 216.505 124.816 216.738H118.922C118.969 217.354 119.197 217.849 119.608 218.222C120.019 218.595 120.523 218.782 121.12 218.782C121.979 218.782 122.585 218.423 122.94 217.704H124.662C124.429 218.413 124.004 218.997 123.388 219.454C122.781 219.902 122.025 220.126 121.12 220.126C120.383 220.126 119.72 219.963 119.132 219.636C118.553 219.3 118.096 218.833 117.76 218.236C117.433 217.629 117.27 216.929 117.27 216.136C117.27 215.343 117.429 214.647 117.746 214.05C118.073 213.443 118.525 212.977 119.104 212.65C119.692 212.323 120.364 212.16 121.12 212.16C121.848 212.16 122.497 212.319 123.066 212.636C123.635 212.953 124.079 213.401 124.396 213.98C124.713 214.549 124.872 215.207 124.872 215.954ZM123.206 215.45C123.197 214.862 122.987 214.391 122.576 214.036C122.165 213.681 121.657 213.504 121.05 213.504C120.499 213.504 120.028 213.681 119.636 214.036C119.244 214.381 119.011 214.853 118.936 215.45H123.206ZM129.243 220.126C128.636 220.126 128.09 220.019 127.605 219.804C127.129 219.58 126.751 219.281 126.471 218.908C126.191 218.525 126.041 218.101 126.023 217.634H127.675C127.703 217.961 127.857 218.236 128.137 218.46C128.426 218.675 128.785 218.782 129.215 218.782C129.663 218.782 130.008 218.698 130.251 218.53C130.503 218.353 130.629 218.129 130.629 217.858C130.629 217.569 130.489 217.354 130.209 217.214C129.938 217.074 129.504 216.92 128.907 216.752C128.328 216.593 127.857 216.439 127.493 216.29C127.129 216.141 126.811 215.912 126.541 215.604C126.279 215.296 126.149 214.89 126.149 214.386C126.149 213.975 126.27 213.602 126.513 213.266C126.755 212.921 127.101 212.65 127.549 212.454C128.006 212.258 128.529 212.16 129.117 212.16C129.994 212.16 130.699 212.384 131.231 212.832C131.772 213.271 132.061 213.873 132.099 214.638H130.503C130.475 214.293 130.335 214.017 130.083 213.812C129.831 213.607 129.49 213.504 129.061 213.504C128.641 213.504 128.319 213.583 128.095 213.742C127.871 213.901 127.759 214.111 127.759 214.372C127.759 214.577 127.833 214.75 127.983 214.89C128.132 215.03 128.314 215.142 128.529 215.226C128.743 215.301 129.061 215.399 129.481 215.52C130.041 215.669 130.498 215.823 130.853 215.982C131.217 216.131 131.529 216.355 131.791 216.654C132.052 216.953 132.187 217.349 132.197 217.844C132.197 218.283 132.075 218.675 131.833 219.02C131.59 219.365 131.245 219.636 130.797 219.832C130.358 220.028 129.84 220.126 129.243 220.126Z" fill="#827D9D"/>
<path d="M220.286 218.295C220.246 218.27 220.081 218.151 219.974 218.057L219.916 218.006C219.031 217.29 217.699 215.509 217.272 214.605C217.262 214.605 217.009 214.068 217 213.813L217 213.778C217 213.386 217.252 213.02 217.66 212.832C217.885 212.73 218.536 212.636 218.545 212.628C219.129 212.551 220.023 212.5 221.005 212.5C222.034 212.5 222.968 212.551 223.542 212.645C223.552 212.645 224.077 212.739 224.252 212.798C224.503 212.892 224.718 213.063 224.854 213.276C224.95 213.446 225 213.625 225 213.813C224.989 214.009 224.844 214.375 224.776 214.52C224.349 215.474 222.949 217.298 222.094 217.997C221.957 218.116 221.791 218.244 221.753 218.278C221.539 218.423 221.277 218.5 220.995 218.5C220.742 218.5 220.489 218.432 220.286 218.295Z" fill="#00A2FD"/>
<path opacity="0.4" d="M38.179 250.009C36.6657 250.009 35.4214 248.757 35.4214 247.229V244.549C35.4214 244.338 35.253 244.167 35.0443 244.167H30.6364C28.5794 244.167 26.9167 245.855 26.9167 247.924V256.903C26.9167 259.074 28.6586 260.833 30.8081 260.833H37.372C39.4216 260.833 41.0834 259.156 41.0834 257.085V250.393C41.0834 250.181 40.9159 250.01 40.7063 250.011C40.354 250.013 39.9315 250.018 39.6741 250.018C39.2978 250.018 38.7995 250.009 38.179 250.009Z" fill="white"/>
<path opacity="0.4" d="M36.7192 244.918V247.115C36.7192 248.037 37.4784 248.795 38.4001 248.795C38.9809 248.802 39.7876 248.804 40.4726 248.802C40.8234 248.801 41.0017 248.382 40.7584 248.129C39.8792 247.214 38.3051 245.576 37.4034 244.639C37.1542 244.38 36.7192 244.559 36.7192 244.918Z" fill="white"/>
<path fill-rule="evenodd" clip-rule="evenodd" d="M30.8584 251.37C30.8584 251.712 31.1359 251.99 31.4784 251.99H34.2992C34.6417 251.99 34.9201 251.712 34.9201 251.37C34.9201 251.027 34.6417 250.749 34.2992 250.749H31.4784C31.1359 250.749 30.8584 251.027 30.8584 251.37ZM30.8584 255.531C30.8584 255.874 31.1359 256.151 31.4784 256.151H36.0151C36.3576 256.151 36.6359 255.874 36.6359 255.531C36.6359 255.189 36.3576 254.911 36.0151 254.911H31.4784C31.1359 254.911 30.8584 255.189 30.8584 255.531Z" fill="white"/>
<path d="M66.104 257L63.864 253.108H62.646V257H61.05V247.27H64.41C65.1567 247.27 65.7867 247.401 66.3 247.662C66.8227 247.923 67.21 248.273 67.462 248.712C67.7233 249.151 67.854 249.641 67.854 250.182C67.854 250.817 67.6673 251.395 67.294 251.918C66.93 252.431 66.3653 252.781 65.6 252.968L68.008 257H66.104ZM62.646 251.834H64.41C65.0073 251.834 65.4553 251.685 65.754 251.386C66.062 251.087 66.216 250.686 66.216 250.182C66.216 249.678 66.0667 249.286 65.768 249.006C65.4693 248.717 65.0167 248.572 64.41 248.572H62.646V251.834ZM76.9657 252.954C76.9657 253.243 76.947 253.505 76.9097 253.738H71.0157C71.0624 254.354 71.291 254.849 71.7017 255.222C72.1124 255.595 72.6164 255.782 73.2137 255.782C74.0724 255.782 74.679 255.423 75.0337 254.704H76.7557C76.5224 255.413 76.0977 255.997 75.4817 256.454C74.875 256.902 74.119 257.126 73.2137 257.126C72.4764 257.126 71.8137 256.963 71.2257 256.636C70.647 256.3 70.1897 255.833 69.8537 255.236C69.527 254.629 69.3637 253.929 69.3637 253.136C69.3637 252.343 69.5224 251.647 69.8397 251.05C70.1664 250.443 70.619 249.977 71.1977 249.65C71.7857 249.323 72.4577 249.16 73.2137 249.16C73.9417 249.16 74.5904 249.319 75.1597 249.636C75.729 249.953 76.1724 250.401 76.4897 250.98C76.807 251.549 76.9657 252.207 76.9657 252.954ZM75.2997 252.45C75.2904 251.862 75.0804 251.391 74.6697 251.036C74.259 250.681 73.7504 250.504 73.1437 250.504C72.593 250.504 72.1217 250.681 71.7297 251.036C71.3377 251.381 71.1044 251.853 71.0297 252.45H75.2997ZM81.3363 257.126C80.7297 257.126 80.1837 257.019 79.6983 256.804C79.2223 256.58 78.8443 256.281 78.5643 255.908C78.2843 255.525 78.135 255.101 78.1163 254.634H79.7683C79.7963 254.961 79.9503 255.236 80.2303 255.46C80.5197 255.675 80.879 255.782 81.3083 255.782C81.7563 255.782 82.1017 255.698 82.3443 255.53C82.5963 255.353 82.7223 255.129 82.7223 254.858C82.7223 254.569 82.5823 254.354 82.3023 254.214C82.0317 254.074 81.5977 253.92 81.0003 253.752C80.4217 253.593 79.9503 253.439 79.5863 253.29C79.2223 253.141 78.905 252.912 78.6343 252.604C78.373 252.296 78.2423 251.89 78.2423 251.386C78.2423 250.975 78.3637 250.602 78.6063 250.266C78.849 249.921 79.1943 249.65 79.6423 249.454C80.0997 249.258 80.6223 249.16 81.2103 249.16C82.0877 249.16 82.7923 249.384 83.3243 249.832C83.8657 250.271 84.155 250.873 84.1923 251.638H82.5963C82.5683 251.293 82.4283 251.017 82.1763 250.812C81.9243 250.607 81.5837 250.504 81.1543 250.504C80.7343 250.504 80.4123 250.583 80.1883 250.742C79.9643 250.901 79.8523 251.111 79.8523 251.372C79.8523 251.577 79.927 251.75 80.0763 251.89C80.2257 252.03 80.4077 252.142 80.6223 252.226C80.837 252.301 81.1543 252.399 81.5743 252.52C82.1343 252.669 82.5917 252.823 82.9463 252.982C83.3103 253.131 83.623 253.355 83.8843 253.654C84.1457 253.953 84.281 254.349 84.2903 254.844C84.2903 255.283 84.169 255.675 83.9263 256.02C83.6837 256.365 83.3383 256.636 82.8903 256.832C82.4517 257.028 81.9337 257.126 81.3363 257.126ZM89.3608 257.126C88.6328 257.126 87.9748 256.963 87.3868 256.636C86.7988 256.3 86.3368 255.833 86.0008 255.236C85.6648 254.629 85.4968 253.929 85.4968 253.136C85.4968 252.352 85.6695 251.657 86.0148 251.05C86.3602 250.443 86.8315 249.977 87.4288 249.65C88.0262 249.323 88.6935 249.16 89.4308 249.16C90.1682 249.16 90.8355 249.323 91.4328 249.65C92.0302 249.977 92.5015 250.443 92.8468 251.05C93.1922 251.657 93.3648 252.352 93.3648 253.136C93.3648 253.92 93.1875 254.615 92.8328 255.222C92.4782 255.829 91.9928 256.3 91.3768 256.636C90.7702 256.963 90.0982 257.126 89.3608 257.126ZM89.3608 255.74C89.7715 255.74 90.1542 255.642 90.5088 255.446C90.8728 255.25 91.1668 254.956 91.3908 254.564C91.6148 254.172 91.7268 253.696 91.7268 253.136C91.7268 252.576 91.6195 252.105 91.4048 251.722C91.1902 251.33 90.9055 251.036 90.5508 250.84C90.1962 250.644 89.8135 250.546 89.4028 250.546C88.9922 250.546 88.6095 250.644 88.2548 250.84C87.9095 251.036 87.6342 251.33 87.4288 251.722C87.2235 252.105 87.1208 252.576 87.1208 253.136C87.1208 253.967 87.3308 254.611 87.7508 255.068C88.1802 255.516 88.7168 255.74 89.3608 255.74ZM101.929 249.286V257H100.333V256.09C100.081 256.407 99.7492 256.659 99.3386 256.846C98.9372 257.023 98.5079 257.112 98.0506 257.112C97.4439 257.112 96.8979 256.986 96.4126 256.734C95.9366 256.482 95.5586 256.109 95.2786 255.614C95.0079 255.119 94.8726 254.522 94.8726 253.822V249.286H96.4546V253.584C96.4546 254.275 96.6272 254.807 96.9726 255.18C97.3179 255.544 97.7892 255.726 98.3866 255.726C98.9839 255.726 99.4552 255.544 99.8006 255.18C100.155 254.807 100.333 254.275 100.333 253.584V249.286H101.929ZM105.63 250.406C105.864 250.014 106.172 249.711 106.554 249.496C106.946 249.272 107.408 249.16 107.94 249.16V250.812H107.534C106.909 250.812 106.433 250.971 106.106 251.288C105.789 251.605 105.63 252.156 105.63 252.94V257H104.034V249.286H105.63V250.406ZM108.875 253.136C108.875 252.343 109.034 251.647 109.351 251.05C109.678 250.443 110.126 249.977 110.695 249.65C111.265 249.323 111.918 249.16 112.655 249.16C113.589 249.16 114.359 249.384 114.965 249.832C115.581 250.271 115.997 250.901 116.211 251.722H114.489C114.349 251.339 114.125 251.041 113.817 250.826C113.509 250.611 113.122 250.504 112.655 250.504C112.002 250.504 111.479 250.737 111.087 251.204C110.705 251.661 110.513 252.305 110.513 253.136C110.513 253.967 110.705 254.615 111.087 255.082C111.479 255.549 112.002 255.782 112.655 255.782C113.579 255.782 114.191 255.376 114.489 254.564H116.211C115.987 255.348 115.567 255.973 114.951 256.44C114.335 256.897 113.57 257.126 112.655 257.126C111.918 257.126 111.265 256.963 110.695 256.636C110.126 256.3 109.678 255.833 109.351 255.236C109.034 254.629 108.875 253.929 108.875 253.136ZM124.872 252.954C124.872 253.243 124.853 253.505 124.816 253.738H118.922C118.969 254.354 119.197 254.849 119.608 255.222C120.019 255.595 120.523 255.782 121.12 255.782C121.979 255.782 122.585 255.423 122.94 254.704H124.662C124.429 255.413 124.004 255.997 123.388 256.454C122.781 256.902 122.025 257.126 121.12 257.126C120.383 257.126 119.72 256.963 119.132 256.636C118.553 256.3 118.096 255.833 117.76 255.236C117.433 254.629 117.27 253.929 117.27 253.136C117.27 252.343 117.429 251.647 117.746 251.05C118.073 250.443 118.525 249.977 119.104 249.65C119.692 249.323 120.364 249.16 121.12 249.16C121.848 249.16 122.497 249.319 123.066 249.636C123.635 249.953 124.079 250.401 124.396 250.98C124.713 251.549 124.872 252.207 124.872 252.954ZM123.206 252.45C123.197 251.862 122.987 251.391 122.576 251.036C122.165 250.681 121.657 250.504 121.05 250.504C120.499 250.504 120.028 250.681 119.636 251.036C119.244 251.381 119.011 251.853 118.936 252.45H123.206ZM129.243 257.126C128.636 257.126 128.09 257.019 127.605 256.804C127.129 256.58 126.751 256.281 126.471 255.908C126.191 255.525 126.041 255.101 126.023 254.634H127.675C127.703 254.961 127.857 255.236 128.137 255.46C128.426 255.675 128.785 255.782 129.215 255.782C129.663 255.782 130.008 255.698 130.251 255.53C130.503 255.353 130.629 255.129 130.629 254.858C130.629 254.569 130.489 254.354 130.209 254.214C129.938 254.074 129.504 253.92 128.907 253.752C128.328 253.593 127.857 253.439 127.493 253.29C127.129 253.141 126.811 252.912 126.541 252.604C126.279 252.296 126.149 251.89 126.149 251.386C126.149 250.975 126.27 250.602 126.513 250.266C126.755 249.921 127.101 249.65 127.549 249.454C128.006 249.258 128.529 249.16 129.117 249.16C129.994 249.16 130.699 249.384 131.231 249.832C131.772 250.271 132.061 250.873 132.099 251.638H130.503C130.475 251.293 130.335 251.017 130.083 250.812C129.831 250.607 129.49 250.504 129.061 250.504C128.641 250.504 128.319 250.583 128.095 250.742C127.871 250.901 127.759 251.111 127.759 251.372C127.759 251.577 127.833 251.75 127.983 251.89C128.132 252.03 128.314 252.142 128.529 252.226C128.743 252.301 129.061 252.399 129.481 252.52C130.041 252.669 130.498 252.823 130.853 252.982C131.217 253.131 131.529 253.355 131.791 253.654C132.052 253.953 132.187 254.349 132.197 254.844C132.197 255.283 132.075 255.675 131.833 256.02C131.59 256.365 131.245 256.636 130.797 256.832C130.358 257.028 129.84 257.126 129.243 257.126Z" fill="#827D9D"/>
<path d="M220.286 255.295C220.246 255.27 220.081 255.151 219.974 255.057L219.916 255.006C219.031 254.29 217.699 252.509 217.272 251.605C217.262 251.605 217.009 251.068 217 250.813L217 250.778C217 250.386 217.252 250.02 217.66 249.832C217.885 249.73 218.536 249.636 218.545 249.628C219.129 249.551 220.023 249.5 221.005 249.5C222.034 249.5 222.968 249.551 223.542 249.645C223.552 249.645 224.077 249.739 224.252 249.798C224.503 249.892 224.718 250.063 224.854 250.276C224.95 250.446 225 250.625 225 250.813C224.989 251.009 224.844 251.375 224.776 251.52C224.349 252.474 222.949 254.298 222.094 254.997C221.957 255.116 221.791 255.244 221.753 255.278C221.539 255.423 221.277 255.5 220.995 255.5C220.742 255.5 220.489 255.432 220.286 255.295Z" fill="#00A2FD"/>
<rect x="76.5" y="288" width="96" height="2" rx="1" fill="#00A2FD"/>
<defs>
<clipPath id="clip0_0_941">
<rect width="100" height="18" fill="white" transform="translate(24 24)"/>
</clipPath>
</defs>
</svg>
