<svg width="281" height="228" viewBox="0 0 281 228" fill="none" xmlns="http://www.w3.org/2000/svg">
<rect width="281" height="228" fill="white"/>
<rect x="16" y="16" width="249" height="88" rx="18" fill="#030A1D"/>
<path d="M49.7779 46.6667C45.2386 46.6667 42.6667 49.2385 42.6667 53.7778V66.2222C42.6667 70.7497 45.2267 73.3334 49.7779 73.3334H62.2223C66.7616 73.3334 69.3334 70.7497 69.3334 66.2222V53.7778C69.3334 49.2385 66.7616 46.6667 62.2223 46.6667H49.7779Z" fill="#003452"/>
<path d="M56.9994 60.9445V64.3427C56.9994 64.8898 56.552 65.3334 56.0001 65.3334C55.4482 65.3334 55.0007 64.8898 55.0007 64.3427V60.9445H51.5728C51.058 60.8916 50.6667 60.4615 50.6667 59.9484C50.6667 59.4354 51.058 59.0053 51.5728 58.9524H54.99V55.5649C55.0433 55.0545 55.4771 54.6667 55.9947 54.6667C56.5123 54.6667 56.9461 55.0545 56.9994 55.5649V58.9524H60.4274C60.9422 59.0053 61.3334 59.4354 61.3334 59.9484C61.3334 60.4615 60.9422 60.8916 60.4274 60.9445H56.9994Z" fill="#00A2FD"/>
<path d="M88.666 59.218C88.666 57.994 88.948 56.896 89.512 55.924C90.088 54.952 90.862 54.196 91.834 53.656C92.818 53.104 93.892 52.828 95.056 52.828C96.388 52.828 97.57 53.158 98.602 53.818C99.646 54.466 100.402 55.39 100.87 56.59H98.404C98.08 55.93 97.63 55.438 97.054 55.114C96.478 54.79 95.812 54.628 95.056 54.628C94.228 54.628 93.49 54.814 92.842 55.186C92.194 55.558 91.684 56.092 91.312 56.788C90.952 57.484 90.772 58.294 90.772 59.218C90.772 60.142 90.952 60.952 91.312 61.648C91.684 62.344 92.194 62.884 92.842 63.268C93.49 63.64 94.228 63.826 95.056 63.826C95.812 63.826 96.478 63.664 97.054 63.34C97.63 63.016 98.08 62.524 98.404 61.864H100.87C100.402 63.064 99.646 63.988 98.602 64.636C97.57 65.284 96.388 65.608 95.056 65.608C93.88 65.608 92.806 65.338 91.834 64.798C90.862 64.246 90.088 63.484 89.512 62.512C88.948 61.54 88.666 60.442 88.666 59.218ZM105.324 57.022C105.624 56.518 106.02 56.128 106.512 55.852C107.016 55.564 107.61 55.42 108.294 55.42V57.544H107.772C106.968 57.544 106.356 57.748 105.936 58.156C105.528 58.564 105.324 59.272 105.324 60.28V65.5H103.272V55.582H105.324V57.022ZM119.27 60.298C119.27 60.67 119.246 61.006 119.198 61.306H111.62C111.68 62.098 111.974 62.734 112.502 63.214C113.03 63.694 113.678 63.934 114.446 63.934C115.55 63.934 116.33 63.472 116.786 62.548H119C118.7 63.46 118.154 64.21 117.362 64.798C116.582 65.374 115.61 65.662 114.446 65.662C113.498 65.662 112.646 65.452 111.89 65.032C111.146 64.6 110.558 64 110.126 63.232C109.706 62.452 109.496 61.552 109.496 60.532C109.496 59.512 109.7 58.618 110.108 57.85C110.528 57.07 111.11 56.47 111.854 56.05C112.61 55.63 113.474 55.42 114.446 55.42C115.382 55.42 116.216 55.624 116.948 56.032C117.68 56.44 118.25 57.016 118.658 57.76C119.066 58.492 119.27 59.338 119.27 60.298ZM117.128 59.65C117.116 58.894 116.846 58.288 116.318 57.832C115.79 57.376 115.136 57.148 114.356 57.148C113.648 57.148 113.042 57.376 112.538 57.832C112.034 58.276 111.734 58.882 111.638 59.65H117.128ZM120.605 60.496C120.605 59.5 120.809 58.618 121.217 57.85C121.637 57.082 122.201 56.488 122.909 56.068C123.629 55.636 124.421 55.42 125.285 55.42C126.065 55.42 126.743 55.576 127.319 55.888C127.907 56.188 128.375 56.566 128.723 57.022V55.582H130.793V65.5H128.723V64.024C128.375 64.492 127.901 64.882 127.301 65.194C126.701 65.506 126.017 65.662 125.249 65.662C124.397 65.662 123.617 65.446 122.909 65.014C122.201 64.57 121.637 63.958 121.217 63.178C120.809 62.386 120.605 61.492 120.605 60.496ZM128.723 60.532C128.723 59.848 128.579 59.254 128.291 58.75C128.015 58.246 127.649 57.862 127.193 57.598C126.737 57.334 126.245 57.202 125.717 57.202C125.189 57.202 124.697 57.334 124.241 57.598C123.785 57.85 123.413 58.228 123.125 58.732C122.849 59.224 122.711 59.812 122.711 60.496C122.711 61.18 122.849 61.78 123.125 62.296C123.413 62.812 123.785 63.208 124.241 63.484C124.709 63.748 125.201 63.88 125.717 63.88C126.245 63.88 126.737 63.748 127.193 63.484C127.649 63.22 128.015 62.836 128.291 62.332C128.579 61.816 128.723 61.216 128.723 60.532ZM135.883 57.256V62.746C135.883 63.118 135.967 63.388 136.135 63.556C136.315 63.712 136.615 63.79 137.035 63.79H138.295V65.5H136.675C135.751 65.5 135.043 65.284 134.551 64.852C134.059 64.42 133.813 63.718 133.813 62.746V57.256H132.643V55.582H133.813V53.116H135.883V55.582H138.295V57.256H135.883ZM149.276 60.298C149.276 60.67 149.252 61.006 149.204 61.306H141.626C141.686 62.098 141.98 62.734 142.508 63.214C143.036 63.694 143.684 63.934 144.452 63.934C145.556 63.934 146.336 63.472 146.792 62.548H149.006C148.706 63.46 148.16 64.21 147.368 64.798C146.588 65.374 145.616 65.662 144.452 65.662C143.504 65.662 142.652 65.452 141.896 65.032C141.152 64.6 140.564 64 140.132 63.232C139.712 62.452 139.502 61.552 139.502 60.532C139.502 59.512 139.706 58.618 140.114 57.85C140.534 57.07 141.116 56.47 141.86 56.05C142.616 55.63 143.48 55.42 144.452 55.42C145.388 55.42 146.222 55.624 146.954 56.032C147.686 56.44 148.256 57.016 148.664 57.76C149.072 58.492 149.276 59.338 149.276 60.298ZM147.134 59.65C147.122 58.894 146.852 58.288 146.324 57.832C145.796 57.376 145.142 57.148 144.362 57.148C143.654 57.148 143.048 57.376 142.544 57.832C142.04 58.276 141.74 58.882 141.644 59.65H147.134ZM166.249 65.5H164.197L158.023 56.158V65.5H155.971V52.972H158.023L164.197 62.296V52.972H166.249V65.5ZM176.306 52.99V54.664H170.996V58.354H175.136V60.028H170.996V65.5H168.944V52.99H176.306ZM186.289 52.99V54.664H182.959V65.5H180.907V54.664H177.559V52.99H186.289Z" fill="white"/>
<rect x="92.5" y="104" width="96" height="2" rx="1" fill="#00A2FD"/>
<rect x="16" y="122" width="249" height="88" rx="18" fill="#030A1D"/>
<path d="M49.7779 152.667C45.2386 152.667 42.6667 155.239 42.6667 159.778V172.222C42.6667 176.75 45.2267 179.333 49.7779 179.333H62.2223C66.7616 179.333 69.3334 176.75 69.3334 172.222V159.778C69.3334 155.239 66.7616 152.667 62.2223 152.667H49.7779Z" fill="#003452"/>
<path d="M56.9994 166.944V170.343C56.9994 170.89 56.552 171.333 56.0001 171.333C55.4482 171.333 55.0007 170.89 55.0007 170.343V166.944H51.5728C51.058 166.892 50.6667 166.462 50.6667 165.948C50.6667 165.435 51.058 165.005 51.5728 164.952H54.99V161.565C55.0433 161.055 55.4771 160.667 55.9947 160.667C56.5123 160.667 56.9461 161.055 56.9994 161.565V164.952H60.4274C60.9422 165.005 61.3334 165.435 61.3334 165.948C61.3334 166.462 60.9422 166.892 60.4274 166.944H56.9994Z" fill="#00A2FD"/>
<path d="M88.666 165.218C88.666 163.994 88.948 162.896 89.512 161.924C90.088 160.952 90.862 160.196 91.834 159.656C92.818 159.104 93.892 158.828 95.056 158.828C96.388 158.828 97.57 159.158 98.602 159.818C99.646 160.466 100.402 161.39 100.87 162.59H98.404C98.08 161.93 97.63 161.438 97.054 161.114C96.478 160.79 95.812 160.628 95.056 160.628C94.228 160.628 93.49 160.814 92.842 161.186C92.194 161.558 91.684 162.092 91.312 162.788C90.952 163.484 90.772 164.294 90.772 165.218C90.772 166.142 90.952 166.952 91.312 167.648C91.684 168.344 92.194 168.884 92.842 169.268C93.49 169.64 94.228 169.826 95.056 169.826C95.812 169.826 96.478 169.664 97.054 169.34C97.63 169.016 98.08 168.524 98.404 167.864H100.87C100.402 169.064 99.646 169.988 98.602 170.636C97.57 171.284 96.388 171.608 95.056 171.608C93.88 171.608 92.806 171.338 91.834 170.798C90.862 170.246 90.088 169.484 89.512 168.512C88.948 167.54 88.666 166.442 88.666 165.218ZM105.324 163.022C105.624 162.518 106.02 162.128 106.512 161.852C107.016 161.564 107.61 161.42 108.294 161.42V163.544H107.772C106.968 163.544 106.356 163.748 105.936 164.156C105.528 164.564 105.324 165.272 105.324 166.28V171.5H103.272V161.582H105.324V163.022ZM119.27 166.298C119.27 166.67 119.246 167.006 119.198 167.306H111.62C111.68 168.098 111.974 168.734 112.502 169.214C113.03 169.694 113.678 169.934 114.446 169.934C115.55 169.934 116.33 169.472 116.786 168.548H119C118.7 169.46 118.154 170.21 117.362 170.798C116.582 171.374 115.61 171.662 114.446 171.662C113.498 171.662 112.646 171.452 111.89 171.032C111.146 170.6 110.558 170 110.126 169.232C109.706 168.452 109.496 167.552 109.496 166.532C109.496 165.512 109.7 164.618 110.108 163.85C110.528 163.07 111.11 162.47 111.854 162.05C112.61 161.63 113.474 161.42 114.446 161.42C115.382 161.42 116.216 161.624 116.948 162.032C117.68 162.44 118.25 163.016 118.658 163.76C119.066 164.492 119.27 165.338 119.27 166.298ZM117.128 165.65C117.116 164.894 116.846 164.288 116.318 163.832C115.79 163.376 115.136 163.148 114.356 163.148C113.648 163.148 113.042 163.376 112.538 163.832C112.034 164.276 111.734 164.882 111.638 165.65H117.128ZM120.605 166.496C120.605 165.5 120.809 164.618 121.217 163.85C121.637 163.082 122.201 162.488 122.909 162.068C123.629 161.636 124.421 161.42 125.285 161.42C126.065 161.42 126.743 161.576 127.319 161.888C127.907 162.188 128.375 162.566 128.723 163.022V161.582H130.793V171.5H128.723V170.024C128.375 170.492 127.901 170.882 127.301 171.194C126.701 171.506 126.017 171.662 125.249 171.662C124.397 171.662 123.617 171.446 122.909 171.014C122.201 170.57 121.637 169.958 121.217 169.178C120.809 168.386 120.605 167.492 120.605 166.496ZM128.723 166.532C128.723 165.848 128.579 165.254 128.291 164.75C128.015 164.246 127.649 163.862 127.193 163.598C126.737 163.334 126.245 163.202 125.717 163.202C125.189 163.202 124.697 163.334 124.241 163.598C123.785 163.85 123.413 164.228 123.125 164.732C122.849 165.224 122.711 165.812 122.711 166.496C122.711 167.18 122.849 167.78 123.125 168.296C123.413 168.812 123.785 169.208 124.241 169.484C124.709 169.748 125.201 169.88 125.717 169.88C126.245 169.88 126.737 169.748 127.193 169.484C127.649 169.22 128.015 168.836 128.291 168.332C128.579 167.816 128.723 167.216 128.723 166.532ZM135.883 163.256V168.746C135.883 169.118 135.967 169.388 136.135 169.556C136.315 169.712 136.615 169.79 137.035 169.79H138.295V171.5H136.675C135.751 171.5 135.043 171.284 134.551 170.852C134.059 170.42 133.813 169.718 133.813 168.746V163.256H132.643V161.582H133.813V159.116H135.883V161.582H138.295V163.256H135.883ZM149.276 166.298C149.276 166.67 149.252 167.006 149.204 167.306H141.626C141.686 168.098 141.98 168.734 142.508 169.214C143.036 169.694 143.684 169.934 144.452 169.934C145.556 169.934 146.336 169.472 146.792 168.548H149.006C148.706 169.46 148.16 170.21 147.368 170.798C146.588 171.374 145.616 171.662 144.452 171.662C143.504 171.662 142.652 171.452 141.896 171.032C141.152 170.6 140.564 170 140.132 169.232C139.712 168.452 139.502 167.552 139.502 166.532C139.502 165.512 139.706 164.618 140.114 163.85C140.534 163.07 141.116 162.47 141.86 162.05C142.616 161.63 143.48 161.42 144.452 161.42C145.388 161.42 146.222 161.624 146.954 162.032C147.686 162.44 148.256 163.016 148.664 163.76C149.072 164.492 149.276 165.338 149.276 166.298ZM147.134 165.65C147.122 164.894 146.852 164.288 146.324 163.832C145.796 163.376 145.142 163.148 144.362 163.148C143.654 163.148 143.048 163.376 142.544 163.832C142.04 164.276 141.74 164.882 141.644 165.65H147.134ZM166.249 171.5H164.197L158.023 162.158V171.5H155.971V158.972H158.023L164.197 168.296V158.972H166.249V171.5ZM176.306 158.99V160.664H170.996V164.354H175.136V166.028H170.996V171.5H168.944V158.99H176.306ZM186.289 158.99V160.664H182.959V171.5H180.907V160.664H177.559V158.99H186.289Z" fill="#00A2FD"/>
<rect x="92.5" y="210" width="96" height="2" rx="1" fill="#00A2FD"/>
</svg>
