<svg width="252" height="184" viewBox="0 0 252 184" fill="none" xmlns="http://www.w3.org/2000/svg">
<rect width="252" height="184" fill="white"/>
<circle cx="36" cy="36" r="20" fill="#00A2FD"/>
<path d="M28.8714 41H26.5645L30.0795 30.8182H32.8536L36.3635 41H34.0567L31.5063 33.1449H31.4268L28.8714 41ZM28.7272 36.9979H34.176V38.6783H28.7272V36.9979ZM37.589 41V30.8182H41.6061C42.3783 30.8182 43.0363 30.9657 43.5798 31.2607C44.1234 31.5523 44.5377 31.9583 44.8227 32.4787C45.1111 32.9957 45.2552 33.5923 45.2552 34.2685C45.2552 34.9446 45.1094 35.5412 44.8177 36.0582C44.5261 36.5753 44.1035 36.978 43.55 37.2663C42.9998 37.5547 42.3336 37.6989 41.5514 37.6989H38.991V35.9737H41.2034C41.6177 35.9737 41.9591 35.9025 42.2275 35.7599C42.4993 35.6141 42.7015 35.4136 42.8341 35.1584C42.97 34.8999 43.0379 34.6032 43.0379 34.2685C43.0379 33.9304 42.97 33.6354 42.8341 33.3835C42.7015 33.1283 42.4993 32.9311 42.2275 32.7919C41.9558 32.6494 41.6111 32.5781 41.1934 32.5781H39.7417V41H37.589Z" fill="white"/>
<path d="M65.7969 18.625H67.2578L70.9844 27.8984L74.7031 18.625H76.1719L71.5469 30H70.4062L65.7969 18.625ZM65.3203 18.625H66.6094L66.8203 25.5625V30H65.3203V18.625ZM75.3516 18.625H76.6406V30H75.1406V25.5625L75.3516 18.625ZM82.5781 30.1562C81.9896 30.1562 81.4557 30.0573 80.9766 29.8594C80.5026 29.6562 80.0938 29.3724 79.75 29.0078C79.4115 28.6432 79.151 28.2109 78.9688 27.7109C78.7865 27.2109 78.6953 26.6641 78.6953 26.0703V25.7422C78.6953 25.0547 78.7969 24.4427 79 23.9062C79.2031 23.3646 79.4792 22.9062 79.8281 22.5312C80.1771 22.1562 80.5729 21.8724 81.0156 21.6797C81.4583 21.487 81.9167 21.3906 82.3906 21.3906C82.9948 21.3906 83.5156 21.4948 83.9531 21.7031C84.3958 21.9115 84.7578 22.2031 85.0391 22.5781C85.3203 22.9479 85.5286 23.3854 85.6641 23.8906C85.7995 24.3906 85.8672 24.9375 85.8672 25.5312V26.1797H79.5547V25H84.4219V24.8906C84.401 24.5156 84.3229 24.151 84.1875 23.7969C84.0573 23.4427 83.849 23.151 83.5625 22.9219C83.276 22.6927 82.8854 22.5781 82.3906 22.5781C82.0625 22.5781 81.7604 22.6484 81.4844 22.7891C81.2083 22.9245 80.9714 23.1276 80.7734 23.3984C80.5755 23.6693 80.4219 24 80.3125 24.3906C80.2031 24.7812 80.1484 25.2318 80.1484 25.7422V26.0703C80.1484 26.4714 80.2031 26.849 80.3125 27.2031C80.4271 27.5521 80.5911 27.8594 80.8047 28.125C81.0234 28.3906 81.2865 28.599 81.5938 28.75C81.9062 28.901 82.2604 28.9766 82.6562 28.9766C83.1667 28.9766 83.599 28.8724 83.9531 28.6641C84.3073 28.4557 84.6172 28.1771 84.8828 27.8281L85.7578 28.5234C85.5755 28.7995 85.3438 29.0625 85.0625 29.3125C84.7812 29.5625 84.4349 29.7656 84.0234 29.9219C83.6172 30.0781 83.1354 30.1562 82.5781 30.1562ZM89.0078 18V30H87.5547V18H89.0078ZM94.1719 21.5469L90.4844 25.4922L88.4219 27.6328L88.3047 26.0938L89.7812 24.3281L92.4062 21.5469H94.1719ZM92.8516 30L89.8359 25.9688L90.5859 24.6797L94.5547 30H92.8516ZM100.648 28.5547V24.2031C100.648 23.8698 100.581 23.5807 100.445 23.3359C100.315 23.0859 100.117 22.8932 99.8516 22.7578C99.5859 22.6224 99.2578 22.5547 98.8672 22.5547C98.5026 22.5547 98.1823 22.6172 97.9062 22.7422C97.6354 22.8672 97.4219 23.0312 97.2656 23.2344C97.1146 23.4375 97.0391 23.6562 97.0391 23.8906H95.5938C95.5938 23.5885 95.6719 23.2891 95.8281 22.9922C95.9844 22.6953 96.2083 22.4271 96.5 22.1875C96.7969 21.9427 97.151 21.75 97.5625 21.6094C97.9792 21.4635 98.4427 21.3906 98.9531 21.3906C99.5677 21.3906 100.109 21.4948 100.578 21.7031C101.052 21.9115 101.422 22.2266 101.688 22.6484C101.958 23.0651 102.094 23.5885 102.094 24.2188V28.1562C102.094 28.4375 102.117 28.737 102.164 29.0547C102.216 29.3724 102.292 29.6458 102.391 29.875V30H100.883C100.81 29.8333 100.753 29.612 100.711 29.3359C100.669 29.0547 100.648 28.7943 100.648 28.5547ZM100.898 24.875L100.914 25.8906H99.4531C99.0417 25.8906 98.6745 25.9245 98.3516 25.9922C98.0286 26.0547 97.7578 26.151 97.5391 26.2812C97.3203 26.4115 97.1536 26.5755 97.0391 26.7734C96.9245 26.9661 96.8672 27.1927 96.8672 27.4531C96.8672 27.7188 96.9271 27.9609 97.0469 28.1797C97.1667 28.3984 97.3464 28.5729 97.5859 28.7031C97.8307 28.8281 98.1302 28.8906 98.4844 28.8906C98.9271 28.8906 99.3177 28.7969 99.6562 28.6094C99.9948 28.4219 100.263 28.1927 100.461 27.9219C100.664 27.651 100.773 27.388 100.789 27.1328L101.406 27.8281C101.37 28.0469 101.271 28.2891 101.109 28.5547C100.948 28.8203 100.732 29.0755 100.461 29.3203C100.195 29.5599 99.8776 29.7604 99.5078 29.9219C99.1432 30.0781 98.7318 30.1562 98.2734 30.1562C97.7005 30.1562 97.1979 30.0443 96.7656 29.8203C96.3385 29.5964 96.0052 29.2969 95.7656 28.9219C95.5312 28.5417 95.4141 28.1172 95.4141 27.6484C95.4141 27.1953 95.5026 26.7969 95.6797 26.4531C95.8568 26.1042 96.112 25.8151 96.4453 25.5859C96.7786 25.3516 97.1797 25.1745 97.6484 25.0547C98.1172 24.9349 98.6406 24.875 99.2188 24.875H100.898ZM112.227 28.2734L115.578 18.625H117.211L113 30H111.836L112.227 28.2734ZM109.094 18.625L112.414 28.2734L112.828 30H111.664L107.461 18.625H109.094ZM121.688 30.1562C121.099 30.1562 120.565 30.0573 120.086 29.8594C119.612 29.6562 119.203 29.3724 118.859 29.0078C118.521 28.6432 118.26 28.2109 118.078 27.7109C117.896 27.2109 117.805 26.6641 117.805 26.0703V25.7422C117.805 25.0547 117.906 24.4427 118.109 23.9062C118.312 23.3646 118.589 22.9062 118.938 22.5312C119.286 22.1562 119.682 21.8724 120.125 21.6797C120.568 21.487 121.026 21.3906 121.5 21.3906C122.104 21.3906 122.625 21.4948 123.062 21.7031C123.505 21.9115 123.867 22.2031 124.148 22.5781C124.43 22.9479 124.638 23.3854 124.773 23.8906C124.909 24.3906 124.977 24.9375 124.977 25.5312V26.1797H118.664V25H123.531V24.8906C123.51 24.5156 123.432 24.151 123.297 23.7969C123.167 23.4427 122.958 23.151 122.672 22.9219C122.385 22.6927 121.995 22.5781 121.5 22.5781C121.172 22.5781 120.87 22.6484 120.594 22.7891C120.318 22.9245 120.081 23.1276 119.883 23.3984C119.685 23.6693 119.531 24 119.422 24.3906C119.312 24.7812 119.258 25.2318 119.258 25.7422V26.0703C119.258 26.4714 119.312 26.849 119.422 27.2031C119.536 27.5521 119.701 27.8594 119.914 28.125C120.133 28.3906 120.396 28.599 120.703 28.75C121.016 28.901 121.37 28.9766 121.766 28.9766C122.276 28.9766 122.708 28.8724 123.062 28.6641C123.417 28.4557 123.727 28.1771 123.992 27.8281L124.867 28.5234C124.685 28.7995 124.453 29.0625 124.172 29.3125C123.891 29.5625 123.544 29.7656 123.133 29.9219C122.727 30.0781 122.245 30.1562 121.688 30.1562ZM128.109 22.875V30H126.664V21.5469H128.07L128.109 22.875ZM130.75 21.5L130.742 22.8438C130.622 22.8177 130.508 22.8021 130.398 22.7969C130.294 22.7865 130.174 22.7812 130.039 22.7812C129.706 22.7812 129.411 22.8333 129.156 22.9375C128.901 23.0417 128.685 23.1875 128.508 23.375C128.331 23.5625 128.19 23.7865 128.086 24.0469C127.987 24.3021 127.922 24.5833 127.891 24.8906L127.484 25.125C127.484 24.6146 127.534 24.1354 127.633 23.6875C127.737 23.2396 127.896 22.8438 128.109 22.5C128.323 22.151 128.594 21.8802 128.922 21.6875C129.255 21.4896 129.651 21.3906 130.109 21.3906C130.214 21.3906 130.333 21.4036 130.469 21.4297C130.604 21.4505 130.698 21.474 130.75 21.5ZM137.008 27.7578C137.008 27.5495 136.961 27.3568 136.867 27.1797C136.779 26.9974 136.594 26.8333 136.312 26.6875C136.036 26.5365 135.62 26.4062 135.062 26.2969C134.594 26.1979 134.169 26.0807 133.789 25.9453C133.414 25.8099 133.094 25.6458 132.828 25.4531C132.568 25.2604 132.367 25.0339 132.227 24.7734C132.086 24.513 132.016 24.2083 132.016 23.8594C132.016 23.526 132.089 23.2109 132.234 22.9141C132.385 22.6172 132.596 22.3542 132.867 22.125C133.143 21.8958 133.474 21.7161 133.859 21.5859C134.245 21.4557 134.674 21.3906 135.148 21.3906C135.826 21.3906 136.404 21.5104 136.883 21.75C137.362 21.9896 137.729 22.3099 137.984 22.7109C138.24 23.1068 138.367 23.5469 138.367 24.0312H136.922C136.922 23.7969 136.852 23.5703 136.711 23.3516C136.576 23.1276 136.375 22.9427 136.109 22.7969C135.849 22.651 135.529 22.5781 135.148 22.5781C134.747 22.5781 134.422 22.6406 134.172 22.7656C133.927 22.8854 133.747 23.0391 133.633 23.2266C133.523 23.4141 133.469 23.612 133.469 23.8203C133.469 23.9766 133.495 24.1172 133.547 24.2422C133.604 24.362 133.703 24.474 133.844 24.5781C133.984 24.6771 134.182 24.7708 134.438 24.8594C134.693 24.9479 135.018 25.0365 135.414 25.125C136.107 25.2812 136.677 25.4688 137.125 25.6875C137.573 25.9062 137.906 26.1745 138.125 26.4922C138.344 26.8099 138.453 27.1953 138.453 27.6484C138.453 28.0182 138.375 28.3568 138.219 28.6641C138.068 28.9714 137.846 29.237 137.555 29.4609C137.268 29.6797 136.924 29.8516 136.523 29.9766C136.128 30.0964 135.682 30.1562 135.188 30.1562C134.443 30.1562 133.812 30.0234 133.297 29.7578C132.781 29.4922 132.391 29.1484 132.125 28.7266C131.859 28.3047 131.727 27.8594 131.727 27.3906H133.18C133.201 27.7865 133.315 28.1016 133.523 28.3359C133.732 28.5651 133.987 28.7292 134.289 28.8281C134.591 28.9219 134.891 28.9688 135.188 28.9688C135.583 28.9688 135.914 28.9167 136.18 28.8125C136.451 28.7083 136.656 28.5651 136.797 28.3828C136.938 28.2005 137.008 27.9922 137.008 27.7578Z" fill="white"/>
<path d="M74.1719 40.0527C74.1562 40.4121 74.1016 40.7734 74.0078 41.1367C73.9141 41.4961 73.7734 41.8262 73.5859 42.127C73.3984 42.4277 73.1543 42.6699 72.8535 42.8535C72.5566 43.0332 72.1973 43.123 71.7754 43.123C71.5059 43.123 71.2695 43.0762 71.0664 42.9824C70.8672 42.8848 70.7031 42.7461 70.5742 42.5664C70.4492 42.3867 70.3613 42.1699 70.3105 41.916C70.2637 41.6621 70.2559 41.3789 70.2871 41.0664L70.5859 37.8203H71.4473L71.1484 41.0664C71.125 41.3516 71.1309 41.584 71.166 41.7637C71.2051 41.9434 71.2637 42.082 71.3418 42.1797C71.4199 42.2734 71.5078 42.3379 71.6055 42.373C71.707 42.4082 71.8047 42.4258 71.8984 42.4258C72.1328 42.4258 72.3418 42.3652 72.5254 42.2441C72.709 42.1191 72.8633 41.9492 72.9883 41.7344C73.1172 41.5156 73.2168 41.2637 73.2871 40.9785C73.3574 40.6895 73.4004 40.3809 73.416 40.0527C73.4434 39.4707 73.416 38.9355 73.334 38.4473C73.2559 37.959 73.1211 37.5254 72.9297 37.1465C72.7422 36.7676 72.4961 36.4473 72.1914 36.1855C71.8867 35.9238 71.5234 35.7246 71.1016 35.5879C70.6797 35.4512 70.1973 35.3828 69.6543 35.3828C69.1621 35.3828 68.707 35.459 68.2891 35.6113C67.875 35.7598 67.502 35.9746 67.1699 36.2559C66.8418 36.5371 66.5586 36.875 66.3203 37.2695C66.0859 37.6641 65.9004 38.1094 65.7637 38.6055C65.6309 39.0977 65.5527 39.6289 65.5293 40.1992C65.502 40.7852 65.5332 41.3242 65.623 41.8164C65.7129 42.3047 65.8574 42.7402 66.0566 43.123C66.2598 43.5098 66.5156 43.8359 66.8242 44.1016C67.1328 44.3711 67.4902 44.5742 67.8965 44.7109C68.3027 44.8516 68.7559 44.9219 69.2559 44.9219C69.5996 44.9219 69.9473 44.8809 70.2988 44.7988C70.6543 44.7168 70.9512 44.6055 71.1895 44.4648L71.4121 45.1328C71.1387 45.3086 70.7969 45.4395 70.3867 45.5254C69.9805 45.6113 69.5957 45.6543 69.2324 45.6543C68.6387 45.6543 68.0957 45.5723 67.6035 45.4082C67.1152 45.248 66.6816 45.0117 66.3027 44.6992C65.9277 44.3906 65.6152 44.0137 65.3652 43.5684C65.1152 43.127 64.9316 42.623 64.8145 42.0566C64.6973 41.4902 64.6523 40.8711 64.6797 40.1992C64.707 39.5586 64.8027 38.9551 64.9668 38.3887C65.1348 37.8223 65.3633 37.3086 65.6523 36.8477C65.9414 36.3867 66.2852 35.9902 66.6836 35.6582C67.0859 35.3223 67.5371 35.0645 68.0371 34.8848C68.541 34.7051 69.0879 34.6152 69.6777 34.6152C70.2793 34.6152 70.8242 34.6973 71.3125 34.8613C71.8008 35.0254 72.2285 35.2617 72.5957 35.5703C72.9668 35.8789 73.2734 36.2559 73.5156 36.7012C73.7578 37.1465 73.9336 37.6504 74.043 38.2129C74.1562 38.7754 74.1992 39.3887 74.1719 40.0527ZM68.1543 40.5508C68.127 40.8242 68.127 41.0684 68.1543 41.2832C68.1816 41.498 68.2344 41.6797 68.3125 41.8281C68.3906 41.9766 68.4922 42.0898 68.6172 42.168C68.7461 42.2422 68.8965 42.2793 69.0684 42.2793C69.1816 42.2793 69.3008 42.252 69.4258 42.1973C69.5508 42.1387 69.6738 42.0488 69.7949 41.9277C69.916 41.8066 70.0293 41.6484 70.1348 41.4531C70.2402 41.2578 70.3281 41.0234 70.3984 40.75L70.7852 41.1719C70.6953 41.4922 70.5781 41.7734 70.4336 42.0156C70.293 42.2578 70.1348 42.4609 69.959 42.625C69.7832 42.7891 69.5957 42.9141 69.3965 43C69.2012 43.082 69.002 43.123 68.7988 43.123C68.5137 43.123 68.2637 43.0625 68.0488 42.9414C67.834 42.8164 67.6602 42.6406 67.5273 42.4141C67.3945 42.1875 67.3008 41.918 67.2461 41.6055C67.1953 41.2891 67.1875 40.9375 67.2227 40.5508C67.2578 40.1406 67.3301 39.7617 67.4395 39.4141C67.5488 39.0664 67.6836 38.7559 67.8438 38.4824C68.0078 38.209 68.1914 37.9766 68.3945 37.7852C68.6016 37.5938 68.8203 37.4492 69.0508 37.3516C69.2812 37.25 69.5176 37.1992 69.7598 37.1992C70.1816 37.1992 70.5137 37.2617 70.7559 37.3867C70.998 37.5078 71.2285 37.6523 71.4473 37.8203L70.9492 38.4004C70.8359 38.291 70.6875 38.1895 70.5039 38.0957C70.3203 38.002 70.1035 37.9551 69.8535 37.9551C69.6387 37.9551 69.4375 38.0098 69.25 38.1191C69.0625 38.2285 68.8926 38.3926 68.7402 38.6113C68.5918 38.8301 68.4668 39.1016 68.3652 39.4258C68.2637 39.7461 68.1934 40.1211 68.1543 40.5508ZM76.6855 37.9199V43H75.5957V36.6602H76.627L76.6855 37.9199ZM76.4629 39.5898L75.959 39.5723C75.9629 39.1387 76.0195 38.7383 76.1289 38.3711C76.2383 38 76.4004 37.6777 76.6152 37.4043C76.8301 37.1309 77.0977 36.9199 77.418 36.7715C77.7383 36.6191 78.1094 36.543 78.5312 36.543C78.8281 36.543 79.1016 36.5859 79.3516 36.6719C79.6016 36.7539 79.8184 36.8848 80.002 37.0645C80.1855 37.2441 80.3281 37.4746 80.4297 37.7559C80.5312 38.0371 80.582 38.377 80.582 38.7754V43H79.498V38.8281C79.498 38.4961 79.4414 38.2305 79.3281 38.0312C79.2188 37.832 79.0625 37.6875 78.8594 37.5977C78.6562 37.5039 78.418 37.457 78.1445 37.457C77.8242 37.457 77.5566 37.5137 77.3418 37.627C77.127 37.7402 76.9551 37.8965 76.8262 38.0957C76.6973 38.2949 76.6035 38.5234 76.5449 38.7812C76.4902 39.0352 76.4629 39.3047 76.4629 39.5898ZM80.5703 38.9922L79.8438 39.2148C79.8477 38.8672 79.9043 38.5332 80.0137 38.2129C80.127 37.8926 80.2891 37.6074 80.5 37.3574C80.7148 37.1074 80.9785 36.9102 81.291 36.7656C81.6035 36.6172 81.9609 36.543 82.3633 36.543C82.7031 36.543 83.0039 36.5879 83.2656 36.6777C83.5312 36.7676 83.7539 36.9062 83.9336 37.0938C84.1172 37.2773 84.2559 37.5137 84.3496 37.8027C84.4434 38.0918 84.4902 38.4355 84.4902 38.834V43H83.4004V38.8223C83.4004 38.4668 83.3438 38.1914 83.2305 37.9961C83.1211 37.7969 82.9648 37.6582 82.7617 37.5801C82.5625 37.498 82.3242 37.457 82.0469 37.457C81.8086 37.457 81.5977 37.498 81.4141 37.5801C81.2305 37.6621 81.0762 37.7754 80.9512 37.9199C80.8262 38.0605 80.7305 38.2227 80.6641 38.4062C80.6016 38.5898 80.5703 38.7852 80.5703 38.9922ZM88.7617 43.1172C88.3203 43.1172 87.9199 43.043 87.5605 42.8945C87.2051 42.7422 86.8984 42.5293 86.6406 42.2559C86.3867 41.9824 86.1914 41.6582 86.0547 41.2832C85.918 40.9082 85.8496 40.498 85.8496 40.0527V39.8066C85.8496 39.291 85.9258 38.832 86.0781 38.4297C86.2305 38.0234 86.4375 37.6797 86.6992 37.3984C86.9609 37.1172 87.2578 36.9043 87.5898 36.7598C87.9219 36.6152 88.2656 36.543 88.6211 36.543C89.0742 36.543 89.4648 36.6211 89.793 36.7773C90.125 36.9336 90.3965 37.1523 90.6074 37.4336C90.8184 37.7109 90.9746 38.0391 91.0762 38.418C91.1777 38.793 91.2285 39.2031 91.2285 39.6484V40.1348H86.4941V39.25H90.1445V39.168C90.1289 38.8867 90.0703 38.6133 89.9688 38.3477C89.8711 38.082 89.7148 37.8633 89.5 37.6914C89.2852 37.5195 88.9922 37.4336 88.6211 37.4336C88.375 37.4336 88.1484 37.4863 87.9414 37.5918C87.7344 37.6934 87.5566 37.8457 87.4082 38.0488C87.2598 38.252 87.1445 38.5 87.0625 38.793C86.9805 39.0859 86.9395 39.4238 86.9395 39.8066V40.0527C86.9395 40.3535 86.9805 40.6367 87.0625 40.9023C87.1484 41.1641 87.2715 41.3945 87.4316 41.5938C87.5957 41.793 87.793 41.9492 88.0234 42.0625C88.2578 42.1758 88.5234 42.2324 88.8203 42.2324C89.2031 42.2324 89.5273 42.1543 89.793 41.998C90.0586 41.8418 90.291 41.6328 90.4902 41.3711L91.1465 41.8926C91.0098 42.0996 90.8359 42.2969 90.625 42.4844C90.4141 42.6719 90.1543 42.8242 89.8457 42.9414C89.541 43.0586 89.1797 43.1172 88.7617 43.1172ZM93.584 34V43H92.4941V34H93.584ZM97.457 36.6602L94.6914 39.6191L93.1445 41.2246L93.0566 40.0703L94.1641 38.7461L96.1328 36.6602H97.457ZM96.4668 43L94.2051 39.9766L94.7676 39.0098L97.7441 43H96.4668ZM102.314 41.916V38.6523C102.314 38.4023 102.264 38.1855 102.162 38.002C102.064 37.8145 101.916 37.6699 101.717 37.5684C101.518 37.4668 101.271 37.416 100.979 37.416C100.705 37.416 100.465 37.4629 100.258 37.5566C100.055 37.6504 99.8945 37.7734 99.7773 37.9258C99.6641 38.0781 99.6074 38.2422 99.6074 38.418H98.5234C98.5234 38.1914 98.582 37.9668 98.6992 37.7441C98.8164 37.5215 98.9844 37.3203 99.2031 37.1406C99.4258 36.957 99.6914 36.8125 100 36.707C100.312 36.5977 100.66 36.543 101.043 36.543C101.504 36.543 101.91 36.6211 102.262 36.7773C102.617 36.9336 102.895 37.1699 103.094 37.4863C103.297 37.7988 103.398 38.1914 103.398 38.6641V41.6172C103.398 41.8281 103.416 42.0527 103.451 42.291C103.49 42.5293 103.547 42.7344 103.621 42.9062V43H102.49C102.436 42.875 102.393 42.709 102.361 42.502C102.33 42.291 102.314 42.0957 102.314 41.916ZM102.502 39.1562L102.514 39.918H101.418C101.109 39.918 100.834 39.9434 100.592 39.9941C100.35 40.041 100.146 40.1133 99.9824 40.2109C99.8184 40.3086 99.6934 40.4316 99.6074 40.5801C99.5215 40.7246 99.4785 40.8945 99.4785 41.0898C99.4785 41.2891 99.5234 41.4707 99.6133 41.6348C99.7031 41.7988 99.8379 41.9297 100.018 42.0273C100.201 42.1211 100.426 42.168 100.691 42.168C101.023 42.168 101.316 42.0977 101.57 41.957C101.824 41.8164 102.025 41.6445 102.174 41.4414C102.326 41.2383 102.408 41.041 102.42 40.8496L102.883 41.3711C102.855 41.5352 102.781 41.7168 102.66 41.916C102.539 42.1152 102.377 42.3066 102.174 42.4902C101.975 42.6699 101.736 42.8203 101.459 42.9414C101.186 43.0586 100.877 43.1172 100.533 43.1172C100.104 43.1172 99.7266 43.0332 99.4023 42.8652C99.082 42.6973 98.832 42.4727 98.6523 42.1914C98.4766 41.9062 98.3887 41.5879 98.3887 41.2363C98.3887 40.8965 98.4551 40.5977 98.5879 40.3398C98.7207 40.0781 98.9121 39.8613 99.1621 39.6895C99.4121 39.5137 99.7129 39.3809 100.064 39.291C100.416 39.2012 100.809 39.1562 101.242 39.1562H102.502Z" fill="#827D9D"/>
<path opacity="0.4" d="M216.499 45.8641C216.009 46.1302 215.398 45.9525 215.123 45.4643C215.043 45.3108 215.001 45.1402 215 44.9668V37.7088C215 38.4284 215.406 38.8726 216.473 39.3701L222.991 42.6215L216.499 45.8641Z" fill="white"/>
<path fill-rule="evenodd" clip-rule="evenodd" d="M215 29.7934C215 27.0661 217.196 26 219.895 26H226.069C228.777 26 230.974 27.0661 231 29.7934V44.9668C230.999 45.1374 230.957 45.3051 230.877 45.4554C230.748 45.7007 230.526 45.8827 230.261 45.9598C229.997 46.0368 229.713 46.0023 229.474 45.8641L222.991 42.6215L216.473 39.3701C215.406 38.8726 215 38.4284 215 37.7088V29.7934ZM218.44 32.8316C218.44 33.2683 218.791 33.6223 219.225 33.6223H226.749C227.182 33.6223 227.534 33.2683 227.534 32.8316C227.534 32.3949 227.182 32.041 226.749 32.041H219.225C218.791 32.041 218.44 32.3949 218.44 32.8316Z" fill="white"/>
<circle cx="36" cy="92" r="20" fill="#00A2FD"/>
<path d="M28.8714 97H26.5645L30.0795 86.8182H32.8536L36.3635 97H34.0567L31.5063 89.1449H31.4268L28.8714 97ZM28.7272 92.9979H34.176V94.6783H28.7272V92.9979ZM37.589 97V86.8182H41.6061C42.3783 86.8182 43.0363 86.9657 43.5798 87.2607C44.1234 87.5523 44.5377 87.9583 44.8227 88.4787C45.1111 88.9957 45.2552 89.5923 45.2552 90.2685C45.2552 90.9446 45.1094 91.5412 44.8177 92.0582C44.5261 92.5753 44.1035 92.978 43.55 93.2663C42.9998 93.5547 42.3336 93.6989 41.5514 93.6989H38.991V91.9737H41.2034C41.6177 91.9737 41.9591 91.9025 42.2275 91.7599C42.4993 91.6141 42.7015 91.4136 42.8341 91.1584C42.97 90.8999 43.0379 90.6032 43.0379 90.2685C43.0379 89.9304 42.97 89.6354 42.8341 89.3835C42.7015 89.1283 42.4993 88.9311 42.2275 88.7919C41.9558 88.6494 41.6111 88.5781 41.1934 88.5781H39.7417V97H37.589Z" fill="white"/>
<path d="M65.7969 74.625H67.2578L70.9844 83.8984L74.7031 74.625H76.1719L71.5469 86H70.4062L65.7969 74.625ZM65.3203 74.625H66.6094L66.8203 81.5625V86H65.3203V74.625ZM75.3516 74.625H76.6406V86H75.1406V81.5625L75.3516 74.625ZM82.5781 86.1562C81.9896 86.1562 81.4557 86.0573 80.9766 85.8594C80.5026 85.6562 80.0938 85.3724 79.75 85.0078C79.4115 84.6432 79.151 84.2109 78.9688 83.7109C78.7865 83.2109 78.6953 82.6641 78.6953 82.0703V81.7422C78.6953 81.0547 78.7969 80.4427 79 79.9062C79.2031 79.3646 79.4792 78.9062 79.8281 78.5312C80.1771 78.1562 80.5729 77.8724 81.0156 77.6797C81.4583 77.487 81.9167 77.3906 82.3906 77.3906C82.9948 77.3906 83.5156 77.4948 83.9531 77.7031C84.3958 77.9115 84.7578 78.2031 85.0391 78.5781C85.3203 78.9479 85.5286 79.3854 85.6641 79.8906C85.7995 80.3906 85.8672 80.9375 85.8672 81.5312V82.1797H79.5547V81H84.4219V80.8906C84.401 80.5156 84.3229 80.151 84.1875 79.7969C84.0573 79.4427 83.849 79.151 83.5625 78.9219C83.276 78.6927 82.8854 78.5781 82.3906 78.5781C82.0625 78.5781 81.7604 78.6484 81.4844 78.7891C81.2083 78.9245 80.9714 79.1276 80.7734 79.3984C80.5755 79.6693 80.4219 80 80.3125 80.3906C80.2031 80.7812 80.1484 81.2318 80.1484 81.7422V82.0703C80.1484 82.4714 80.2031 82.849 80.3125 83.2031C80.4271 83.5521 80.5911 83.8594 80.8047 84.125C81.0234 84.3906 81.2865 84.599 81.5938 84.75C81.9062 84.901 82.2604 84.9766 82.6562 84.9766C83.1667 84.9766 83.599 84.8724 83.9531 84.6641C84.3073 84.4557 84.6172 84.1771 84.8828 83.8281L85.7578 84.5234C85.5755 84.7995 85.3438 85.0625 85.0625 85.3125C84.7812 85.5625 84.4349 85.7656 84.0234 85.9219C83.6172 86.0781 83.1354 86.1562 82.5781 86.1562ZM89.0078 74V86H87.5547V74H89.0078ZM94.1719 77.5469L90.4844 81.4922L88.4219 83.6328L88.3047 82.0938L89.7812 80.3281L92.4062 77.5469H94.1719ZM92.8516 86L89.8359 81.9688L90.5859 80.6797L94.5547 86H92.8516ZM100.648 84.5547V80.2031C100.648 79.8698 100.581 79.5807 100.445 79.3359C100.315 79.0859 100.117 78.8932 99.8516 78.7578C99.5859 78.6224 99.2578 78.5547 98.8672 78.5547C98.5026 78.5547 98.1823 78.6172 97.9062 78.7422C97.6354 78.8672 97.4219 79.0312 97.2656 79.2344C97.1146 79.4375 97.0391 79.6562 97.0391 79.8906H95.5938C95.5938 79.5885 95.6719 79.2891 95.8281 78.9922C95.9844 78.6953 96.2083 78.4271 96.5 78.1875C96.7969 77.9427 97.151 77.75 97.5625 77.6094C97.9792 77.4635 98.4427 77.3906 98.9531 77.3906C99.5677 77.3906 100.109 77.4948 100.578 77.7031C101.052 77.9115 101.422 78.2266 101.688 78.6484C101.958 79.0651 102.094 79.5885 102.094 80.2188V84.1562C102.094 84.4375 102.117 84.737 102.164 85.0547C102.216 85.3724 102.292 85.6458 102.391 85.875V86H100.883C100.81 85.8333 100.753 85.612 100.711 85.3359C100.669 85.0547 100.648 84.7943 100.648 84.5547ZM100.898 80.875L100.914 81.8906H99.4531C99.0417 81.8906 98.6745 81.9245 98.3516 81.9922C98.0286 82.0547 97.7578 82.151 97.5391 82.2812C97.3203 82.4115 97.1536 82.5755 97.0391 82.7734C96.9245 82.9661 96.8672 83.1927 96.8672 83.4531C96.8672 83.7188 96.9271 83.9609 97.0469 84.1797C97.1667 84.3984 97.3464 84.5729 97.5859 84.7031C97.8307 84.8281 98.1302 84.8906 98.4844 84.8906C98.9271 84.8906 99.3177 84.7969 99.6562 84.6094C99.9948 84.4219 100.263 84.1927 100.461 83.9219C100.664 83.651 100.773 83.388 100.789 83.1328L101.406 83.8281C101.37 84.0469 101.271 84.2891 101.109 84.5547C100.948 84.8203 100.732 85.0755 100.461 85.3203C100.195 85.5599 99.8776 85.7604 99.5078 85.9219C99.1432 86.0781 98.7318 86.1562 98.2734 86.1562C97.7005 86.1562 97.1979 86.0443 96.7656 85.8203C96.3385 85.5964 96.0052 85.2969 95.7656 84.9219C95.5312 84.5417 95.4141 84.1172 95.4141 83.6484C95.4141 83.1953 95.5026 82.7969 95.6797 82.4531C95.8568 82.1042 96.112 81.8151 96.4453 81.5859C96.7786 81.3516 97.1797 81.1745 97.6484 81.0547C98.1172 80.9349 98.6406 80.875 99.2188 80.875H100.898ZM112.227 84.2734L115.578 74.625H117.211L113 86H111.836L112.227 84.2734ZM109.094 74.625L112.414 84.2734L112.828 86H111.664L107.461 74.625H109.094ZM121.688 86.1562C121.099 86.1562 120.565 86.0573 120.086 85.8594C119.612 85.6562 119.203 85.3724 118.859 85.0078C118.521 84.6432 118.26 84.2109 118.078 83.7109C117.896 83.2109 117.805 82.6641 117.805 82.0703V81.7422C117.805 81.0547 117.906 80.4427 118.109 79.9062C118.312 79.3646 118.589 78.9062 118.938 78.5312C119.286 78.1562 119.682 77.8724 120.125 77.6797C120.568 77.487 121.026 77.3906 121.5 77.3906C122.104 77.3906 122.625 77.4948 123.062 77.7031C123.505 77.9115 123.867 78.2031 124.148 78.5781C124.43 78.9479 124.638 79.3854 124.773 79.8906C124.909 80.3906 124.977 80.9375 124.977 81.5312V82.1797H118.664V81H123.531V80.8906C123.51 80.5156 123.432 80.151 123.297 79.7969C123.167 79.4427 122.958 79.151 122.672 78.9219C122.385 78.6927 121.995 78.5781 121.5 78.5781C121.172 78.5781 120.87 78.6484 120.594 78.7891C120.318 78.9245 120.081 79.1276 119.883 79.3984C119.685 79.6693 119.531 80 119.422 80.3906C119.312 80.7812 119.258 81.2318 119.258 81.7422V82.0703C119.258 82.4714 119.312 82.849 119.422 83.2031C119.536 83.5521 119.701 83.8594 119.914 84.125C120.133 84.3906 120.396 84.599 120.703 84.75C121.016 84.901 121.37 84.9766 121.766 84.9766C122.276 84.9766 122.708 84.8724 123.062 84.6641C123.417 84.4557 123.727 84.1771 123.992 83.8281L124.867 84.5234C124.685 84.7995 124.453 85.0625 124.172 85.3125C123.891 85.5625 123.544 85.7656 123.133 85.9219C122.727 86.0781 122.245 86.1562 121.688 86.1562ZM128.109 78.875V86H126.664V77.5469H128.07L128.109 78.875ZM130.75 77.5L130.742 78.8438C130.622 78.8177 130.508 78.8021 130.398 78.7969C130.294 78.7865 130.174 78.7812 130.039 78.7812C129.706 78.7812 129.411 78.8333 129.156 78.9375C128.901 79.0417 128.685 79.1875 128.508 79.375C128.331 79.5625 128.19 79.7865 128.086 80.0469C127.987 80.3021 127.922 80.5833 127.891 80.8906L127.484 81.125C127.484 80.6146 127.534 80.1354 127.633 79.6875C127.737 79.2396 127.896 78.8438 128.109 78.5C128.323 78.151 128.594 77.8802 128.922 77.6875C129.255 77.4896 129.651 77.3906 130.109 77.3906C130.214 77.3906 130.333 77.4036 130.469 77.4297C130.604 77.4505 130.698 77.474 130.75 77.5ZM137.008 83.7578C137.008 83.5495 136.961 83.3568 136.867 83.1797C136.779 82.9974 136.594 82.8333 136.312 82.6875C136.036 82.5365 135.62 82.4062 135.062 82.2969C134.594 82.1979 134.169 82.0807 133.789 81.9453C133.414 81.8099 133.094 81.6458 132.828 81.4531C132.568 81.2604 132.367 81.0339 132.227 80.7734C132.086 80.513 132.016 80.2083 132.016 79.8594C132.016 79.526 132.089 79.2109 132.234 78.9141C132.385 78.6172 132.596 78.3542 132.867 78.125C133.143 77.8958 133.474 77.7161 133.859 77.5859C134.245 77.4557 134.674 77.3906 135.148 77.3906C135.826 77.3906 136.404 77.5104 136.883 77.75C137.362 77.9896 137.729 78.3099 137.984 78.7109C138.24 79.1068 138.367 79.5469 138.367 80.0312H136.922C136.922 79.7969 136.852 79.5703 136.711 79.3516C136.576 79.1276 136.375 78.9427 136.109 78.7969C135.849 78.651 135.529 78.5781 135.148 78.5781C134.747 78.5781 134.422 78.6406 134.172 78.7656C133.927 78.8854 133.747 79.0391 133.633 79.2266C133.523 79.4141 133.469 79.612 133.469 79.8203C133.469 79.9766 133.495 80.1172 133.547 80.2422C133.604 80.362 133.703 80.474 133.844 80.5781C133.984 80.6771 134.182 80.7708 134.438 80.8594C134.693 80.9479 135.018 81.0365 135.414 81.125C136.107 81.2812 136.677 81.4688 137.125 81.6875C137.573 81.9062 137.906 82.1745 138.125 82.4922C138.344 82.8099 138.453 83.1953 138.453 83.6484C138.453 84.0182 138.375 84.3568 138.219 84.6641C138.068 84.9714 137.846 85.237 137.555 85.4609C137.268 85.6797 136.924 85.8516 136.523 85.9766C136.128 86.0964 135.682 86.1562 135.188 86.1562C134.443 86.1562 133.812 86.0234 133.297 85.7578C132.781 85.4922 132.391 85.1484 132.125 84.7266C131.859 84.3047 131.727 83.8594 131.727 83.3906H133.18C133.201 83.7865 133.315 84.1016 133.523 84.3359C133.732 84.5651 133.987 84.7292 134.289 84.8281C134.591 84.9219 134.891 84.9688 135.188 84.9688C135.583 84.9688 135.914 84.9167 136.18 84.8125C136.451 84.7083 136.656 84.5651 136.797 84.3828C136.938 84.2005 137.008 83.9922 137.008 83.7578Z" fill="#00A2FD"/>
<path d="M74.1719 96.0527C74.1562 96.4121 74.1016 96.7734 74.0078 97.1367C73.9141 97.4961 73.7734 97.8262 73.5859 98.127C73.3984 98.4277 73.1543 98.6699 72.8535 98.8535C72.5566 99.0332 72.1973 99.123 71.7754 99.123C71.5059 99.123 71.2695 99.0762 71.0664 98.9824C70.8672 98.8848 70.7031 98.7461 70.5742 98.5664C70.4492 98.3867 70.3613 98.1699 70.3105 97.916C70.2637 97.6621 70.2559 97.3789 70.2871 97.0664L70.5859 93.8203H71.4473L71.1484 97.0664C71.125 97.3516 71.1309 97.584 71.166 97.7637C71.2051 97.9434 71.2637 98.082 71.3418 98.1797C71.4199 98.2734 71.5078 98.3379 71.6055 98.373C71.707 98.4082 71.8047 98.4258 71.8984 98.4258C72.1328 98.4258 72.3418 98.3652 72.5254 98.2441C72.709 98.1191 72.8633 97.9492 72.9883 97.7344C73.1172 97.5156 73.2168 97.2637 73.2871 96.9785C73.3574 96.6895 73.4004 96.3809 73.416 96.0527C73.4434 95.4707 73.416 94.9355 73.334 94.4473C73.2559 93.959 73.1211 93.5254 72.9297 93.1465C72.7422 92.7676 72.4961 92.4473 72.1914 92.1855C71.8867 91.9238 71.5234 91.7246 71.1016 91.5879C70.6797 91.4512 70.1973 91.3828 69.6543 91.3828C69.1621 91.3828 68.707 91.459 68.2891 91.6113C67.875 91.7598 67.502 91.9746 67.1699 92.2559C66.8418 92.5371 66.5586 92.875 66.3203 93.2695C66.0859 93.6641 65.9004 94.1094 65.7637 94.6055C65.6309 95.0977 65.5527 95.6289 65.5293 96.1992C65.502 96.7852 65.5332 97.3242 65.623 97.8164C65.7129 98.3047 65.8574 98.7402 66.0566 99.123C66.2598 99.5098 66.5156 99.8359 66.8242 100.102C67.1328 100.371 67.4902 100.574 67.8965 100.711C68.3027 100.852 68.7559 100.922 69.2559 100.922C69.5996 100.922 69.9473 100.881 70.2988 100.799C70.6543 100.717 70.9512 100.605 71.1895 100.465L71.4121 101.133C71.1387 101.309 70.7969 101.439 70.3867 101.525C69.9805 101.611 69.5957 101.654 69.2324 101.654C68.6387 101.654 68.0957 101.572 67.6035 101.408C67.1152 101.248 66.6816 101.012 66.3027 100.699C65.9277 100.391 65.6152 100.014 65.3652 99.5684C65.1152 99.127 64.9316 98.623 64.8145 98.0566C64.6973 97.4902 64.6523 96.8711 64.6797 96.1992C64.707 95.5586 64.8027 94.9551 64.9668 94.3887C65.1348 93.8223 65.3633 93.3086 65.6523 92.8477C65.9414 92.3867 66.2852 91.9902 66.6836 91.6582C67.0859 91.3223 67.5371 91.0645 68.0371 90.8848C68.541 90.7051 69.0879 90.6152 69.6777 90.6152C70.2793 90.6152 70.8242 90.6973 71.3125 90.8613C71.8008 91.0254 72.2285 91.2617 72.5957 91.5703C72.9668 91.8789 73.2734 92.2559 73.5156 92.7012C73.7578 93.1465 73.9336 93.6504 74.043 94.2129C74.1562 94.7754 74.1992 95.3887 74.1719 96.0527ZM68.1543 96.5508C68.127 96.8242 68.127 97.0684 68.1543 97.2832C68.1816 97.498 68.2344 97.6797 68.3125 97.8281C68.3906 97.9766 68.4922 98.0898 68.6172 98.168C68.7461 98.2422 68.8965 98.2793 69.0684 98.2793C69.1816 98.2793 69.3008 98.252 69.4258 98.1973C69.5508 98.1387 69.6738 98.0488 69.7949 97.9277C69.916 97.8066 70.0293 97.6484 70.1348 97.4531C70.2402 97.2578 70.3281 97.0234 70.3984 96.75L70.7852 97.1719C70.6953 97.4922 70.5781 97.7734 70.4336 98.0156C70.293 98.2578 70.1348 98.4609 69.959 98.625C69.7832 98.7891 69.5957 98.9141 69.3965 99C69.2012 99.082 69.002 99.123 68.7988 99.123C68.5137 99.123 68.2637 99.0625 68.0488 98.9414C67.834 98.8164 67.6602 98.6406 67.5273 98.4141C67.3945 98.1875 67.3008 97.918 67.2461 97.6055C67.1953 97.2891 67.1875 96.9375 67.2227 96.5508C67.2578 96.1406 67.3301 95.7617 67.4395 95.4141C67.5488 95.0664 67.6836 94.7559 67.8438 94.4824C68.0078 94.209 68.1914 93.9766 68.3945 93.7852C68.6016 93.5938 68.8203 93.4492 69.0508 93.3516C69.2812 93.25 69.5176 93.1992 69.7598 93.1992C70.1816 93.1992 70.5137 93.2617 70.7559 93.3867C70.998 93.5078 71.2285 93.6523 71.4473 93.8203L70.9492 94.4004C70.8359 94.291 70.6875 94.1895 70.5039 94.0957C70.3203 94.002 70.1035 93.9551 69.8535 93.9551C69.6387 93.9551 69.4375 94.0098 69.25 94.1191C69.0625 94.2285 68.8926 94.3926 68.7402 94.6113C68.5918 94.8301 68.4668 95.1016 68.3652 95.4258C68.2637 95.7461 68.1934 96.1211 68.1543 96.5508ZM76.6855 93.9199V99H75.5957V92.6602H76.627L76.6855 93.9199ZM76.4629 95.5898L75.959 95.5723C75.9629 95.1387 76.0195 94.7383 76.1289 94.3711C76.2383 94 76.4004 93.6777 76.6152 93.4043C76.8301 93.1309 77.0977 92.9199 77.418 92.7715C77.7383 92.6191 78.1094 92.543 78.5312 92.543C78.8281 92.543 79.1016 92.5859 79.3516 92.6719C79.6016 92.7539 79.8184 92.8848 80.002 93.0645C80.1855 93.2441 80.3281 93.4746 80.4297 93.7559C80.5312 94.0371 80.582 94.377 80.582 94.7754V99H79.498V94.8281C79.498 94.4961 79.4414 94.2305 79.3281 94.0312C79.2188 93.832 79.0625 93.6875 78.8594 93.5977C78.6562 93.5039 78.418 93.457 78.1445 93.457C77.8242 93.457 77.5566 93.5137 77.3418 93.627C77.127 93.7402 76.9551 93.8965 76.8262 94.0957C76.6973 94.2949 76.6035 94.5234 76.5449 94.7812C76.4902 95.0352 76.4629 95.3047 76.4629 95.5898ZM80.5703 94.9922L79.8438 95.2148C79.8477 94.8672 79.9043 94.5332 80.0137 94.2129C80.127 93.8926 80.2891 93.6074 80.5 93.3574C80.7148 93.1074 80.9785 92.9102 81.291 92.7656C81.6035 92.6172 81.9609 92.543 82.3633 92.543C82.7031 92.543 83.0039 92.5879 83.2656 92.6777C83.5312 92.7676 83.7539 92.9062 83.9336 93.0938C84.1172 93.2773 84.2559 93.5137 84.3496 93.8027C84.4434 94.0918 84.4902 94.4355 84.4902 94.834V99H83.4004V94.8223C83.4004 94.4668 83.3438 94.1914 83.2305 93.9961C83.1211 93.7969 82.9648 93.6582 82.7617 93.5801C82.5625 93.498 82.3242 93.457 82.0469 93.457C81.8086 93.457 81.5977 93.498 81.4141 93.5801C81.2305 93.6621 81.0762 93.7754 80.9512 93.9199C80.8262 94.0605 80.7305 94.2227 80.6641 94.4062C80.6016 94.5898 80.5703 94.7852 80.5703 94.9922ZM88.7617 99.1172C88.3203 99.1172 87.9199 99.043 87.5605 98.8945C87.2051 98.7422 86.8984 98.5293 86.6406 98.2559C86.3867 97.9824 86.1914 97.6582 86.0547 97.2832C85.918 96.9082 85.8496 96.498 85.8496 96.0527V95.8066C85.8496 95.291 85.9258 94.832 86.0781 94.4297C86.2305 94.0234 86.4375 93.6797 86.6992 93.3984C86.9609 93.1172 87.2578 92.9043 87.5898 92.7598C87.9219 92.6152 88.2656 92.543 88.6211 92.543C89.0742 92.543 89.4648 92.6211 89.793 92.7773C90.125 92.9336 90.3965 93.1523 90.6074 93.4336C90.8184 93.7109 90.9746 94.0391 91.0762 94.418C91.1777 94.793 91.2285 95.2031 91.2285 95.6484V96.1348H86.4941V95.25H90.1445V95.168C90.1289 94.8867 90.0703 94.6133 89.9688 94.3477C89.8711 94.082 89.7148 93.8633 89.5 93.6914C89.2852 93.5195 88.9922 93.4336 88.6211 93.4336C88.375 93.4336 88.1484 93.4863 87.9414 93.5918C87.7344 93.6934 87.5566 93.8457 87.4082 94.0488C87.2598 94.252 87.1445 94.5 87.0625 94.793C86.9805 95.0859 86.9395 95.4238 86.9395 95.8066V96.0527C86.9395 96.3535 86.9805 96.6367 87.0625 96.9023C87.1484 97.1641 87.2715 97.3945 87.4316 97.5938C87.5957 97.793 87.793 97.9492 88.0234 98.0625C88.2578 98.1758 88.5234 98.2324 88.8203 98.2324C89.2031 98.2324 89.5273 98.1543 89.793 97.998C90.0586 97.8418 90.291 97.6328 90.4902 97.3711L91.1465 97.8926C91.0098 98.0996 90.8359 98.2969 90.625 98.4844C90.4141 98.6719 90.1543 98.8242 89.8457 98.9414C89.541 99.0586 89.1797 99.1172 88.7617 99.1172ZM93.584 90V99H92.4941V90H93.584ZM97.457 92.6602L94.6914 95.6191L93.1445 97.2246L93.0566 96.0703L94.1641 94.7461L96.1328 92.6602H97.457ZM96.4668 99L94.2051 95.9766L94.7676 95.0098L97.7441 99H96.4668ZM102.314 97.916V94.6523C102.314 94.4023 102.264 94.1855 102.162 94.002C102.064 93.8145 101.916 93.6699 101.717 93.5684C101.518 93.4668 101.271 93.416 100.979 93.416C100.705 93.416 100.465 93.4629 100.258 93.5566C100.055 93.6504 99.8945 93.7734 99.7773 93.9258C99.6641 94.0781 99.6074 94.2422 99.6074 94.418H98.5234C98.5234 94.1914 98.582 93.9668 98.6992 93.7441C98.8164 93.5215 98.9844 93.3203 99.2031 93.1406C99.4258 92.957 99.6914 92.8125 100 92.707C100.312 92.5977 100.66 92.543 101.043 92.543C101.504 92.543 101.91 92.6211 102.262 92.7773C102.617 92.9336 102.895 93.1699 103.094 93.4863C103.297 93.7988 103.398 94.1914 103.398 94.6641V97.6172C103.398 97.8281 103.416 98.0527 103.451 98.291C103.49 98.5293 103.547 98.7344 103.621 98.9062V99H102.49C102.436 98.875 102.393 98.709 102.361 98.502C102.33 98.291 102.314 98.0957 102.314 97.916ZM102.502 95.1562L102.514 95.918H101.418C101.109 95.918 100.834 95.9434 100.592 95.9941C100.35 96.041 100.146 96.1133 99.9824 96.2109C99.8184 96.3086 99.6934 96.4316 99.6074 96.5801C99.5215 96.7246 99.4785 96.8945 99.4785 97.0898C99.4785 97.2891 99.5234 97.4707 99.6133 97.6348C99.7031 97.7988 99.8379 97.9297 100.018 98.0273C100.201 98.1211 100.426 98.168 100.691 98.168C101.023 98.168 101.316 98.0977 101.57 97.957C101.824 97.8164 102.025 97.6445 102.174 97.4414C102.326 97.2383 102.408 97.041 102.42 96.8496L102.883 97.3711C102.855 97.5352 102.781 97.7168 102.66 97.916C102.539 98.1152 102.377 98.3066 102.174 98.4902C101.975 98.6699 101.736 98.8203 101.459 98.9414C101.186 99.0586 100.877 99.1172 100.533 99.1172C100.104 99.1172 99.7266 99.0332 99.4023 98.8652C99.082 98.6973 98.832 98.4727 98.6523 98.1914C98.4766 97.9062 98.3887 97.5879 98.3887 97.2363C98.3887 96.8965 98.4551 96.5977 98.5879 96.3398C98.7207 96.0781 98.9121 95.8613 99.1621 95.6895C99.4121 95.5137 99.7129 95.3809 100.064 95.291C100.416 95.2012 100.809 95.1562 101.242 95.1562H102.502Z" fill="#827D9D"/>
<path opacity="0.4" d="M216.499 101.864C216.009 102.13 215.398 101.953 215.123 101.464C215.043 101.311 215.001 101.14 215 100.967V93.7088C215 94.4284 215.406 94.8726 216.473 95.3701L222.991 98.6215L216.499 101.864Z" fill="white"/>
<path fill-rule="evenodd" clip-rule="evenodd" d="M215 85.7934C215 83.0661 217.196 82 219.895 82H226.069C228.777 82 230.974 83.0661 231 85.7934V100.967C230.999 101.137 230.957 101.305 230.877 101.455C230.748 101.701 230.526 101.883 230.261 101.96C229.997 102.037 229.713 102.002 229.474 101.864L222.991 98.6215L216.473 95.3701C215.406 94.8726 215 94.4284 215 93.7088V85.7934ZM218.44 88.8316C218.44 89.2683 218.791 89.6223 219.225 89.6223H226.749C227.182 89.6223 227.534 89.2683 227.534 88.8316C227.534 88.3949 227.182 88.041 226.749 88.041H219.225C218.791 88.041 218.44 88.3949 218.44 88.8316Z" fill="white"/>
<circle cx="36" cy="148" r="20" fill="#00A2FD"/>
<path d="M28.8714 153H26.5645L30.0795 142.818H32.8536L36.3635 153H34.0567L31.5063 145.145H31.4268L28.8714 153ZM28.7272 148.998H34.176V150.678H28.7272V148.998ZM37.589 153V142.818H41.6061C42.3783 142.818 43.0363 142.966 43.5798 143.261C44.1234 143.552 44.5377 143.958 44.8227 144.479C45.1111 144.996 45.2552 145.592 45.2552 146.268C45.2552 146.945 45.1094 147.541 44.8177 148.058C44.5261 148.575 44.1035 148.978 43.55 149.266C42.9998 149.555 42.3336 149.699 41.5514 149.699H38.991V147.974H41.2034C41.6177 147.974 41.9591 147.902 42.2275 147.76C42.4993 147.614 42.7015 147.414 42.8341 147.158C42.97 146.9 43.0379 146.603 43.0379 146.268C43.0379 145.93 42.97 145.635 42.8341 145.384C42.7015 145.128 42.4993 144.931 42.2275 144.792C41.9558 144.649 41.6111 144.578 41.1934 144.578H39.7417V153H37.589Z" fill="white"/>
<path d="M65.7969 130.625H67.2578L70.9844 139.898L74.7031 130.625H76.1719L71.5469 142H70.4062L65.7969 130.625ZM65.3203 130.625H66.6094L66.8203 137.562V142H65.3203V130.625ZM75.3516 130.625H76.6406V142H75.1406V137.562L75.3516 130.625ZM82.5781 142.156C81.9896 142.156 81.4557 142.057 80.9766 141.859C80.5026 141.656 80.0938 141.372 79.75 141.008C79.4115 140.643 79.151 140.211 78.9688 139.711C78.7865 139.211 78.6953 138.664 78.6953 138.07V137.742C78.6953 137.055 78.7969 136.443 79 135.906C79.2031 135.365 79.4792 134.906 79.8281 134.531C80.1771 134.156 80.5729 133.872 81.0156 133.68C81.4583 133.487 81.9167 133.391 82.3906 133.391C82.9948 133.391 83.5156 133.495 83.9531 133.703C84.3958 133.911 84.7578 134.203 85.0391 134.578C85.3203 134.948 85.5286 135.385 85.6641 135.891C85.7995 136.391 85.8672 136.938 85.8672 137.531V138.18H79.5547V137H84.4219V136.891C84.401 136.516 84.3229 136.151 84.1875 135.797C84.0573 135.443 83.849 135.151 83.5625 134.922C83.276 134.693 82.8854 134.578 82.3906 134.578C82.0625 134.578 81.7604 134.648 81.4844 134.789C81.2083 134.924 80.9714 135.128 80.7734 135.398C80.5755 135.669 80.4219 136 80.3125 136.391C80.2031 136.781 80.1484 137.232 80.1484 137.742V138.07C80.1484 138.471 80.2031 138.849 80.3125 139.203C80.4271 139.552 80.5911 139.859 80.8047 140.125C81.0234 140.391 81.2865 140.599 81.5938 140.75C81.9062 140.901 82.2604 140.977 82.6562 140.977C83.1667 140.977 83.599 140.872 83.9531 140.664C84.3073 140.456 84.6172 140.177 84.8828 139.828L85.7578 140.523C85.5755 140.799 85.3438 141.062 85.0625 141.312C84.7812 141.562 84.4349 141.766 84.0234 141.922C83.6172 142.078 83.1354 142.156 82.5781 142.156ZM89.0078 130V142H87.5547V130H89.0078ZM94.1719 133.547L90.4844 137.492L88.4219 139.633L88.3047 138.094L89.7812 136.328L92.4062 133.547H94.1719ZM92.8516 142L89.8359 137.969L90.5859 136.68L94.5547 142H92.8516ZM100.648 140.555V136.203C100.648 135.87 100.581 135.581 100.445 135.336C100.315 135.086 100.117 134.893 99.8516 134.758C99.5859 134.622 99.2578 134.555 98.8672 134.555C98.5026 134.555 98.1823 134.617 97.9062 134.742C97.6354 134.867 97.4219 135.031 97.2656 135.234C97.1146 135.438 97.0391 135.656 97.0391 135.891H95.5938C95.5938 135.589 95.6719 135.289 95.8281 134.992C95.9844 134.695 96.2083 134.427 96.5 134.188C96.7969 133.943 97.151 133.75 97.5625 133.609C97.9792 133.464 98.4427 133.391 98.9531 133.391C99.5677 133.391 100.109 133.495 100.578 133.703C101.052 133.911 101.422 134.227 101.688 134.648C101.958 135.065 102.094 135.589 102.094 136.219V140.156C102.094 140.438 102.117 140.737 102.164 141.055C102.216 141.372 102.292 141.646 102.391 141.875V142H100.883C100.81 141.833 100.753 141.612 100.711 141.336C100.669 141.055 100.648 140.794 100.648 140.555ZM100.898 136.875L100.914 137.891H99.4531C99.0417 137.891 98.6745 137.924 98.3516 137.992C98.0286 138.055 97.7578 138.151 97.5391 138.281C97.3203 138.411 97.1536 138.576 97.0391 138.773C96.9245 138.966 96.8672 139.193 96.8672 139.453C96.8672 139.719 96.9271 139.961 97.0469 140.18C97.1667 140.398 97.3464 140.573 97.5859 140.703C97.8307 140.828 98.1302 140.891 98.4844 140.891C98.9271 140.891 99.3177 140.797 99.6562 140.609C99.9948 140.422 100.263 140.193 100.461 139.922C100.664 139.651 100.773 139.388 100.789 139.133L101.406 139.828C101.37 140.047 101.271 140.289 101.109 140.555C100.948 140.82 100.732 141.076 100.461 141.32C100.195 141.56 99.8776 141.76 99.5078 141.922C99.1432 142.078 98.7318 142.156 98.2734 142.156C97.7005 142.156 97.1979 142.044 96.7656 141.82C96.3385 141.596 96.0052 141.297 95.7656 140.922C95.5312 140.542 95.4141 140.117 95.4141 139.648C95.4141 139.195 95.5026 138.797 95.6797 138.453C95.8568 138.104 96.112 137.815 96.4453 137.586C96.7786 137.352 97.1797 137.174 97.6484 137.055C98.1172 136.935 98.6406 136.875 99.2188 136.875H100.898ZM112.227 140.273L115.578 130.625H117.211L113 142H111.836L112.227 140.273ZM109.094 130.625L112.414 140.273L112.828 142H111.664L107.461 130.625H109.094ZM121.688 142.156C121.099 142.156 120.565 142.057 120.086 141.859C119.612 141.656 119.203 141.372 118.859 141.008C118.521 140.643 118.26 140.211 118.078 139.711C117.896 139.211 117.805 138.664 117.805 138.07V137.742C117.805 137.055 117.906 136.443 118.109 135.906C118.312 135.365 118.589 134.906 118.938 134.531C119.286 134.156 119.682 133.872 120.125 133.68C120.568 133.487 121.026 133.391 121.5 133.391C122.104 133.391 122.625 133.495 123.062 133.703C123.505 133.911 123.867 134.203 124.148 134.578C124.43 134.948 124.638 135.385 124.773 135.891C124.909 136.391 124.977 136.938 124.977 137.531V138.18H118.664V137H123.531V136.891C123.51 136.516 123.432 136.151 123.297 135.797C123.167 135.443 122.958 135.151 122.672 134.922C122.385 134.693 121.995 134.578 121.5 134.578C121.172 134.578 120.87 134.648 120.594 134.789C120.318 134.924 120.081 135.128 119.883 135.398C119.685 135.669 119.531 136 119.422 136.391C119.312 136.781 119.258 137.232 119.258 137.742V138.07C119.258 138.471 119.312 138.849 119.422 139.203C119.536 139.552 119.701 139.859 119.914 140.125C120.133 140.391 120.396 140.599 120.703 140.75C121.016 140.901 121.37 140.977 121.766 140.977C122.276 140.977 122.708 140.872 123.062 140.664C123.417 140.456 123.727 140.177 123.992 139.828L124.867 140.523C124.685 140.799 124.453 141.062 124.172 141.312C123.891 141.562 123.544 141.766 123.133 141.922C122.727 142.078 122.245 142.156 121.688 142.156ZM128.109 134.875V142H126.664V133.547H128.07L128.109 134.875ZM130.75 133.5L130.742 134.844C130.622 134.818 130.508 134.802 130.398 134.797C130.294 134.786 130.174 134.781 130.039 134.781C129.706 134.781 129.411 134.833 129.156 134.938C128.901 135.042 128.685 135.188 128.508 135.375C128.331 135.562 128.19 135.786 128.086 136.047C127.987 136.302 127.922 136.583 127.891 136.891L127.484 137.125C127.484 136.615 127.534 136.135 127.633 135.688C127.737 135.24 127.896 134.844 128.109 134.5C128.323 134.151 128.594 133.88 128.922 133.688C129.255 133.49 129.651 133.391 130.109 133.391C130.214 133.391 130.333 133.404 130.469 133.43C130.604 133.451 130.698 133.474 130.75 133.5ZM137.008 139.758C137.008 139.549 136.961 139.357 136.867 139.18C136.779 138.997 136.594 138.833 136.312 138.688C136.036 138.536 135.62 138.406 135.062 138.297C134.594 138.198 134.169 138.081 133.789 137.945C133.414 137.81 133.094 137.646 132.828 137.453C132.568 137.26 132.367 137.034 132.227 136.773C132.086 136.513 132.016 136.208 132.016 135.859C132.016 135.526 132.089 135.211 132.234 134.914C132.385 134.617 132.596 134.354 132.867 134.125C133.143 133.896 133.474 133.716 133.859 133.586C134.245 133.456 134.674 133.391 135.148 133.391C135.826 133.391 136.404 133.51 136.883 133.75C137.362 133.99 137.729 134.31 137.984 134.711C138.24 135.107 138.367 135.547 138.367 136.031H136.922C136.922 135.797 136.852 135.57 136.711 135.352C136.576 135.128 136.375 134.943 136.109 134.797C135.849 134.651 135.529 134.578 135.148 134.578C134.747 134.578 134.422 134.641 134.172 134.766C133.927 134.885 133.747 135.039 133.633 135.227C133.523 135.414 133.469 135.612 133.469 135.82C133.469 135.977 133.495 136.117 133.547 136.242C133.604 136.362 133.703 136.474 133.844 136.578C133.984 136.677 134.182 136.771 134.438 136.859C134.693 136.948 135.018 137.036 135.414 137.125C136.107 137.281 136.677 137.469 137.125 137.688C137.573 137.906 137.906 138.174 138.125 138.492C138.344 138.81 138.453 139.195 138.453 139.648C138.453 140.018 138.375 140.357 138.219 140.664C138.068 140.971 137.846 141.237 137.555 141.461C137.268 141.68 136.924 141.852 136.523 141.977C136.128 142.096 135.682 142.156 135.188 142.156C134.443 142.156 133.812 142.023 133.297 141.758C132.781 141.492 132.391 141.148 132.125 140.727C131.859 140.305 131.727 139.859 131.727 139.391H133.18C133.201 139.786 133.315 140.102 133.523 140.336C133.732 140.565 133.987 140.729 134.289 140.828C134.591 140.922 134.891 140.969 135.188 140.969C135.583 140.969 135.914 140.917 136.18 140.812C136.451 140.708 136.656 140.565 136.797 140.383C136.938 140.201 137.008 139.992 137.008 139.758Z" fill="white"/>
<path d="M74.1719 152.053C74.1562 152.412 74.1016 152.773 74.0078 153.137C73.9141 153.496 73.7734 153.826 73.5859 154.127C73.3984 154.428 73.1543 154.67 72.8535 154.854C72.5566 155.033 72.1973 155.123 71.7754 155.123C71.5059 155.123 71.2695 155.076 71.0664 154.982C70.8672 154.885 70.7031 154.746 70.5742 154.566C70.4492 154.387 70.3613 154.17 70.3105 153.916C70.2637 153.662 70.2559 153.379 70.2871 153.066L70.5859 149.82H71.4473L71.1484 153.066C71.125 153.352 71.1309 153.584 71.166 153.764C71.2051 153.943 71.2637 154.082 71.3418 154.18C71.4199 154.273 71.5078 154.338 71.6055 154.373C71.707 154.408 71.8047 154.426 71.8984 154.426C72.1328 154.426 72.3418 154.365 72.5254 154.244C72.709 154.119 72.8633 153.949 72.9883 153.734C73.1172 153.516 73.2168 153.264 73.2871 152.979C73.3574 152.689 73.4004 152.381 73.416 152.053C73.4434 151.471 73.416 150.936 73.334 150.447C73.2559 149.959 73.1211 149.525 72.9297 149.146C72.7422 148.768 72.4961 148.447 72.1914 148.186C71.8867 147.924 71.5234 147.725 71.1016 147.588C70.6797 147.451 70.1973 147.383 69.6543 147.383C69.1621 147.383 68.707 147.459 68.2891 147.611C67.875 147.76 67.502 147.975 67.1699 148.256C66.8418 148.537 66.5586 148.875 66.3203 149.27C66.0859 149.664 65.9004 150.109 65.7637 150.605C65.6309 151.098 65.5527 151.629 65.5293 152.199C65.502 152.785 65.5332 153.324 65.623 153.816C65.7129 154.305 65.8574 154.74 66.0566 155.123C66.2598 155.51 66.5156 155.836 66.8242 156.102C67.1328 156.371 67.4902 156.574 67.8965 156.711C68.3027 156.852 68.7559 156.922 69.2559 156.922C69.5996 156.922 69.9473 156.881 70.2988 156.799C70.6543 156.717 70.9512 156.605 71.1895 156.465L71.4121 157.133C71.1387 157.309 70.7969 157.439 70.3867 157.525C69.9805 157.611 69.5957 157.654 69.2324 157.654C68.6387 157.654 68.0957 157.572 67.6035 157.408C67.1152 157.248 66.6816 157.012 66.3027 156.699C65.9277 156.391 65.6152 156.014 65.3652 155.568C65.1152 155.127 64.9316 154.623 64.8145 154.057C64.6973 153.49 64.6523 152.871 64.6797 152.199C64.707 151.559 64.8027 150.955 64.9668 150.389C65.1348 149.822 65.3633 149.309 65.6523 148.848C65.9414 148.387 66.2852 147.99 66.6836 147.658C67.0859 147.322 67.5371 147.064 68.0371 146.885C68.541 146.705 69.0879 146.615 69.6777 146.615C70.2793 146.615 70.8242 146.697 71.3125 146.861C71.8008 147.025 72.2285 147.262 72.5957 147.57C72.9668 147.879 73.2734 148.256 73.5156 148.701C73.7578 149.146 73.9336 149.65 74.043 150.213C74.1562 150.775 74.1992 151.389 74.1719 152.053ZM68.1543 152.551C68.127 152.824 68.127 153.068 68.1543 153.283C68.1816 153.498 68.2344 153.68 68.3125 153.828C68.3906 153.977 68.4922 154.09 68.6172 154.168C68.7461 154.242 68.8965 154.279 69.0684 154.279C69.1816 154.279 69.3008 154.252 69.4258 154.197C69.5508 154.139 69.6738 154.049 69.7949 153.928C69.916 153.807 70.0293 153.648 70.1348 153.453C70.2402 153.258 70.3281 153.023 70.3984 152.75L70.7852 153.172C70.6953 153.492 70.5781 153.773 70.4336 154.016C70.293 154.258 70.1348 154.461 69.959 154.625C69.7832 154.789 69.5957 154.914 69.3965 155C69.2012 155.082 69.002 155.123 68.7988 155.123C68.5137 155.123 68.2637 155.062 68.0488 154.941C67.834 154.816 67.6602 154.641 67.5273 154.414C67.3945 154.188 67.3008 153.918 67.2461 153.605C67.1953 153.289 67.1875 152.938 67.2227 152.551C67.2578 152.141 67.3301 151.762 67.4395 151.414C67.5488 151.066 67.6836 150.756 67.8438 150.482C68.0078 150.209 68.1914 149.977 68.3945 149.785C68.6016 149.594 68.8203 149.449 69.0508 149.352C69.2812 149.25 69.5176 149.199 69.7598 149.199C70.1816 149.199 70.5137 149.262 70.7559 149.387C70.998 149.508 71.2285 149.652 71.4473 149.82L70.9492 150.4C70.8359 150.291 70.6875 150.189 70.5039 150.096C70.3203 150.002 70.1035 149.955 69.8535 149.955C69.6387 149.955 69.4375 150.01 69.25 150.119C69.0625 150.229 68.8926 150.393 68.7402 150.611C68.5918 150.83 68.4668 151.102 68.3652 151.426C68.2637 151.746 68.1934 152.121 68.1543 152.551ZM76.6855 149.92V155H75.5957V148.66H76.627L76.6855 149.92ZM76.4629 151.59L75.959 151.572C75.9629 151.139 76.0195 150.738 76.1289 150.371C76.2383 150 76.4004 149.678 76.6152 149.404C76.8301 149.131 77.0977 148.92 77.418 148.771C77.7383 148.619 78.1094 148.543 78.5312 148.543C78.8281 148.543 79.1016 148.586 79.3516 148.672C79.6016 148.754 79.8184 148.885 80.002 149.064C80.1855 149.244 80.3281 149.475 80.4297 149.756C80.5312 150.037 80.582 150.377 80.582 150.775V155H79.498V150.828C79.498 150.496 79.4414 150.23 79.3281 150.031C79.2188 149.832 79.0625 149.688 78.8594 149.598C78.6562 149.504 78.418 149.457 78.1445 149.457C77.8242 149.457 77.5566 149.514 77.3418 149.627C77.127 149.74 76.9551 149.896 76.8262 150.096C76.6973 150.295 76.6035 150.523 76.5449 150.781C76.4902 151.035 76.4629 151.305 76.4629 151.59ZM80.5703 150.992L79.8438 151.215C79.8477 150.867 79.9043 150.533 80.0137 150.213C80.127 149.893 80.2891 149.607 80.5 149.357C80.7148 149.107 80.9785 148.91 81.291 148.766C81.6035 148.617 81.9609 148.543 82.3633 148.543C82.7031 148.543 83.0039 148.588 83.2656 148.678C83.5312 148.768 83.7539 148.906 83.9336 149.094C84.1172 149.277 84.2559 149.514 84.3496 149.803C84.4434 150.092 84.4902 150.436 84.4902 150.834V155H83.4004V150.822C83.4004 150.467 83.3438 150.191 83.2305 149.996C83.1211 149.797 82.9648 149.658 82.7617 149.58C82.5625 149.498 82.3242 149.457 82.0469 149.457C81.8086 149.457 81.5977 149.498 81.4141 149.58C81.2305 149.662 81.0762 149.775 80.9512 149.92C80.8262 150.061 80.7305 150.223 80.6641 150.406C80.6016 150.59 80.5703 150.785 80.5703 150.992ZM88.7617 155.117C88.3203 155.117 87.9199 155.043 87.5605 154.895C87.2051 154.742 86.8984 154.529 86.6406 154.256C86.3867 153.982 86.1914 153.658 86.0547 153.283C85.918 152.908 85.8496 152.498 85.8496 152.053V151.807C85.8496 151.291 85.9258 150.832 86.0781 150.43C86.2305 150.023 86.4375 149.68 86.6992 149.398C86.9609 149.117 87.2578 148.904 87.5898 148.76C87.9219 148.615 88.2656 148.543 88.6211 148.543C89.0742 148.543 89.4648 148.621 89.793 148.777C90.125 148.934 90.3965 149.152 90.6074 149.434C90.8184 149.711 90.9746 150.039 91.0762 150.418C91.1777 150.793 91.2285 151.203 91.2285 151.648V152.135H86.4941V151.25H90.1445V151.168C90.1289 150.887 90.0703 150.613 89.9688 150.348C89.8711 150.082 89.7148 149.863 89.5 149.691C89.2852 149.52 88.9922 149.434 88.6211 149.434C88.375 149.434 88.1484 149.486 87.9414 149.592C87.7344 149.693 87.5566 149.846 87.4082 150.049C87.2598 150.252 87.1445 150.5 87.0625 150.793C86.9805 151.086 86.9395 151.424 86.9395 151.807V152.053C86.9395 152.354 86.9805 152.637 87.0625 152.902C87.1484 153.164 87.2715 153.395 87.4316 153.594C87.5957 153.793 87.793 153.949 88.0234 154.062C88.2578 154.176 88.5234 154.232 88.8203 154.232C89.2031 154.232 89.5273 154.154 89.793 153.998C90.0586 153.842 90.291 153.633 90.4902 153.371L91.1465 153.893C91.0098 154.1 90.8359 154.297 90.625 154.484C90.4141 154.672 90.1543 154.824 89.8457 154.941C89.541 155.059 89.1797 155.117 88.7617 155.117ZM93.584 146V155H92.4941V146H93.584ZM97.457 148.66L94.6914 151.619L93.1445 153.225L93.0566 152.07L94.1641 150.746L96.1328 148.66H97.457ZM96.4668 155L94.2051 151.977L94.7676 151.01L97.7441 155H96.4668ZM102.314 153.916V150.652C102.314 150.402 102.264 150.186 102.162 150.002C102.064 149.814 101.916 149.67 101.717 149.568C101.518 149.467 101.271 149.416 100.979 149.416C100.705 149.416 100.465 149.463 100.258 149.557C100.055 149.65 99.8945 149.773 99.7773 149.926C99.6641 150.078 99.6074 150.242 99.6074 150.418H98.5234C98.5234 150.191 98.582 149.967 98.6992 149.744C98.8164 149.521 98.9844 149.32 99.2031 149.141C99.4258 148.957 99.6914 148.812 100 148.707C100.312 148.598 100.66 148.543 101.043 148.543C101.504 148.543 101.91 148.621 102.262 148.777C102.617 148.934 102.895 149.17 103.094 149.486C103.297 149.799 103.398 150.191 103.398 150.664V153.617C103.398 153.828 103.416 154.053 103.451 154.291C103.49 154.529 103.547 154.734 103.621 154.906V155H102.49C102.436 154.875 102.393 154.709 102.361 154.502C102.33 154.291 102.314 154.096 102.314 153.916ZM102.502 151.156L102.514 151.918H101.418C101.109 151.918 100.834 151.943 100.592 151.994C100.35 152.041 100.146 152.113 99.9824 152.211C99.8184 152.309 99.6934 152.432 99.6074 152.58C99.5215 152.725 99.4785 152.895 99.4785 153.09C99.4785 153.289 99.5234 153.471 99.6133 153.635C99.7031 153.799 99.8379 153.93 100.018 154.027C100.201 154.121 100.426 154.168 100.691 154.168C101.023 154.168 101.316 154.098 101.57 153.957C101.824 153.816 102.025 153.645 102.174 153.441C102.326 153.238 102.408 153.041 102.42 152.85L102.883 153.371C102.855 153.535 102.781 153.717 102.66 153.916C102.539 154.115 102.377 154.307 102.174 154.49C101.975 154.67 101.736 154.82 101.459 154.941C101.186 155.059 100.877 155.117 100.533 155.117C100.104 155.117 99.7266 155.033 99.4023 154.865C99.082 154.697 98.832 154.473 98.6523 154.191C98.4766 153.906 98.3887 153.588 98.3887 153.236C98.3887 152.896 98.4551 152.598 98.5879 152.34C98.7207 152.078 98.9121 151.861 99.1621 151.689C99.4121 151.514 99.7129 151.381 100.064 151.291C100.416 151.201 100.809 151.156 101.242 151.156H102.502Z" fill="#827D9D"/>
<path opacity="0.4" d="M216.499 157.864C216.009 158.13 215.398 157.953 215.123 157.464C215.043 157.311 215.001 157.14 215 156.967V149.709C215 150.428 215.406 150.873 216.473 151.37L222.991 154.622L216.499 157.864Z" fill="#00A2FD"/>
<path fill-rule="evenodd" clip-rule="evenodd" d="M215 141.793C215 139.066 217.196 138 219.895 138H226.069C228.777 138 230.974 139.066 231 141.793V156.967C230.999 157.137 230.957 157.305 230.877 157.455C230.748 157.701 230.526 157.883 230.261 157.96C229.997 158.037 229.713 158.002 229.474 157.864L222.991 154.622L216.473 151.37C215.406 150.873 215 150.428 215 149.709V141.793ZM218.44 144.832C218.44 145.268 218.791 145.622 219.225 145.622H226.749C227.182 145.622 227.534 145.268 227.534 144.832C227.534 144.395 227.182 144.041 226.749 144.041H219.225C218.791 144.041 218.44 144.395 218.44 144.832Z" fill="#00A2FD"/>
</svg>
