<svg width="411" height="664" viewBox="0 0 411 664" fill="none" xmlns="http://www.w3.org/2000/svg">
<path d="M386.877 352.207C398.87 414.808 391.612 482.993 365.895 549.354C365.895 549.371 365.878 549.404 365.878 549.421C365.45 550.537 364.987 551.669 364.576 552.72C364.559 552.753 364.559 552.77 364.542 552.787C363.305 555.924 361.936 559.29 360.352 563.017C353.408 579.276 345.357 595.434 336.433 611.085C329.291 623.631 321.389 636.228 312.943 648.478C304.217 661.172 294.665 673.866 284.587 686.182C280.578 691.077 276.801 695.544 273.023 699.878C261.773 712.853 249.649 725.744 236.98 738.158C236.865 738.258 236.75 738.355 236.65 738.471C236.287 738.831 235.892 739.209 235.529 739.571C235.066 740.014 234.621 740.458 234.16 740.901L233.929 741.115C232.906 742.116 231.867 743.118 230.811 744.104C230.712 744.202 230.596 744.301 230.464 744.432C230.349 744.547 230.218 744.694 230.085 744.825C230.036 744.892 229.953 744.958 229.903 745.023L229.755 745.17L229.656 745.253L229.64 745.286C229.573 745.351 229.508 745.401 229.442 745.467C229.408 745.5 229.375 745.532 229.343 745.565C229.244 745.648 229.162 745.746 229.079 745.845C229.062 745.86 229.045 745.877 229.029 745.893C229.012 745.91 228.997 745.926 228.98 745.943C227.545 747.289 226.011 748.718 223.965 750.557C223.899 750.624 223.817 750.705 223.734 750.771C223.602 750.869 223.487 750.968 223.371 751.066C220.748 753.383 218.093 755.697 215.403 757.997C218.356 754.072 221.211 750.098 223.982 746.074C224.493 745.319 225.005 744.563 225.533 743.807C226.061 743.036 226.62 742.248 227.148 741.476C258.623 695.741 277.264 644.11 281.041 592.166C284.686 542.145 274.641 493.601 251.958 451.824C231.487 414.118 201.036 383.032 163.92 361.962C123.836 339.201 77.2679 328.198 25.4883 329.2C25.3553 329.2 25.2237 329.2 25.092 329.2L24.1026 329.216C23.4264 329.233 22.7654 329.249 22.1058 329.282C21.5779 329.282 21.0499 329.347 20.5386 329.48C20.4901 329.496 20.4568 329.496 20.407 329.511C19.8956 329.611 19.4009 329.709 18.873 329.856C16.5311 329.972 14.3362 330.087 12.1759 330.218C12.126 330.218 12.0609 330.218 12.011 330.234C11.12 330.284 10.2123 330.35 9.32133 330.415H9.17307C9.00817 330.431 8.82663 330.448 8.66173 330.465C-11.8924 332.008 -33.2697 335.555 -54.9296 341.023C-54.9781 341.04 -55.0446 341.056 -55.0945 341.073C-56.1823 341.368 -57.9975 341.501 -59.7463 341.648C-62.0715 341.829 -64.6946 342.026 -67.2679 342.683C-67.3178 342.699 -67.3677 342.716 -67.4328 342.731C-93.6447 349.876 -118.702 350.269 -139.9 343.865C-158.787 338.166 -174.408 327.279 -185.065 312.383C-194.55 299.099 -199.564 283.398 -199.548 266.96C-199.548 249.701 -193.89 232.392 -183.233 216.906C-173.616 202.93 -160.189 190.664 -143.331 180.4C-136.748 177.28 -130.315 174.126 -124.079 171.072L-121.787 169.939C-121.671 169.89 -121.572 169.823 -121.457 169.775L-119.51 168.822C-119.049 168.707 -118.586 168.56 -118.141 168.379C-116.937 167.87 -115.468 167.097 -113.193 165.718L-112.582 165.423C-111.989 165.144 -111.411 164.847 -110.816 164.569C-110.586 164.486 -110.338 164.388 -110.108 164.29C-66.9048 145.207 -23.9827 131.889 17.4873 124.696C56.6652 117.914 94.8026 116.551 130.813 120.64C198.48 128.342 258.342 155.257 303.969 198.496C346.71 238.977 375.363 292.135 386.877 352.207Z" fill="#001420"/>
<path d="M175.602 749.014C123.773 824.342 39.1324 864.708 -48.8556 865.364C-68.4702 864.97 -88.1319 863.148 -107.663 859.879C-107.68 859.879 -107.713 859.879 -107.747 859.863C-179.272 847.875 -248.966 816.524 -308.533 765.321C-316.352 758.604 -323.824 751.69 -331 744.53C-310.875 755.271 -290.074 764.188 -268.86 771.282C-158.372 808.313 -36.5173 796.309 63.6788 737.584C100.447 716.038 134.314 688.17 163.627 654.143C186.72 627.311 205.608 598.21 220.321 567.698C227.383 630.101 213.261 694.279 175.602 749.014Z" fill="#001420"/>
<path d="M348.399 164.799C349.29 166.146 350.164 167.459 351.022 168.79C374.182 204.623 391.239 244.627 401.35 287.308L401.367 287.356C417.418 361.355 410.901 429.999 392.905 490.695C404.533 439.606 405.541 388.501 395.643 340.367C382.71 277.52 351.781 221.685 306.203 178.889C257.541 133.154 194.081 104.284 122.753 95.3664C84.7463 90.6205 44.5789 91.5238 3.3889 98.0762C-25.5612 102.691 -55.1543 110.114 -85.0287 120.246C-85.5885 101.18 -111.636 88.5021 -145.864 100.917C-218.396 126.831 -249.392 80.9643 -185.85 45.5748C-182.337 44.0311 -178.823 42.5367 -175.293 41.0915V41.0751C-169.866 39.5806 -163.895 37.2159 -159.045 34.6706C-159.045 34.6541 -159.045 34.6541 -159.011 34.6706C-158.913 34.6377 -158.83 34.6047 -158.748 34.5883C-157.181 34.0136 -155.597 33.4716 -154.046 32.9133C-67.9222 2.63104 11.8847 -5.54715 82.8008 3.45214C85.4059 3.79701 87.9958 4.12547 90.5857 4.51959C91.9395 4.71666 93.2753 4.91371 94.6278 5.1272C201.784 21.8284 287.695 78.2547 343.005 156.867C344.853 159.478 346.65 162.123 348.399 164.799Z" fill="#001521"/>
<path fill-rule="evenodd" clip-rule="evenodd" d="M11.747 350.894C14.007 347.626 17.4062 345.605 21.0506 345.014C21.9249 344.867 22.7827 344.8 23.6571 344.834C75.19 341.632 128.125 354.883 174.034 386.168C213.886 413.346 242.92 450.362 260.091 491.729C285.825 567.22 274.608 658.922 218.473 739.029L218.387 739.154C217.31 740.722 216.234 742.289 215.141 743.857C215.124 743.857 215.124 743.874 215.124 743.874C214.908 744.211 214.68 744.542 214.45 744.874C214.311 745.076 214.172 745.278 214.035 745.482C213.59 746.14 213.145 746.797 212.682 747.437C200.872 764.319 187.626 779.592 173.208 793.205C173.188 793.225 173.161 793.252 173.132 793.278C173.114 793.293 173.095 793.308 173.076 793.321C159.978 805.685 145.925 816.655 131.143 826.247C146.666 812.074 160.408 797.032 172.383 781.414C228.172 708.779 245.823 623.565 226.721 553.722C207.189 482.318 149.256 426.977 54.3726 417.501C49.2427 417.008 47.4441 410.653 51.4529 407.451C57.0123 403.001 60.3269 397.318 59.404 391.57C58.0682 380.568 43.6999 373.178 26.9897 374.705C26.965 374.714 26.9444 374.718 26.924 374.722C26.9032 374.726 26.8825 374.73 26.858 374.739C19.633 375.198 14.3701 371.487 11.4338 366.215C10.7243 364.951 10.1478 363.603 9.71828 362.208C9.70996 362.192 9.70581 362.171 9.70165 362.151C9.6975 362.13 9.69334 362.109 9.68503 362.093C8.77878 358.382 9.40511 354.309 11.747 350.894ZM251.426 475.394C251.454 475.453 251.482 475.511 251.497 475.57C251.481 475.487 251.447 475.422 251.415 475.372L251.426 475.394Z" fill="#001521"/>
</svg>
