<svg width="269" height="211" viewBox="0 0 269 211" fill="none" xmlns="http://www.w3.org/2000/svg">
<rect width="269" height="211" fill="white"/>
<path d="M46.356 36.27V43.284C46.356 44.152 46.09 44.838 45.558 45.342C45.0353 45.846 44.3447 46.098 43.486 46.098C42.6273 46.098 41.932 45.846 41.4 45.342C40.8773 44.838 40.616 44.152 40.616 43.284H42.226C42.2353 43.7133 42.3427 44.054 42.548 44.306C42.7627 44.558 43.0753 44.684 43.486 44.684C43.8967 44.684 44.2093 44.558 44.424 44.306C44.6387 44.0447 44.746 43.704 44.746 43.284V36.27H46.356ZM52.2983 46.126C51.5703 46.126 50.9123 45.9627 50.3243 45.636C49.7363 45.3 49.2743 44.8333 48.9383 44.236C48.6023 43.6293 48.4343 42.9293 48.4343 42.136C48.4343 41.352 48.607 40.6567 48.9523 40.05C49.2977 39.4433 49.769 38.9767 50.3663 38.65C50.9637 38.3233 51.631 38.16 52.3683 38.16C53.1057 38.16 53.773 38.3233 54.3703 38.65C54.9677 38.9767 55.439 39.4433 55.7843 40.05C56.1297 40.6567 56.3023 41.352 56.3023 42.136C56.3023 42.92 56.125 43.6153 55.7703 44.222C55.4157 44.8287 54.9303 45.3 54.3143 45.636C53.7077 45.9627 53.0357 46.126 52.2983 46.126ZM52.2983 44.74C52.709 44.74 53.0917 44.642 53.4463 44.446C53.8103 44.25 54.1043 43.956 54.3283 43.564C54.5523 43.172 54.6643 42.696 54.6643 42.136C54.6643 41.576 54.557 41.1047 54.3423 40.722C54.1277 40.33 53.843 40.036 53.4883 39.84C53.1337 39.644 52.751 39.546 52.3403 39.546C51.9297 39.546 51.547 39.644 51.1923 39.84C50.847 40.036 50.5717 40.33 50.3663 40.722C50.161 41.1047 50.0583 41.576 50.0583 42.136C50.0583 42.9667 50.2683 43.6107 50.6883 44.068C51.1177 44.516 51.6543 44.74 52.2983 44.74ZM61.8701 38.16C62.4581 38.16 62.9807 38.286 63.4381 38.538C63.9047 38.79 64.2687 39.1633 64.5301 39.658C64.8007 40.1527 64.9361 40.75 64.9361 41.45V46H63.3541V41.688C63.3541 40.9973 63.1814 40.47 62.8361 40.106C62.4907 39.7327 62.0194 39.546 61.4221 39.546C60.8247 39.546 60.3487 39.7327 59.9941 40.106C59.6487 40.47 59.4761 40.9973 59.4761 41.688V46H57.8801V35.64H59.4761V39.182C59.7467 38.8553 60.0874 38.6033 60.4981 38.426C60.9181 38.2487 61.3754 38.16 61.8701 38.16ZM70.8639 38.16C71.4705 38.16 72.0119 38.286 72.4879 38.538C72.9732 38.79 73.3512 39.1633 73.6219 39.658C73.8925 40.1527 74.0279 40.75 74.0279 41.45V46H72.4459V41.688C72.4459 40.9973 72.2732 40.47 71.9279 40.106C71.5825 39.7327 71.1112 39.546 70.5139 39.546C69.9165 39.546 69.4405 39.7327 69.0859 40.106C68.7405 40.47 68.5679 40.9973 68.5679 41.688V46H66.9719V38.286H68.5679V39.168C68.8292 38.8507 69.1605 38.6033 69.5619 38.426C69.9725 38.2487 70.4065 38.16 70.8639 38.16ZM82.8784 36.27C83.9144 36.27 84.8197 36.4707 85.5944 36.872C86.3784 37.264 86.9804 37.8333 87.4004 38.58C87.8297 39.3173 88.0444 40.1807 88.0444 41.17C88.0444 42.1593 87.8297 43.018 87.4004 43.746C86.9804 44.474 86.3784 45.034 85.5944 45.426C84.8197 45.8087 83.9144 46 82.8784 46H79.7004V36.27H82.8784ZM82.8784 44.698C84.0171 44.698 84.8897 44.39 85.4964 43.774C86.1031 43.158 86.4064 42.29 86.4064 41.17C86.4064 40.0407 86.1031 39.1587 85.4964 38.524C84.8897 37.8893 84.0171 37.572 82.8784 37.572H81.2964V44.698H82.8784ZM92.9722 46.126C92.2442 46.126 91.5862 45.9627 90.9982 45.636C90.4102 45.3 89.9482 44.8333 89.6122 44.236C89.2762 43.6293 89.1082 42.9293 89.1082 42.136C89.1082 41.352 89.2808 40.6567 89.6262 40.05C89.9715 39.4433 90.4428 38.9767 91.0402 38.65C91.6375 38.3233 92.3048 38.16 93.0422 38.16C93.7795 38.16 94.4468 38.3233 95.0442 38.65C95.6415 38.9767 96.1128 39.4433 96.4582 40.05C96.8035 40.6567 96.9762 41.352 96.9762 42.136C96.9762 42.92 96.7988 43.6153 96.4442 44.222C96.0895 44.8287 95.6042 45.3 94.9882 45.636C94.3815 45.9627 93.7095 46.126 92.9722 46.126ZM92.9722 44.74C93.3828 44.74 93.7655 44.642 94.1202 44.446C94.4842 44.25 94.7782 43.956 95.0022 43.564C95.2262 43.172 95.3382 42.696 95.3382 42.136C95.3382 41.576 95.2308 41.1047 95.0162 40.722C94.8015 40.33 94.5168 40.036 94.1622 39.84C93.8075 39.644 93.4248 39.546 93.0142 39.546C92.6035 39.546 92.2208 39.644 91.8662 39.84C91.5208 40.036 91.2455 40.33 91.0402 40.722C90.8348 41.1047 90.7322 41.576 90.7322 42.136C90.7322 42.9667 90.9422 43.6107 91.3622 44.068C91.7915 44.516 92.3282 44.74 92.9722 44.74ZM105.624 41.954C105.624 42.2433 105.605 42.5047 105.568 42.738H99.6739C99.7206 43.354 99.9492 43.8487 100.36 44.222C100.771 44.5953 101.275 44.782 101.872 44.782C102.731 44.782 103.337 44.4227 103.692 43.704H105.414C105.181 44.4133 104.756 44.9967 104.14 45.454C103.533 45.902 102.777 46.126 101.872 46.126C101.135 46.126 100.472 45.9627 99.8839 45.636C99.3052 45.3 98.8479 44.8333 98.5119 44.236C98.1852 43.6293 98.0219 42.9293 98.0219 42.136C98.0219 41.3427 98.1806 40.6473 98.4979 40.05C98.8246 39.4433 99.2772 38.9767 99.8559 38.65C100.444 38.3233 101.116 38.16 101.872 38.16C102.6 38.16 103.249 38.3187 103.818 38.636C104.387 38.9533 104.831 39.4013 105.148 39.98C105.465 40.5493 105.624 41.2073 105.624 41.954ZM103.958 41.45C103.949 40.862 103.739 40.3907 103.328 40.036C102.917 39.6813 102.409 39.504 101.802 39.504C101.251 39.504 100.78 39.6813 100.388 40.036C99.9959 40.3813 99.7626 40.8527 99.6879 41.45H103.958Z" fill="#827D9D"/>
<path d="M46.356 100.27V107.284C46.356 108.152 46.09 108.838 45.558 109.342C45.0353 109.846 44.3447 110.098 43.486 110.098C42.6273 110.098 41.932 109.846 41.4 109.342C40.8773 108.838 40.616 108.152 40.616 107.284H42.226C42.2353 107.713 42.3427 108.054 42.548 108.306C42.7627 108.558 43.0753 108.684 43.486 108.684C43.8967 108.684 44.2093 108.558 44.424 108.306C44.6387 108.045 44.746 107.704 44.746 107.284V100.27H46.356ZM52.2983 110.126C51.5703 110.126 50.9123 109.963 50.3243 109.636C49.7363 109.3 49.2743 108.833 48.9383 108.236C48.6023 107.629 48.4343 106.929 48.4343 106.136C48.4343 105.352 48.607 104.657 48.9523 104.05C49.2977 103.443 49.769 102.977 50.3663 102.65C50.9637 102.323 51.631 102.16 52.3683 102.16C53.1057 102.16 53.773 102.323 54.3703 102.65C54.9677 102.977 55.439 103.443 55.7843 104.05C56.1297 104.657 56.3023 105.352 56.3023 106.136C56.3023 106.92 56.125 107.615 55.7703 108.222C55.4157 108.829 54.9303 109.3 54.3143 109.636C53.7077 109.963 53.0357 110.126 52.2983 110.126ZM52.2983 108.74C52.709 108.74 53.0917 108.642 53.4463 108.446C53.8103 108.25 54.1043 107.956 54.3283 107.564C54.5523 107.172 54.6643 106.696 54.6643 106.136C54.6643 105.576 54.557 105.105 54.3423 104.722C54.1277 104.33 53.843 104.036 53.4883 103.84C53.1337 103.644 52.751 103.546 52.3403 103.546C51.9297 103.546 51.547 103.644 51.1923 103.84C50.847 104.036 50.5717 104.33 50.3663 104.722C50.161 105.105 50.0583 105.576 50.0583 106.136C50.0583 106.967 50.2683 107.611 50.6883 108.068C51.1177 108.516 51.6543 108.74 52.2983 108.74ZM61.8701 102.16C62.4581 102.16 62.9807 102.286 63.4381 102.538C63.9047 102.79 64.2687 103.163 64.5301 103.658C64.8007 104.153 64.9361 104.75 64.9361 105.45V110H63.3541V105.688C63.3541 104.997 63.1814 104.47 62.8361 104.106C62.4907 103.733 62.0194 103.546 61.4221 103.546C60.8247 103.546 60.3487 103.733 59.9941 104.106C59.6487 104.47 59.4761 104.997 59.4761 105.688V110H57.8801V99.64H59.4761V103.182C59.7467 102.855 60.0874 102.603 60.4981 102.426C60.9181 102.249 61.3754 102.16 61.8701 102.16ZM70.8639 102.16C71.4705 102.16 72.0119 102.286 72.4879 102.538C72.9732 102.79 73.3512 103.163 73.6219 103.658C73.8925 104.153 74.0279 104.75 74.0279 105.45V110H72.4459V105.688C72.4459 104.997 72.2732 104.47 71.9279 104.106C71.5825 103.733 71.1112 103.546 70.5139 103.546C69.9165 103.546 69.4405 103.733 69.0859 104.106C68.7405 104.47 68.5679 104.997 68.5679 105.688V110H66.9719V102.286H68.5679V103.168C68.8292 102.851 69.1605 102.603 69.5619 102.426C69.9725 102.249 70.4065 102.16 70.8639 102.16ZM82.8784 100.27C83.9144 100.27 84.8197 100.471 85.5944 100.872C86.3784 101.264 86.9804 101.833 87.4004 102.58C87.8297 103.317 88.0444 104.181 88.0444 105.17C88.0444 106.159 87.8297 107.018 87.4004 107.746C86.9804 108.474 86.3784 109.034 85.5944 109.426C84.8197 109.809 83.9144 110 82.8784 110H79.7004V100.27H82.8784ZM82.8784 108.698C84.0171 108.698 84.8897 108.39 85.4964 107.774C86.1031 107.158 86.4064 106.29 86.4064 105.17C86.4064 104.041 86.1031 103.159 85.4964 102.524C84.8897 101.889 84.0171 101.572 82.8784 101.572H81.2964V108.698H82.8784ZM92.9722 110.126C92.2442 110.126 91.5862 109.963 90.9982 109.636C90.4102 109.3 89.9482 108.833 89.6122 108.236C89.2762 107.629 89.1082 106.929 89.1082 106.136C89.1082 105.352 89.2808 104.657 89.6262 104.05C89.9715 103.443 90.4428 102.977 91.0402 102.65C91.6375 102.323 92.3048 102.16 93.0422 102.16C93.7795 102.16 94.4468 102.323 95.0442 102.65C95.6415 102.977 96.1128 103.443 96.4582 104.05C96.8035 104.657 96.9762 105.352 96.9762 106.136C96.9762 106.92 96.7988 107.615 96.4442 108.222C96.0895 108.829 95.6042 109.3 94.9882 109.636C94.3815 109.963 93.7095 110.126 92.9722 110.126ZM92.9722 108.74C93.3828 108.74 93.7655 108.642 94.1202 108.446C94.4842 108.25 94.7782 107.956 95.0022 107.564C95.2262 107.172 95.3382 106.696 95.3382 106.136C95.3382 105.576 95.2308 105.105 95.0162 104.722C94.8015 104.33 94.5168 104.036 94.1622 103.84C93.8075 103.644 93.4248 103.546 93.0142 103.546C92.6035 103.546 92.2208 103.644 91.8662 103.84C91.5208 104.036 91.2455 104.33 91.0402 104.722C90.8348 105.105 90.7322 105.576 90.7322 106.136C90.7322 106.967 90.9422 107.611 91.3622 108.068C91.7915 108.516 92.3282 108.74 92.9722 108.74ZM105.624 105.954C105.624 106.243 105.605 106.505 105.568 106.738H99.6739C99.7206 107.354 99.9492 107.849 100.36 108.222C100.771 108.595 101.275 108.782 101.872 108.782C102.731 108.782 103.337 108.423 103.692 107.704H105.414C105.181 108.413 104.756 108.997 104.14 109.454C103.533 109.902 102.777 110.126 101.872 110.126C101.135 110.126 100.472 109.963 99.8839 109.636C99.3052 109.3 98.8479 108.833 98.5119 108.236C98.1852 107.629 98.0219 106.929 98.0219 106.136C98.0219 105.343 98.1806 104.647 98.4979 104.05C98.8246 103.443 99.2772 102.977 99.8559 102.65C100.444 102.323 101.116 102.16 101.872 102.16C102.6 102.16 103.249 102.319 103.818 102.636C104.387 102.953 104.831 103.401 105.148 103.98C105.465 104.549 105.624 105.207 105.624 105.954ZM103.958 105.45C103.949 104.862 103.739 104.391 103.328 104.036C102.917 103.681 102.409 103.504 101.802 103.504C101.251 103.504 100.78 103.681 100.388 104.036C99.9959 104.381 99.7626 104.853 99.6879 105.45H103.958Z" fill="#827D9D"/>
<circle cx="44" cy="169" r="4" fill="#C4C4C4"/>
<circle cx="62" cy="169" r="4" fill="#C4C4C4"/>
<circle cx="80" cy="169" r="4" fill="#C4C4C4"/>
<circle cx="98" cy="169" r="4" fill="#C4C4C4"/>
</svg>
