<svg width="233" height="94" viewBox="0 0 233 94" fill="none" xmlns="http://www.w3.org/2000/svg">
<rect width="233" height="94" fill="white"/>
<path fill-rule="evenodd" clip-rule="evenodd" d="M21.9245 17.5C23.3268 17.5 24.463 18.6459 24.463 20.06V23.4745C24.463 24.8886 23.3268 26.0345 21.9245 26.0345H18.5385C17.1363 26.0345 16 24.8886 16 23.4745V20.06C16 18.6459 17.1363 17.5 18.5385 17.5H21.9245ZM21.9245 28.9655C23.3268 28.9655 24.463 30.1114 24.463 31.5255V34.94C24.463 36.3532 23.3268 37.5 21.9245 37.5H18.5385C17.1363 37.5 16 36.3532 16 34.94V31.5255C16 30.1114 17.1363 28.9655 18.5385 28.9655H21.9245ZM36 31.5255C36 30.1114 34.8637 28.9655 33.4615 28.9655H30.0755C28.6732 28.9655 27.537 30.1114 27.537 31.5255V34.94C27.537 36.3532 28.6732 37.5 30.0755 37.5H33.4615C34.8637 37.5 36 36.3532 36 34.94V31.5255Z" fill="white"/>
<path opacity="0.4" d="M33.4615 17.5C34.8637 17.5 36 18.6459 36 20.06V23.4745C36 24.8886 34.8637 26.0345 33.4615 26.0345H30.0755C28.6732 26.0345 27.537 24.8886 27.537 23.4745V20.06C27.537 18.6459 28.6732 17.5 30.0755 17.5H33.4615Z" fill="white"/>
<path d="M63.298 22.27V32H61.702V25.336L58.734 32H57.628L54.646 25.336V32H53.05V22.27H54.772L58.188 29.9L61.59 22.27H63.298ZM64.8637 28.108C64.8637 27.3333 65.0224 26.6473 65.3397 26.05C65.6664 25.4527 66.105 24.9907 66.6557 24.664C67.2157 24.328 67.8317 24.16 68.5037 24.16C69.1104 24.16 69.6377 24.2813 70.0857 24.524C70.543 24.7573 70.907 25.0513 71.1777 25.406V24.286H72.7877V32H71.1777V30.852C70.907 31.216 70.5384 31.5193 70.0717 31.762C69.605 32.0047 69.073 32.126 68.4757 32.126C67.813 32.126 67.2064 31.958 66.6557 31.622C66.105 31.2767 65.6664 30.8007 65.3397 30.194C65.0224 29.578 64.8637 28.8827 64.8637 28.108ZM71.1777 28.136C71.1777 27.604 71.0657 27.142 70.8417 26.75C70.627 26.358 70.3424 26.0593 69.9877 25.854C69.633 25.6487 69.2504 25.546 68.8397 25.546C68.429 25.546 68.0464 25.6487 67.6917 25.854C67.337 26.05 67.0477 26.344 66.8237 26.736C66.609 27.1187 66.5017 27.576 66.5017 28.108C66.5017 28.64 66.609 29.1067 66.8237 29.508C67.0477 29.9093 67.337 30.2173 67.6917 30.432C68.0557 30.6373 68.4384 30.74 68.8397 30.74C69.2504 30.74 69.633 30.6373 69.9877 30.432C70.3424 30.2267 70.627 29.928 70.8417 29.536C71.0657 29.1347 71.1777 28.668 71.1777 28.136ZM76.48 25.406C76.7133 25.014 77.0213 24.7107 77.404 24.496C77.796 24.272 78.258 24.16 78.79 24.16V25.812H78.384C77.7587 25.812 77.2827 25.9707 76.956 26.288C76.6387 26.6053 76.48 27.156 76.48 27.94V32H74.884V24.286H76.48V25.406ZM83.309 28.15L86.865 32H84.709L81.853 28.682V32H80.257V21.64H81.853V27.66L84.653 24.286H86.865L83.309 28.15ZM95.079 27.954C95.079 28.2433 95.0603 28.5047 95.023 28.738H89.129C89.1757 29.354 89.4043 29.8487 89.815 30.222C90.2257 30.5953 90.7297 30.782 91.327 30.782C92.1857 30.782 92.7923 30.4227 93.147 29.704H94.869C94.6357 30.4133 94.211 30.9967 93.595 31.454C92.9883 31.902 92.2323 32.126 91.327 32.126C90.5897 32.126 89.927 31.9627 89.339 31.636C88.7603 31.3 88.303 30.8333 87.967 30.236C87.6403 29.6293 87.477 28.9293 87.477 28.136C87.477 27.3427 87.6357 26.6473 87.953 26.05C88.2797 25.4433 88.7323 24.9767 89.311 24.65C89.899 24.3233 90.571 24.16 91.327 24.16C92.055 24.16 92.7037 24.3187 93.273 24.636C93.8423 24.9533 94.2857 25.4013 94.603 25.98C94.9203 26.5493 95.079 27.2073 95.079 27.954ZM93.413 27.45C93.4037 26.862 93.1937 26.3907 92.783 26.036C92.3723 25.6813 91.8637 25.504 91.257 25.504C90.7063 25.504 90.235 25.6813 89.843 26.036C89.451 26.3813 89.2177 26.8527 89.143 27.45H93.413ZM98.5116 25.588V29.858C98.5116 30.1473 98.5769 30.3573 98.7076 30.488C98.8476 30.6093 99.0809 30.67 99.4076 30.67H100.388V32H99.1276C98.4089 32 97.8583 31.832 97.4756 31.496C97.0929 31.16 96.9016 30.614 96.9016 29.858V25.588H95.9916V24.286H96.9016V22.368H98.5116V24.286H100.388V25.588H98.5116ZM103.455 25.42C103.725 25.0653 104.094 24.7667 104.561 24.524C105.027 24.2813 105.555 24.16 106.143 24.16C106.815 24.16 107.426 24.328 107.977 24.664C108.537 24.9907 108.975 25.4527 109.293 26.05C109.61 26.6473 109.769 27.3333 109.769 28.108C109.769 28.8827 109.61 29.578 109.293 30.194C108.975 30.8007 108.537 31.2767 107.977 31.622C107.426 31.958 106.815 32.126 106.143 32.126C105.555 32.126 105.032 32.0093 104.575 31.776C104.117 31.5333 103.744 31.2347 103.455 30.88V35.668H101.859V24.286H103.455V25.42ZM108.145 28.108C108.145 27.576 108.033 27.1187 107.809 26.736C107.594 26.344 107.305 26.05 106.941 25.854C106.586 25.6487 106.203 25.546 105.793 25.546C105.391 25.546 105.009 25.6487 104.645 25.854C104.29 26.0593 104.001 26.358 103.777 26.75C103.562 27.142 103.455 27.604 103.455 28.136C103.455 28.668 103.562 29.1347 103.777 29.536C104.001 29.928 104.29 30.2267 104.645 30.432C105.009 30.6373 105.391 30.74 105.793 30.74C106.203 30.74 106.586 30.6373 106.941 30.432C107.305 30.2173 107.594 29.9093 107.809 29.508C108.033 29.1067 108.145 28.64 108.145 28.108ZM112.943 21.64V32H111.347V21.64H112.943ZM114.506 28.108C114.506 27.3333 114.665 26.6473 114.982 26.05C115.309 25.4527 115.748 24.9907 116.298 24.664C116.858 24.328 117.474 24.16 118.146 24.16C118.753 24.16 119.28 24.2813 119.728 24.524C120.186 24.7573 120.55 25.0513 120.82 25.406V24.286H122.43V32H120.82V30.852C120.55 31.216 120.181 31.5193 119.714 31.762C119.248 32.0047 118.716 32.126 118.118 32.126C117.456 32.126 116.849 31.958 116.298 31.622C115.748 31.2767 115.309 30.8007 114.982 30.194C114.665 29.578 114.506 28.8827 114.506 28.108ZM120.82 28.136C120.82 27.604 120.708 27.142 120.484 26.75C120.27 26.358 119.985 26.0593 119.63 25.854C119.276 25.6487 118.893 25.546 118.482 25.546C118.072 25.546 117.689 25.6487 117.334 25.854C116.98 26.05 116.69 26.344 116.466 26.736C116.252 27.1187 116.144 27.576 116.144 28.108C116.144 28.64 116.252 29.1067 116.466 29.508C116.69 29.9093 116.98 30.2173 117.334 30.432C117.698 30.6373 118.081 30.74 118.482 30.74C118.893 30.74 119.276 30.6373 119.63 30.432C119.985 30.2267 120.27 29.928 120.484 29.536C120.708 29.1347 120.82 28.668 120.82 28.136ZM123.995 28.136C123.995 27.3427 124.153 26.6473 124.471 26.05C124.797 25.4433 125.245 24.9767 125.815 24.65C126.384 24.3233 127.037 24.16 127.775 24.16C128.708 24.16 129.478 24.384 130.085 24.832C130.701 25.2707 131.116 25.9007 131.331 26.722H129.609C129.469 26.3393 129.245 26.0407 128.937 25.826C128.629 25.6113 128.241 25.504 127.775 25.504C127.121 25.504 126.599 25.7373 126.207 26.204C125.824 26.6613 125.633 27.3053 125.633 28.136C125.633 28.9667 125.824 29.6153 126.207 30.082C126.599 30.5487 127.121 30.782 127.775 30.782C128.699 30.782 129.31 30.376 129.609 29.564H131.331C131.107 30.348 130.687 30.9733 130.071 31.44C129.455 31.8973 128.689 32.126 127.775 32.126C127.037 32.126 126.384 31.9627 125.815 31.636C125.245 31.3 124.797 30.8333 124.471 30.236C124.153 29.6293 123.995 28.9293 123.995 28.136ZM139.991 27.954C139.991 28.2433 139.972 28.5047 139.935 28.738H134.041C134.088 29.354 134.316 29.8487 134.727 30.222C135.138 30.5953 135.642 30.782 136.239 30.782C137.098 30.782 137.704 30.4227 138.059 29.704H139.781C139.548 30.4133 139.123 30.9967 138.507 31.454C137.9 31.902 137.144 32.126 136.239 32.126C135.502 32.126 134.839 31.9627 134.251 31.636C133.672 31.3 133.215 30.8333 132.879 30.236C132.552 29.6293 132.389 28.9293 132.389 28.136C132.389 27.3427 132.548 26.6473 132.865 26.05C133.192 25.4433 133.644 24.9767 134.223 24.65C134.811 24.3233 135.483 24.16 136.239 24.16C136.967 24.16 137.616 24.3187 138.185 24.636C138.754 24.9533 139.198 25.4013 139.515 25.98C139.832 26.5493 139.991 27.2073 139.991 27.954ZM138.325 27.45C138.316 26.862 138.106 26.3907 137.695 26.036C137.284 25.6813 136.776 25.504 136.169 25.504C135.618 25.504 135.147 25.6813 134.755 26.036C134.363 26.3813 134.13 26.8527 134.055 27.45H138.325Z" fill="#827D9D"/>
<path d="M212.286 30.2955C212.246 30.2699 212.081 30.1506 211.974 30.0568L211.916 30.0057C211.031 29.2898 209.699 27.5085 209.272 26.6051C209.262 26.6051 209.009 26.0682 209 25.8125L209 25.7784C209 25.3864 209.252 25.0199 209.66 24.8324C209.885 24.7301 210.536 24.6364 210.545 24.6278C211.129 24.5511 212.023 24.5 213.005 24.5C214.034 24.5 214.968 24.5511 215.542 24.6449C215.552 24.6449 216.077 24.7386 216.252 24.7983C216.503 24.892 216.718 25.0625 216.854 25.2756C216.95 25.446 217 25.625 217 25.8125C216.989 26.0085 216.844 26.375 216.776 26.5199C216.349 27.4744 214.949 29.2983 214.094 29.9972C213.957 30.1165 213.791 30.2443 213.753 30.2784C213.539 30.4233 213.277 30.5 212.995 30.5C212.742 30.5 212.489 30.4318 212.286 30.2955Z" fill="#00A2FD"/>
<path fill-rule="evenodd" clip-rule="evenodd" d="M21.9245 56.5C23.3268 56.5 24.463 57.6459 24.463 59.06V62.4745C24.463 63.8886 23.3268 65.0345 21.9245 65.0345H18.5385C17.1363 65.0345 16 63.8886 16 62.4745V59.06C16 57.6459 17.1363 56.5 18.5385 56.5H21.9245ZM21.9245 67.9655C23.3268 67.9655 24.463 69.1114 24.463 70.5255V73.94C24.463 75.3532 23.3268 76.5 21.9245 76.5H18.5385C17.1363 76.5 16 75.3532 16 73.94V70.5255C16 69.1114 17.1363 67.9655 18.5385 67.9655H21.9245ZM36 70.5255C36 69.1114 34.8637 67.9655 33.4615 67.9655H30.0755C28.6732 67.9655 27.537 69.1114 27.537 70.5255V73.94C27.537 75.3532 28.6732 76.5 30.0755 76.5H33.4615C34.8637 76.5 36 75.3532 36 73.94V70.5255Z" fill="white"/>
<path opacity="0.4" d="M33.4615 56.5C34.8637 56.5 36 57.6459 36 59.06V62.4745C36 63.8886 34.8637 65.0345 33.4615 65.0345H30.0755C28.6732 65.0345 27.537 63.8886 27.537 62.4745V59.06C27.537 57.6459 28.6732 56.5 30.0755 56.5H33.4615Z" fill="white"/>
<path d="M63.298 61.27V71H61.702V64.336L58.734 71H57.628L54.646 64.336V71H53.05V61.27H54.772L58.188 68.9L61.59 61.27H63.298ZM64.8637 67.108C64.8637 66.3333 65.0224 65.6473 65.3397 65.05C65.6664 64.4527 66.105 63.9907 66.6557 63.664C67.2157 63.328 67.8317 63.16 68.5037 63.16C69.1104 63.16 69.6377 63.2813 70.0857 63.524C70.543 63.7573 70.907 64.0513 71.1777 64.406V63.286H72.7877V71H71.1777V69.852C70.907 70.216 70.5384 70.5193 70.0717 70.762C69.605 71.0047 69.073 71.126 68.4757 71.126C67.813 71.126 67.2064 70.958 66.6557 70.622C66.105 70.2767 65.6664 69.8007 65.3397 69.194C65.0224 68.578 64.8637 67.8827 64.8637 67.108ZM71.1777 67.136C71.1777 66.604 71.0657 66.142 70.8417 65.75C70.627 65.358 70.3424 65.0593 69.9877 64.854C69.633 64.6487 69.2504 64.546 68.8397 64.546C68.429 64.546 68.0464 64.6487 67.6917 64.854C67.337 65.05 67.0477 65.344 66.8237 65.736C66.609 66.1187 66.5017 66.576 66.5017 67.108C66.5017 67.64 66.609 68.1067 66.8237 68.508C67.0477 68.9093 67.337 69.2173 67.6917 69.432C68.0557 69.6373 68.4384 69.74 68.8397 69.74C69.2504 69.74 69.633 69.6373 69.9877 69.432C70.3424 69.2267 70.627 68.928 70.8417 68.536C71.0657 68.1347 71.1777 67.668 71.1777 67.136ZM76.48 64.406C76.7133 64.014 77.0213 63.7107 77.404 63.496C77.796 63.272 78.258 63.16 78.79 63.16V64.812H78.384C77.7587 64.812 77.2827 64.9707 76.956 65.288C76.6387 65.6053 76.48 66.156 76.48 66.94V71H74.884V63.286H76.48V64.406ZM83.309 67.15L86.865 71H84.709L81.853 67.682V71H80.257V60.64H81.853V66.66L84.653 63.286H86.865L83.309 67.15ZM95.079 66.954C95.079 67.2433 95.0603 67.5047 95.023 67.738H89.129C89.1757 68.354 89.4043 68.8487 89.815 69.222C90.2257 69.5953 90.7297 69.782 91.327 69.782C92.1857 69.782 92.7923 69.4227 93.147 68.704H94.869C94.6357 69.4133 94.211 69.9967 93.595 70.454C92.9883 70.902 92.2323 71.126 91.327 71.126C90.5897 71.126 89.927 70.9627 89.339 70.636C88.7603 70.3 88.303 69.8333 87.967 69.236C87.6403 68.6293 87.477 67.9293 87.477 67.136C87.477 66.3427 87.6357 65.6473 87.953 65.05C88.2797 64.4433 88.7323 63.9767 89.311 63.65C89.899 63.3233 90.571 63.16 91.327 63.16C92.055 63.16 92.7037 63.3187 93.273 63.636C93.8423 63.9533 94.2857 64.4013 94.603 64.98C94.9203 65.5493 95.079 66.2073 95.079 66.954ZM93.413 66.45C93.4037 65.862 93.1937 65.3907 92.783 65.036C92.3723 64.6813 91.8637 64.504 91.257 64.504C90.7063 64.504 90.235 64.6813 89.843 65.036C89.451 65.3813 89.2177 65.8527 89.143 66.45H93.413ZM98.5116 64.588V68.858C98.5116 69.1473 98.5769 69.3573 98.7076 69.488C98.8476 69.6093 99.0809 69.67 99.4076 69.67H100.388V71H99.1276C98.4089 71 97.8583 70.832 97.4756 70.496C97.0929 70.16 96.9016 69.614 96.9016 68.858V64.588H95.9916V63.286H96.9016V61.368H98.5116V63.286H100.388V64.588H98.5116ZM103.455 64.42C103.725 64.0653 104.094 63.7667 104.561 63.524C105.027 63.2813 105.555 63.16 106.143 63.16C106.815 63.16 107.426 63.328 107.977 63.664C108.537 63.9907 108.975 64.4527 109.293 65.05C109.61 65.6473 109.769 66.3333 109.769 67.108C109.769 67.8827 109.61 68.578 109.293 69.194C108.975 69.8007 108.537 70.2767 107.977 70.622C107.426 70.958 106.815 71.126 106.143 71.126C105.555 71.126 105.032 71.0093 104.575 70.776C104.117 70.5333 103.744 70.2347 103.455 69.88V74.668H101.859V63.286H103.455V64.42ZM108.145 67.108C108.145 66.576 108.033 66.1187 107.809 65.736C107.594 65.344 107.305 65.05 106.941 64.854C106.586 64.6487 106.203 64.546 105.793 64.546C105.391 64.546 105.009 64.6487 104.645 64.854C104.29 65.0593 104.001 65.358 103.777 65.75C103.562 66.142 103.455 66.604 103.455 67.136C103.455 67.668 103.562 68.1347 103.777 68.536C104.001 68.928 104.29 69.2267 104.645 69.432C105.009 69.6373 105.391 69.74 105.793 69.74C106.203 69.74 106.586 69.6373 106.941 69.432C107.305 69.2173 107.594 68.9093 107.809 68.508C108.033 68.1067 108.145 67.64 108.145 67.108ZM112.943 60.64V71H111.347V60.64H112.943ZM114.506 67.108C114.506 66.3333 114.665 65.6473 114.982 65.05C115.309 64.4527 115.748 63.9907 116.298 63.664C116.858 63.328 117.474 63.16 118.146 63.16C118.753 63.16 119.28 63.2813 119.728 63.524C120.186 63.7573 120.55 64.0513 120.82 64.406V63.286H122.43V71H120.82V69.852C120.55 70.216 120.181 70.5193 119.714 70.762C119.248 71.0047 118.716 71.126 118.118 71.126C117.456 71.126 116.849 70.958 116.298 70.622C115.748 70.2767 115.309 69.8007 114.982 69.194C114.665 68.578 114.506 67.8827 114.506 67.108ZM120.82 67.136C120.82 66.604 120.708 66.142 120.484 65.75C120.27 65.358 119.985 65.0593 119.63 64.854C119.276 64.6487 118.893 64.546 118.482 64.546C118.072 64.546 117.689 64.6487 117.334 64.854C116.98 65.05 116.69 65.344 116.466 65.736C116.252 66.1187 116.144 66.576 116.144 67.108C116.144 67.64 116.252 68.1067 116.466 68.508C116.69 68.9093 116.98 69.2173 117.334 69.432C117.698 69.6373 118.081 69.74 118.482 69.74C118.893 69.74 119.276 69.6373 119.63 69.432C119.985 69.2267 120.27 68.928 120.484 68.536C120.708 68.1347 120.82 67.668 120.82 67.136ZM123.995 67.136C123.995 66.3427 124.153 65.6473 124.471 65.05C124.797 64.4433 125.245 63.9767 125.815 63.65C126.384 63.3233 127.037 63.16 127.775 63.16C128.708 63.16 129.478 63.384 130.085 63.832C130.701 64.2707 131.116 64.9007 131.331 65.722H129.609C129.469 65.3393 129.245 65.0407 128.937 64.826C128.629 64.6113 128.241 64.504 127.775 64.504C127.121 64.504 126.599 64.7373 126.207 65.204C125.824 65.6613 125.633 66.3053 125.633 67.136C125.633 67.9667 125.824 68.6153 126.207 69.082C126.599 69.5487 127.121 69.782 127.775 69.782C128.699 69.782 129.31 69.376 129.609 68.564H131.331C131.107 69.348 130.687 69.9733 130.071 70.44C129.455 70.8973 128.689 71.126 127.775 71.126C127.037 71.126 126.384 70.9627 125.815 70.636C125.245 70.3 124.797 69.8333 124.471 69.236C124.153 68.6293 123.995 67.9293 123.995 67.136ZM139.991 66.954C139.991 67.2433 139.972 67.5047 139.935 67.738H134.041C134.088 68.354 134.316 68.8487 134.727 69.222C135.138 69.5953 135.642 69.782 136.239 69.782C137.098 69.782 137.704 69.4227 138.059 68.704H139.781C139.548 69.4133 139.123 69.9967 138.507 70.454C137.9 70.902 137.144 71.126 136.239 71.126C135.502 71.126 134.839 70.9627 134.251 70.636C133.672 70.3 133.215 69.8333 132.879 69.236C132.552 68.6293 132.389 67.9293 132.389 67.136C132.389 66.3427 132.548 65.6473 132.865 65.05C133.192 64.4433 133.644 63.9767 134.223 63.65C134.811 63.3233 135.483 63.16 136.239 63.16C136.967 63.16 137.616 63.3187 138.185 63.636C138.754 63.9533 139.198 64.4013 139.515 64.98C139.832 65.5493 139.991 66.2073 139.991 66.954ZM138.325 66.45C138.316 65.862 138.106 65.3907 137.695 65.036C137.284 64.6813 136.776 64.504 136.169 64.504C135.618 64.504 135.147 64.6813 134.755 65.036C134.363 65.3813 134.13 65.8527 134.055 66.45H138.325Z" fill="white"/>
<path d="M212.286 69.2955C212.246 69.2699 212.081 69.1506 211.974 69.0568L211.916 69.0057C211.031 68.2898 209.699 66.5085 209.272 65.6051C209.262 65.6051 209.009 65.0682 209 64.8125L209 64.7784C209 64.3864 209.252 64.0199 209.66 63.8324C209.885 63.7301 210.536 63.6364 210.545 63.6278C211.129 63.5511 212.023 63.5 213.005 63.5C214.034 63.5 214.968 63.5511 215.542 63.6449C215.552 63.6449 216.077 63.7386 216.252 63.7983C216.503 63.892 216.718 64.0625 216.854 64.2756C216.95 64.446 217 64.625 217 64.8125C216.989 65.0085 216.844 65.375 216.776 65.5199C216.349 66.4744 214.949 68.2983 214.094 68.9972C213.957 69.1165 213.791 69.2443 213.753 69.2784C213.539 69.4233 213.277 69.5 212.995 69.5C212.742 69.5 212.489 69.4318 212.286 69.2955Z" fill="#00A2FD"/>
</svg>
