<svg width="311" height="802" viewBox="0 0 311 802" fill="none" xmlns="http://www.w3.org/2000/svg">
<rect width="311" height="802" fill="white"/>
<g clip-path="url(#clip0_0_1038)">
<rect x="16" y="405" width="279" height="379" rx="18" fill="#030A1D"/>
<g filter="url(#filter0_f_0_1038)">
<rect x="91" y="487" width="127" height="157" rx="32" fill="black" fill-opacity="0.01"/>
</g>
<g clip-path="url(#clip1_0_1038)">
<path d="M47.1406 676.287H48.2656C48.207 676.826 48.0527 677.309 47.8027 677.734C47.5527 678.16 47.1992 678.498 46.7422 678.748C46.2852 678.994 45.7148 679.117 45.0312 679.117C44.5312 679.117 44.0762 679.023 43.666 678.836C43.2598 678.648 42.9102 678.383 42.6172 678.039C42.3242 677.691 42.0977 677.275 41.9375 676.791C41.7812 676.303 41.7031 675.76 41.7031 675.162V674.312C41.7031 673.715 41.7812 673.174 41.9375 672.689C42.0977 672.201 42.3262 671.783 42.623 671.436C42.9238 671.088 43.2852 670.82 43.707 670.633C44.1289 670.445 44.6035 670.352 45.1309 670.352C45.7754 670.352 46.3203 670.473 46.7656 670.715C47.2109 670.957 47.5566 671.293 47.8027 671.723C48.0527 672.148 48.207 672.643 48.2656 673.205H47.1406C47.0859 672.807 46.9844 672.465 46.8359 672.18C46.6875 671.891 46.4766 671.668 46.2031 671.512C45.9297 671.355 45.5723 671.277 45.1309 671.277C44.752 671.277 44.418 671.35 44.1289 671.494C43.8438 671.639 43.6035 671.844 43.4082 672.109C43.2168 672.375 43.0723 672.693 42.9746 673.064C42.877 673.436 42.8281 673.848 42.8281 674.301V675.162C42.8281 675.58 42.8711 675.973 42.957 676.34C43.0469 676.707 43.1816 677.029 43.3613 677.307C43.541 677.584 43.7695 677.803 44.0469 677.963C44.3242 678.119 44.6523 678.197 45.0312 678.197C45.5117 678.197 45.8945 678.121 46.1797 677.969C46.4648 677.816 46.6797 677.598 46.8242 677.312C46.9727 677.027 47.0781 676.686 47.1406 676.287ZM50.7266 673.656V679H49.6426V672.66H50.6973L50.7266 673.656ZM52.707 672.625L52.7012 673.633C52.6113 673.613 52.5254 673.602 52.4434 673.598C52.3652 673.59 52.2754 673.586 52.1738 673.586C51.9238 673.586 51.7031 673.625 51.5117 673.703C51.3203 673.781 51.1582 673.891 51.0254 674.031C50.8926 674.172 50.7871 674.34 50.709 674.535C50.6348 674.727 50.5859 674.938 50.5625 675.168L50.2578 675.344C50.2578 674.961 50.2949 674.602 50.3691 674.266C50.4473 673.93 50.5664 673.633 50.7266 673.375C50.8867 673.113 51.0898 672.91 51.3359 672.766C51.5859 672.617 51.8828 672.543 52.2266 672.543C52.3047 672.543 52.3945 672.553 52.4961 672.572C52.5977 672.588 52.668 672.605 52.707 672.625ZM55.5957 678.344L57.3594 672.66H58.5195L55.9766 679.979C55.918 680.135 55.8398 680.303 55.7422 680.482C55.6484 680.666 55.5273 680.84 55.3789 681.004C55.2305 681.168 55.0508 681.301 54.8398 681.402C54.6328 681.508 54.3848 681.561 54.0957 681.561C54.0098 681.561 53.9004 681.549 53.7676 681.525C53.6348 681.502 53.541 681.482 53.4863 681.467L53.4805 680.588C53.5117 680.592 53.5605 680.596 53.627 680.6C53.6973 680.607 53.7461 680.611 53.7734 680.611C54.0195 680.611 54.2285 680.578 54.4004 680.512C54.5723 680.449 54.7168 680.342 54.834 680.189C54.9551 680.041 55.0586 679.836 55.1445 679.574L55.5957 678.344ZM54.3008 672.66L55.9473 677.582L56.2285 678.725L55.4492 679.123L53.1172 672.66H54.3008ZM60.582 673.879V681.438H59.4922V672.66H60.4883L60.582 673.879ZM64.8535 675.777V675.9C64.8535 676.361 64.7988 676.789 64.6895 677.184C64.5801 677.574 64.4199 677.914 64.209 678.203C64.002 678.492 63.7461 678.717 63.4414 678.877C63.1367 679.037 62.7871 679.117 62.3926 679.117C61.9902 679.117 61.6348 679.051 61.3262 678.918C61.0176 678.785 60.7559 678.592 60.541 678.338C60.3262 678.084 60.1543 677.779 60.0254 677.424C59.9004 677.068 59.8145 676.668 59.7676 676.223V675.566C59.8145 675.098 59.9023 674.678 60.0312 674.307C60.1602 673.936 60.3301 673.619 60.541 673.357C60.7559 673.092 61.0156 672.891 61.3203 672.754C61.625 672.613 61.9766 672.543 62.375 672.543C62.7734 672.543 63.127 672.621 63.4355 672.777C63.7441 672.93 64.0039 673.148 64.2148 673.434C64.4258 673.719 64.584 674.061 64.6895 674.459C64.7988 674.854 64.8535 675.293 64.8535 675.777ZM63.7637 675.9V675.777C63.7637 675.461 63.7305 675.164 63.6641 674.887C63.5977 674.605 63.4941 674.359 63.3535 674.148C63.2168 673.934 63.041 673.766 62.8262 673.645C62.6113 673.52 62.3555 673.457 62.0586 673.457C61.7852 673.457 61.5469 673.504 61.3438 673.598C61.1445 673.691 60.9746 673.818 60.834 673.979C60.6934 674.135 60.5781 674.314 60.4883 674.518C60.4023 674.717 60.3379 674.924 60.2949 675.139V676.656C60.373 676.93 60.4824 677.188 60.623 677.43C60.7637 677.668 60.9512 677.861 61.1855 678.01C61.4199 678.154 61.7148 678.227 62.0703 678.227C62.3633 678.227 62.6152 678.166 62.8262 678.045C63.041 677.92 63.2168 677.75 63.3535 677.535C63.4941 677.32 63.5977 677.074 63.6641 676.797C63.7305 676.516 63.7637 676.217 63.7637 675.9ZM68.8906 672.66V673.492H65.4629V672.66H68.8906ZM66.623 671.119H67.707V677.43C67.707 677.645 67.7402 677.807 67.8066 677.916C67.873 678.025 67.959 678.098 68.0645 678.133C68.1699 678.168 68.2832 678.186 68.4043 678.186C68.4941 678.186 68.5879 678.178 68.6855 678.162C68.7871 678.143 68.8633 678.127 68.9141 678.115L68.9199 679C68.834 679.027 68.7207 679.053 68.5801 679.076C68.4434 679.104 68.2773 679.117 68.082 679.117C67.8164 679.117 67.5723 679.064 67.3496 678.959C67.127 678.854 66.9492 678.678 66.8164 678.432C66.6875 678.182 66.623 677.846 66.623 677.424V671.119ZM69.7578 675.9V675.766C69.7578 675.309 69.8242 674.885 69.957 674.494C70.0898 674.1 70.2812 673.758 70.5312 673.469C70.7812 673.176 71.084 672.949 71.4395 672.789C71.7949 672.625 72.1934 672.543 72.6348 672.543C73.0801 672.543 73.4805 672.625 73.8359 672.789C74.1953 672.949 74.5 673.176 74.75 673.469C75.0039 673.758 75.1973 674.1 75.3301 674.494C75.4629 674.885 75.5293 675.309 75.5293 675.766V675.9C75.5293 676.357 75.4629 676.781 75.3301 677.172C75.1973 677.562 75.0039 677.904 74.75 678.197C74.5 678.486 74.1973 678.713 73.8418 678.877C73.4902 679.037 73.0918 679.117 72.6465 679.117C72.2012 679.117 71.8008 679.037 71.4453 678.877C71.0898 678.713 70.7852 678.486 70.5312 678.197C70.2812 677.904 70.0898 677.562 69.957 677.172C69.8242 676.781 69.7578 676.357 69.7578 675.9ZM70.8418 675.766V675.9C70.8418 676.217 70.8789 676.516 70.9531 676.797C71.0273 677.074 71.1387 677.32 71.2871 677.535C71.4395 677.75 71.6289 677.92 71.8555 678.045C72.082 678.166 72.3457 678.227 72.6465 678.227C72.9434 678.227 73.2031 678.166 73.4258 678.045C73.6523 677.92 73.8398 677.75 73.9883 677.535C74.1367 677.32 74.248 677.074 74.3223 676.797C74.4004 676.516 74.4395 676.217 74.4395 675.9V675.766C74.4395 675.453 74.4004 675.158 74.3223 674.881C74.248 674.6 74.1348 674.352 73.9824 674.137C73.834 673.918 73.6465 673.746 73.4199 673.621C73.1973 673.496 72.9355 673.434 72.6348 673.434C72.3379 673.434 72.0762 673.496 71.8496 673.621C71.627 673.746 71.4395 673.918 71.2871 674.137C71.1387 674.352 71.0273 674.6 70.9531 674.881C70.8789 675.158 70.8418 675.453 70.8418 675.766ZM85.6016 674.137V675.057H80.9844V674.137H85.6016ZM81.1602 670.469V679H80.0293V670.469H81.1602ZM86.5859 670.469V679H85.4609V670.469H86.5859ZM91.0625 679.117C90.6211 679.117 90.2207 679.043 89.8613 678.895C89.5059 678.742 89.1992 678.529 88.9414 678.256C88.6875 677.982 88.4922 677.658 88.3555 677.283C88.2188 676.908 88.1504 676.498 88.1504 676.053V675.807C88.1504 675.291 88.2266 674.832 88.3789 674.43C88.5312 674.023 88.7383 673.68 89 673.398C89.2617 673.117 89.5586 672.904 89.8906 672.76C90.2227 672.615 90.5664 672.543 90.9219 672.543C91.375 672.543 91.7656 672.621 92.0938 672.777C92.4258 672.934 92.6973 673.152 92.9082 673.434C93.1191 673.711 93.2754 674.039 93.377 674.418C93.4785 674.793 93.5293 675.203 93.5293 675.648V676.135H88.7949V675.25H92.4453V675.168C92.4297 674.887 92.3711 674.613 92.2695 674.348C92.1719 674.082 92.0156 673.863 91.8008 673.691C91.5859 673.52 91.293 673.434 90.9219 673.434C90.6758 673.434 90.4492 673.486 90.2422 673.592C90.0352 673.693 89.8574 673.846 89.709 674.049C89.5605 674.252 89.4453 674.5 89.3633 674.793C89.2812 675.086 89.2402 675.424 89.2402 675.807V676.053C89.2402 676.354 89.2812 676.637 89.3633 676.902C89.4492 677.164 89.5723 677.395 89.7324 677.594C89.8965 677.793 90.0938 677.949 90.3242 678.062C90.5586 678.176 90.8242 678.232 91.1211 678.232C91.5039 678.232 91.8281 678.154 92.0938 677.998C92.3594 677.842 92.5918 677.633 92.791 677.371L93.4473 677.893C93.3105 678.1 93.1367 678.297 92.9258 678.484C92.7148 678.672 92.4551 678.824 92.1465 678.941C91.8418 679.059 91.4805 679.117 91.0625 679.117ZM95.8789 673.656V679H94.7949V672.66H95.8496L95.8789 673.656ZM97.8594 672.625L97.8535 673.633C97.7637 673.613 97.6777 673.602 97.5957 673.598C97.5176 673.59 97.4277 673.586 97.3262 673.586C97.0762 673.586 96.8555 673.625 96.6641 673.703C96.4727 673.781 96.3105 673.891 96.1777 674.031C96.0449 674.172 95.9395 674.34 95.8613 674.535C95.7871 674.727 95.7383 674.938 95.7148 675.168L95.4102 675.344C95.4102 674.961 95.4473 674.602 95.5215 674.266C95.5996 673.93 95.7188 673.633 95.8789 673.375C96.0391 673.113 96.2422 672.91 96.4883 672.766C96.7383 672.617 97.0352 672.543 97.3789 672.543C97.457 672.543 97.5469 672.553 97.6484 672.572C97.75 672.588 97.8203 672.605 97.8594 672.625ZM98.457 675.9V675.766C98.457 675.309 98.5234 674.885 98.6562 674.494C98.7891 674.1 98.9805 673.758 99.2305 673.469C99.4805 673.176 99.7832 672.949 100.139 672.789C100.494 672.625 100.893 672.543 101.334 672.543C101.779 672.543 102.18 672.625 102.535 672.789C102.895 672.949 103.199 673.176 103.449 673.469C103.703 673.758 103.896 674.1 104.029 674.494C104.162 674.885 104.229 675.309 104.229 675.766V675.9C104.229 676.357 104.162 676.781 104.029 677.172C103.896 677.562 103.703 677.904 103.449 678.197C103.199 678.486 102.896 678.713 102.541 678.877C102.189 679.037 101.791 679.117 101.346 679.117C100.9 679.117 100.5 679.037 100.145 678.877C99.7891 678.713 99.4844 678.486 99.2305 678.197C98.9805 677.904 98.7891 677.562 98.6562 677.172C98.5234 676.781 98.457 676.357 98.457 675.9ZM99.541 675.766V675.9C99.541 676.217 99.5781 676.516 99.6523 676.797C99.7266 677.074 99.8379 677.32 99.9863 677.535C100.139 677.75 100.328 677.92 100.555 678.045C100.781 678.166 101.045 678.227 101.346 678.227C101.643 678.227 101.902 678.166 102.125 678.045C102.352 677.92 102.539 677.75 102.688 677.535C102.836 677.32 102.947 677.074 103.021 676.797C103.1 676.516 103.139 676.217 103.139 675.9V675.766C103.139 675.453 103.1 675.158 103.021 674.881C102.947 674.6 102.834 674.352 102.682 674.137C102.533 673.918 102.346 673.746 102.119 673.621C101.896 673.496 101.635 673.434 101.334 673.434C101.037 673.434 100.775 673.496 100.549 673.621C100.326 673.746 100.139 673.918 99.9863 674.137C99.8379 674.352 99.7266 674.6 99.6523 674.881C99.5781 675.158 99.541 675.453 99.541 675.766ZM109.086 670.469H110.182L112.977 677.424L115.766 670.469H116.867L113.398 679H112.543L109.086 670.469ZM108.729 670.469H109.695L109.854 675.672V679H108.729V670.469ZM116.252 670.469H117.219V679H116.094V675.672L116.252 670.469ZM122.779 677.916V674.652C122.779 674.402 122.729 674.186 122.627 674.002C122.529 673.814 122.381 673.67 122.182 673.568C121.982 673.467 121.736 673.416 121.443 673.416C121.17 673.416 120.93 673.463 120.723 673.557C120.52 673.65 120.359 673.773 120.242 673.926C120.129 674.078 120.072 674.242 120.072 674.418H118.988C118.988 674.191 119.047 673.967 119.164 673.744C119.281 673.521 119.449 673.32 119.668 673.141C119.891 672.957 120.156 672.812 120.465 672.707C120.777 672.598 121.125 672.543 121.508 672.543C121.969 672.543 122.375 672.621 122.727 672.777C123.082 672.934 123.359 673.17 123.559 673.486C123.762 673.799 123.863 674.191 123.863 674.664V677.617C123.863 677.828 123.881 678.053 123.916 678.291C123.955 678.529 124.012 678.734 124.086 678.906V679H122.955C122.9 678.875 122.857 678.709 122.826 678.502C122.795 678.291 122.779 678.096 122.779 677.916ZM122.967 675.156L122.979 675.918H121.883C121.574 675.918 121.299 675.943 121.057 675.994C120.814 676.041 120.611 676.113 120.447 676.211C120.283 676.309 120.158 676.432 120.072 676.58C119.986 676.725 119.943 676.895 119.943 677.09C119.943 677.289 119.988 677.471 120.078 677.635C120.168 677.799 120.303 677.93 120.482 678.027C120.666 678.121 120.891 678.168 121.156 678.168C121.488 678.168 121.781 678.098 122.035 677.957C122.289 677.816 122.49 677.645 122.639 677.441C122.791 677.238 122.873 677.041 122.885 676.85L123.348 677.371C123.32 677.535 123.246 677.717 123.125 677.916C123.004 678.115 122.842 678.307 122.639 678.49C122.439 678.67 122.201 678.82 121.924 678.941C121.65 679.059 121.342 679.117 120.998 679.117C120.568 679.117 120.191 679.033 119.867 678.865C119.547 678.697 119.297 678.473 119.117 678.191C118.941 677.906 118.854 677.588 118.854 677.236C118.854 676.896 118.92 676.598 119.053 676.34C119.186 676.078 119.377 675.861 119.627 675.689C119.877 675.514 120.178 675.381 120.529 675.291C120.881 675.201 121.273 675.156 121.707 675.156H122.967ZM126.652 673.656V679H125.568V672.66H126.623L126.652 673.656ZM128.633 672.625L128.627 673.633C128.537 673.613 128.451 673.602 128.369 673.598C128.291 673.59 128.201 673.586 128.1 673.586C127.85 673.586 127.629 673.625 127.438 673.703C127.246 673.781 127.084 673.891 126.951 674.031C126.818 674.172 126.713 674.34 126.635 674.535C126.561 674.727 126.512 674.938 126.488 675.168L126.184 675.344C126.184 674.961 126.221 674.602 126.295 674.266C126.373 673.93 126.492 673.633 126.652 673.375C126.812 673.113 127.016 672.91 127.262 672.766C127.512 672.617 127.809 672.543 128.152 672.543C128.23 672.543 128.32 672.553 128.422 672.572C128.523 672.588 128.594 672.605 128.633 672.625ZM132.055 678.227C132.312 678.227 132.551 678.174 132.77 678.068C132.988 677.963 133.168 677.818 133.309 677.635C133.449 677.447 133.529 677.234 133.549 676.996H134.58C134.561 677.371 134.434 677.721 134.199 678.045C133.969 678.365 133.666 678.625 133.291 678.824C132.916 679.02 132.504 679.117 132.055 679.117C131.578 679.117 131.162 679.033 130.807 678.865C130.455 678.697 130.162 678.467 129.928 678.174C129.697 677.881 129.523 677.545 129.406 677.166C129.293 676.783 129.236 676.379 129.236 675.953V675.707C129.236 675.281 129.293 674.879 129.406 674.5C129.523 674.117 129.697 673.779 129.928 673.486C130.162 673.193 130.455 672.963 130.807 672.795C131.162 672.627 131.578 672.543 132.055 672.543C132.551 672.543 132.984 672.645 133.355 672.848C133.727 673.047 134.018 673.32 134.229 673.668C134.443 674.012 134.561 674.402 134.58 674.84H133.549C133.529 674.578 133.455 674.342 133.326 674.131C133.201 673.92 133.029 673.752 132.811 673.627C132.596 673.498 132.344 673.434 132.055 673.434C131.723 673.434 131.443 673.5 131.217 673.633C130.994 673.762 130.816 673.938 130.684 674.16C130.555 674.379 130.461 674.623 130.402 674.893C130.348 675.158 130.32 675.43 130.32 675.707V675.953C130.32 676.23 130.348 676.504 130.402 676.773C130.457 677.043 130.549 677.287 130.678 677.506C130.811 677.725 130.988 677.9 131.211 678.033C131.438 678.162 131.719 678.227 132.055 678.227ZM138.43 679.117C137.988 679.117 137.588 679.043 137.229 678.895C136.873 678.742 136.566 678.529 136.309 678.256C136.055 677.982 135.859 677.658 135.723 677.283C135.586 676.908 135.518 676.498 135.518 676.053V675.807C135.518 675.291 135.594 674.832 135.746 674.43C135.898 674.023 136.105 673.68 136.367 673.398C136.629 673.117 136.926 672.904 137.258 672.76C137.59 672.615 137.934 672.543 138.289 672.543C138.742 672.543 139.133 672.621 139.461 672.777C139.793 672.934 140.064 673.152 140.275 673.434C140.486 673.711 140.643 674.039 140.744 674.418C140.846 674.793 140.896 675.203 140.896 675.648V676.135H136.162V675.25H139.812V675.168C139.797 674.887 139.738 674.613 139.637 674.348C139.539 674.082 139.383 673.863 139.168 673.691C138.953 673.52 138.66 673.434 138.289 673.434C138.043 673.434 137.816 673.486 137.609 673.592C137.402 673.693 137.225 673.846 137.076 674.049C136.928 674.252 136.812 674.5 136.73 674.793C136.648 675.086 136.607 675.424 136.607 675.807V676.053C136.607 676.354 136.648 676.637 136.73 676.902C136.816 677.164 136.939 677.395 137.1 677.594C137.264 677.793 137.461 677.949 137.691 678.062C137.926 678.176 138.191 678.232 138.488 678.232C138.871 678.232 139.195 678.154 139.461 677.998C139.727 677.842 139.959 677.633 140.158 677.371L140.814 677.893C140.678 678.1 140.504 678.297 140.293 678.484C140.082 678.672 139.822 678.824 139.514 678.941C139.209 679.059 138.848 679.117 138.43 679.117Z" fill="#00A2FD"/>
<path d="M48.875 700.297H50.8281C50.7656 701.042 50.5573 701.706 50.2031 702.289C49.849 702.867 49.3516 703.323 48.7109 703.656C48.0703 703.99 47.2917 704.156 46.375 704.156C45.6719 704.156 45.0391 704.031 44.4766 703.781C43.9141 703.526 43.4323 703.167 43.0312 702.703C42.6302 702.234 42.3229 701.669 42.1094 701.008C41.901 700.346 41.7969 699.607 41.7969 698.789V697.844C41.7969 697.026 41.9036 696.286 42.1172 695.625C42.3359 694.964 42.6484 694.398 43.0547 693.93C43.4609 693.456 43.9479 693.094 44.5156 692.844C45.0885 692.594 45.7318 692.469 46.4453 692.469C47.3516 692.469 48.1172 692.635 48.7422 692.969C49.3672 693.302 49.8516 693.763 50.1953 694.352C50.5443 694.94 50.7578 695.615 50.8359 696.375H48.8828C48.8307 695.885 48.7161 695.466 48.5391 695.117C48.3672 694.768 48.112 694.503 47.7734 694.32C47.4349 694.133 46.9922 694.039 46.4453 694.039C45.9974 694.039 45.6068 694.122 45.2734 694.289C44.9401 694.456 44.6615 694.701 44.4375 695.023C44.2135 695.346 44.0443 695.745 43.9297 696.219C43.8203 696.688 43.7656 697.224 43.7656 697.828V698.789C43.7656 699.362 43.8151 699.883 43.9141 700.352C44.0182 700.815 44.1745 701.214 44.3828 701.547C44.5964 701.88 44.8672 702.138 45.1953 702.32C45.5234 702.503 45.9167 702.594 46.375 702.594C46.9323 702.594 47.3828 702.505 47.7266 702.328C48.0755 702.151 48.3385 701.893 48.5156 701.555C48.6979 701.211 48.8177 700.792 48.875 700.297ZM54.3125 697.156V704H52.4297V695.547H54.2266L54.3125 697.156ZM56.8984 695.492L56.8828 697.242C56.7682 697.221 56.6432 697.206 56.5078 697.195C56.3776 697.185 56.2474 697.18 56.1172 697.18C55.7943 697.18 55.5104 697.227 55.2656 697.32C55.0208 697.409 54.8151 697.539 54.6484 697.711C54.487 697.878 54.362 698.081 54.2734 698.32C54.1849 698.56 54.1328 698.828 54.1172 699.125L53.6875 699.156C53.6875 698.625 53.7396 698.133 53.8438 697.68C53.9479 697.227 54.1042 696.828 54.3125 696.484C54.526 696.141 54.7917 695.872 55.1094 695.68C55.4323 695.487 55.8047 695.391 56.2266 695.391C56.3411 695.391 56.4635 695.401 56.5938 695.422C56.7292 695.443 56.8307 695.466 56.8984 695.492ZM60.6719 703.078L62.9688 695.547H64.9844L61.5938 705.289C61.5156 705.497 61.4141 705.724 61.2891 705.969C61.1641 706.214 61 706.445 60.7969 706.664C60.599 706.888 60.3516 707.068 60.0547 707.203C59.7578 707.344 59.3984 707.414 58.9766 707.414C58.8099 707.414 58.6484 707.398 58.4922 707.367C58.3411 707.341 58.1979 707.312 58.0625 707.281L58.0547 705.844C58.1068 705.849 58.1693 705.854 58.2422 705.859C58.3203 705.865 58.3828 705.867 58.4297 705.867C58.7422 705.867 59.0026 705.828 59.2109 705.75C59.4193 705.677 59.5885 705.557 59.7188 705.391C59.8542 705.224 59.9688 705 60.0625 704.719L60.6719 703.078ZM59.375 695.547L61.3828 701.875L61.7188 703.859L60.4141 704.195L57.3438 695.547H59.375ZM67.9531 697.172V707.25H66.0703V695.547H67.8047L67.9531 697.172ZM73.4609 699.695V699.859C73.4609 700.474 73.388 701.044 73.2422 701.57C73.1016 702.091 72.8906 702.547 72.6094 702.938C72.3333 703.323 71.9922 703.622 71.5859 703.836C71.1797 704.049 70.7109 704.156 70.1797 704.156C69.6536 704.156 69.1927 704.06 68.7969 703.867C68.4062 703.669 68.0755 703.391 67.8047 703.031C67.5339 702.672 67.3151 702.25 67.1484 701.766C66.987 701.276 66.8724 700.74 66.8047 700.156V699.523C66.8724 698.904 66.987 698.341 67.1484 697.836C67.3151 697.331 67.5339 696.896 67.8047 696.531C68.0755 696.167 68.4062 695.885 68.7969 695.688C69.1875 695.49 69.6432 695.391 70.1641 695.391C70.6953 695.391 71.1667 695.495 71.5781 695.703C71.9896 695.906 72.3359 696.198 72.6172 696.578C72.8984 696.953 73.1094 697.406 73.25 697.938C73.3906 698.464 73.4609 699.049 73.4609 699.695ZM71.5781 699.859V699.695C71.5781 699.305 71.5417 698.943 71.4688 698.609C71.3958 698.271 71.2812 697.974 71.125 697.719C70.9688 697.464 70.7682 697.266 70.5234 697.125C70.2839 696.979 69.9948 696.906 69.6562 696.906C69.3229 696.906 69.0365 696.964 68.7969 697.078C68.5573 697.188 68.3568 697.341 68.1953 697.539C68.0339 697.737 67.9089 697.969 67.8203 698.234C67.7318 698.495 67.6693 698.779 67.6328 699.086V700.602C67.6953 700.977 67.8021 701.32 67.9531 701.633C68.1042 701.945 68.3177 702.195 68.5938 702.383C68.875 702.565 69.2344 702.656 69.6719 702.656C70.0104 702.656 70.2995 702.583 70.5391 702.438C70.7786 702.292 70.974 702.091 71.125 701.836C71.2812 701.576 71.3958 701.276 71.4688 700.938C71.5417 700.599 71.5781 700.24 71.5781 699.859ZM78.9375 695.547V696.922H74.1719V695.547H78.9375ZM75.5469 693.477H77.4297V701.664C77.4297 701.924 77.4661 702.125 77.5391 702.266C77.6172 702.401 77.724 702.492 77.8594 702.539C77.9948 702.586 78.1536 702.609 78.3359 702.609C78.4661 702.609 78.5911 702.602 78.7109 702.586C78.8307 702.57 78.9271 702.555 79 702.539L79.0078 703.977C78.8516 704.023 78.6693 704.065 78.4609 704.102C78.2578 704.138 78.0234 704.156 77.7578 704.156C77.3255 704.156 76.9427 704.081 76.6094 703.93C76.276 703.773 76.0156 703.521 75.8281 703.172C75.6406 702.823 75.5469 702.359 75.5469 701.781V693.477ZM79.8438 699.867V699.688C79.8438 699.078 79.9323 698.513 80.1094 697.992C80.2865 697.466 80.5417 697.01 80.875 696.625C81.2135 696.234 81.625 695.932 82.1094 695.719C82.599 695.5 83.151 695.391 83.7656 695.391C84.3854 695.391 84.9375 695.5 85.4219 695.719C85.9115 695.932 86.3255 696.234 86.6641 696.625C87.0026 697.01 87.2604 697.466 87.4375 697.992C87.6146 698.513 87.7031 699.078 87.7031 699.688V699.867C87.7031 700.477 87.6146 701.042 87.4375 701.562C87.2604 702.083 87.0026 702.539 86.6641 702.93C86.3255 703.315 85.9141 703.617 85.4297 703.836C84.9453 704.049 84.3958 704.156 83.7812 704.156C83.1615 704.156 82.6068 704.049 82.1172 703.836C81.6328 703.617 81.2214 703.315 80.8828 702.93C80.5443 702.539 80.2865 702.083 80.1094 701.562C79.9323 701.042 79.8438 700.477 79.8438 699.867ZM81.7266 699.688V699.867C81.7266 700.247 81.7656 700.607 81.8438 700.945C81.9219 701.284 82.0443 701.581 82.2109 701.836C82.3776 702.091 82.5911 702.292 82.8516 702.438C83.112 702.583 83.4219 702.656 83.7812 702.656C84.1302 702.656 84.4323 702.583 84.6875 702.438C84.9479 702.292 85.1615 702.091 85.3281 701.836C85.4948 701.581 85.6172 701.284 85.6953 700.945C85.7786 700.607 85.8203 700.247 85.8203 699.867V699.688C85.8203 699.312 85.7786 698.958 85.6953 698.625C85.6172 698.286 85.4922 697.987 85.3203 697.727C85.1536 697.466 84.9401 697.263 84.6797 697.117C84.4245 696.966 84.1198 696.891 83.7656 696.891C83.4115 696.891 83.1042 696.966 82.8438 697.117C82.5885 697.263 82.3776 697.466 82.2109 697.727C82.0443 697.987 81.9219 698.286 81.8438 698.625C81.7656 698.958 81.7266 699.312 81.7266 699.688ZM100.969 697.375V698.93H94.9297V697.375H100.969ZM95.4141 692.625V704H93.4531V692.625H95.4141ZM102.477 692.625V704H100.523V692.625H102.477ZM108.352 704.156C107.727 704.156 107.161 704.055 106.656 703.852C106.156 703.643 105.729 703.354 105.375 702.984C105.026 702.615 104.758 702.18 104.57 701.68C104.383 701.18 104.289 700.641 104.289 700.062V699.75C104.289 699.089 104.385 698.49 104.578 697.953C104.771 697.417 105.039 696.958 105.383 696.578C105.727 696.193 106.133 695.898 106.602 695.695C107.07 695.492 107.578 695.391 108.125 695.391C108.729 695.391 109.258 695.492 109.711 695.695C110.164 695.898 110.539 696.185 110.836 696.555C111.138 696.919 111.362 697.354 111.508 697.859C111.659 698.365 111.734 698.922 111.734 699.531V700.336H105.203V698.984H109.875V698.836C109.865 698.497 109.797 698.18 109.672 697.883C109.552 697.586 109.367 697.346 109.117 697.164C108.867 696.982 108.534 696.891 108.117 696.891C107.805 696.891 107.526 696.958 107.281 697.094C107.042 697.224 106.841 697.414 106.68 697.664C106.518 697.914 106.393 698.216 106.305 698.57C106.221 698.919 106.18 699.312 106.18 699.75V700.062C106.18 700.432 106.229 700.776 106.328 701.094C106.432 701.406 106.583 701.68 106.781 701.914C106.979 702.148 107.219 702.333 107.5 702.469C107.781 702.599 108.102 702.664 108.461 702.664C108.914 702.664 109.318 702.573 109.672 702.391C110.026 702.208 110.333 701.951 110.594 701.617L111.586 702.578C111.404 702.844 111.167 703.099 110.875 703.344C110.583 703.583 110.227 703.779 109.805 703.93C109.388 704.081 108.904 704.156 108.352 704.156ZM115.094 697.156V704H113.211V695.547H115.008L115.094 697.156ZM117.68 695.492L117.664 697.242C117.549 697.221 117.424 697.206 117.289 697.195C117.159 697.185 117.029 697.18 116.898 697.18C116.576 697.18 116.292 697.227 116.047 697.32C115.802 697.409 115.596 697.539 115.43 697.711C115.268 697.878 115.143 698.081 115.055 698.32C114.966 698.56 114.914 698.828 114.898 699.125L114.469 699.156C114.469 698.625 114.521 698.133 114.625 697.68C114.729 697.227 114.885 696.828 115.094 696.484C115.307 696.141 115.573 695.872 115.891 695.68C116.214 695.487 116.586 695.391 117.008 695.391C117.122 695.391 117.245 695.401 117.375 695.422C117.51 695.443 117.612 695.466 117.68 695.492ZM118.297 699.867V699.688C118.297 699.078 118.385 698.513 118.562 697.992C118.74 697.466 118.995 697.01 119.328 696.625C119.667 696.234 120.078 695.932 120.562 695.719C121.052 695.5 121.604 695.391 122.219 695.391C122.839 695.391 123.391 695.5 123.875 695.719C124.365 695.932 124.779 696.234 125.117 696.625C125.456 697.01 125.714 697.466 125.891 697.992C126.068 698.513 126.156 699.078 126.156 699.688V699.867C126.156 700.477 126.068 701.042 125.891 701.562C125.714 702.083 125.456 702.539 125.117 702.93C124.779 703.315 124.367 703.617 123.883 703.836C123.398 704.049 122.849 704.156 122.234 704.156C121.615 704.156 121.06 704.049 120.57 703.836C120.086 703.617 119.674 703.315 119.336 702.93C118.997 702.539 118.74 702.083 118.562 701.562C118.385 701.042 118.297 700.477 118.297 699.867ZM120.18 699.688V699.867C120.18 700.247 120.219 700.607 120.297 700.945C120.375 701.284 120.497 701.581 120.664 701.836C120.831 702.091 121.044 702.292 121.305 702.438C121.565 702.583 121.875 702.656 122.234 702.656C122.583 702.656 122.885 702.583 123.141 702.438C123.401 702.292 123.615 702.091 123.781 701.836C123.948 701.581 124.07 701.284 124.148 700.945C124.232 700.607 124.273 700.247 124.273 699.867V699.688C124.273 699.312 124.232 698.958 124.148 698.625C124.07 698.286 123.945 697.987 123.773 697.727C123.607 697.466 123.393 697.263 123.133 697.117C122.878 696.966 122.573 696.891 122.219 696.891C121.865 696.891 121.557 696.966 121.297 697.117C121.042 697.263 120.831 697.466 120.664 697.727C120.497 697.987 120.375 698.286 120.297 698.625C120.219 698.958 120.18 699.312 120.18 699.688ZM132.703 692.625H134.453L137.742 701.398L141.023 692.625H142.773L138.43 704H137.039L132.703 692.625ZM131.906 692.625H133.57L133.859 700.219V704H131.906V692.625ZM141.906 692.625H143.578V704H141.617V700.219L141.906 692.625ZM150.484 702.305V698.273C150.484 697.971 150.43 697.711 150.32 697.492C150.211 697.273 150.044 697.104 149.82 696.984C149.602 696.865 149.326 696.805 148.992 696.805C148.685 696.805 148.419 696.857 148.195 696.961C147.971 697.065 147.797 697.206 147.672 697.383C147.547 697.56 147.484 697.76 147.484 697.984H145.609C145.609 697.651 145.69 697.328 145.852 697.016C146.013 696.703 146.247 696.424 146.555 696.18C146.862 695.935 147.229 695.742 147.656 695.602C148.083 695.461 148.562 695.391 149.094 695.391C149.729 695.391 150.292 695.497 150.781 695.711C151.276 695.924 151.664 696.247 151.945 696.68C152.232 697.107 152.375 697.643 152.375 698.289V702.047C152.375 702.432 152.401 702.779 152.453 703.086C152.51 703.388 152.591 703.651 152.695 703.875V704H150.766C150.677 703.797 150.607 703.539 150.555 703.227C150.508 702.909 150.484 702.602 150.484 702.305ZM150.758 698.859L150.773 700.023H149.422C149.073 700.023 148.766 700.057 148.5 700.125C148.234 700.188 148.013 700.281 147.836 700.406C147.659 700.531 147.526 700.682 147.438 700.859C147.349 701.036 147.305 701.237 147.305 701.461C147.305 701.685 147.357 701.891 147.461 702.078C147.565 702.26 147.716 702.404 147.914 702.508C148.117 702.612 148.362 702.664 148.648 702.664C149.034 702.664 149.37 702.586 149.656 702.43C149.948 702.268 150.177 702.073 150.344 701.844C150.51 701.609 150.599 701.388 150.609 701.18L151.219 702.016C151.156 702.229 151.049 702.458 150.898 702.703C150.747 702.948 150.549 703.182 150.305 703.406C150.065 703.625 149.776 703.805 149.438 703.945C149.104 704.086 148.719 704.156 148.281 704.156C147.729 704.156 147.237 704.047 146.805 703.828C146.372 703.604 146.034 703.305 145.789 702.93C145.544 702.549 145.422 702.12 145.422 701.641C145.422 701.193 145.505 700.797 145.672 700.453C145.844 700.104 146.094 699.812 146.422 699.578C146.755 699.344 147.161 699.167 147.641 699.047C148.12 698.922 148.667 698.859 149.281 698.859H150.758ZM156.234 697.156V704H154.352V695.547H156.148L156.234 697.156ZM158.82 695.492L158.805 697.242C158.69 697.221 158.565 697.206 158.43 697.195C158.299 697.185 158.169 697.18 158.039 697.18C157.716 697.18 157.432 697.227 157.188 697.32C156.943 697.409 156.737 697.539 156.57 697.711C156.409 697.878 156.284 698.081 156.195 698.32C156.107 698.56 156.055 698.828 156.039 699.125L155.609 699.156C155.609 698.625 155.661 698.133 155.766 697.68C155.87 697.227 156.026 696.828 156.234 696.484C156.448 696.141 156.714 695.872 157.031 695.68C157.354 695.487 157.727 695.391 158.148 695.391C158.263 695.391 158.385 695.401 158.516 695.422C158.651 695.443 158.753 695.466 158.82 695.492ZM163.297 702.656C163.604 702.656 163.88 702.596 164.125 702.477C164.375 702.352 164.576 702.18 164.727 701.961C164.883 701.742 164.969 701.49 164.984 701.203H166.758C166.747 701.75 166.586 702.247 166.273 702.695C165.961 703.143 165.547 703.5 165.031 703.766C164.516 704.026 163.945 704.156 163.32 704.156C162.674 704.156 162.112 704.047 161.633 703.828C161.154 703.604 160.755 703.297 160.438 702.906C160.12 702.516 159.88 702.065 159.719 701.555C159.562 701.044 159.484 700.497 159.484 699.914V699.641C159.484 699.057 159.562 698.51 159.719 698C159.88 697.484 160.12 697.031 160.438 696.641C160.755 696.25 161.154 695.945 161.633 695.727C162.112 695.503 162.672 695.391 163.312 695.391C163.99 695.391 164.583 695.526 165.094 695.797C165.604 696.062 166.005 696.435 166.297 696.914C166.594 697.388 166.747 697.94 166.758 698.57H164.984C164.969 698.258 164.891 697.977 164.75 697.727C164.615 697.471 164.422 697.268 164.172 697.117C163.927 696.966 163.633 696.891 163.289 696.891C162.909 696.891 162.594 696.969 162.344 697.125C162.094 697.276 161.898 697.484 161.758 697.75C161.617 698.01 161.516 698.305 161.453 698.633C161.396 698.956 161.367 699.292 161.367 699.641V699.914C161.367 700.263 161.396 700.602 161.453 700.93C161.51 701.258 161.609 701.552 161.75 701.812C161.896 702.068 162.094 702.273 162.344 702.43C162.594 702.581 162.911 702.656 163.297 702.656ZM171.93 704.156C171.305 704.156 170.74 704.055 170.234 703.852C169.734 703.643 169.307 703.354 168.953 702.984C168.604 702.615 168.336 702.18 168.148 701.68C167.961 701.18 167.867 700.641 167.867 700.062V699.75C167.867 699.089 167.964 698.49 168.156 697.953C168.349 697.417 168.617 696.958 168.961 696.578C169.305 696.193 169.711 695.898 170.18 695.695C170.648 695.492 171.156 695.391 171.703 695.391C172.307 695.391 172.836 695.492 173.289 695.695C173.742 695.898 174.117 696.185 174.414 696.555C174.716 696.919 174.94 697.354 175.086 697.859C175.237 698.365 175.312 698.922 175.312 699.531V700.336H168.781V698.984H173.453V698.836C173.443 698.497 173.375 698.18 173.25 697.883C173.13 697.586 172.945 697.346 172.695 697.164C172.445 696.982 172.112 696.891 171.695 696.891C171.383 696.891 171.104 696.958 170.859 697.094C170.62 697.224 170.419 697.414 170.258 697.664C170.096 697.914 169.971 698.216 169.883 698.57C169.799 698.919 169.758 699.312 169.758 699.75V700.062C169.758 700.432 169.807 700.776 169.906 701.094C170.01 701.406 170.161 701.68 170.359 701.914C170.557 702.148 170.797 702.333 171.078 702.469C171.359 702.599 171.68 702.664 172.039 702.664C172.492 702.664 172.896 702.573 173.25 702.391C173.604 702.208 173.911 701.951 174.172 701.617L175.164 702.578C174.982 702.844 174.745 703.099 174.453 703.344C174.161 703.583 173.805 703.779 173.383 703.93C172.966 704.081 172.482 704.156 171.93 704.156Z" fill="white"/>
<path d="M246.137 668.654H243.857V667.734H246.137C246.578 667.734 246.936 667.664 247.209 667.523C247.482 667.383 247.682 667.188 247.807 666.938C247.936 666.688 248 666.402 248 666.082C248 665.789 247.936 665.514 247.807 665.256C247.682 664.998 247.482 664.791 247.209 664.635C246.936 664.475 246.578 664.395 246.137 664.395H244.121V672H242.99V663.469H246.137C246.781 663.469 247.326 663.58 247.771 663.803C248.217 664.025 248.555 664.334 248.785 664.729C249.016 665.119 249.131 665.566 249.131 666.07C249.131 666.617 249.016 667.084 248.785 667.471C248.555 667.857 248.217 668.152 247.771 668.355C247.326 668.555 246.781 668.654 246.137 668.654ZM251.48 666.656V672H250.396V665.66H251.451L251.48 666.656ZM253.461 665.625L253.455 666.633C253.365 666.613 253.279 666.602 253.197 666.598C253.119 666.59 253.029 666.586 252.928 666.586C252.678 666.586 252.457 666.625 252.266 666.703C252.074 666.781 251.912 666.891 251.779 667.031C251.646 667.172 251.541 667.34 251.463 667.535C251.389 667.727 251.34 667.938 251.316 668.168L251.012 668.344C251.012 667.961 251.049 667.602 251.123 667.266C251.201 666.93 251.32 666.633 251.48 666.375C251.641 666.113 251.844 665.91 252.09 665.766C252.34 665.617 252.637 665.543 252.98 665.543C253.059 665.543 253.148 665.553 253.25 665.572C253.352 665.588 253.422 665.605 253.461 665.625ZM255.641 665.66V672H254.551V665.66H255.641ZM254.469 663.979C254.469 663.803 254.521 663.654 254.627 663.533C254.736 663.412 254.896 663.352 255.107 663.352C255.314 663.352 255.473 663.412 255.582 663.533C255.695 663.654 255.752 663.803 255.752 663.979C255.752 664.146 255.695 664.291 255.582 664.412C255.473 664.529 255.314 664.588 255.107 664.588C254.896 664.588 254.736 664.529 254.627 664.412C254.521 664.291 254.469 664.146 254.469 663.979ZM259.918 671.227C260.176 671.227 260.414 671.174 260.633 671.068C260.852 670.963 261.031 670.818 261.172 670.635C261.312 670.447 261.393 670.234 261.412 669.996H262.443C262.424 670.371 262.297 670.721 262.062 671.045C261.832 671.365 261.529 671.625 261.154 671.824C260.779 672.02 260.367 672.117 259.918 672.117C259.441 672.117 259.025 672.033 258.67 671.865C258.318 671.697 258.025 671.467 257.791 671.174C257.561 670.881 257.387 670.545 257.27 670.166C257.156 669.783 257.1 669.379 257.1 668.953V668.707C257.1 668.281 257.156 667.879 257.27 667.5C257.387 667.117 257.561 666.779 257.791 666.486C258.025 666.193 258.318 665.963 258.67 665.795C259.025 665.627 259.441 665.543 259.918 665.543C260.414 665.543 260.848 665.645 261.219 665.848C261.59 666.047 261.881 666.32 262.092 666.668C262.307 667.012 262.424 667.402 262.443 667.84H261.412C261.393 667.578 261.318 667.342 261.189 667.131C261.064 666.92 260.893 666.752 260.674 666.627C260.459 666.498 260.207 666.434 259.918 666.434C259.586 666.434 259.307 666.5 259.08 666.633C258.857 666.762 258.68 666.938 258.547 667.16C258.418 667.379 258.324 667.623 258.266 667.893C258.211 668.158 258.184 668.43 258.184 668.707V668.953C258.184 669.23 258.211 669.504 258.266 669.773C258.32 670.043 258.412 670.287 258.541 670.506C258.674 670.725 258.852 670.9 259.074 671.033C259.301 671.162 259.582 671.227 259.918 671.227ZM266.293 672.117C265.852 672.117 265.451 672.043 265.092 671.895C264.736 671.742 264.43 671.529 264.172 671.256C263.918 670.982 263.723 670.658 263.586 670.283C263.449 669.908 263.381 669.498 263.381 669.053V668.807C263.381 668.291 263.457 667.832 263.609 667.43C263.762 667.023 263.969 666.68 264.23 666.398C264.492 666.117 264.789 665.904 265.121 665.76C265.453 665.615 265.797 665.543 266.152 665.543C266.605 665.543 266.996 665.621 267.324 665.777C267.656 665.934 267.928 666.152 268.139 666.434C268.35 666.711 268.506 667.039 268.607 667.418C268.709 667.793 268.76 668.203 268.76 668.648V669.135H264.025V668.25H267.676V668.168C267.66 667.887 267.602 667.613 267.5 667.348C267.402 667.082 267.246 666.863 267.031 666.691C266.816 666.52 266.523 666.434 266.152 666.434C265.906 666.434 265.68 666.486 265.473 666.592C265.266 666.693 265.088 666.846 264.939 667.049C264.791 667.252 264.676 667.5 264.594 667.793C264.512 668.086 264.471 668.424 264.471 668.807V669.053C264.471 669.354 264.512 669.637 264.594 669.902C264.68 670.164 264.803 670.395 264.963 670.594C265.127 670.793 265.324 670.949 265.555 671.062C265.789 671.176 266.055 671.232 266.352 671.232C266.734 671.232 267.059 671.154 267.324 670.998C267.59 670.842 267.822 670.633 268.021 670.371L268.678 670.893C268.541 671.1 268.367 671.297 268.156 671.484C267.945 671.672 267.686 671.824 267.377 671.941C267.072 672.059 266.711 672.117 266.293 672.117Z" fill="#827D9D"/>
<path d="M220.383 681.805V684.141H219.18V681.805H220.383ZM220.234 694.562V696.656H219.039V694.562H220.234ZM221.414 692.039C221.414 691.737 221.352 691.474 221.227 691.25C221.107 691.021 220.909 690.815 220.633 690.633C220.357 690.445 219.987 690.271 219.523 690.109C218.857 689.875 218.273 689.612 217.773 689.32C217.279 689.023 216.893 688.659 216.617 688.227C216.346 687.789 216.211 687.245 216.211 686.594C216.211 685.953 216.357 685.398 216.648 684.93C216.945 684.461 217.357 684.099 217.883 683.844C218.409 683.589 219.023 683.461 219.727 683.461C220.268 683.461 220.755 683.542 221.188 683.703C221.625 683.865 221.997 684.102 222.305 684.414C222.612 684.727 222.846 685.112 223.008 685.57C223.174 686.023 223.258 686.544 223.258 687.133H221.383C221.383 686.799 221.344 686.503 221.266 686.242C221.193 685.977 221.083 685.753 220.938 685.57C220.792 685.383 220.615 685.24 220.406 685.141C220.203 685.042 219.971 684.992 219.711 684.992C219.341 684.992 219.036 685.062 218.797 685.203C218.557 685.339 218.38 685.526 218.266 685.766C218.156 686.005 218.102 686.279 218.102 686.586C218.102 686.883 218.159 687.143 218.273 687.367C218.388 687.591 218.583 687.794 218.859 687.977C219.141 688.154 219.526 688.333 220.016 688.516C220.688 688.755 221.268 689.023 221.758 689.32C222.253 689.612 222.633 689.974 222.898 690.406C223.169 690.833 223.305 691.372 223.305 692.023C223.305 692.695 223.148 693.266 222.836 693.734C222.529 694.203 222.096 694.56 221.539 694.805C220.987 695.044 220.344 695.164 219.609 695.164C219.146 695.164 218.685 695.104 218.227 694.984C217.773 694.859 217.362 694.656 216.992 694.375C216.622 694.094 216.328 693.721 216.109 693.258C215.891 692.789 215.781 692.216 215.781 691.539H217.672C217.672 691.945 217.727 692.284 217.836 692.555C217.945 692.826 218.094 693.039 218.281 693.195C218.469 693.352 218.677 693.464 218.906 693.531C219.141 693.599 219.375 693.633 219.609 693.633C220 693.633 220.328 693.568 220.594 693.438C220.865 693.302 221.068 693.115 221.203 692.875C221.344 692.63 221.414 692.352 221.414 692.039ZM230.641 683.555H230.875V685.094H230.742C230.07 685.094 229.49 685.198 229 685.406C228.516 685.615 228.117 685.901 227.805 686.266C227.492 686.63 227.258 687.057 227.102 687.547C226.951 688.031 226.875 688.547 226.875 689.094V690.883C226.875 691.336 226.924 691.737 227.023 692.086C227.122 692.43 227.26 692.719 227.438 692.953C227.62 693.182 227.828 693.357 228.062 693.477C228.297 693.596 228.549 693.656 228.82 693.656C229.102 693.656 229.357 693.599 229.586 693.484C229.815 693.365 230.01 693.201 230.172 692.992C230.333 692.784 230.456 692.536 230.539 692.25C230.622 691.964 230.664 691.651 230.664 691.312C230.664 690.99 230.622 690.688 230.539 690.406C230.461 690.12 230.344 689.87 230.188 689.656C230.031 689.438 229.836 689.268 229.602 689.148C229.372 689.023 229.107 688.961 228.805 688.961C228.43 688.961 228.089 689.049 227.781 689.227C227.479 689.404 227.234 689.635 227.047 689.922C226.865 690.203 226.766 690.503 226.75 690.82L226.031 690.586C226.073 690.102 226.18 689.667 226.352 689.281C226.529 688.896 226.76 688.568 227.047 688.297C227.333 688.026 227.664 687.82 228.039 687.68C228.419 687.534 228.836 687.461 229.289 687.461C229.841 687.461 230.32 687.565 230.727 687.773C231.133 687.982 231.469 688.266 231.734 688.625C232.005 688.979 232.206 689.385 232.336 689.844C232.471 690.297 232.539 690.771 232.539 691.266C232.539 691.812 232.456 692.323 232.289 692.797C232.122 693.266 231.878 693.677 231.555 694.031C231.237 694.385 230.849 694.661 230.391 694.859C229.938 695.057 229.422 695.156 228.844 695.156C228.234 695.156 227.69 695.039 227.211 694.805C226.737 694.57 226.333 694.247 226 693.836C225.672 693.424 225.422 692.951 225.25 692.414C225.078 691.878 224.992 691.31 224.992 690.711V689.93C224.992 689.065 225.102 688.25 225.32 687.484C225.539 686.714 225.875 686.034 226.328 685.445C226.786 684.857 227.372 684.396 228.086 684.062C228.799 683.724 229.651 683.555 230.641 683.555ZM239.734 683.555H239.969V685.094H239.836C239.164 685.094 238.583 685.198 238.094 685.406C237.609 685.615 237.211 685.901 236.898 686.266C236.586 686.63 236.352 687.057 236.195 687.547C236.044 688.031 235.969 688.547 235.969 689.094V690.883C235.969 691.336 236.018 691.737 236.117 692.086C236.216 692.43 236.354 692.719 236.531 692.953C236.714 693.182 236.922 693.357 237.156 693.477C237.391 693.596 237.643 693.656 237.914 693.656C238.195 693.656 238.451 693.599 238.68 693.484C238.909 693.365 239.104 693.201 239.266 692.992C239.427 692.784 239.549 692.536 239.633 692.25C239.716 691.964 239.758 691.651 239.758 691.312C239.758 690.99 239.716 690.688 239.633 690.406C239.555 690.12 239.438 689.87 239.281 689.656C239.125 689.438 238.93 689.268 238.695 689.148C238.466 689.023 238.201 688.961 237.898 688.961C237.523 688.961 237.182 689.049 236.875 689.227C236.573 689.404 236.328 689.635 236.141 689.922C235.958 690.203 235.859 690.503 235.844 690.82L235.125 690.586C235.167 690.102 235.273 689.667 235.445 689.281C235.622 688.896 235.854 688.568 236.141 688.297C236.427 688.026 236.758 687.82 237.133 687.68C237.513 687.534 237.93 687.461 238.383 687.461C238.935 687.461 239.414 687.565 239.82 687.773C240.227 687.982 240.562 688.266 240.828 688.625C241.099 688.979 241.299 689.385 241.43 689.844C241.565 690.297 241.633 690.771 241.633 691.266C241.633 691.812 241.549 692.323 241.383 692.797C241.216 693.266 240.971 693.677 240.648 694.031C240.331 694.385 239.943 694.661 239.484 694.859C239.031 695.057 238.516 695.156 237.938 695.156C237.328 695.156 236.784 695.039 236.305 694.805C235.831 694.57 235.427 694.247 235.094 693.836C234.766 693.424 234.516 692.951 234.344 692.414C234.172 691.878 234.086 691.31 234.086 690.711V689.93C234.086 689.065 234.195 688.25 234.414 687.484C234.633 686.714 234.969 686.034 235.422 685.445C235.88 684.857 236.466 684.396 237.18 684.062C237.893 683.724 238.745 683.555 239.734 683.555ZM245.117 689.711L243.617 689.344L244.234 683.625H250.367V685.219H245.797L245.484 688.008C245.661 687.904 245.906 687.802 246.219 687.703C246.531 687.599 246.888 687.547 247.289 687.547C247.826 687.547 248.305 687.635 248.727 687.812C249.154 687.984 249.516 688.237 249.812 688.57C250.109 688.898 250.336 689.299 250.492 689.773C250.648 690.242 250.727 690.771 250.727 691.359C250.727 691.885 250.648 692.378 250.492 692.836C250.341 693.294 250.112 693.698 249.805 694.047C249.497 694.396 249.109 694.669 248.641 694.867C248.177 695.06 247.628 695.156 246.992 695.156C246.518 695.156 246.062 695.089 245.625 694.953C245.193 694.812 244.805 694.607 244.461 694.336C244.117 694.06 243.841 693.721 243.633 693.32C243.424 692.914 243.305 692.448 243.273 691.922H245.117C245.164 692.292 245.266 692.607 245.422 692.867C245.583 693.122 245.797 693.318 246.062 693.453C246.328 693.589 246.635 693.656 246.984 693.656C247.302 693.656 247.576 693.602 247.805 693.492C248.034 693.378 248.224 693.216 248.375 693.008C248.531 692.794 248.646 692.544 248.719 692.258C248.797 691.971 248.836 691.654 248.836 691.305C248.836 690.971 248.792 690.667 248.703 690.391C248.62 690.115 248.492 689.875 248.32 689.672C248.154 689.469 247.943 689.312 247.688 689.203C247.432 689.089 247.138 689.031 246.805 689.031C246.357 689.031 246.013 689.096 245.773 689.227C245.539 689.357 245.32 689.518 245.117 689.711ZM257.922 683.555H258.156V685.094H258.023C257.352 685.094 256.771 685.198 256.281 685.406C255.797 685.615 255.398 685.901 255.086 686.266C254.773 686.63 254.539 687.057 254.383 687.547C254.232 688.031 254.156 688.547 254.156 689.094V690.883C254.156 691.336 254.206 691.737 254.305 692.086C254.404 692.43 254.542 692.719 254.719 692.953C254.901 693.182 255.109 693.357 255.344 693.477C255.578 693.596 255.831 693.656 256.102 693.656C256.383 693.656 256.638 693.599 256.867 693.484C257.096 693.365 257.292 693.201 257.453 692.992C257.615 692.784 257.737 692.536 257.82 692.25C257.904 691.964 257.945 691.651 257.945 691.312C257.945 690.99 257.904 690.688 257.82 690.406C257.742 690.12 257.625 689.87 257.469 689.656C257.312 689.438 257.117 689.268 256.883 689.148C256.654 689.023 256.388 688.961 256.086 688.961C255.711 688.961 255.37 689.049 255.062 689.227C254.76 689.404 254.516 689.635 254.328 689.922C254.146 690.203 254.047 690.503 254.031 690.82L253.312 690.586C253.354 690.102 253.461 689.667 253.633 689.281C253.81 688.896 254.042 688.568 254.328 688.297C254.615 688.026 254.945 687.82 255.32 687.68C255.701 687.534 256.117 687.461 256.57 687.461C257.122 687.461 257.602 687.565 258.008 687.773C258.414 687.982 258.75 688.266 259.016 688.625C259.286 688.979 259.487 689.385 259.617 689.844C259.753 690.297 259.82 690.771 259.82 691.266C259.82 691.812 259.737 692.323 259.57 692.797C259.404 693.266 259.159 693.677 258.836 694.031C258.518 694.385 258.13 694.661 257.672 694.859C257.219 695.057 256.703 695.156 256.125 695.156C255.516 695.156 254.971 695.039 254.492 694.805C254.018 694.57 253.615 694.247 253.281 693.836C252.953 693.424 252.703 692.951 252.531 692.414C252.359 691.878 252.273 691.31 252.273 690.711V689.93C252.273 689.065 252.383 688.25 252.602 687.484C252.82 686.714 253.156 686.034 253.609 685.445C254.068 684.857 254.654 684.396 255.367 684.062C256.081 683.724 256.932 683.555 257.922 683.555ZM263.305 689.711L261.805 689.344L262.422 683.625H268.555V685.219H263.984L263.672 688.008C263.849 687.904 264.094 687.802 264.406 687.703C264.719 687.599 265.076 687.547 265.477 687.547C266.013 687.547 266.492 687.635 266.914 687.812C267.341 687.984 267.703 688.237 268 688.57C268.297 688.898 268.523 689.299 268.68 689.773C268.836 690.242 268.914 690.771 268.914 691.359C268.914 691.885 268.836 692.378 268.68 692.836C268.529 693.294 268.299 693.698 267.992 694.047C267.685 694.396 267.297 694.669 266.828 694.867C266.365 695.06 265.815 695.156 265.18 695.156C264.706 695.156 264.25 695.089 263.812 694.953C263.38 694.812 262.992 694.607 262.648 694.336C262.305 694.06 262.029 693.721 261.82 693.32C261.612 692.914 261.492 692.448 261.461 691.922H263.305C263.352 692.292 263.453 692.607 263.609 692.867C263.771 693.122 263.984 693.318 264.25 693.453C264.516 693.589 264.823 693.656 265.172 693.656C265.49 693.656 265.763 693.602 265.992 693.492C266.221 693.378 266.411 693.216 266.562 693.008C266.719 692.794 266.833 692.544 266.906 692.258C266.984 691.971 267.023 691.654 267.023 691.305C267.023 690.971 266.979 690.667 266.891 690.391C266.807 690.115 266.68 689.875 266.508 689.672C266.341 689.469 266.13 689.312 265.875 689.203C265.62 689.089 265.326 689.031 264.992 689.031C264.544 689.031 264.201 689.096 263.961 689.227C263.727 689.357 263.508 689.518 263.305 689.711Z" fill="white"/>
<path d="M42.25 725H268.75" stroke="#282828"/>
<path d="M47.4219 740.859H44.5234L44.5078 739.43H47.0391C47.4661 739.43 47.8281 739.367 48.125 739.242C48.4271 739.112 48.6562 738.927 48.8125 738.688C48.9688 738.443 49.0469 738.148 49.0469 737.805C49.0469 737.424 48.974 737.115 48.8281 736.875C48.6823 736.635 48.4583 736.461 48.1562 736.352C47.8594 736.242 47.4792 736.188 47.0156 736.188H45.1172V746H43.1562V734.625H47.0156C47.6406 734.625 48.1979 734.685 48.6875 734.805C49.1823 734.924 49.6016 735.112 49.9453 735.367C50.2943 735.617 50.5573 735.935 50.7344 736.32C50.9167 736.706 51.0078 737.164 51.0078 737.695C51.0078 738.164 50.8958 738.594 50.6719 738.984C50.4479 739.37 50.1172 739.685 49.6797 739.93C49.2422 740.174 48.6979 740.32 48.0469 740.367L47.4219 740.859ZM47.3359 746H43.9062L44.7891 744.445H47.3359C47.7786 744.445 48.1484 744.372 48.4453 744.227C48.7422 744.076 48.9635 743.87 49.1094 743.609C49.2604 743.344 49.3359 743.034 49.3359 742.68C49.3359 742.31 49.2708 741.99 49.1406 741.719C49.0104 741.443 48.8047 741.232 48.5234 741.086C48.2422 740.935 47.875 740.859 47.4219 740.859H45.2188L45.2344 739.43H48.1016L48.5469 739.969C49.1719 739.99 49.6849 740.128 50.0859 740.383C50.4922 740.638 50.7943 740.969 50.9922 741.375C51.1901 741.781 51.2891 742.219 51.2891 742.688C51.2891 743.411 51.1302 744.018 50.8125 744.508C50.5 744.997 50.0495 745.37 49.4609 745.625C48.8724 745.875 48.1641 746 47.3359 746ZM58.1641 744.008V737.547H60.0547V746H58.2734L58.1641 744.008ZM58.4297 742.25L59.0625 742.234C59.0625 742.802 59 743.326 58.875 743.805C58.75 744.279 58.5573 744.693 58.2969 745.047C58.0365 745.396 57.7031 745.669 57.2969 745.867C56.8906 746.06 56.4036 746.156 55.8359 746.156C55.4245 746.156 55.0469 746.096 54.7031 745.977C54.3594 745.857 54.0625 745.672 53.8125 745.422C53.5677 745.172 53.3776 744.846 53.2422 744.445C53.1068 744.044 53.0391 743.565 53.0391 743.008V737.547H54.9219V743.023C54.9219 743.331 54.9583 743.589 55.0312 743.797C55.1042 744 55.2031 744.164 55.3281 744.289C55.4531 744.414 55.599 744.503 55.7656 744.555C55.9323 744.607 56.1094 744.633 56.2969 744.633C56.8333 744.633 57.2552 744.529 57.5625 744.32C57.875 744.107 58.0964 743.82 58.2266 743.461C58.362 743.102 58.4297 742.698 58.4297 742.25ZM64.4375 745.078L66.7344 737.547H68.75L65.3594 747.289C65.2812 747.497 65.1797 747.724 65.0547 747.969C64.9297 748.214 64.7656 748.445 64.5625 748.664C64.3646 748.888 64.1172 749.068 63.8203 749.203C63.5234 749.344 63.1641 749.414 62.7422 749.414C62.5755 749.414 62.4141 749.398 62.2578 749.367C62.1068 749.341 61.9635 749.312 61.8281 749.281L61.8203 747.844C61.8724 747.849 61.9349 747.854 62.0078 747.859C62.0859 747.865 62.1484 747.867 62.1953 747.867C62.5078 747.867 62.7682 747.828 62.9766 747.75C63.1849 747.677 63.3542 747.557 63.4844 747.391C63.6198 747.224 63.7344 747 63.8281 746.719L64.4375 745.078ZM63.1406 737.547L65.1484 743.875L65.4844 745.859L64.1797 746.195L61.1094 737.547H63.1406ZM83.0234 734.625V746H81.0625L75.9609 737.852V746H74V734.625H75.9609L81.0781 742.789V734.625H83.0234ZM84.8125 741.867V741.688C84.8125 741.078 84.901 740.513 85.0781 739.992C85.2552 739.466 85.5104 739.01 85.8438 738.625C86.1823 738.234 86.5938 737.932 87.0781 737.719C87.5677 737.5 88.1198 737.391 88.7344 737.391C89.3542 737.391 89.9062 737.5 90.3906 737.719C90.8802 737.932 91.2943 738.234 91.6328 738.625C91.9714 739.01 92.2292 739.466 92.4062 739.992C92.5833 740.513 92.6719 741.078 92.6719 741.688V741.867C92.6719 742.477 92.5833 743.042 92.4062 743.562C92.2292 744.083 91.9714 744.539 91.6328 744.93C91.2943 745.315 90.8828 745.617 90.3984 745.836C89.9141 746.049 89.3646 746.156 88.75 746.156C88.1302 746.156 87.5755 746.049 87.0859 745.836C86.6016 745.617 86.1901 745.315 85.8516 744.93C85.513 744.539 85.2552 744.083 85.0781 743.562C84.901 743.042 84.8125 742.477 84.8125 741.867ZM86.6953 741.688V741.867C86.6953 742.247 86.7344 742.607 86.8125 742.945C86.8906 743.284 87.013 743.581 87.1797 743.836C87.3464 744.091 87.5599 744.292 87.8203 744.438C88.0807 744.583 88.3906 744.656 88.75 744.656C89.099 744.656 89.401 744.583 89.6562 744.438C89.9167 744.292 90.1302 744.091 90.2969 743.836C90.4635 743.581 90.5859 743.284 90.6641 742.945C90.7474 742.607 90.7891 742.247 90.7891 741.867V741.688C90.7891 741.312 90.7474 740.958 90.6641 740.625C90.5859 740.286 90.4609 739.987 90.2891 739.727C90.1224 739.466 89.9089 739.263 89.6484 739.117C89.3932 738.966 89.0885 738.891 88.7344 738.891C88.3802 738.891 88.0729 738.966 87.8125 739.117C87.5573 739.263 87.3464 739.466 87.1797 739.727C87.013 739.987 86.8906 740.286 86.8125 740.625C86.7344 740.958 86.6953 741.312 86.6953 741.688ZM96.5469 744.125L98.5 737.547H99.7031L99.375 739.516L97.4062 746H96.3281L96.5469 744.125ZM95.3984 737.547L96.9219 744.156L97.0469 746H95.8438L93.5547 737.547H95.3984ZM101.531 744.078L103.008 737.547H104.844L102.562 746H101.359L101.531 744.078ZM99.9062 737.547L101.836 744.047L102.078 746H101L99.0078 739.508L98.6797 737.547H99.9062Z" fill="#00A2FD"/>
<path d="M214.363 743.875V745H208.645V744.033L211.422 741.004C211.727 740.66 211.967 740.363 212.143 740.113C212.318 739.863 212.441 739.639 212.512 739.439C212.586 739.236 212.623 739.039 212.623 738.848C212.623 738.578 212.572 738.342 212.471 738.139C212.373 737.932 212.229 737.77 212.037 737.652C211.846 737.531 211.613 737.471 211.34 737.471C211.023 737.471 210.758 737.539 210.543 737.676C210.328 737.812 210.166 738.002 210.057 738.244C209.947 738.482 209.893 738.756 209.893 739.064H208.48C208.48 738.568 208.594 738.115 208.82 737.705C209.047 737.291 209.375 736.963 209.805 736.721C210.234 736.475 210.752 736.352 211.357 736.352C211.928 736.352 212.412 736.447 212.811 736.639C213.209 736.83 213.512 737.102 213.719 737.453C213.93 737.805 214.035 738.221 214.035 738.701C214.035 738.967 213.992 739.23 213.906 739.492C213.82 739.754 213.697 740.016 213.537 740.277C213.381 740.535 213.195 740.795 212.98 741.057C212.766 741.314 212.529 741.576 212.271 741.842L210.426 743.875H214.363ZM222.402 743.688V736H223.82V745H222.537L222.402 743.688ZM218.277 741.9V741.777C218.277 741.297 218.334 740.859 218.447 740.465C218.561 740.066 218.725 739.725 218.939 739.439C219.154 739.15 219.416 738.93 219.725 738.777C220.033 738.621 220.381 738.543 220.768 738.543C221.15 738.543 221.486 738.617 221.775 738.766C222.064 738.914 222.311 739.127 222.514 739.404C222.717 739.678 222.879 740.006 223 740.389C223.121 740.768 223.207 741.189 223.258 741.654V742.047C223.207 742.5 223.121 742.914 223 743.289C222.879 743.664 222.717 743.988 222.514 744.262C222.311 744.535 222.062 744.746 221.77 744.895C221.48 745.043 221.143 745.117 220.756 745.117C220.373 745.117 220.027 745.037 219.719 744.877C219.414 744.717 219.154 744.492 218.939 744.203C218.725 743.914 218.561 743.574 218.447 743.184C218.334 742.789 218.277 742.361 218.277 741.9ZM219.689 741.777V741.9C219.689 742.189 219.715 742.459 219.766 742.709C219.82 742.959 219.904 743.18 220.018 743.371C220.131 743.559 220.277 743.707 220.457 743.816C220.641 743.922 220.859 743.975 221.113 743.975C221.434 743.975 221.697 743.904 221.904 743.764C222.111 743.623 222.273 743.434 222.391 743.195C222.512 742.953 222.594 742.684 222.637 742.387V741.326C222.613 741.096 222.564 740.881 222.49 740.682C222.42 740.482 222.324 740.309 222.203 740.16C222.082 740.008 221.932 739.891 221.752 739.809C221.576 739.723 221.367 739.68 221.125 739.68C220.867 739.68 220.648 739.734 220.469 739.844C220.289 739.953 220.141 740.104 220.023 740.295C219.91 740.486 219.826 740.709 219.771 740.963C219.717 741.217 219.689 741.488 219.689 741.777ZM228.871 743.729V740.705C228.871 740.479 228.83 740.283 228.748 740.119C228.666 739.955 228.541 739.828 228.373 739.738C228.209 739.648 228.002 739.604 227.752 739.604C227.521 739.604 227.322 739.643 227.154 739.721C226.986 739.799 226.855 739.904 226.762 740.037C226.668 740.17 226.621 740.32 226.621 740.488H225.215C225.215 740.238 225.275 739.996 225.396 739.762C225.518 739.527 225.693 739.318 225.924 739.135C226.154 738.951 226.43 738.807 226.75 738.701C227.07 738.596 227.43 738.543 227.828 738.543C228.305 738.543 228.727 738.623 229.094 738.783C229.465 738.943 229.756 739.186 229.967 739.51C230.182 739.83 230.289 740.232 230.289 740.717V743.535C230.289 743.824 230.309 744.084 230.348 744.314C230.391 744.541 230.451 744.738 230.529 744.906V745H229.082C229.016 744.848 228.963 744.654 228.924 744.42C228.889 744.182 228.871 743.951 228.871 743.729ZM229.076 741.145L229.088 742.018H228.074C227.812 742.018 227.582 742.043 227.383 742.094C227.184 742.141 227.018 742.211 226.885 742.305C226.752 742.398 226.652 742.512 226.586 742.645C226.52 742.777 226.486 742.928 226.486 743.096C226.486 743.264 226.525 743.418 226.604 743.559C226.682 743.695 226.795 743.803 226.943 743.881C227.096 743.959 227.279 743.998 227.494 743.998C227.783 743.998 228.035 743.939 228.25 743.822C228.469 743.701 228.641 743.555 228.766 743.383C228.891 743.207 228.957 743.041 228.965 742.885L229.422 743.512C229.375 743.672 229.295 743.844 229.182 744.027C229.068 744.211 228.92 744.387 228.736 744.555C228.557 744.719 228.34 744.854 228.086 744.959C227.836 745.064 227.547 745.117 227.219 745.117C226.805 745.117 226.436 745.035 226.111 744.871C225.787 744.703 225.533 744.479 225.35 744.197C225.166 743.912 225.074 743.59 225.074 743.23C225.074 742.895 225.137 742.598 225.262 742.34C225.391 742.078 225.578 741.859 225.824 741.684C226.074 741.508 226.379 741.375 226.738 741.285C227.098 741.191 227.508 741.145 227.969 741.145H229.076ZM233.512 744.309L235.234 738.66H236.746L234.203 745.967C234.145 746.123 234.068 746.293 233.975 746.477C233.881 746.66 233.758 746.834 233.605 746.998C233.457 747.166 233.271 747.301 233.049 747.402C232.826 747.508 232.557 747.561 232.24 747.561C232.115 747.561 231.994 747.549 231.877 747.525C231.764 747.506 231.656 747.484 231.555 747.461L231.549 746.383C231.588 746.387 231.635 746.391 231.689 746.395C231.748 746.398 231.795 746.4 231.83 746.4C232.064 746.4 232.26 746.371 232.416 746.312C232.572 746.258 232.699 746.168 232.797 746.043C232.898 745.918 232.984 745.75 233.055 745.539L233.512 744.309ZM232.539 738.66L234.045 743.406L234.297 744.895L233.318 745.146L231.016 738.66H232.539ZM241.111 743.283C241.111 743.143 241.076 743.016 241.006 742.902C240.936 742.785 240.801 742.68 240.602 742.586C240.406 742.492 240.117 742.406 239.734 742.328C239.398 742.254 239.09 742.166 238.809 742.064C238.531 741.959 238.293 741.832 238.094 741.684C237.895 741.535 237.74 741.359 237.631 741.156C237.521 740.953 237.467 740.719 237.467 740.453C237.467 740.195 237.523 739.951 237.637 739.721C237.75 739.49 237.912 739.287 238.123 739.111C238.334 738.936 238.59 738.797 238.891 738.695C239.195 738.594 239.535 738.543 239.91 738.543C240.441 738.543 240.896 738.633 241.275 738.812C241.658 738.988 241.951 739.229 242.154 739.533C242.357 739.834 242.459 740.174 242.459 740.553H241.047C241.047 740.385 241.004 740.229 240.918 740.084C240.836 739.936 240.711 739.816 240.543 739.727C240.375 739.633 240.164 739.586 239.91 739.586C239.668 739.586 239.467 739.625 239.307 739.703C239.15 739.777 239.033 739.875 238.955 739.996C238.881 740.117 238.844 740.25 238.844 740.395C238.844 740.5 238.863 740.596 238.902 740.682C238.945 740.764 239.016 740.84 239.113 740.91C239.211 740.977 239.344 741.039 239.512 741.098C239.684 741.156 239.898 741.213 240.156 741.268C240.641 741.369 241.057 741.5 241.404 741.66C241.756 741.816 242.025 742.02 242.213 742.27C242.4 742.516 242.494 742.828 242.494 743.207C242.494 743.488 242.434 743.746 242.312 743.98C242.195 744.211 242.023 744.412 241.797 744.584C241.57 744.752 241.299 744.883 240.982 744.977C240.67 745.07 240.318 745.117 239.928 745.117C239.354 745.117 238.867 745.016 238.469 744.812C238.07 744.605 237.768 744.342 237.561 744.021C237.357 743.697 237.256 743.361 237.256 743.014H238.621C238.637 743.275 238.709 743.484 238.838 743.641C238.971 743.793 239.135 743.904 239.33 743.975C239.529 744.041 239.734 744.074 239.945 744.074C240.199 744.074 240.412 744.041 240.584 743.975C240.756 743.904 240.887 743.811 240.977 743.693C241.066 743.572 241.111 743.436 241.111 743.283ZM248.23 736V745H246.812V736H248.23ZM252.572 745.117C252.104 745.117 251.68 745.041 251.301 744.889C250.926 744.732 250.605 744.516 250.34 744.238C250.078 743.961 249.877 743.635 249.736 743.26C249.596 742.885 249.525 742.48 249.525 742.047V741.812C249.525 741.316 249.598 740.867 249.742 740.465C249.887 740.062 250.088 739.719 250.346 739.434C250.604 739.145 250.908 738.924 251.26 738.771C251.611 738.619 251.992 738.543 252.402 738.543C252.855 738.543 253.252 738.619 253.592 738.771C253.932 738.924 254.213 739.139 254.436 739.416C254.662 739.689 254.83 740.016 254.939 740.395C255.053 740.773 255.109 741.191 255.109 741.648V742.252H250.211V741.238H253.715V741.127C253.707 740.873 253.656 740.635 253.562 740.412C253.473 740.189 253.334 740.01 253.146 739.873C252.959 739.736 252.709 739.668 252.396 739.668C252.162 739.668 251.953 739.719 251.77 739.82C251.59 739.918 251.439 740.061 251.318 740.248C251.197 740.436 251.104 740.662 251.037 740.928C250.975 741.189 250.943 741.484 250.943 741.812V742.047C250.943 742.324 250.98 742.582 251.055 742.82C251.133 743.055 251.246 743.26 251.395 743.436C251.543 743.611 251.723 743.75 251.934 743.852C252.145 743.949 252.385 743.998 252.654 743.998C252.994 743.998 253.297 743.93 253.562 743.793C253.828 743.656 254.059 743.463 254.254 743.213L254.998 743.934C254.861 744.133 254.684 744.324 254.465 744.508C254.246 744.688 253.979 744.834 253.662 744.947C253.35 745.061 252.986 745.117 252.572 745.117ZM258.121 745H256.709V738.051C256.709 737.578 256.797 737.182 256.973 736.861C257.152 736.537 257.408 736.293 257.74 736.129C258.072 735.961 258.465 735.877 258.918 735.877C259.059 735.877 259.197 735.887 259.334 735.906C259.471 735.922 259.604 735.947 259.732 735.982L259.697 737.072C259.619 737.053 259.533 737.039 259.439 737.031C259.35 737.023 259.252 737.02 259.146 737.02C258.932 737.02 258.746 737.061 258.59 737.143C258.438 737.221 258.32 737.336 258.238 737.488C258.16 737.641 258.121 737.828 258.121 738.051V745ZM259.428 738.66V739.691H255.736V738.66H259.428ZM263.359 738.66V739.691H259.785V738.66H263.359ZM260.816 737.107H262.229V743.248C262.229 743.443 262.256 743.594 262.311 743.699C262.369 743.801 262.449 743.869 262.551 743.904C262.652 743.939 262.771 743.957 262.908 743.957C263.006 743.957 263.1 743.951 263.189 743.939C263.279 743.928 263.352 743.916 263.406 743.904L263.412 744.982C263.295 745.018 263.158 745.049 263.002 745.076C262.85 745.104 262.674 745.117 262.475 745.117C262.15 745.117 261.863 745.061 261.613 744.947C261.363 744.83 261.168 744.641 261.027 744.379C260.887 744.117 260.816 743.77 260.816 743.336V737.107Z" fill="#827D9D"/>
</g>
</g>
<defs>
<filter id="filter0_f_0_1038" x="9.45155" y="405.452" width="290.097" height="320.097" filterUnits="userSpaceOnUse" color-interpolation-filters="sRGB">
<feFlood flood-opacity="0" result="BackgroundImageFix"/>
<feBlend mode="normal" in="SourceGraphic" in2="BackgroundImageFix" result="shape"/>
<feGaussianBlur stdDeviation="40.7742" result="effect1_foregroundBlur_0_1038"/>
</filter>
<clipPath id="clip0_0_1038">
<rect width="279" height="379" fill="white" transform="translate(16 405)"/>
</clipPath>
<clipPath id="clip1_0_1038">
<rect width="229" height="92" fill="white" transform="translate(41 668)"/>
</clipPath>
</defs>
</svg>
