<svg width="228" height="178" viewBox="0 0 228 178" fill="none" xmlns="http://www.w3.org/2000/svg">
<rect width="228" height="178" fill="white"/>
<g clip-path="url(#clip0_0_1342)">
<path d="M73.0938 17.6797V9.625H74.5938V17.6797C74.5938 18.4297 74.4401 19.0625 74.1328 19.5781C73.8255 20.0938 73.401 20.487 72.8594 20.7578C72.3229 21.0234 71.7057 21.1562 71.0078 21.1562C70.3099 21.1562 69.6901 21.0365 69.1484 20.7969C68.6068 20.5573 68.1823 20.1927 67.875 19.7031C67.5677 19.2135 67.4141 18.5964 67.4141 17.8516H68.9219C68.9219 18.3307 69.0104 18.724 69.1875 19.0312C69.3646 19.3385 69.6094 19.5651 69.9219 19.7109C70.2396 19.8568 70.6016 19.9297 71.0078 19.9297C71.4036 19.9297 71.7578 19.8464 72.0703 19.6797C72.388 19.5078 72.638 19.2552 72.8203 18.9219C73.0026 18.5833 73.0938 18.1693 73.0938 17.6797ZM82.1016 19.0469V12.5469H83.5547V21H82.1719L82.1016 19.0469ZM82.375 17.2656L82.9766 17.25C82.9766 17.8125 82.9167 18.3333 82.7969 18.8125C82.6823 19.2865 82.4948 19.6979 82.2344 20.0469C81.974 20.3958 81.6328 20.6693 81.2109 20.8672C80.7891 21.0599 80.276 21.1562 79.6719 21.1562C79.2604 21.1562 78.8828 21.0964 78.5391 20.9766C78.2005 20.8568 77.9089 20.6719 77.6641 20.4219C77.4193 20.1719 77.2292 19.8464 77.0938 19.4453C76.9635 19.0443 76.8984 18.5625 76.8984 18V12.5469H78.3438V18.0156C78.3438 18.3958 78.3854 18.7109 78.4688 18.9609C78.5573 19.2057 78.6745 19.401 78.8203 19.5469C78.9714 19.6875 79.138 19.7865 79.3203 19.8438C79.5078 19.901 79.7005 19.9297 79.8984 19.9297C80.513 19.9297 81 19.8125 81.3594 19.5781C81.7188 19.3385 81.9766 19.0182 82.1328 18.6172C82.2943 18.2109 82.375 17.7604 82.375 17.2656ZM87.3281 9V21H85.875V9H87.3281ZM91.2188 12.5469V21H89.7656V12.5469H91.2188ZM89.6562 10.3047C89.6562 10.0703 89.7266 9.8724 89.8672 9.71094C90.013 9.54948 90.2266 9.46875 90.5078 9.46875C90.7839 9.46875 90.9948 9.54948 91.1406 9.71094C91.2917 9.8724 91.3672 10.0703 91.3672 10.3047C91.3672 10.5286 91.2917 10.7214 91.1406 10.8828C90.9948 11.0391 90.7839 11.1172 90.5078 11.1172C90.2266 11.1172 90.013 11.0391 89.8672 10.8828C89.7266 10.7214 89.6562 10.5286 89.6562 10.3047ZM97.0469 21.1562C96.4583 21.1562 95.9245 21.0573 95.4453 20.8594C94.9714 20.6562 94.5625 20.3724 94.2188 20.0078C93.8802 19.6432 93.6198 19.2109 93.4375 18.7109C93.2552 18.2109 93.1641 17.6641 93.1641 17.0703V16.7422C93.1641 16.0547 93.2656 15.4427 93.4688 14.9062C93.6719 14.3646 93.9479 13.9062 94.2969 13.5312C94.6458 13.1562 95.0417 12.8724 95.4844 12.6797C95.9271 12.487 96.3854 12.3906 96.8594 12.3906C97.4635 12.3906 97.9844 12.4948 98.4219 12.7031C98.8646 12.9115 99.2266 13.2031 99.5078 13.5781C99.7891 13.9479 99.9974 14.3854 100.133 14.8906C100.268 15.3906 100.336 15.9375 100.336 16.5312V17.1797H94.0234V16H98.8906V15.8906C98.8698 15.5156 98.7917 15.151 98.6562 14.7969C98.526 14.4427 98.3177 14.151 98.0312 13.9219C97.7448 13.6927 97.3542 13.5781 96.8594 13.5781C96.5312 13.5781 96.2292 13.6484 95.9531 13.7891C95.6771 13.9245 95.4401 14.1276 95.2422 14.3984C95.0443 14.6693 94.8906 15 94.7812 15.3906C94.6719 15.7812 94.6172 16.2318 94.6172 16.7422V17.0703C94.6172 17.4714 94.6719 17.849 94.7812 18.2031C94.8958 18.5521 95.0599 18.8594 95.2734 19.125C95.4922 19.3906 95.7552 19.599 96.0625 19.75C96.375 19.901 96.7292 19.9766 97.125 19.9766C97.6354 19.9766 98.0677 19.8724 98.4219 19.6641C98.776 19.4557 99.0859 19.1771 99.3516 18.8281L100.227 19.5234C100.044 19.7995 99.8125 20.0625 99.5312 20.3125C99.25 20.5625 98.9036 20.7656 98.4922 20.9219C98.0859 21.0781 97.6042 21.1562 97.0469 21.1562ZM105.562 12.5469V13.6562H100.992V12.5469H105.562ZM102.539 10.4922H103.984V18.9062C103.984 19.1927 104.029 19.4089 104.117 19.5547C104.206 19.7005 104.32 19.7969 104.461 19.8438C104.602 19.8906 104.753 19.9141 104.914 19.9141C105.034 19.9141 105.159 19.9036 105.289 19.8828C105.424 19.8568 105.526 19.8359 105.594 19.8203L105.602 21C105.487 21.0365 105.336 21.0703 105.148 21.1016C104.966 21.138 104.745 21.1562 104.484 21.1562C104.13 21.1562 103.805 21.0859 103.508 20.9453C103.211 20.8047 102.974 20.5703 102.797 20.2422C102.625 19.9089 102.539 19.4609 102.539 18.8984V10.4922ZM107.195 20.2344C107.195 19.9896 107.271 19.7839 107.422 19.6172C107.578 19.4453 107.802 19.3594 108.094 19.3594C108.385 19.3594 108.607 19.4453 108.758 19.6172C108.914 19.7839 108.992 19.9896 108.992 20.2344C108.992 20.474 108.914 20.6771 108.758 20.8438C108.607 21.0104 108.385 21.0938 108.094 21.0938C107.802 21.0938 107.578 21.0104 107.422 20.8438C107.271 20.6771 107.195 20.474 107.195 20.2344ZM107.203 13.3359C107.203 13.0911 107.279 12.8854 107.43 12.7188C107.586 12.5469 107.81 12.4609 108.102 12.4609C108.393 12.4609 108.615 12.5469 108.766 12.7188C108.922 12.8854 109 13.0911 109 13.3359C109 13.5755 108.922 13.7786 108.766 13.9453C108.615 14.112 108.393 14.1953 108.102 14.1953C107.81 14.1953 107.586 14.112 107.43 13.9453C107.279 13.7786 107.203 13.5755 107.203 13.3359ZM115.32 9.625H119.086C119.94 9.625 120.661 9.75521 121.25 10.0156C121.844 10.276 122.294 10.6615 122.602 11.1719C122.914 11.6771 123.07 12.2995 123.07 13.0391C123.07 13.5599 122.964 14.0365 122.75 14.4688C122.542 14.8958 122.24 15.2604 121.844 15.5625C121.453 15.8594 120.984 16.0807 120.438 16.2266L120.016 16.3906H116.477L116.461 15.1641H119.133C119.674 15.1641 120.125 15.0703 120.484 14.8828C120.844 14.6901 121.115 14.4323 121.297 14.1094C121.479 13.7865 121.57 13.4297 121.57 13.0391C121.57 12.6016 121.484 12.2188 121.312 11.8906C121.141 11.5625 120.87 11.3099 120.5 11.1328C120.135 10.9505 119.664 10.8594 119.086 10.8594H116.828V21H115.32V9.625ZM121.969 21L119.203 15.8438L120.773 15.8359L123.578 20.9062V21H121.969ZM128.469 21.1562C127.88 21.1562 127.346 21.0573 126.867 20.8594C126.393 20.6562 125.984 20.3724 125.641 20.0078C125.302 19.6432 125.042 19.2109 124.859 18.7109C124.677 18.2109 124.586 17.6641 124.586 17.0703V16.7422C124.586 16.0547 124.688 15.4427 124.891 14.9062C125.094 14.3646 125.37 13.9062 125.719 13.5312C126.068 13.1562 126.464 12.8724 126.906 12.6797C127.349 12.487 127.807 12.3906 128.281 12.3906C128.885 12.3906 129.406 12.4948 129.844 12.7031C130.286 12.9115 130.648 13.2031 130.93 13.5781C131.211 13.9479 131.419 14.3854 131.555 14.8906C131.69 15.3906 131.758 15.9375 131.758 16.5312V17.1797H125.445V16H130.312V15.8906C130.292 15.5156 130.214 15.151 130.078 14.7969C129.948 14.4427 129.74 14.151 129.453 13.9219C129.167 13.6927 128.776 13.5781 128.281 13.5781C127.953 13.5781 127.651 13.6484 127.375 13.7891C127.099 13.9245 126.862 14.1276 126.664 14.3984C126.466 14.6693 126.312 15 126.203 15.3906C126.094 15.7812 126.039 16.2318 126.039 16.7422V17.0703C126.039 17.4714 126.094 17.849 126.203 18.2031C126.318 18.5521 126.482 18.8594 126.695 19.125C126.914 19.3906 127.177 19.599 127.484 19.75C127.797 19.901 128.151 19.9766 128.547 19.9766C129.057 19.9766 129.49 19.8724 129.844 19.6641C130.198 19.4557 130.508 19.1771 130.773 18.8281L131.648 19.5234C131.466 19.7995 131.234 20.0625 130.953 20.3125C130.672 20.5625 130.326 20.7656 129.914 20.9219C129.508 21.0781 129.026 21.1562 128.469 21.1562ZM135.906 19.6953L138.219 12.5469H139.695L136.656 21H135.688L135.906 19.6953ZM133.977 12.5469L136.359 19.7344L136.523 21H135.555L132.492 12.5469H133.977ZM144.484 21.1562C143.896 21.1562 143.362 21.0573 142.883 20.8594C142.409 20.6562 142 20.3724 141.656 20.0078C141.318 19.6432 141.057 19.2109 140.875 18.7109C140.693 18.2109 140.602 17.6641 140.602 17.0703V16.7422C140.602 16.0547 140.703 15.4427 140.906 14.9062C141.109 14.3646 141.385 13.9062 141.734 13.5312C142.083 13.1562 142.479 12.8724 142.922 12.6797C143.365 12.487 143.823 12.3906 144.297 12.3906C144.901 12.3906 145.422 12.4948 145.859 12.7031C146.302 12.9115 146.664 13.2031 146.945 13.5781C147.227 13.9479 147.435 14.3854 147.57 14.8906C147.706 15.3906 147.773 15.9375 147.773 16.5312V17.1797H141.461V16H146.328V15.8906C146.307 15.5156 146.229 15.151 146.094 14.7969C145.964 14.4427 145.755 14.151 145.469 13.9219C145.182 13.6927 144.792 13.5781 144.297 13.5781C143.969 13.5781 143.667 13.6484 143.391 13.7891C143.115 13.9245 142.878 14.1276 142.68 14.3984C142.482 14.6693 142.328 15 142.219 15.3906C142.109 15.7812 142.055 16.2318 142.055 16.7422V17.0703C142.055 17.4714 142.109 17.849 142.219 18.2031C142.333 18.5521 142.497 18.8594 142.711 19.125C142.93 19.3906 143.193 19.599 143.5 19.75C143.812 19.901 144.167 19.9766 144.562 19.9766C145.073 19.9766 145.505 19.8724 145.859 19.6641C146.214 19.4557 146.523 19.1771 146.789 18.8281L147.664 19.5234C147.482 19.7995 147.25 20.0625 146.969 20.3125C146.688 20.5625 146.341 20.7656 145.93 20.9219C145.523 21.0781 145.042 21.1562 144.484 21.1562ZM150.906 14.3516V21H149.461V12.5469H150.828L150.906 14.3516ZM150.562 16.4531L149.961 16.4297C149.966 15.8516 150.052 15.3177 150.219 14.8281C150.385 14.3333 150.62 13.9036 150.922 13.5391C151.224 13.1745 151.583 12.8932 152 12.6953C152.422 12.4922 152.888 12.3906 153.398 12.3906C153.815 12.3906 154.19 12.4479 154.523 12.5625C154.857 12.6719 155.141 12.849 155.375 13.0938C155.615 13.3385 155.797 13.6562 155.922 14.0469C156.047 14.4323 156.109 14.9036 156.109 15.4609V21H154.656V15.4453C154.656 15.0026 154.591 14.6484 154.461 14.3828C154.331 14.112 154.141 13.9167 153.891 13.7969C153.641 13.6719 153.333 13.6094 152.969 13.6094C152.609 13.6094 152.281 13.6849 151.984 13.8359C151.693 13.987 151.44 14.1953 151.227 14.4609C151.018 14.7266 150.854 15.0312 150.734 15.375C150.62 15.7135 150.562 16.0729 150.562 16.4531ZM163.289 19.5547V15.2031C163.289 14.8698 163.221 14.5807 163.086 14.3359C162.956 14.0859 162.758 13.8932 162.492 13.7578C162.227 13.6224 161.898 13.5547 161.508 13.5547C161.143 13.5547 160.823 13.6172 160.547 13.7422C160.276 13.8672 160.062 14.0312 159.906 14.2344C159.755 14.4375 159.68 14.6562 159.68 14.8906H158.234C158.234 14.5885 158.312 14.2891 158.469 13.9922C158.625 13.6953 158.849 13.4271 159.141 13.1875C159.438 12.9427 159.792 12.75 160.203 12.6094C160.62 12.4635 161.083 12.3906 161.594 12.3906C162.208 12.3906 162.75 12.4948 163.219 12.7031C163.693 12.9115 164.062 13.2266 164.328 13.6484C164.599 14.0651 164.734 14.5885 164.734 15.2188V19.1562C164.734 19.4375 164.758 19.737 164.805 20.0547C164.857 20.3724 164.932 20.6458 165.031 20.875V21H163.523C163.451 20.8333 163.393 20.612 163.352 20.3359C163.31 20.0547 163.289 19.7943 163.289 19.5547ZM163.539 15.875L163.555 16.8906H162.094C161.682 16.8906 161.315 16.9245 160.992 16.9922C160.669 17.0547 160.398 17.151 160.18 17.2812C159.961 17.4115 159.794 17.5755 159.68 17.7734C159.565 17.9661 159.508 18.1927 159.508 18.4531C159.508 18.7188 159.568 18.9609 159.688 19.1797C159.807 19.3984 159.987 19.5729 160.227 19.7031C160.471 19.8281 160.771 19.8906 161.125 19.8906C161.568 19.8906 161.958 19.7969 162.297 19.6094C162.635 19.4219 162.904 19.1927 163.102 18.9219C163.305 18.651 163.414 18.388 163.43 18.1328L164.047 18.8281C164.01 19.0469 163.911 19.2891 163.75 19.5547C163.589 19.8203 163.372 20.0755 163.102 20.3203C162.836 20.5599 162.518 20.7604 162.148 20.9219C161.784 21.0781 161.372 21.1562 160.914 21.1562C160.341 21.1562 159.839 21.0443 159.406 20.8203C158.979 20.5964 158.646 20.2969 158.406 19.9219C158.172 19.5417 158.055 19.1172 158.055 18.6484C158.055 18.1953 158.143 17.7969 158.32 17.4531C158.497 17.1042 158.753 16.8151 159.086 16.5859C159.419 16.3516 159.82 16.1745 160.289 16.0547C160.758 15.9349 161.281 15.875 161.859 15.875H163.539ZM168.453 14.3516V21H167.008V12.5469H168.375L168.453 14.3516ZM168.109 16.4531L167.508 16.4297C167.513 15.8516 167.599 15.3177 167.766 14.8281C167.932 14.3333 168.167 13.9036 168.469 13.5391C168.771 13.1745 169.13 12.8932 169.547 12.6953C169.969 12.4922 170.435 12.3906 170.945 12.3906C171.362 12.3906 171.737 12.4479 172.07 12.5625C172.404 12.6719 172.688 12.849 172.922 13.0938C173.161 13.3385 173.344 13.6562 173.469 14.0469C173.594 14.4323 173.656 14.9036 173.656 15.4609V21H172.203V15.4453C172.203 15.0026 172.138 14.6484 172.008 14.3828C171.878 14.112 171.688 13.9167 171.438 13.7969C171.188 13.6719 170.88 13.6094 170.516 13.6094C170.156 13.6094 169.828 13.6849 169.531 13.8359C169.24 13.987 168.987 14.1953 168.773 14.4609C168.565 14.7266 168.401 15.0312 168.281 15.375C168.167 15.7135 168.109 16.0729 168.109 16.4531ZM179.391 12.5469V13.6562H174.82V12.5469H179.391ZM176.367 10.4922H177.812V18.9062C177.812 19.1927 177.857 19.4089 177.945 19.5547C178.034 19.7005 178.148 19.7969 178.289 19.8438C178.43 19.8906 178.581 19.9141 178.742 19.9141C178.862 19.9141 178.987 19.9036 179.117 19.8828C179.253 19.8568 179.354 19.8359 179.422 19.8203L179.43 21C179.315 21.0365 179.164 21.0703 178.977 21.1016C178.794 21.138 178.573 21.1562 178.312 21.1562C177.958 21.1562 177.633 21.0859 177.336 20.9453C177.039 20.8047 176.802 20.5703 176.625 20.2422C176.453 19.9089 176.367 19.4609 176.367 18.8984V10.4922ZM186.133 21L188.344 9.625H189.469L187.25 21H186.133ZM189.312 21L191.531 9.625H192.648L190.43 21H189.312ZM193.602 13.9609H185.477V12.875H193.602V13.9609ZM193.016 17.7969H184.883V16.7188H193.016V17.7969ZM200.305 9.60938H200.43V10.8359H200.305C199.539 10.8359 198.898 10.9609 198.383 11.2109C197.867 11.4557 197.458 11.7865 197.156 12.2031C196.854 12.6146 196.635 13.0781 196.5 13.5938C196.37 14.1094 196.305 14.6328 196.305 15.1641V16.8359C196.305 17.3411 196.365 17.7891 196.484 18.1797C196.604 18.5651 196.768 18.8906 196.977 19.1562C197.185 19.4219 197.419 19.6224 197.68 19.7578C197.945 19.8932 198.221 19.9609 198.508 19.9609C198.841 19.9609 199.138 19.8984 199.398 19.7734C199.659 19.6432 199.878 19.4635 200.055 19.2344C200.237 19 200.375 18.724 200.469 18.4062C200.562 18.0885 200.609 17.7396 200.609 17.3594C200.609 17.0208 200.568 16.6953 200.484 16.3828C200.401 16.0651 200.273 15.7839 200.102 15.5391C199.93 15.2891 199.714 15.0938 199.453 14.9531C199.198 14.8073 198.893 14.7344 198.539 14.7344C198.138 14.7344 197.763 14.8333 197.414 15.0312C197.07 15.224 196.786 15.4792 196.562 15.7969C196.344 16.1094 196.219 16.4505 196.188 16.8203L195.422 16.8125C195.495 16.2292 195.63 15.7318 195.828 15.3203C196.031 14.9036 196.281 14.5651 196.578 14.3047C196.88 14.0391 197.216 13.8464 197.586 13.7266C197.961 13.6016 198.357 13.5391 198.773 13.5391C199.341 13.5391 199.831 13.6458 200.242 13.8594C200.654 14.0729 200.992 14.3594 201.258 14.7188C201.523 15.0729 201.719 15.474 201.844 15.9219C201.974 16.3646 202.039 16.8203 202.039 17.2891C202.039 17.8255 201.964 18.3281 201.812 18.7969C201.661 19.2656 201.435 19.6771 201.133 20.0312C200.836 20.3854 200.469 20.6615 200.031 20.8594C199.594 21.0573 199.086 21.1562 198.508 21.1562C197.893 21.1562 197.357 21.0312 196.898 20.7812C196.44 20.526 196.06 20.1875 195.758 19.7656C195.456 19.3438 195.229 18.875 195.078 18.3594C194.927 17.8438 194.852 17.3203 194.852 16.7891V16.1094C194.852 15.3073 194.932 14.5208 195.094 13.75C195.255 12.9792 195.534 12.2812 195.93 11.6562C196.331 11.0312 196.885 10.5339 197.594 10.1641C198.302 9.79427 199.206 9.60938 200.305 9.60938ZM211.211 19.8125V21H203.766V19.9609L207.492 15.8125C207.951 15.3021 208.305 14.8698 208.555 14.5156C208.81 14.1562 208.987 13.8359 209.086 13.5547C209.19 13.2682 209.242 12.9766 209.242 12.6797C209.242 12.3047 209.164 11.9661 209.008 11.6641C208.857 11.3568 208.633 11.112 208.336 10.9297C208.039 10.7474 207.68 10.6562 207.258 10.6562C206.753 10.6562 206.331 10.7552 205.992 10.9531C205.659 11.1458 205.409 11.4167 205.242 11.7656C205.076 12.1146 204.992 12.5156 204.992 12.9688H203.547C203.547 12.3281 203.688 11.7422 203.969 11.2109C204.25 10.6797 204.667 10.2578 205.219 9.94531C205.771 9.6276 206.451 9.46875 207.258 9.46875C207.977 9.46875 208.591 9.59635 209.102 9.85156C209.612 10.1016 210.003 10.4557 210.273 10.9141C210.549 11.3672 210.688 11.8984 210.688 12.5078C210.688 12.8411 210.63 13.1797 210.516 13.5234C210.406 13.862 210.253 14.2005 210.055 14.5391C209.862 14.8776 209.635 15.2109 209.375 15.5391C209.12 15.8672 208.846 16.1901 208.555 16.5078L205.508 19.8125H211.211Z" fill="white"/>
<path d="M73.5625 38.1367V39.0566H68.9453V38.1367H73.5625ZM69.1211 34.4688V43H67.9902V34.4688H69.1211ZM74.5469 34.4688V43H73.4219V34.4688H74.5469ZM80.1309 41.916V38.6523C80.1309 38.4023 80.0801 38.1855 79.9785 38.002C79.8809 37.8145 79.7324 37.6699 79.5332 37.5684C79.334 37.4668 79.0879 37.416 78.7949 37.416C78.5215 37.416 78.2812 37.4629 78.0742 37.5566C77.8711 37.6504 77.7109 37.7734 77.5938 37.9258C77.4805 38.0781 77.4238 38.2422 77.4238 38.418H76.3398C76.3398 38.1914 76.3984 37.9668 76.5156 37.7441C76.6328 37.5215 76.8008 37.3203 77.0195 37.1406C77.2422 36.957 77.5078 36.8125 77.8164 36.707C78.1289 36.5977 78.4766 36.543 78.8594 36.543C79.3203 36.543 79.7266 36.6211 80.0781 36.7773C80.4336 36.9336 80.7109 37.1699 80.9102 37.4863C81.1133 37.7988 81.2148 38.1914 81.2148 38.6641V41.6172C81.2148 41.8281 81.2324 42.0527 81.2676 42.291C81.3066 42.5293 81.3633 42.7344 81.4375 42.9062V43H80.3066C80.252 42.875 80.209 42.709 80.1777 42.502C80.1465 42.291 80.1309 42.0957 80.1309 41.916ZM80.3184 39.1562L80.3301 39.918H79.2344C78.9258 39.918 78.6504 39.9434 78.4082 39.9941C78.166 40.041 77.9629 40.1133 77.7988 40.2109C77.6348 40.3086 77.5098 40.4316 77.4238 40.5801C77.3379 40.7246 77.2949 40.8945 77.2949 41.0898C77.2949 41.2891 77.3398 41.4707 77.4297 41.6348C77.5195 41.7988 77.6543 41.9297 77.834 42.0273C78.0176 42.1211 78.2422 42.168 78.5078 42.168C78.8398 42.168 79.1328 42.0977 79.3867 41.957C79.6406 41.8164 79.8418 41.6445 79.9902 41.4414C80.1426 41.2383 80.2246 41.041 80.2363 40.8496L80.6992 41.3711C80.6719 41.5352 80.5977 41.7168 80.4766 41.916C80.3555 42.1152 80.1934 42.3066 79.9902 42.4902C79.791 42.6699 79.5527 42.8203 79.2754 42.9414C79.002 43.0586 78.6934 43.1172 78.3496 43.1172C77.9199 43.1172 77.543 43.0332 77.2188 42.8652C76.8984 42.6973 76.6484 42.4727 76.4688 42.1914C76.293 41.9062 76.2051 41.5879 76.2051 41.2363C76.2051 40.8965 76.2715 40.5977 76.4043 40.3398C76.5371 40.0781 76.7285 39.8613 76.9785 39.6895C77.2285 39.5137 77.5293 39.3809 77.8809 39.291C78.2324 39.2012 78.625 39.1562 79.0586 39.1562H80.3184ZM86.6113 41.3184C86.6113 41.1621 86.5762 41.0176 86.5059 40.8848C86.4395 40.748 86.3008 40.625 86.0898 40.5156C85.8828 40.4023 85.5703 40.3047 85.1523 40.2227C84.8008 40.1484 84.4824 40.0605 84.1973 39.959C83.916 39.8574 83.6758 39.7344 83.4766 39.5898C83.2812 39.4453 83.1309 39.2754 83.0254 39.0801C82.9199 38.8848 82.8672 38.6562 82.8672 38.3945C82.8672 38.1445 82.9219 37.9082 83.0312 37.6855C83.1445 37.4629 83.3027 37.2656 83.5059 37.0938C83.7129 36.9219 83.9609 36.7871 84.25 36.6895C84.5391 36.5918 84.8613 36.543 85.2168 36.543C85.7246 36.543 86.1582 36.6328 86.5176 36.8125C86.877 36.9922 87.1523 37.2324 87.3438 37.5332C87.5352 37.8301 87.6309 38.1602 87.6309 38.5234H86.5469C86.5469 38.3477 86.4941 38.1777 86.3887 38.0137C86.2871 37.8457 86.1367 37.707 85.9375 37.5977C85.7422 37.4883 85.502 37.4336 85.2168 37.4336C84.916 37.4336 84.6719 37.4805 84.4844 37.5742C84.3008 37.6641 84.166 37.7793 84.0801 37.9199C83.998 38.0605 83.957 38.209 83.957 38.3652C83.957 38.4824 83.9766 38.5879 84.0156 38.6816C84.0586 38.7715 84.1328 38.8555 84.2383 38.9336C84.3438 39.0078 84.4922 39.0781 84.6836 39.1445C84.875 39.2109 85.1191 39.2773 85.416 39.3438C85.9355 39.4609 86.3633 39.6016 86.6992 39.7656C87.0352 39.9297 87.2852 40.1309 87.4492 40.3691C87.6133 40.6074 87.6953 40.8965 87.6953 41.2363C87.6953 41.5137 87.6367 41.7676 87.5195 41.998C87.4062 42.2285 87.2402 42.4277 87.0215 42.5957C86.8066 42.7598 86.5488 42.8887 86.248 42.9824C85.9512 43.0723 85.6172 43.1172 85.2461 43.1172C84.6875 43.1172 84.2148 43.0176 83.8281 42.8184C83.4414 42.6191 83.1484 42.3613 82.9492 42.0449C82.75 41.7285 82.6504 41.3945 82.6504 41.043H83.7402C83.7559 41.3398 83.8418 41.5762 83.998 41.752C84.1543 41.9238 84.3457 42.0469 84.5723 42.1211C84.7988 42.1914 85.0234 42.2266 85.2461 42.2266C85.543 42.2266 85.791 42.1875 85.9902 42.1094C86.1934 42.0312 86.3477 41.9238 86.4531 41.7871C86.5586 41.6504 86.6113 41.4941 86.6113 41.3184ZM92.0898 34H93.1797V41.7695L93.0859 43H92.0898V34ZM97.4629 39.7773V39.9004C97.4629 40.3613 97.4082 40.7891 97.2988 41.1836C97.1895 41.5742 97.0293 41.9141 96.8184 42.2031C96.6074 42.4922 96.3496 42.7168 96.0449 42.877C95.7402 43.0371 95.3906 43.1172 94.9961 43.1172C94.5938 43.1172 94.2402 43.0488 93.9355 42.9121C93.6348 42.7715 93.3809 42.5703 93.1738 42.3086C92.9668 42.0469 92.8008 41.7305 92.6758 41.3594C92.5547 40.9883 92.4707 40.5703 92.4238 40.1055V39.5664C92.4707 39.0977 92.5547 38.6777 92.6758 38.3066C92.8008 37.9355 92.9668 37.6191 93.1738 37.3574C93.3809 37.0918 93.6348 36.8906 93.9355 36.7539C94.2363 36.6133 94.5859 36.543 94.9844 36.543C95.3828 36.543 95.7363 36.6211 96.0449 36.7773C96.3535 36.9297 96.6113 37.1484 96.8184 37.4336C97.0293 37.7188 97.1895 38.0605 97.2988 38.459C97.4082 38.8535 97.4629 39.293 97.4629 39.7773ZM96.373 39.9004V39.7773C96.373 39.4609 96.3438 39.1641 96.2852 38.8867C96.2266 38.6055 96.1328 38.3594 96.0039 38.1484C95.875 37.9336 95.7051 37.7656 95.4941 37.6445C95.2832 37.5195 95.0234 37.457 94.7148 37.457C94.4414 37.457 94.2031 37.5039 94 37.5977C93.8008 37.6914 93.6309 37.8184 93.4902 37.9785C93.3496 38.1348 93.2344 38.3145 93.1445 38.5176C93.0586 38.7168 92.9941 38.9238 92.9512 39.1387V40.5508C93.0137 40.8242 93.1152 41.0879 93.2559 41.3418C93.4004 41.5918 93.5918 41.7969 93.8301 41.957C94.0723 42.1172 94.3711 42.1973 94.7266 42.1973C95.0195 42.1973 95.2695 42.1387 95.4766 42.0215C95.6875 41.9004 95.8574 41.7344 95.9863 41.5234C96.1191 41.3125 96.2168 41.0684 96.2793 40.791C96.3418 40.5137 96.373 40.2168 96.373 39.9004ZM101.465 43.1172C101.023 43.1172 100.623 43.043 100.264 42.8945C99.9082 42.7422 99.6016 42.5293 99.3438 42.2559C99.0898 41.9824 98.8945 41.6582 98.7578 41.2832C98.6211 40.9082 98.5527 40.498 98.5527 40.0527V39.8066C98.5527 39.291 98.6289 38.832 98.7812 38.4297C98.9336 38.0234 99.1406 37.6797 99.4023 37.3984C99.6641 37.1172 99.9609 36.9043 100.293 36.7598C100.625 36.6152 100.969 36.543 101.324 36.543C101.777 36.543 102.168 36.6211 102.496 36.7773C102.828 36.9336 103.1 37.1523 103.311 37.4336C103.521 37.7109 103.678 38.0391 103.779 38.418C103.881 38.793 103.932 39.2031 103.932 39.6484V40.1348H99.1973V39.25H102.848V39.168C102.832 38.8867 102.773 38.6133 102.672 38.3477C102.574 38.082 102.418 37.8633 102.203 37.6914C101.988 37.5195 101.695 37.4336 101.324 37.4336C101.078 37.4336 100.852 37.4863 100.645 37.5918C100.438 37.6934 100.26 37.8457 100.111 38.0488C99.9629 38.252 99.8477 38.5 99.7656 38.793C99.6836 39.0859 99.6426 39.4238 99.6426 39.8066V40.0527C99.6426 40.3535 99.6836 40.6367 99.7656 40.9023C99.8516 41.1641 99.9746 41.3945 100.135 41.5938C100.299 41.793 100.496 41.9492 100.727 42.0625C100.961 42.1758 101.227 42.2324 101.523 42.2324C101.906 42.2324 102.23 42.1543 102.496 41.998C102.762 41.8418 102.994 41.6328 103.193 41.3711L103.85 41.8926C103.713 42.0996 103.539 42.2969 103.328 42.4844C103.117 42.6719 102.857 42.8242 102.549 42.9414C102.244 43.0586 101.883 43.1172 101.465 43.1172ZM107.828 43.1172C107.387 43.1172 106.986 43.043 106.627 42.8945C106.271 42.7422 105.965 42.5293 105.707 42.2559C105.453 41.9824 105.258 41.6582 105.121 41.2832C104.984 40.9082 104.916 40.498 104.916 40.0527V39.8066C104.916 39.291 104.992 38.832 105.145 38.4297C105.297 38.0234 105.504 37.6797 105.766 37.3984C106.027 37.1172 106.324 36.9043 106.656 36.7598C106.988 36.6152 107.332 36.543 107.688 36.543C108.141 36.543 108.531 36.6211 108.859 36.7773C109.191 36.9336 109.463 37.1523 109.674 37.4336C109.885 37.7109 110.041 38.0391 110.143 38.418C110.244 38.793 110.295 39.2031 110.295 39.6484V40.1348H105.561V39.25H109.211V39.168C109.195 38.8867 109.137 38.6133 109.035 38.3477C108.938 38.082 108.781 37.8633 108.566 37.6914C108.352 37.5195 108.059 37.4336 107.688 37.4336C107.441 37.4336 107.215 37.4863 107.008 37.5918C106.801 37.6934 106.623 37.8457 106.475 38.0488C106.326 38.252 106.211 38.5 106.129 38.793C106.047 39.0859 106.006 39.4238 106.006 39.8066V40.0527C106.006 40.3535 106.047 40.6367 106.129 40.9023C106.215 41.1641 106.338 41.3945 106.498 41.5938C106.662 41.793 106.859 41.9492 107.09 42.0625C107.324 42.1758 107.59 42.2324 107.887 42.2324C108.27 42.2324 108.594 42.1543 108.859 41.998C109.125 41.8418 109.357 41.6328 109.557 41.3711L110.213 41.8926C110.076 42.0996 109.902 42.2969 109.691 42.4844C109.48 42.6719 109.221 42.8242 108.912 42.9414C108.607 43.0586 108.246 43.1172 107.828 43.1172ZM112.645 38.0137V43H111.561V36.6602H112.586L112.645 38.0137ZM112.387 39.5898L111.936 39.5723C111.939 39.1387 112.004 38.7383 112.129 38.3711C112.254 38 112.43 37.6777 112.656 37.4043C112.883 37.1309 113.152 36.9199 113.465 36.7715C113.781 36.6191 114.131 36.543 114.514 36.543C114.826 36.543 115.107 36.5859 115.357 36.6719C115.607 36.7539 115.82 36.8867 115.996 37.0703C116.176 37.2539 116.312 37.4922 116.406 37.7852C116.5 38.0742 116.547 38.4277 116.547 38.8457V43H115.457V38.834C115.457 38.502 115.408 38.2363 115.311 38.0371C115.213 37.834 115.07 37.6875 114.883 37.5977C114.695 37.5039 114.465 37.457 114.191 37.457C113.922 37.457 113.676 37.5137 113.453 37.627C113.234 37.7402 113.045 37.8965 112.885 38.0957C112.729 38.2949 112.605 38.5234 112.516 38.7812C112.43 39.0352 112.387 39.3047 112.387 39.5898ZM124.861 41.3184C124.861 41.1621 124.826 41.0176 124.756 40.8848C124.689 40.748 124.551 40.625 124.34 40.5156C124.133 40.4023 123.82 40.3047 123.402 40.2227C123.051 40.1484 122.732 40.0605 122.447 39.959C122.166 39.8574 121.926 39.7344 121.727 39.5898C121.531 39.4453 121.381 39.2754 121.275 39.0801C121.17 38.8848 121.117 38.6562 121.117 38.3945C121.117 38.1445 121.172 37.9082 121.281 37.6855C121.395 37.4629 121.553 37.2656 121.756 37.0938C121.963 36.9219 122.211 36.7871 122.5 36.6895C122.789 36.5918 123.111 36.543 123.467 36.543C123.975 36.543 124.408 36.6328 124.768 36.8125C125.127 36.9922 125.402 37.2324 125.594 37.5332C125.785 37.8301 125.881 38.1602 125.881 38.5234H124.797C124.797 38.3477 124.744 38.1777 124.639 38.0137C124.537 37.8457 124.387 37.707 124.188 37.5977C123.992 37.4883 123.752 37.4336 123.467 37.4336C123.166 37.4336 122.922 37.4805 122.734 37.5742C122.551 37.6641 122.416 37.7793 122.33 37.9199C122.248 38.0605 122.207 38.209 122.207 38.3652C122.207 38.4824 122.227 38.5879 122.266 38.6816C122.309 38.7715 122.383 38.8555 122.488 38.9336C122.594 39.0078 122.742 39.0781 122.934 39.1445C123.125 39.2109 123.369 39.2773 123.666 39.3438C124.186 39.4609 124.613 39.6016 124.949 39.7656C125.285 39.9297 125.535 40.1309 125.699 40.3691C125.863 40.6074 125.945 40.8965 125.945 41.2363C125.945 41.5137 125.887 41.7676 125.77 41.998C125.656 42.2285 125.49 42.4277 125.271 42.5957C125.057 42.7598 124.799 42.8887 124.498 42.9824C124.201 43.0723 123.867 43.1172 123.496 43.1172C122.938 43.1172 122.465 43.0176 122.078 42.8184C121.691 42.6191 121.398 42.3613 121.199 42.0449C121 41.7285 120.9 41.3945 120.9 41.043H121.99C122.006 41.3398 122.092 41.5762 122.248 41.752C122.404 41.9238 122.596 42.0469 122.822 42.1211C123.049 42.1914 123.273 42.2266 123.496 42.2266C123.793 42.2266 124.041 42.1875 124.24 42.1094C124.443 42.0312 124.598 41.9238 124.703 41.7871C124.809 41.6504 124.861 41.4941 124.861 41.3184ZM127.082 39.9004V39.7656C127.082 39.3086 127.148 38.8848 127.281 38.4941C127.414 38.0996 127.605 37.7578 127.855 37.4688C128.105 37.1758 128.408 36.9492 128.764 36.7891C129.119 36.625 129.518 36.543 129.959 36.543C130.404 36.543 130.805 36.625 131.16 36.7891C131.52 36.9492 131.824 37.1758 132.074 37.4688C132.328 37.7578 132.521 38.0996 132.654 38.4941C132.787 38.8848 132.854 39.3086 132.854 39.7656V39.9004C132.854 40.3574 132.787 40.7812 132.654 41.1719C132.521 41.5625 132.328 41.9043 132.074 42.1973C131.824 42.4863 131.521 42.7129 131.166 42.877C130.814 43.0371 130.416 43.1172 129.971 43.1172C129.525 43.1172 129.125 43.0371 128.77 42.877C128.414 42.7129 128.109 42.4863 127.855 42.1973C127.605 41.9043 127.414 41.5625 127.281 41.1719C127.148 40.7812 127.082 40.3574 127.082 39.9004ZM128.166 39.7656V39.9004C128.166 40.2168 128.203 40.5156 128.277 40.7969C128.352 41.0742 128.463 41.3203 128.611 41.5352C128.764 41.75 128.953 41.9199 129.18 42.0449C129.406 42.166 129.67 42.2266 129.971 42.2266C130.268 42.2266 130.527 42.166 130.75 42.0449C130.977 41.9199 131.164 41.75 131.312 41.5352C131.461 41.3203 131.572 41.0742 131.646 40.7969C131.725 40.5156 131.764 40.2168 131.764 39.9004V39.7656C131.764 39.4531 131.725 39.1582 131.646 38.8809C131.572 38.5996 131.459 38.3516 131.307 38.1367C131.158 37.918 130.971 37.7461 130.744 37.6211C130.521 37.4961 130.26 37.4336 129.959 37.4336C129.662 37.4336 129.4 37.4961 129.174 37.6211C128.951 37.7461 128.764 37.918 128.611 38.1367C128.463 38.3516 128.352 38.5996 128.277 38.8809C128.203 39.1582 128.166 39.4531 128.166 39.7656ZM135.391 34V43H134.301V34H135.391ZM141.127 41.7695V34H142.217V43H141.221L141.127 41.7695ZM136.861 39.9004V39.7773C136.861 39.293 136.92 38.8535 137.037 38.459C137.158 38.0605 137.328 37.7188 137.547 37.4336C137.77 37.1484 138.033 36.9297 138.338 36.7773C138.646 36.6211 138.99 36.543 139.369 36.543C139.768 36.543 140.115 36.6133 140.412 36.7539C140.713 36.8906 140.967 37.0918 141.174 37.3574C141.385 37.6191 141.551 37.9355 141.672 38.3066C141.793 38.6777 141.877 39.0977 141.924 39.5664V40.1055C141.881 40.5703 141.797 40.9883 141.672 41.3594C141.551 41.7305 141.385 42.0469 141.174 42.3086C140.967 42.5703 140.713 42.7715 140.412 42.9121C140.111 43.0488 139.76 43.1172 139.357 43.1172C138.986 43.1172 138.646 43.0371 138.338 42.877C138.033 42.7168 137.77 42.4922 137.547 42.2031C137.328 41.9141 137.158 41.5742 137.037 41.1836C136.92 40.7891 136.861 40.3613 136.861 39.9004ZM137.951 39.7773V39.9004C137.951 40.2168 137.982 40.5137 138.045 40.791C138.111 41.0684 138.213 41.3125 138.35 41.5234C138.486 41.7344 138.66 41.9004 138.871 42.0215C139.082 42.1387 139.334 42.1973 139.627 42.1973C139.986 42.1973 140.281 42.1211 140.512 41.9688C140.746 41.8164 140.934 41.6152 141.074 41.3652C141.215 41.1152 141.324 40.8438 141.402 40.5508V39.1387C141.355 38.9238 141.287 38.7168 141.197 38.5176C141.111 38.3145 140.998 38.1348 140.857 37.9785C140.721 37.8184 140.551 37.6914 140.348 37.5977C140.148 37.5039 139.912 37.457 139.639 37.457C139.342 37.457 139.086 37.5195 138.871 37.6445C138.66 37.7656 138.486 37.9336 138.35 38.1484C138.213 38.3594 138.111 38.6055 138.045 38.8867C137.982 39.1641 137.951 39.4609 137.951 39.7773ZM179.172 42.4258C179.172 42.2422 179.229 42.0879 179.342 41.9629C179.459 41.834 179.627 41.7695 179.846 41.7695C180.064 41.7695 180.23 41.834 180.344 41.9629C180.461 42.0879 180.52 42.2422 180.52 42.4258C180.52 42.6055 180.461 42.7578 180.344 42.8828C180.23 43.0078 180.064 43.0703 179.846 43.0703C179.627 43.0703 179.459 43.0078 179.342 42.8828C179.229 42.7578 179.172 42.6055 179.172 42.4258Z" fill="#827D9D"/>
<path d="M152.354 42.1094V43H146.77V42.2207L149.564 39.1094C149.908 38.7266 150.174 38.4023 150.361 38.1367C150.553 37.8672 150.686 37.627 150.76 37.416C150.838 37.2012 150.877 36.9824 150.877 36.7598C150.877 36.4785 150.818 36.2246 150.701 35.998C150.588 35.7676 150.42 35.584 150.197 35.4473C149.975 35.3105 149.705 35.2422 149.389 35.2422C149.01 35.2422 148.693 35.3164 148.439 35.4648C148.189 35.6094 148.002 35.8125 147.877 36.0742C147.752 36.3359 147.689 36.6367 147.689 36.9766H146.605C146.605 36.4961 146.711 36.0566 146.922 35.6582C147.133 35.2598 147.445 34.9434 147.859 34.709C148.273 34.4707 148.783 34.3516 149.389 34.3516C149.928 34.3516 150.389 34.4473 150.771 34.6387C151.154 34.8262 151.447 35.0918 151.65 35.4355C151.857 35.7754 151.961 36.1738 151.961 36.6309C151.961 36.8809 151.918 37.1348 151.832 37.3926C151.75 37.6465 151.635 37.9004 151.486 38.1543C151.342 38.4082 151.172 38.6582 150.977 38.9043C150.785 39.1504 150.58 39.3926 150.361 39.6309L148.076 42.1094H152.354ZM162.191 42.0801V43H157.674V42.0801H162.191ZM157.902 34.4688V43H156.771V34.4688H157.902ZM161.594 38.1367V39.0566H157.674V38.1367H161.594ZM162.133 34.4688V35.3945H157.674V34.4688H162.133ZM166.744 34.4688V43H165.631V34.4688H166.744ZM169.486 34.4688V35.3945H162.895V34.4688H169.486ZM176.324 38.1367V39.0566H171.707V38.1367H176.324ZM171.883 34.4688V43H170.752V34.4688H171.883ZM177.309 34.4688V43H176.184V34.4688H177.309Z" fill="#00A2FD"/>
</g>
<path d="M73.2988 70.1094V71H67.7148V70.2207L70.5098 67.1094C70.8535 66.7266 71.1191 66.4023 71.3066 66.1367C71.498 65.8672 71.6309 65.627 71.7051 65.416C71.7832 65.2012 71.8223 64.9824 71.8223 64.7598C71.8223 64.4785 71.7637 64.2246 71.6465 63.998C71.5332 63.7676 71.3652 63.584 71.1426 63.4473C70.9199 63.3105 70.6504 63.2422 70.334 63.2422C69.9551 63.2422 69.6387 63.3164 69.3848 63.4648C69.1348 63.6094 68.9473 63.8125 68.8223 64.0742C68.6973 64.3359 68.6348 64.6367 68.6348 64.9766H67.5508C67.5508 64.4961 67.6562 64.0566 67.8672 63.6582C68.0781 63.2598 68.3906 62.9434 68.8047 62.709C69.2188 62.4707 69.7285 62.3516 70.334 62.3516C70.873 62.3516 71.334 62.4473 71.7168 62.6387C72.0996 62.8262 72.3926 63.0918 72.5957 63.4355C72.8027 63.7754 72.9062 64.1738 72.9062 64.6309C72.9062 64.8809 72.8633 65.1348 72.7773 65.3926C72.6953 65.6465 72.5801 65.9004 72.4316 66.1543C72.2871 66.4082 72.1172 66.6582 71.9219 66.9043C71.7305 67.1504 71.5254 67.3926 71.3066 67.6309L69.0215 70.1094H73.2988ZM79.9727 62.4688V63.0781L76.4395 71H75.2969L78.8242 63.3594H74.207V62.4688H79.9727ZM91.0352 66.4648V67.0039C91.0352 67.6445 90.9551 68.2188 90.7949 68.7266C90.6348 69.2344 90.4043 69.666 90.1035 70.0215C89.8027 70.377 89.4414 70.6484 89.0195 70.8359C88.6016 71.0234 88.1328 71.1172 87.6133 71.1172C87.1094 71.1172 86.6465 71.0234 86.2246 70.8359C85.8066 70.6484 85.4434 70.377 85.1348 70.0215C84.8301 69.666 84.5938 69.2344 84.4258 68.7266C84.2578 68.2188 84.1738 67.6445 84.1738 67.0039V66.4648C84.1738 65.8242 84.2559 65.252 84.4199 64.748C84.5879 64.2402 84.8242 63.8086 85.1289 63.4531C85.4336 63.0938 85.7949 62.8203 86.2129 62.6328C86.6348 62.4453 87.0977 62.3516 87.6016 62.3516C88.1211 62.3516 88.5898 62.4453 89.0078 62.6328C89.4297 62.8203 89.791 63.0938 90.0918 63.4531C90.3965 63.8086 90.6289 64.2402 90.7891 64.748C90.9531 65.252 91.0352 65.8242 91.0352 66.4648ZM89.916 67.0039V66.4531C89.916 65.9453 89.8633 65.4961 89.7578 65.1055C89.6562 64.7148 89.5059 64.3867 89.3066 64.1211C89.1074 63.8555 88.8633 63.6543 88.5742 63.5176C88.2891 63.3809 87.9648 63.3125 87.6016 63.3125C87.25 63.3125 86.9316 63.3809 86.6465 63.5176C86.3652 63.6543 86.123 63.8555 85.9199 64.1211C85.7207 64.3867 85.5664 64.7148 85.457 65.1055C85.3477 65.4961 85.293 65.9453 85.293 66.4531V67.0039C85.293 67.5156 85.3477 67.9688 85.457 68.3633C85.5664 68.7539 85.7227 69.084 85.9258 69.3535C86.1328 69.6191 86.377 69.8203 86.6582 69.957C86.9434 70.0938 87.2617 70.1621 87.6133 70.1621C87.9805 70.1621 88.3066 70.0938 88.5918 69.957C88.877 69.8203 89.1172 69.6191 89.3125 69.3535C89.5117 69.084 89.6621 68.7539 89.7637 68.3633C89.8652 67.9688 89.916 67.5156 89.916 67.0039ZM95.1016 70.2266C95.3594 70.2266 95.5977 70.1738 95.8164 70.0684C96.0352 69.9629 96.2148 69.8184 96.3555 69.6348C96.4961 69.4473 96.5762 69.2344 96.5957 68.9961H97.627C97.6074 69.3711 97.4805 69.7207 97.2461 70.0449C97.0156 70.3652 96.7129 70.625 96.3379 70.8242C95.9629 71.0195 95.5508 71.1172 95.1016 71.1172C94.625 71.1172 94.209 71.0332 93.8535 70.8652C93.502 70.6973 93.209 70.4668 92.9746 70.1738C92.7441 69.8809 92.5703 69.5449 92.4531 69.166C92.3398 68.7832 92.2832 68.3789 92.2832 67.9531V67.707C92.2832 67.2812 92.3398 66.8789 92.4531 66.5C92.5703 66.1172 92.7441 65.7793 92.9746 65.4863C93.209 65.1934 93.502 64.9629 93.8535 64.7949C94.209 64.627 94.625 64.543 95.1016 64.543C95.5977 64.543 96.0312 64.6445 96.4023 64.8477C96.7734 65.0469 97.0645 65.3203 97.2754 65.668C97.4902 66.0117 97.6074 66.4023 97.627 66.8398H96.5957C96.5762 66.5781 96.502 66.3418 96.373 66.1309C96.248 65.9199 96.0762 65.752 95.8574 65.627C95.6426 65.498 95.3906 65.4336 95.1016 65.4336C94.7695 65.4336 94.4902 65.5 94.2637 65.6328C94.041 65.7617 93.8633 65.9375 93.7305 66.1602C93.6016 66.3789 93.5078 66.623 93.4492 66.8926C93.3945 67.1582 93.3672 67.4297 93.3672 67.707V67.9531C93.3672 68.2305 93.3945 68.5039 93.4492 68.7734C93.5039 69.043 93.5957 69.2871 93.7246 69.5059C93.8574 69.7246 94.0352 69.9004 94.2578 70.0332C94.4844 70.1621 94.7656 70.2266 95.1016 70.2266ZM101.5 64.6602V65.4922H98.0723V64.6602H101.5ZM99.2324 63.1191H100.316V69.4297C100.316 69.6445 100.35 69.8066 100.416 69.916C100.482 70.0254 100.568 70.0977 100.674 70.1328C100.779 70.168 100.893 70.1855 101.014 70.1855C101.104 70.1855 101.197 70.1777 101.295 70.1621C101.396 70.1426 101.473 70.127 101.523 70.1152L101.529 71C101.443 71.0273 101.33 71.0527 101.189 71.0762C101.053 71.1035 100.887 71.1172 100.691 71.1172C100.426 71.1172 100.182 71.0645 99.959 70.959C99.7363 70.8535 99.5586 70.6777 99.4258 70.4316C99.2969 70.1816 99.2324 69.8457 99.2324 69.4238V63.1191ZM111.221 70.1094V71H105.637V70.2207L108.432 67.1094C108.775 66.7266 109.041 66.4023 109.229 66.1367C109.42 65.8672 109.553 65.627 109.627 65.416C109.705 65.2012 109.744 64.9824 109.744 64.7598C109.744 64.4785 109.686 64.2246 109.568 63.998C109.455 63.7676 109.287 63.584 109.064 63.4473C108.842 63.3105 108.572 63.2422 108.256 63.2422C107.877 63.2422 107.561 63.3164 107.307 63.4648C107.057 63.6094 106.869 63.8125 106.744 64.0742C106.619 64.3359 106.557 64.6367 106.557 64.9766H105.473C105.473 64.4961 105.578 64.0566 105.789 63.6582C106 63.2598 106.312 62.9434 106.727 62.709C107.141 62.4707 107.65 62.3516 108.256 62.3516C108.795 62.3516 109.256 62.4473 109.639 62.6387C110.021 62.8262 110.314 63.0918 110.518 63.4355C110.725 63.7754 110.828 64.1738 110.828 64.6309C110.828 64.8809 110.785 65.1348 110.699 65.3926C110.617 65.6465 110.502 65.9004 110.354 66.1543C110.209 66.4082 110.039 66.6582 109.844 66.9043C109.652 67.1504 109.447 67.3926 109.229 67.6309L106.943 70.1094H111.221ZM117.736 66.0547V67.3555C117.736 68.0547 117.674 68.6445 117.549 69.125C117.424 69.6055 117.244 69.9922 117.01 70.2852C116.775 70.5781 116.492 70.791 116.16 70.9238C115.832 71.0527 115.461 71.1172 115.047 71.1172C114.719 71.1172 114.416 71.0762 114.139 70.9941C113.861 70.9121 113.611 70.7812 113.389 70.6016C113.17 70.418 112.982 70.1797 112.826 69.8867C112.67 69.5938 112.551 69.2383 112.469 68.8203C112.387 68.4023 112.346 67.9141 112.346 67.3555V66.0547C112.346 65.3555 112.408 64.7695 112.533 64.2969C112.662 63.8242 112.844 63.4453 113.078 63.1602C113.312 62.8711 113.594 62.6641 113.922 62.5391C114.254 62.4141 114.625 62.3516 115.035 62.3516C115.367 62.3516 115.672 62.3926 115.949 62.4746C116.23 62.5527 116.48 62.6797 116.699 62.8555C116.918 63.0273 117.104 63.2578 117.256 63.5469C117.412 63.832 117.531 64.1816 117.613 64.5957C117.695 65.0098 117.736 65.4961 117.736 66.0547ZM116.646 67.5312V65.873C116.646 65.4902 116.623 65.1543 116.576 64.8652C116.533 64.5723 116.469 64.3223 116.383 64.1152C116.297 63.9082 116.188 63.7402 116.055 63.6113C115.926 63.4824 115.775 63.3887 115.604 63.3301C115.436 63.2676 115.246 63.2363 115.035 63.2363C114.777 63.2363 114.549 63.2852 114.35 63.3828C114.15 63.4766 113.982 63.627 113.846 63.834C113.713 64.041 113.611 64.3125 113.541 64.6484C113.471 64.9844 113.436 65.3926 113.436 65.873V67.5312C113.436 67.9141 113.457 68.252 113.5 68.5449C113.547 68.8379 113.615 69.0918 113.705 69.3066C113.795 69.5176 113.904 69.6914 114.033 69.8281C114.162 69.9648 114.311 70.0664 114.479 70.1328C114.65 70.1953 114.84 70.2266 115.047 70.2266C115.312 70.2266 115.545 70.1758 115.744 70.0742C115.943 69.9727 116.109 69.8145 116.242 69.5996C116.379 69.3809 116.48 69.1016 116.547 68.7617C116.613 68.418 116.646 68.0078 116.646 67.5312ZM124.721 70.1094V71H119.137V70.2207L121.932 67.1094C122.275 66.7266 122.541 66.4023 122.729 66.1367C122.92 65.8672 123.053 65.627 123.127 65.416C123.205 65.2012 123.244 64.9824 123.244 64.7598C123.244 64.4785 123.186 64.2246 123.068 63.998C122.955 63.7676 122.787 63.584 122.564 63.4473C122.342 63.3105 122.072 63.2422 121.756 63.2422C121.377 63.2422 121.061 63.3164 120.807 63.4648C120.557 63.6094 120.369 63.8125 120.244 64.0742C120.119 64.3359 120.057 64.6367 120.057 64.9766H118.973C118.973 64.4961 119.078 64.0566 119.289 63.6582C119.5 63.2598 119.812 62.9434 120.227 62.709C120.641 62.4707 121.15 62.3516 121.756 62.3516C122.295 62.3516 122.756 62.4473 123.139 62.6387C123.521 62.8262 123.814 63.0918 124.018 63.4355C124.225 63.7754 124.328 64.1738 124.328 64.6309C124.328 64.8809 124.285 65.1348 124.199 65.3926C124.117 65.6465 124.002 65.9004 123.854 66.1543C123.709 66.4082 123.539 66.6582 123.344 66.9043C123.152 67.1504 122.947 67.3926 122.729 67.6309L120.443 70.1094H124.721ZM129.443 62.4219V71H128.359V63.7754L126.174 64.5723V63.5938L129.273 62.4219H129.443ZM139.463 69.916V66.6523C139.463 66.4023 139.412 66.1855 139.311 66.002C139.213 65.8145 139.064 65.6699 138.865 65.5684C138.666 65.4668 138.42 65.416 138.127 65.416C137.854 65.416 137.613 65.4629 137.406 65.5566C137.203 65.6504 137.043 65.7734 136.926 65.9258C136.812 66.0781 136.756 66.2422 136.756 66.418H135.672C135.672 66.1914 135.73 65.9668 135.848 65.7441C135.965 65.5215 136.133 65.3203 136.352 65.1406C136.574 64.957 136.84 64.8125 137.148 64.707C137.461 64.5977 137.809 64.543 138.191 64.543C138.652 64.543 139.059 64.6211 139.41 64.7773C139.766 64.9336 140.043 65.1699 140.242 65.4863C140.445 65.7988 140.547 66.1914 140.547 66.6641V69.6172C140.547 69.8281 140.564 70.0527 140.6 70.291C140.639 70.5293 140.695 70.7344 140.77 70.9062V71H139.639C139.584 70.875 139.541 70.709 139.51 70.502C139.479 70.291 139.463 70.0957 139.463 69.916ZM139.65 67.1562L139.662 67.918H138.566C138.258 67.918 137.982 67.9434 137.74 67.9941C137.498 68.041 137.295 68.1133 137.131 68.2109C136.967 68.3086 136.842 68.4316 136.756 68.5801C136.67 68.7246 136.627 68.8945 136.627 69.0898C136.627 69.2891 136.672 69.4707 136.762 69.6348C136.852 69.7988 136.986 69.9297 137.166 70.0273C137.35 70.1211 137.574 70.168 137.84 70.168C138.172 70.168 138.465 70.0977 138.719 69.957C138.973 69.8164 139.174 69.6445 139.322 69.4414C139.475 69.2383 139.557 69.041 139.568 68.8496L140.031 69.3711C140.004 69.5352 139.93 69.7168 139.809 69.916C139.688 70.1152 139.525 70.3066 139.322 70.4902C139.123 70.6699 138.885 70.8203 138.607 70.9414C138.334 71.0586 138.025 71.1172 137.682 71.1172C137.252 71.1172 136.875 71.0332 136.551 70.8652C136.23 70.6973 135.98 70.4727 135.801 70.1914C135.625 69.9062 135.537 69.5879 135.537 69.2363C135.537 68.8965 135.604 68.5977 135.736 68.3398C135.869 68.0781 136.061 67.8613 136.311 67.6895C136.561 67.5137 136.861 67.3809 137.213 67.291C137.564 67.2012 137.957 67.1562 138.391 67.1562H139.65ZM144.906 64.6602V65.4922H141.479V64.6602H144.906ZM142.639 63.1191H143.723V69.4297C143.723 69.6445 143.756 69.8066 143.822 69.916C143.889 70.0254 143.975 70.0977 144.08 70.1328C144.186 70.168 144.299 70.1855 144.42 70.1855C144.51 70.1855 144.604 70.1777 144.701 70.1621C144.803 70.1426 144.879 70.127 144.93 70.1152L144.936 71C144.85 71.0273 144.736 71.0527 144.596 71.0762C144.459 71.1035 144.293 71.1172 144.098 71.1172C143.832 71.1172 143.588 71.0645 143.365 70.959C143.143 70.8535 142.965 70.6777 142.832 70.4316C142.703 70.1816 142.639 69.8457 142.639 69.4238V63.1191ZM154.393 66.0547V67.3555C154.393 68.0547 154.33 68.6445 154.205 69.125C154.08 69.6055 153.9 69.9922 153.666 70.2852C153.432 70.5781 153.148 70.791 152.816 70.9238C152.488 71.0527 152.117 71.1172 151.703 71.1172C151.375 71.1172 151.072 71.0762 150.795 70.9941C150.518 70.9121 150.268 70.7812 150.045 70.6016C149.826 70.418 149.639 70.1797 149.482 69.8867C149.326 69.5938 149.207 69.2383 149.125 68.8203C149.043 68.4023 149.002 67.9141 149.002 67.3555V66.0547C149.002 65.3555 149.064 64.7695 149.189 64.2969C149.318 63.8242 149.5 63.4453 149.734 63.1602C149.969 62.8711 150.25 62.6641 150.578 62.5391C150.91 62.4141 151.281 62.3516 151.691 62.3516C152.023 62.3516 152.328 62.3926 152.605 62.4746C152.887 62.5527 153.137 62.6797 153.355 62.8555C153.574 63.0273 153.76 63.2578 153.912 63.5469C154.068 63.832 154.188 64.1816 154.27 64.5957C154.352 65.0098 154.393 65.4961 154.393 66.0547ZM153.303 67.5312V65.873C153.303 65.4902 153.279 65.1543 153.232 64.8652C153.189 64.5723 153.125 64.3223 153.039 64.1152C152.953 63.9082 152.844 63.7402 152.711 63.6113C152.582 63.4824 152.432 63.3887 152.26 63.3301C152.092 63.2676 151.902 63.2363 151.691 63.2363C151.434 63.2363 151.205 63.2852 151.006 63.3828C150.807 63.4766 150.639 63.627 150.502 63.834C150.369 64.041 150.268 64.3125 150.197 64.6484C150.127 64.9844 150.092 65.3926 150.092 65.873V67.5312C150.092 67.9141 150.113 68.252 150.156 68.5449C150.203 68.8379 150.271 69.0918 150.361 69.3066C150.451 69.5176 150.561 69.6914 150.689 69.8281C150.818 69.9648 150.967 70.0664 151.135 70.1328C151.307 70.1953 151.496 70.2266 151.703 70.2266C151.969 70.2266 152.201 70.1758 152.4 70.0742C152.6 69.9727 152.766 69.8145 152.898 69.5996C153.035 69.3809 153.137 69.1016 153.203 68.7617C153.27 68.418 153.303 68.0078 153.303 67.5312ZM161.301 62.4688V63.0781L157.768 71H156.625L160.152 63.3594H155.535V62.4688H161.301ZM162.607 70.4258C162.607 70.2422 162.664 70.0879 162.777 69.9629C162.895 69.834 163.062 69.7695 163.281 69.7695C163.5 69.7695 163.666 69.834 163.779 69.9629C163.896 70.0879 163.955 70.2422 163.955 70.4258C163.955 70.6055 163.896 70.7578 163.779 70.8828C163.666 71.0078 163.5 71.0703 163.281 71.0703C163.062 71.0703 162.895 71.0078 162.777 70.8828C162.664 70.7578 162.607 70.6055 162.607 70.4258ZM162.613 65.252C162.613 65.0684 162.67 64.9141 162.783 64.7891C162.9 64.6602 163.068 64.5957 163.287 64.5957C163.506 64.5957 163.672 64.6602 163.785 64.7891C163.902 64.9141 163.961 65.0684 163.961 65.252C163.961 65.4316 163.902 65.584 163.785 65.709C163.672 65.834 163.506 65.8965 163.287 65.8965C163.068 65.8965 162.9 65.834 162.783 65.709C162.67 65.584 162.613 65.4316 162.613 65.252ZM170.799 66.0547V67.3555C170.799 68.0547 170.736 68.6445 170.611 69.125C170.486 69.6055 170.307 69.9922 170.072 70.2852C169.838 70.5781 169.555 70.791 169.223 70.9238C168.895 71.0527 168.523 71.1172 168.109 71.1172C167.781 71.1172 167.479 71.0762 167.201 70.9941C166.924 70.9121 166.674 70.7812 166.451 70.6016C166.232 70.418 166.045 70.1797 165.889 69.8867C165.732 69.5938 165.613 69.2383 165.531 68.8203C165.449 68.4023 165.408 67.9141 165.408 67.3555V66.0547C165.408 65.3555 165.471 64.7695 165.596 64.2969C165.725 63.8242 165.906 63.4453 166.141 63.1602C166.375 62.8711 166.656 62.6641 166.984 62.5391C167.316 62.4141 167.688 62.3516 168.098 62.3516C168.43 62.3516 168.734 62.3926 169.012 62.4746C169.293 62.5527 169.543 62.6797 169.762 62.8555C169.98 63.0273 170.166 63.2578 170.318 63.5469C170.475 63.832 170.594 64.1816 170.676 64.5957C170.758 65.0098 170.799 65.4961 170.799 66.0547ZM169.709 67.5312V65.873C169.709 65.4902 169.686 65.1543 169.639 64.8652C169.596 64.5723 169.531 64.3223 169.445 64.1152C169.359 63.9082 169.25 63.7402 169.117 63.6113C168.988 63.4824 168.838 63.3887 168.666 63.3301C168.498 63.2676 168.309 63.2363 168.098 63.2363C167.84 63.2363 167.611 63.2852 167.412 63.3828C167.213 63.4766 167.045 63.627 166.908 63.834C166.775 64.041 166.674 64.3125 166.604 64.6484C166.533 64.9844 166.498 65.3926 166.498 65.873V67.5312C166.498 67.9141 166.52 68.252 166.562 68.5449C166.609 68.8379 166.678 69.0918 166.768 69.3066C166.857 69.5176 166.967 69.6914 167.096 69.8281C167.225 69.9648 167.373 70.0664 167.541 70.1328C167.713 70.1953 167.902 70.2266 168.109 70.2266C168.375 70.2266 168.607 70.1758 168.807 70.0742C169.006 69.9727 169.172 69.8145 169.305 69.5996C169.441 69.3809 169.543 69.1016 169.609 68.7617C169.676 68.418 169.709 68.0078 169.709 67.5312ZM173.564 66.9395L172.697 66.7168L173.125 62.4688H177.502V63.4707H174.045L173.787 65.791C173.943 65.7012 174.141 65.6172 174.379 65.5391C174.621 65.4609 174.898 65.4219 175.211 65.4219C175.605 65.4219 175.959 65.4902 176.271 65.627C176.584 65.7598 176.85 65.9512 177.068 66.2012C177.291 66.4512 177.461 66.752 177.578 67.1035C177.695 67.4551 177.754 67.8477 177.754 68.2812C177.754 68.6914 177.697 69.0684 177.584 69.4121C177.475 69.7559 177.309 70.0566 177.086 70.3145C176.863 70.5684 176.582 70.7656 176.242 70.9062C175.906 71.0469 175.51 71.1172 175.053 71.1172C174.709 71.1172 174.383 71.0703 174.074 70.9766C173.77 70.8789 173.496 70.7324 173.254 70.5371C173.016 70.3379 172.82 70.0918 172.668 69.7988C172.52 69.502 172.426 69.1543 172.387 68.7559H173.418C173.465 69.0762 173.559 69.3457 173.699 69.5645C173.84 69.7832 174.023 69.9492 174.25 70.0625C174.48 70.1719 174.748 70.2266 175.053 70.2266C175.311 70.2266 175.539 70.1816 175.738 70.0918C175.938 70.002 176.105 69.873 176.242 69.7051C176.379 69.5371 176.482 69.334 176.553 69.0957C176.627 68.8574 176.664 68.5898 176.664 68.293C176.664 68.0234 176.627 67.7734 176.553 67.543C176.479 67.3125 176.367 67.1113 176.219 66.9395C176.074 66.7676 175.896 66.6348 175.686 66.541C175.475 66.4434 175.232 66.3945 174.959 66.3945C174.596 66.3945 174.32 66.4434 174.133 66.541C173.949 66.6387 173.76 66.7715 173.564 66.9395ZM185.348 67.6543H183.068V66.7344H185.348C185.789 66.7344 186.146 66.6641 186.42 66.5234C186.693 66.3828 186.893 66.1875 187.018 65.9375C187.146 65.6875 187.211 65.4023 187.211 65.082C187.211 64.7891 187.146 64.5137 187.018 64.2559C186.893 63.998 186.693 63.791 186.42 63.6348C186.146 63.4746 185.789 63.3945 185.348 63.3945H183.332V71H182.201V62.4688H185.348C185.992 62.4688 186.537 62.5801 186.982 62.8027C187.428 63.0254 187.766 63.334 187.996 63.7285C188.227 64.1191 188.342 64.5664 188.342 65.0703C188.342 65.6172 188.227 66.084 187.996 66.4707C187.766 66.8574 187.428 67.1523 186.982 67.3555C186.537 67.5547 185.992 67.6543 185.348 67.6543ZM190.129 62.4688H191.225L194.02 69.4238L196.809 62.4688H197.91L194.441 71H193.586L190.129 62.4688ZM189.771 62.4688H190.738L190.896 67.6719V71H189.771V62.4688ZM197.295 62.4688H198.262V71H197.137V67.6719L197.295 62.4688Z" fill="#827D9D"/>
<g clip-path="url(#clip1_0_1342)">
<path d="M73.0938 98.6797V90.625H74.5938V98.6797C74.5938 99.4297 74.4401 100.062 74.1328 100.578C73.8255 101.094 73.401 101.487 72.8594 101.758C72.3229 102.023 71.7057 102.156 71.0078 102.156C70.3099 102.156 69.6901 102.036 69.1484 101.797C68.6068 101.557 68.1823 101.193 67.875 100.703C67.5677 100.214 67.4141 99.5964 67.4141 98.8516H68.9219C68.9219 99.3307 69.0104 99.724 69.1875 100.031C69.3646 100.339 69.6094 100.565 69.9219 100.711C70.2396 100.857 70.6016 100.93 71.0078 100.93C71.4036 100.93 71.7578 100.846 72.0703 100.68C72.388 100.508 72.638 100.255 72.8203 99.9219C73.0026 99.5833 73.0938 99.1693 73.0938 98.6797ZM82.1016 100.047V93.5469H83.5547V102H82.1719L82.1016 100.047ZM82.375 98.2656L82.9766 98.25C82.9766 98.8125 82.9167 99.3333 82.7969 99.8125C82.6823 100.286 82.4948 100.698 82.2344 101.047C81.974 101.396 81.6328 101.669 81.2109 101.867C80.7891 102.06 80.276 102.156 79.6719 102.156C79.2604 102.156 78.8828 102.096 78.5391 101.977C78.2005 101.857 77.9089 101.672 77.6641 101.422C77.4193 101.172 77.2292 100.846 77.0938 100.445C76.9635 100.044 76.8984 99.5625 76.8984 99V93.5469H78.3438V99.0156C78.3438 99.3958 78.3854 99.7109 78.4688 99.9609C78.5573 100.206 78.6745 100.401 78.8203 100.547C78.9714 100.688 79.138 100.786 79.3203 100.844C79.5078 100.901 79.7005 100.93 79.8984 100.93C80.513 100.93 81 100.812 81.3594 100.578C81.7188 100.339 81.9766 100.018 82.1328 99.6172C82.2943 99.2109 82.375 98.7604 82.375 98.2656ZM87.3281 90V102H85.875V90H87.3281ZM91.2188 93.5469V102H89.7656V93.5469H91.2188ZM89.6562 91.3047C89.6562 91.0703 89.7266 90.8724 89.8672 90.7109C90.013 90.5495 90.2266 90.4688 90.5078 90.4688C90.7839 90.4688 90.9948 90.5495 91.1406 90.7109C91.2917 90.8724 91.3672 91.0703 91.3672 91.3047C91.3672 91.5286 91.2917 91.7214 91.1406 91.8828C90.9948 92.0391 90.7839 92.1172 90.5078 92.1172C90.2266 92.1172 90.013 92.0391 89.8672 91.8828C89.7266 91.7214 89.6562 91.5286 89.6562 91.3047ZM97.0469 102.156C96.4583 102.156 95.9245 102.057 95.4453 101.859C94.9714 101.656 94.5625 101.372 94.2188 101.008C93.8802 100.643 93.6198 100.211 93.4375 99.7109C93.2552 99.2109 93.1641 98.6641 93.1641 98.0703V97.7422C93.1641 97.0547 93.2656 96.4427 93.4688 95.9062C93.6719 95.3646 93.9479 94.9062 94.2969 94.5312C94.6458 94.1562 95.0417 93.8724 95.4844 93.6797C95.9271 93.487 96.3854 93.3906 96.8594 93.3906C97.4635 93.3906 97.9844 93.4948 98.4219 93.7031C98.8646 93.9115 99.2266 94.2031 99.5078 94.5781C99.7891 94.9479 99.9974 95.3854 100.133 95.8906C100.268 96.3906 100.336 96.9375 100.336 97.5312V98.1797H94.0234V97H98.8906V96.8906C98.8698 96.5156 98.7917 96.151 98.6562 95.7969C98.526 95.4427 98.3177 95.151 98.0312 94.9219C97.7448 94.6927 97.3542 94.5781 96.8594 94.5781C96.5312 94.5781 96.2292 94.6484 95.9531 94.7891C95.6771 94.9245 95.4401 95.1276 95.2422 95.3984C95.0443 95.6693 94.8906 96 94.7812 96.3906C94.6719 96.7812 94.6172 97.2318 94.6172 97.7422V98.0703C94.6172 98.4714 94.6719 98.849 94.7812 99.2031C94.8958 99.5521 95.0599 99.8594 95.2734 100.125C95.4922 100.391 95.7552 100.599 96.0625 100.75C96.375 100.901 96.7292 100.977 97.125 100.977C97.6354 100.977 98.0677 100.872 98.4219 100.664C98.776 100.456 99.0859 100.177 99.3516 99.8281L100.227 100.523C100.044 100.799 99.8125 101.062 99.5312 101.312C99.25 101.562 98.9036 101.766 98.4922 101.922C98.0859 102.078 97.6042 102.156 97.0469 102.156ZM105.562 93.5469V94.6562H100.992V93.5469H105.562ZM102.539 91.4922H103.984V99.9062C103.984 100.193 104.029 100.409 104.117 100.555C104.206 100.701 104.32 100.797 104.461 100.844C104.602 100.891 104.753 100.914 104.914 100.914C105.034 100.914 105.159 100.904 105.289 100.883C105.424 100.857 105.526 100.836 105.594 100.82L105.602 102C105.487 102.036 105.336 102.07 105.148 102.102C104.966 102.138 104.745 102.156 104.484 102.156C104.13 102.156 103.805 102.086 103.508 101.945C103.211 101.805 102.974 101.57 102.797 101.242C102.625 100.909 102.539 100.461 102.539 99.8984V91.4922ZM107.195 101.234C107.195 100.99 107.271 100.784 107.422 100.617C107.578 100.445 107.802 100.359 108.094 100.359C108.385 100.359 108.607 100.445 108.758 100.617C108.914 100.784 108.992 100.99 108.992 101.234C108.992 101.474 108.914 101.677 108.758 101.844C108.607 102.01 108.385 102.094 108.094 102.094C107.802 102.094 107.578 102.01 107.422 101.844C107.271 101.677 107.195 101.474 107.195 101.234ZM107.203 94.3359C107.203 94.0911 107.279 93.8854 107.43 93.7188C107.586 93.5469 107.81 93.4609 108.102 93.4609C108.393 93.4609 108.615 93.5469 108.766 93.7188C108.922 93.8854 109 94.0911 109 94.3359C109 94.5755 108.922 94.7786 108.766 94.9453C108.615 95.112 108.393 95.1953 108.102 95.1953C107.81 95.1953 107.586 95.112 107.43 94.9453C107.279 94.7786 107.203 94.5755 107.203 94.3359ZM115.32 90.625H119.086C119.94 90.625 120.661 90.7552 121.25 91.0156C121.844 91.276 122.294 91.6615 122.602 92.1719C122.914 92.6771 123.07 93.2995 123.07 94.0391C123.07 94.5599 122.964 95.0365 122.75 95.4688C122.542 95.8958 122.24 96.2604 121.844 96.5625C121.453 96.8594 120.984 97.0807 120.438 97.2266L120.016 97.3906H116.477L116.461 96.1641H119.133C119.674 96.1641 120.125 96.0703 120.484 95.8828C120.844 95.6901 121.115 95.4323 121.297 95.1094C121.479 94.7865 121.57 94.4297 121.57 94.0391C121.57 93.6016 121.484 93.2188 121.312 92.8906C121.141 92.5625 120.87 92.3099 120.5 92.1328C120.135 91.9505 119.664 91.8594 119.086 91.8594H116.828V102H115.32V90.625ZM121.969 102L119.203 96.8438L120.773 96.8359L123.578 101.906V102H121.969ZM128.469 102.156C127.88 102.156 127.346 102.057 126.867 101.859C126.393 101.656 125.984 101.372 125.641 101.008C125.302 100.643 125.042 100.211 124.859 99.7109C124.677 99.2109 124.586 98.6641 124.586 98.0703V97.7422C124.586 97.0547 124.688 96.4427 124.891 95.9062C125.094 95.3646 125.37 94.9062 125.719 94.5312C126.068 94.1562 126.464 93.8724 126.906 93.6797C127.349 93.487 127.807 93.3906 128.281 93.3906C128.885 93.3906 129.406 93.4948 129.844 93.7031C130.286 93.9115 130.648 94.2031 130.93 94.5781C131.211 94.9479 131.419 95.3854 131.555 95.8906C131.69 96.3906 131.758 96.9375 131.758 97.5312V98.1797H125.445V97H130.312V96.8906C130.292 96.5156 130.214 96.151 130.078 95.7969C129.948 95.4427 129.74 95.151 129.453 94.9219C129.167 94.6927 128.776 94.5781 128.281 94.5781C127.953 94.5781 127.651 94.6484 127.375 94.7891C127.099 94.9245 126.862 95.1276 126.664 95.3984C126.466 95.6693 126.312 96 126.203 96.3906C126.094 96.7812 126.039 97.2318 126.039 97.7422V98.0703C126.039 98.4714 126.094 98.849 126.203 99.2031C126.318 99.5521 126.482 99.8594 126.695 100.125C126.914 100.391 127.177 100.599 127.484 100.75C127.797 100.901 128.151 100.977 128.547 100.977C129.057 100.977 129.49 100.872 129.844 100.664C130.198 100.456 130.508 100.177 130.773 99.8281L131.648 100.523C131.466 100.799 131.234 101.062 130.953 101.312C130.672 101.562 130.326 101.766 129.914 101.922C129.508 102.078 129.026 102.156 128.469 102.156ZM135.906 100.695L138.219 93.5469H139.695L136.656 102H135.688L135.906 100.695ZM133.977 93.5469L136.359 100.734L136.523 102H135.555L132.492 93.5469H133.977ZM144.484 102.156C143.896 102.156 143.362 102.057 142.883 101.859C142.409 101.656 142 101.372 141.656 101.008C141.318 100.643 141.057 100.211 140.875 99.7109C140.693 99.2109 140.602 98.6641 140.602 98.0703V97.7422C140.602 97.0547 140.703 96.4427 140.906 95.9062C141.109 95.3646 141.385 94.9062 141.734 94.5312C142.083 94.1562 142.479 93.8724 142.922 93.6797C143.365 93.487 143.823 93.3906 144.297 93.3906C144.901 93.3906 145.422 93.4948 145.859 93.7031C146.302 93.9115 146.664 94.2031 146.945 94.5781C147.227 94.9479 147.435 95.3854 147.57 95.8906C147.706 96.3906 147.773 96.9375 147.773 97.5312V98.1797H141.461V97H146.328V96.8906C146.307 96.5156 146.229 96.151 146.094 95.7969C145.964 95.4427 145.755 95.151 145.469 94.9219C145.182 94.6927 144.792 94.5781 144.297 94.5781C143.969 94.5781 143.667 94.6484 143.391 94.7891C143.115 94.9245 142.878 95.1276 142.68 95.3984C142.482 95.6693 142.328 96 142.219 96.3906C142.109 96.7812 142.055 97.2318 142.055 97.7422V98.0703C142.055 98.4714 142.109 98.849 142.219 99.2031C142.333 99.5521 142.497 99.8594 142.711 100.125C142.93 100.391 143.193 100.599 143.5 100.75C143.812 100.901 144.167 100.977 144.562 100.977C145.073 100.977 145.505 100.872 145.859 100.664C146.214 100.456 146.523 100.177 146.789 99.8281L147.664 100.523C147.482 100.799 147.25 101.062 146.969 101.312C146.688 101.562 146.341 101.766 145.93 101.922C145.523 102.078 145.042 102.156 144.484 102.156ZM150.906 95.3516V102H149.461V93.5469H150.828L150.906 95.3516ZM150.562 97.4531L149.961 97.4297C149.966 96.8516 150.052 96.3177 150.219 95.8281C150.385 95.3333 150.62 94.9036 150.922 94.5391C151.224 94.1745 151.583 93.8932 152 93.6953C152.422 93.4922 152.888 93.3906 153.398 93.3906C153.815 93.3906 154.19 93.4479 154.523 93.5625C154.857 93.6719 155.141 93.849 155.375 94.0938C155.615 94.3385 155.797 94.6562 155.922 95.0469C156.047 95.4323 156.109 95.9036 156.109 96.4609V102H154.656V96.4453C154.656 96.0026 154.591 95.6484 154.461 95.3828C154.331 95.112 154.141 94.9167 153.891 94.7969C153.641 94.6719 153.333 94.6094 152.969 94.6094C152.609 94.6094 152.281 94.6849 151.984 94.8359C151.693 94.987 151.44 95.1953 151.227 95.4609C151.018 95.7266 150.854 96.0312 150.734 96.375C150.62 96.7135 150.562 97.0729 150.562 97.4531ZM163.289 100.555V96.2031C163.289 95.8698 163.221 95.5807 163.086 95.3359C162.956 95.0859 162.758 94.8932 162.492 94.7578C162.227 94.6224 161.898 94.5547 161.508 94.5547C161.143 94.5547 160.823 94.6172 160.547 94.7422C160.276 94.8672 160.062 95.0312 159.906 95.2344C159.755 95.4375 159.68 95.6562 159.68 95.8906H158.234C158.234 95.5885 158.312 95.2891 158.469 94.9922C158.625 94.6953 158.849 94.4271 159.141 94.1875C159.438 93.9427 159.792 93.75 160.203 93.6094C160.62 93.4635 161.083 93.3906 161.594 93.3906C162.208 93.3906 162.75 93.4948 163.219 93.7031C163.693 93.9115 164.062 94.2266 164.328 94.6484C164.599 95.0651 164.734 95.5885 164.734 96.2188V100.156C164.734 100.438 164.758 100.737 164.805 101.055C164.857 101.372 164.932 101.646 165.031 101.875V102H163.523C163.451 101.833 163.393 101.612 163.352 101.336C163.31 101.055 163.289 100.794 163.289 100.555ZM163.539 96.875L163.555 97.8906H162.094C161.682 97.8906 161.315 97.9245 160.992 97.9922C160.669 98.0547 160.398 98.151 160.18 98.2812C159.961 98.4115 159.794 98.5755 159.68 98.7734C159.565 98.9661 159.508 99.1927 159.508 99.4531C159.508 99.7188 159.568 99.9609 159.688 100.18C159.807 100.398 159.987 100.573 160.227 100.703C160.471 100.828 160.771 100.891 161.125 100.891C161.568 100.891 161.958 100.797 162.297 100.609C162.635 100.422 162.904 100.193 163.102 99.9219C163.305 99.651 163.414 99.388 163.43 99.1328L164.047 99.8281C164.01 100.047 163.911 100.289 163.75 100.555C163.589 100.82 163.372 101.076 163.102 101.32C162.836 101.56 162.518 101.76 162.148 101.922C161.784 102.078 161.372 102.156 160.914 102.156C160.341 102.156 159.839 102.044 159.406 101.82C158.979 101.596 158.646 101.297 158.406 100.922C158.172 100.542 158.055 100.117 158.055 99.6484C158.055 99.1953 158.143 98.7969 158.32 98.4531C158.497 98.1042 158.753 97.8151 159.086 97.5859C159.419 97.3516 159.82 97.1745 160.289 97.0547C160.758 96.9349 161.281 96.875 161.859 96.875H163.539ZM168.453 95.3516V102H167.008V93.5469H168.375L168.453 95.3516ZM168.109 97.4531L167.508 97.4297C167.513 96.8516 167.599 96.3177 167.766 95.8281C167.932 95.3333 168.167 94.9036 168.469 94.5391C168.771 94.1745 169.13 93.8932 169.547 93.6953C169.969 93.4922 170.435 93.3906 170.945 93.3906C171.362 93.3906 171.737 93.4479 172.07 93.5625C172.404 93.6719 172.688 93.849 172.922 94.0938C173.161 94.3385 173.344 94.6562 173.469 95.0469C173.594 95.4323 173.656 95.9036 173.656 96.4609V102H172.203V96.4453C172.203 96.0026 172.138 95.6484 172.008 95.3828C171.878 95.112 171.688 94.9167 171.438 94.7969C171.188 94.6719 170.88 94.6094 170.516 94.6094C170.156 94.6094 169.828 94.6849 169.531 94.8359C169.24 94.987 168.987 95.1953 168.773 95.4609C168.565 95.7266 168.401 96.0312 168.281 96.375C168.167 96.7135 168.109 97.0729 168.109 97.4531ZM179.391 93.5469V94.6562H174.82V93.5469H179.391ZM176.367 91.4922H177.812V99.9062C177.812 100.193 177.857 100.409 177.945 100.555C178.034 100.701 178.148 100.797 178.289 100.844C178.43 100.891 178.581 100.914 178.742 100.914C178.862 100.914 178.987 100.904 179.117 100.883C179.253 100.857 179.354 100.836 179.422 100.82L179.43 102C179.315 102.036 179.164 102.07 178.977 102.102C178.794 102.138 178.573 102.156 178.312 102.156C177.958 102.156 177.633 102.086 177.336 101.945C177.039 101.805 176.802 101.57 176.625 101.242C176.453 100.909 176.367 100.461 176.367 99.8984V91.4922ZM186.133 102L188.344 90.625H189.469L187.25 102H186.133ZM189.312 102L191.531 90.625H192.648L190.43 102H189.312ZM193.602 94.9609H185.477V93.875H193.602V94.9609ZM193.016 98.7969H184.883V97.7188H193.016V98.7969ZM200.305 90.6094H200.43V91.8359H200.305C199.539 91.8359 198.898 91.9609 198.383 92.2109C197.867 92.4557 197.458 92.7865 197.156 93.2031C196.854 93.6146 196.635 94.0781 196.5 94.5938C196.37 95.1094 196.305 95.6328 196.305 96.1641V97.8359C196.305 98.3411 196.365 98.7891 196.484 99.1797C196.604 99.5651 196.768 99.8906 196.977 100.156C197.185 100.422 197.419 100.622 197.68 100.758C197.945 100.893 198.221 100.961 198.508 100.961C198.841 100.961 199.138 100.898 199.398 100.773C199.659 100.643 199.878 100.464 200.055 100.234C200.237 100 200.375 99.724 200.469 99.4062C200.562 99.0885 200.609 98.7396 200.609 98.3594C200.609 98.0208 200.568 97.6953 200.484 97.3828C200.401 97.0651 200.273 96.7839 200.102 96.5391C199.93 96.2891 199.714 96.0938 199.453 95.9531C199.198 95.8073 198.893 95.7344 198.539 95.7344C198.138 95.7344 197.763 95.8333 197.414 96.0312C197.07 96.224 196.786 96.4792 196.562 96.7969C196.344 97.1094 196.219 97.4505 196.188 97.8203L195.422 97.8125C195.495 97.2292 195.63 96.7318 195.828 96.3203C196.031 95.9036 196.281 95.5651 196.578 95.3047C196.88 95.0391 197.216 94.8464 197.586 94.7266C197.961 94.6016 198.357 94.5391 198.773 94.5391C199.341 94.5391 199.831 94.6458 200.242 94.8594C200.654 95.0729 200.992 95.3594 201.258 95.7188C201.523 96.0729 201.719 96.474 201.844 96.9219C201.974 97.3646 202.039 97.8203 202.039 98.2891C202.039 98.8255 201.964 99.3281 201.812 99.7969C201.661 100.266 201.435 100.677 201.133 101.031C200.836 101.385 200.469 101.661 200.031 101.859C199.594 102.057 199.086 102.156 198.508 102.156C197.893 102.156 197.357 102.031 196.898 101.781C196.44 101.526 196.06 101.188 195.758 100.766C195.456 100.344 195.229 99.875 195.078 99.3594C194.927 98.8438 194.852 98.3203 194.852 97.7891V97.1094C194.852 96.3073 194.932 95.5208 195.094 94.75C195.255 93.9792 195.534 93.2812 195.93 92.6562C196.331 92.0312 196.885 91.5339 197.594 91.1641C198.302 90.7943 199.206 90.6094 200.305 90.6094ZM211.211 100.812V102H203.766V100.961L207.492 96.8125C207.951 96.3021 208.305 95.8698 208.555 95.5156C208.81 95.1562 208.987 94.8359 209.086 94.5547C209.19 94.2682 209.242 93.9766 209.242 93.6797C209.242 93.3047 209.164 92.9661 209.008 92.6641C208.857 92.3568 208.633 92.112 208.336 91.9297C208.039 91.7474 207.68 91.6562 207.258 91.6562C206.753 91.6562 206.331 91.7552 205.992 91.9531C205.659 92.1458 205.409 92.4167 205.242 92.7656C205.076 93.1146 204.992 93.5156 204.992 93.9688H203.547C203.547 93.3281 203.688 92.7422 203.969 92.2109C204.25 91.6797 204.667 91.2578 205.219 90.9453C205.771 90.6276 206.451 90.4688 207.258 90.4688C207.977 90.4688 208.591 90.5964 209.102 90.8516C209.612 91.1016 210.003 91.4557 210.273 91.9141C210.549 92.3672 210.688 92.8984 210.688 93.5078C210.688 93.8411 210.63 94.1797 210.516 94.5234C210.406 94.862 210.253 95.2005 210.055 95.5391C209.862 95.8776 209.635 96.2109 209.375 96.5391C209.12 96.8672 208.846 97.1901 208.555 97.5078L205.508 100.812H211.211Z" fill="#00A2FD"/>
<path d="M73.5625 119.137V120.057H68.9453V119.137H73.5625ZM69.1211 115.469V124H67.9902V115.469H69.1211ZM74.5469 115.469V124H73.4219V115.469H74.5469ZM80.1309 122.916V119.652C80.1309 119.402 80.0801 119.186 79.9785 119.002C79.8809 118.814 79.7324 118.67 79.5332 118.568C79.334 118.467 79.0879 118.416 78.7949 118.416C78.5215 118.416 78.2812 118.463 78.0742 118.557C77.8711 118.65 77.7109 118.773 77.5938 118.926C77.4805 119.078 77.4238 119.242 77.4238 119.418H76.3398C76.3398 119.191 76.3984 118.967 76.5156 118.744C76.6328 118.521 76.8008 118.32 77.0195 118.141C77.2422 117.957 77.5078 117.812 77.8164 117.707C78.1289 117.598 78.4766 117.543 78.8594 117.543C79.3203 117.543 79.7266 117.621 80.0781 117.777C80.4336 117.934 80.7109 118.17 80.9102 118.486C81.1133 118.799 81.2148 119.191 81.2148 119.664V122.617C81.2148 122.828 81.2324 123.053 81.2676 123.291C81.3066 123.529 81.3633 123.734 81.4375 123.906V124H80.3066C80.252 123.875 80.209 123.709 80.1777 123.502C80.1465 123.291 80.1309 123.096 80.1309 122.916ZM80.3184 120.156L80.3301 120.918H79.2344C78.9258 120.918 78.6504 120.943 78.4082 120.994C78.166 121.041 77.9629 121.113 77.7988 121.211C77.6348 121.309 77.5098 121.432 77.4238 121.58C77.3379 121.725 77.2949 121.895 77.2949 122.09C77.2949 122.289 77.3398 122.471 77.4297 122.635C77.5195 122.799 77.6543 122.93 77.834 123.027C78.0176 123.121 78.2422 123.168 78.5078 123.168C78.8398 123.168 79.1328 123.098 79.3867 122.957C79.6406 122.816 79.8418 122.645 79.9902 122.441C80.1426 122.238 80.2246 122.041 80.2363 121.85L80.6992 122.371C80.6719 122.535 80.5977 122.717 80.4766 122.916C80.3555 123.115 80.1934 123.307 79.9902 123.49C79.791 123.67 79.5527 123.82 79.2754 123.941C79.002 124.059 78.6934 124.117 78.3496 124.117C77.9199 124.117 77.543 124.033 77.2188 123.865C76.8984 123.697 76.6484 123.473 76.4688 123.191C76.293 122.906 76.2051 122.588 76.2051 122.236C76.2051 121.896 76.2715 121.598 76.4043 121.34C76.5371 121.078 76.7285 120.861 76.9785 120.689C77.2285 120.514 77.5293 120.381 77.8809 120.291C78.2324 120.201 78.625 120.156 79.0586 120.156H80.3184ZM86.6113 122.318C86.6113 122.162 86.5762 122.018 86.5059 121.885C86.4395 121.748 86.3008 121.625 86.0898 121.516C85.8828 121.402 85.5703 121.305 85.1523 121.223C84.8008 121.148 84.4824 121.061 84.1973 120.959C83.916 120.857 83.6758 120.734 83.4766 120.59C83.2812 120.445 83.1309 120.275 83.0254 120.08C82.9199 119.885 82.8672 119.656 82.8672 119.395C82.8672 119.145 82.9219 118.908 83.0312 118.686C83.1445 118.463 83.3027 118.266 83.5059 118.094C83.7129 117.922 83.9609 117.787 84.25 117.689C84.5391 117.592 84.8613 117.543 85.2168 117.543C85.7246 117.543 86.1582 117.633 86.5176 117.812C86.877 117.992 87.1523 118.232 87.3438 118.533C87.5352 118.83 87.6309 119.16 87.6309 119.523H86.5469C86.5469 119.348 86.4941 119.178 86.3887 119.014C86.2871 118.846 86.1367 118.707 85.9375 118.598C85.7422 118.488 85.502 118.434 85.2168 118.434C84.916 118.434 84.6719 118.48 84.4844 118.574C84.3008 118.664 84.166 118.779 84.0801 118.92C83.998 119.061 83.957 119.209 83.957 119.365C83.957 119.482 83.9766 119.588 84.0156 119.682C84.0586 119.771 84.1328 119.855 84.2383 119.934C84.3438 120.008 84.4922 120.078 84.6836 120.145C84.875 120.211 85.1191 120.277 85.416 120.344C85.9355 120.461 86.3633 120.602 86.6992 120.766C87.0352 120.93 87.2852 121.131 87.4492 121.369C87.6133 121.607 87.6953 121.896 87.6953 122.236C87.6953 122.514 87.6367 122.768 87.5195 122.998C87.4062 123.229 87.2402 123.428 87.0215 123.596C86.8066 123.76 86.5488 123.889 86.248 123.982C85.9512 124.072 85.6172 124.117 85.2461 124.117C84.6875 124.117 84.2148 124.018 83.8281 123.818C83.4414 123.619 83.1484 123.361 82.9492 123.045C82.75 122.729 82.6504 122.395 82.6504 122.043H83.7402C83.7559 122.34 83.8418 122.576 83.998 122.752C84.1543 122.924 84.3457 123.047 84.5723 123.121C84.7988 123.191 85.0234 123.227 85.2461 123.227C85.543 123.227 85.791 123.188 85.9902 123.109C86.1934 123.031 86.3477 122.924 86.4531 122.787C86.5586 122.65 86.6113 122.494 86.6113 122.318ZM92.0898 115H93.1797V122.77L93.0859 124H92.0898V115ZM97.4629 120.777V120.9C97.4629 121.361 97.4082 121.789 97.2988 122.184C97.1895 122.574 97.0293 122.914 96.8184 123.203C96.6074 123.492 96.3496 123.717 96.0449 123.877C95.7402 124.037 95.3906 124.117 94.9961 124.117C94.5938 124.117 94.2402 124.049 93.9355 123.912C93.6348 123.771 93.3809 123.57 93.1738 123.309C92.9668 123.047 92.8008 122.73 92.6758 122.359C92.5547 121.988 92.4707 121.57 92.4238 121.105V120.566C92.4707 120.098 92.5547 119.678 92.6758 119.307C92.8008 118.936 92.9668 118.619 93.1738 118.357C93.3809 118.092 93.6348 117.891 93.9355 117.754C94.2363 117.613 94.5859 117.543 94.9844 117.543C95.3828 117.543 95.7363 117.621 96.0449 117.777C96.3535 117.93 96.6113 118.148 96.8184 118.434C97.0293 118.719 97.1895 119.061 97.2988 119.459C97.4082 119.854 97.4629 120.293 97.4629 120.777ZM96.373 120.9V120.777C96.373 120.461 96.3438 120.164 96.2852 119.887C96.2266 119.605 96.1328 119.359 96.0039 119.148C95.875 118.934 95.7051 118.766 95.4941 118.645C95.2832 118.52 95.0234 118.457 94.7148 118.457C94.4414 118.457 94.2031 118.504 94 118.598C93.8008 118.691 93.6309 118.818 93.4902 118.979C93.3496 119.135 93.2344 119.314 93.1445 119.518C93.0586 119.717 92.9941 119.924 92.9512 120.139V121.551C93.0137 121.824 93.1152 122.088 93.2559 122.342C93.4004 122.592 93.5918 122.797 93.8301 122.957C94.0723 123.117 94.3711 123.197 94.7266 123.197C95.0195 123.197 95.2695 123.139 95.4766 123.021C95.6875 122.9 95.8574 122.734 95.9863 122.523C96.1191 122.312 96.2168 122.068 96.2793 121.791C96.3418 121.514 96.373 121.217 96.373 120.9ZM101.465 124.117C101.023 124.117 100.623 124.043 100.264 123.895C99.9082 123.742 99.6016 123.529 99.3438 123.256C99.0898 122.982 98.8945 122.658 98.7578 122.283C98.6211 121.908 98.5527 121.498 98.5527 121.053V120.807C98.5527 120.291 98.6289 119.832 98.7812 119.43C98.9336 119.023 99.1406 118.68 99.4023 118.398C99.6641 118.117 99.9609 117.904 100.293 117.76C100.625 117.615 100.969 117.543 101.324 117.543C101.777 117.543 102.168 117.621 102.496 117.777C102.828 117.934 103.1 118.152 103.311 118.434C103.521 118.711 103.678 119.039 103.779 119.418C103.881 119.793 103.932 120.203 103.932 120.648V121.135H99.1973V120.25H102.848V120.168C102.832 119.887 102.773 119.613 102.672 119.348C102.574 119.082 102.418 118.863 102.203 118.691C101.988 118.52 101.695 118.434 101.324 118.434C101.078 118.434 100.852 118.486 100.645 118.592C100.438 118.693 100.26 118.846 100.111 119.049C99.9629 119.252 99.8477 119.5 99.7656 119.793C99.6836 120.086 99.6426 120.424 99.6426 120.807V121.053C99.6426 121.354 99.6836 121.637 99.7656 121.902C99.8516 122.164 99.9746 122.395 100.135 122.594C100.299 122.793 100.496 122.949 100.727 123.062C100.961 123.176 101.227 123.232 101.523 123.232C101.906 123.232 102.23 123.154 102.496 122.998C102.762 122.842 102.994 122.633 103.193 122.371L103.85 122.893C103.713 123.1 103.539 123.297 103.328 123.484C103.117 123.672 102.857 123.824 102.549 123.941C102.244 124.059 101.883 124.117 101.465 124.117ZM107.828 124.117C107.387 124.117 106.986 124.043 106.627 123.895C106.271 123.742 105.965 123.529 105.707 123.256C105.453 122.982 105.258 122.658 105.121 122.283C104.984 121.908 104.916 121.498 104.916 121.053V120.807C104.916 120.291 104.992 119.832 105.145 119.43C105.297 119.023 105.504 118.68 105.766 118.398C106.027 118.117 106.324 117.904 106.656 117.76C106.988 117.615 107.332 117.543 107.688 117.543C108.141 117.543 108.531 117.621 108.859 117.777C109.191 117.934 109.463 118.152 109.674 118.434C109.885 118.711 110.041 119.039 110.143 119.418C110.244 119.793 110.295 120.203 110.295 120.648V121.135H105.561V120.25H109.211V120.168C109.195 119.887 109.137 119.613 109.035 119.348C108.938 119.082 108.781 118.863 108.566 118.691C108.352 118.52 108.059 118.434 107.688 118.434C107.441 118.434 107.215 118.486 107.008 118.592C106.801 118.693 106.623 118.846 106.475 119.049C106.326 119.252 106.211 119.5 106.129 119.793C106.047 120.086 106.006 120.424 106.006 120.807V121.053C106.006 121.354 106.047 121.637 106.129 121.902C106.215 122.164 106.338 122.395 106.498 122.594C106.662 122.793 106.859 122.949 107.09 123.062C107.324 123.176 107.59 123.232 107.887 123.232C108.27 123.232 108.594 123.154 108.859 122.998C109.125 122.842 109.357 122.633 109.557 122.371L110.213 122.893C110.076 123.1 109.902 123.297 109.691 123.484C109.48 123.672 109.221 123.824 108.912 123.941C108.607 124.059 108.246 124.117 107.828 124.117ZM112.645 119.014V124H111.561V117.66H112.586L112.645 119.014ZM112.387 120.59L111.936 120.572C111.939 120.139 112.004 119.738 112.129 119.371C112.254 119 112.43 118.678 112.656 118.404C112.883 118.131 113.152 117.92 113.465 117.771C113.781 117.619 114.131 117.543 114.514 117.543C114.826 117.543 115.107 117.586 115.357 117.672C115.607 117.754 115.82 117.887 115.996 118.07C116.176 118.254 116.312 118.492 116.406 118.785C116.5 119.074 116.547 119.428 116.547 119.846V124H115.457V119.834C115.457 119.502 115.408 119.236 115.311 119.037C115.213 118.834 115.07 118.688 114.883 118.598C114.695 118.504 114.465 118.457 114.191 118.457C113.922 118.457 113.676 118.514 113.453 118.627C113.234 118.74 113.045 118.896 112.885 119.096C112.729 119.295 112.605 119.523 112.516 119.781C112.43 120.035 112.387 120.305 112.387 120.59ZM124.861 122.318C124.861 122.162 124.826 122.018 124.756 121.885C124.689 121.748 124.551 121.625 124.34 121.516C124.133 121.402 123.82 121.305 123.402 121.223C123.051 121.148 122.732 121.061 122.447 120.959C122.166 120.857 121.926 120.734 121.727 120.59C121.531 120.445 121.381 120.275 121.275 120.08C121.17 119.885 121.117 119.656 121.117 119.395C121.117 119.145 121.172 118.908 121.281 118.686C121.395 118.463 121.553 118.266 121.756 118.094C121.963 117.922 122.211 117.787 122.5 117.689C122.789 117.592 123.111 117.543 123.467 117.543C123.975 117.543 124.408 117.633 124.768 117.812C125.127 117.992 125.402 118.232 125.594 118.533C125.785 118.83 125.881 119.16 125.881 119.523H124.797C124.797 119.348 124.744 119.178 124.639 119.014C124.537 118.846 124.387 118.707 124.188 118.598C123.992 118.488 123.752 118.434 123.467 118.434C123.166 118.434 122.922 118.48 122.734 118.574C122.551 118.664 122.416 118.779 122.33 118.92C122.248 119.061 122.207 119.209 122.207 119.365C122.207 119.482 122.227 119.588 122.266 119.682C122.309 119.771 122.383 119.855 122.488 119.934C122.594 120.008 122.742 120.078 122.934 120.145C123.125 120.211 123.369 120.277 123.666 120.344C124.186 120.461 124.613 120.602 124.949 120.766C125.285 120.93 125.535 121.131 125.699 121.369C125.863 121.607 125.945 121.896 125.945 122.236C125.945 122.514 125.887 122.768 125.77 122.998C125.656 123.229 125.49 123.428 125.271 123.596C125.057 123.76 124.799 123.889 124.498 123.982C124.201 124.072 123.867 124.117 123.496 124.117C122.938 124.117 122.465 124.018 122.078 123.818C121.691 123.619 121.398 123.361 121.199 123.045C121 122.729 120.9 122.395 120.9 122.043H121.99C122.006 122.34 122.092 122.576 122.248 122.752C122.404 122.924 122.596 123.047 122.822 123.121C123.049 123.191 123.273 123.227 123.496 123.227C123.793 123.227 124.041 123.188 124.24 123.109C124.443 123.031 124.598 122.924 124.703 122.787C124.809 122.65 124.861 122.494 124.861 122.318ZM127.082 120.9V120.766C127.082 120.309 127.148 119.885 127.281 119.494C127.414 119.1 127.605 118.758 127.855 118.469C128.105 118.176 128.408 117.949 128.764 117.789C129.119 117.625 129.518 117.543 129.959 117.543C130.404 117.543 130.805 117.625 131.16 117.789C131.52 117.949 131.824 118.176 132.074 118.469C132.328 118.758 132.521 119.1 132.654 119.494C132.787 119.885 132.854 120.309 132.854 120.766V120.9C132.854 121.357 132.787 121.781 132.654 122.172C132.521 122.562 132.328 122.904 132.074 123.197C131.824 123.486 131.521 123.713 131.166 123.877C130.814 124.037 130.416 124.117 129.971 124.117C129.525 124.117 129.125 124.037 128.77 123.877C128.414 123.713 128.109 123.486 127.855 123.197C127.605 122.904 127.414 122.562 127.281 122.172C127.148 121.781 127.082 121.357 127.082 120.9ZM128.166 120.766V120.9C128.166 121.217 128.203 121.516 128.277 121.797C128.352 122.074 128.463 122.32 128.611 122.535C128.764 122.75 128.953 122.92 129.18 123.045C129.406 123.166 129.67 123.227 129.971 123.227C130.268 123.227 130.527 123.166 130.75 123.045C130.977 122.92 131.164 122.75 131.312 122.535C131.461 122.32 131.572 122.074 131.646 121.797C131.725 121.516 131.764 121.217 131.764 120.9V120.766C131.764 120.453 131.725 120.158 131.646 119.881C131.572 119.6 131.459 119.352 131.307 119.137C131.158 118.918 130.971 118.746 130.744 118.621C130.521 118.496 130.26 118.434 129.959 118.434C129.662 118.434 129.4 118.496 129.174 118.621C128.951 118.746 128.764 118.918 128.611 119.137C128.463 119.352 128.352 119.6 128.277 119.881C128.203 120.158 128.166 120.453 128.166 120.766ZM135.391 115V124H134.301V115H135.391ZM141.127 122.77V115H142.217V124H141.221L141.127 122.77ZM136.861 120.9V120.777C136.861 120.293 136.92 119.854 137.037 119.459C137.158 119.061 137.328 118.719 137.547 118.434C137.77 118.148 138.033 117.93 138.338 117.777C138.646 117.621 138.99 117.543 139.369 117.543C139.768 117.543 140.115 117.613 140.412 117.754C140.713 117.891 140.967 118.092 141.174 118.357C141.385 118.619 141.551 118.936 141.672 119.307C141.793 119.678 141.877 120.098 141.924 120.566V121.105C141.881 121.57 141.797 121.988 141.672 122.359C141.551 122.73 141.385 123.047 141.174 123.309C140.967 123.57 140.713 123.771 140.412 123.912C140.111 124.049 139.76 124.117 139.357 124.117C138.986 124.117 138.646 124.037 138.338 123.877C138.033 123.717 137.77 123.492 137.547 123.203C137.328 122.914 137.158 122.574 137.037 122.184C136.92 121.789 136.861 121.361 136.861 120.9ZM137.951 120.777V120.9C137.951 121.217 137.982 121.514 138.045 121.791C138.111 122.068 138.213 122.312 138.35 122.523C138.486 122.734 138.66 122.9 138.871 123.021C139.082 123.139 139.334 123.197 139.627 123.197C139.986 123.197 140.281 123.121 140.512 122.969C140.746 122.816 140.934 122.615 141.074 122.365C141.215 122.115 141.324 121.844 141.402 121.551V120.139C141.355 119.924 141.287 119.717 141.197 119.518C141.111 119.314 140.998 119.135 140.857 118.979C140.721 118.818 140.551 118.691 140.348 118.598C140.148 118.504 139.912 118.457 139.639 118.457C139.342 118.457 139.086 118.52 138.871 118.645C138.66 118.766 138.486 118.934 138.35 119.148C138.213 119.359 138.111 119.605 138.045 119.887C137.982 120.164 137.951 120.461 137.951 120.777ZM179.172 123.426C179.172 123.242 179.229 123.088 179.342 122.963C179.459 122.834 179.627 122.77 179.846 122.77C180.064 122.77 180.23 122.834 180.344 122.963C180.461 123.088 180.52 123.242 180.52 123.426C180.52 123.605 180.461 123.758 180.344 123.883C180.23 124.008 180.064 124.07 179.846 124.07C179.627 124.07 179.459 124.008 179.342 123.883C179.229 123.758 179.172 123.605 179.172 123.426Z" fill="#827D9D"/>
<path d="M152.354 123.109V124H146.77V123.221L149.564 120.109C149.908 119.727 150.174 119.402 150.361 119.137C150.553 118.867 150.686 118.627 150.76 118.416C150.838 118.201 150.877 117.982 150.877 117.76C150.877 117.479 150.818 117.225 150.701 116.998C150.588 116.768 150.42 116.584 150.197 116.447C149.975 116.311 149.705 116.242 149.389 116.242C149.01 116.242 148.693 116.316 148.439 116.465C148.189 116.609 148.002 116.812 147.877 117.074C147.752 117.336 147.689 117.637 147.689 117.977H146.605C146.605 117.496 146.711 117.057 146.922 116.658C147.133 116.26 147.445 115.943 147.859 115.709C148.273 115.471 148.783 115.352 149.389 115.352C149.928 115.352 150.389 115.447 150.771 115.639C151.154 115.826 151.447 116.092 151.65 116.436C151.857 116.775 151.961 117.174 151.961 117.631C151.961 117.881 151.918 118.135 151.832 118.393C151.75 118.646 151.635 118.9 151.486 119.154C151.342 119.408 151.172 119.658 150.977 119.904C150.785 120.15 150.58 120.393 150.361 120.631L148.076 123.109H152.354ZM162.191 123.08V124H157.674V123.08H162.191ZM157.902 115.469V124H156.771V115.469H157.902ZM161.594 119.137V120.057H157.674V119.137H161.594ZM162.133 115.469V116.395H157.674V115.469H162.133ZM166.744 115.469V124H165.631V115.469H166.744ZM169.486 115.469V116.395H162.895V115.469H169.486ZM176.324 119.137V120.057H171.707V119.137H176.324ZM171.883 115.469V124H170.752V115.469H171.883ZM177.309 115.469V124H176.184V115.469H177.309Z" fill="#00A2FD"/>
</g>
<path d="M73.2988 151.109V152H67.7148V151.221L70.5098 148.109C70.8535 147.727 71.1191 147.402 71.3066 147.137C71.498 146.867 71.6309 146.627 71.7051 146.416C71.7832 146.201 71.8223 145.982 71.8223 145.76C71.8223 145.479 71.7637 145.225 71.6465 144.998C71.5332 144.768 71.3652 144.584 71.1426 144.447C70.9199 144.311 70.6504 144.242 70.334 144.242C69.9551 144.242 69.6387 144.316 69.3848 144.465C69.1348 144.609 68.9473 144.812 68.8223 145.074C68.6973 145.336 68.6348 145.637 68.6348 145.977H67.5508C67.5508 145.496 67.6562 145.057 67.8672 144.658C68.0781 144.26 68.3906 143.943 68.8047 143.709C69.2188 143.471 69.7285 143.352 70.334 143.352C70.873 143.352 71.334 143.447 71.7168 143.639C72.0996 143.826 72.3926 144.092 72.5957 144.436C72.8027 144.775 72.9062 145.174 72.9062 145.631C72.9062 145.881 72.8633 146.135 72.7773 146.393C72.6953 146.646 72.5801 146.9 72.4316 147.154C72.2871 147.408 72.1172 147.658 71.9219 147.904C71.7305 148.15 71.5254 148.393 71.3066 148.631L69.0215 151.109H73.2988ZM79.9727 143.469V144.078L76.4395 152H75.2969L78.8242 144.359H74.207V143.469H79.9727ZM91.0352 147.465V148.004C91.0352 148.645 90.9551 149.219 90.7949 149.727C90.6348 150.234 90.4043 150.666 90.1035 151.021C89.8027 151.377 89.4414 151.648 89.0195 151.836C88.6016 152.023 88.1328 152.117 87.6133 152.117C87.1094 152.117 86.6465 152.023 86.2246 151.836C85.8066 151.648 85.4434 151.377 85.1348 151.021C84.8301 150.666 84.5938 150.234 84.4258 149.727C84.2578 149.219 84.1738 148.645 84.1738 148.004V147.465C84.1738 146.824 84.2559 146.252 84.4199 145.748C84.5879 145.24 84.8242 144.809 85.1289 144.453C85.4336 144.094 85.7949 143.82 86.2129 143.633C86.6348 143.445 87.0977 143.352 87.6016 143.352C88.1211 143.352 88.5898 143.445 89.0078 143.633C89.4297 143.82 89.791 144.094 90.0918 144.453C90.3965 144.809 90.6289 145.24 90.7891 145.748C90.9531 146.252 91.0352 146.824 91.0352 147.465ZM89.916 148.004V147.453C89.916 146.945 89.8633 146.496 89.7578 146.105C89.6562 145.715 89.5059 145.387 89.3066 145.121C89.1074 144.855 88.8633 144.654 88.5742 144.518C88.2891 144.381 87.9648 144.312 87.6016 144.312C87.25 144.312 86.9316 144.381 86.6465 144.518C86.3652 144.654 86.123 144.855 85.9199 145.121C85.7207 145.387 85.5664 145.715 85.457 146.105C85.3477 146.496 85.293 146.945 85.293 147.453V148.004C85.293 148.516 85.3477 148.969 85.457 149.363C85.5664 149.754 85.7227 150.084 85.9258 150.354C86.1328 150.619 86.377 150.82 86.6582 150.957C86.9434 151.094 87.2617 151.162 87.6133 151.162C87.9805 151.162 88.3066 151.094 88.5918 150.957C88.877 150.82 89.1172 150.619 89.3125 150.354C89.5117 150.084 89.6621 149.754 89.7637 149.363C89.8652 148.969 89.916 148.516 89.916 148.004ZM95.1016 151.227C95.3594 151.227 95.5977 151.174 95.8164 151.068C96.0352 150.963 96.2148 150.818 96.3555 150.635C96.4961 150.447 96.5762 150.234 96.5957 149.996H97.627C97.6074 150.371 97.4805 150.721 97.2461 151.045C97.0156 151.365 96.7129 151.625 96.3379 151.824C95.9629 152.02 95.5508 152.117 95.1016 152.117C94.625 152.117 94.209 152.033 93.8535 151.865C93.502 151.697 93.209 151.467 92.9746 151.174C92.7441 150.881 92.5703 150.545 92.4531 150.166C92.3398 149.783 92.2832 149.379 92.2832 148.953V148.707C92.2832 148.281 92.3398 147.879 92.4531 147.5C92.5703 147.117 92.7441 146.779 92.9746 146.486C93.209 146.193 93.502 145.963 93.8535 145.795C94.209 145.627 94.625 145.543 95.1016 145.543C95.5977 145.543 96.0312 145.645 96.4023 145.848C96.7734 146.047 97.0645 146.32 97.2754 146.668C97.4902 147.012 97.6074 147.402 97.627 147.84H96.5957C96.5762 147.578 96.502 147.342 96.373 147.131C96.248 146.92 96.0762 146.752 95.8574 146.627C95.6426 146.498 95.3906 146.434 95.1016 146.434C94.7695 146.434 94.4902 146.5 94.2637 146.633C94.041 146.762 93.8633 146.938 93.7305 147.16C93.6016 147.379 93.5078 147.623 93.4492 147.893C93.3945 148.158 93.3672 148.43 93.3672 148.707V148.953C93.3672 149.23 93.3945 149.504 93.4492 149.773C93.5039 150.043 93.5957 150.287 93.7246 150.506C93.8574 150.725 94.0352 150.9 94.2578 151.033C94.4844 151.162 94.7656 151.227 95.1016 151.227ZM101.5 145.66V146.492H98.0723V145.66H101.5ZM99.2324 144.119H100.316V150.43C100.316 150.645 100.35 150.807 100.416 150.916C100.482 151.025 100.568 151.098 100.674 151.133C100.779 151.168 100.893 151.186 101.014 151.186C101.104 151.186 101.197 151.178 101.295 151.162C101.396 151.143 101.473 151.127 101.523 151.115L101.529 152C101.443 152.027 101.33 152.053 101.189 152.076C101.053 152.104 100.887 152.117 100.691 152.117C100.426 152.117 100.182 152.064 99.959 151.959C99.7363 151.854 99.5586 151.678 99.4258 151.432C99.2969 151.182 99.2324 150.846 99.2324 150.424V144.119ZM111.221 151.109V152H105.637V151.221L108.432 148.109C108.775 147.727 109.041 147.402 109.229 147.137C109.42 146.867 109.553 146.627 109.627 146.416C109.705 146.201 109.744 145.982 109.744 145.76C109.744 145.479 109.686 145.225 109.568 144.998C109.455 144.768 109.287 144.584 109.064 144.447C108.842 144.311 108.572 144.242 108.256 144.242C107.877 144.242 107.561 144.316 107.307 144.465C107.057 144.609 106.869 144.812 106.744 145.074C106.619 145.336 106.557 145.637 106.557 145.977H105.473C105.473 145.496 105.578 145.057 105.789 144.658C106 144.26 106.312 143.943 106.727 143.709C107.141 143.471 107.65 143.352 108.256 143.352C108.795 143.352 109.256 143.447 109.639 143.639C110.021 143.826 110.314 144.092 110.518 144.436C110.725 144.775 110.828 145.174 110.828 145.631C110.828 145.881 110.785 146.135 110.699 146.393C110.617 146.646 110.502 146.9 110.354 147.154C110.209 147.408 110.039 147.658 109.844 147.904C109.652 148.15 109.447 148.393 109.229 148.631L106.943 151.109H111.221ZM117.736 147.055V148.355C117.736 149.055 117.674 149.645 117.549 150.125C117.424 150.605 117.244 150.992 117.01 151.285C116.775 151.578 116.492 151.791 116.16 151.924C115.832 152.053 115.461 152.117 115.047 152.117C114.719 152.117 114.416 152.076 114.139 151.994C113.861 151.912 113.611 151.781 113.389 151.602C113.17 151.418 112.982 151.18 112.826 150.887C112.67 150.594 112.551 150.238 112.469 149.82C112.387 149.402 112.346 148.914 112.346 148.355V147.055C112.346 146.355 112.408 145.77 112.533 145.297C112.662 144.824 112.844 144.445 113.078 144.16C113.312 143.871 113.594 143.664 113.922 143.539C114.254 143.414 114.625 143.352 115.035 143.352C115.367 143.352 115.672 143.393 115.949 143.475C116.23 143.553 116.48 143.68 116.699 143.855C116.918 144.027 117.104 144.258 117.256 144.547C117.412 144.832 117.531 145.182 117.613 145.596C117.695 146.01 117.736 146.496 117.736 147.055ZM116.646 148.531V146.873C116.646 146.49 116.623 146.154 116.576 145.865C116.533 145.572 116.469 145.322 116.383 145.115C116.297 144.908 116.188 144.74 116.055 144.611C115.926 144.482 115.775 144.389 115.604 144.33C115.436 144.268 115.246 144.236 115.035 144.236C114.777 144.236 114.549 144.285 114.35 144.383C114.15 144.477 113.982 144.627 113.846 144.834C113.713 145.041 113.611 145.312 113.541 145.648C113.471 145.984 113.436 146.393 113.436 146.873V148.531C113.436 148.914 113.457 149.252 113.5 149.545C113.547 149.838 113.615 150.092 113.705 150.307C113.795 150.518 113.904 150.691 114.033 150.828C114.162 150.965 114.311 151.066 114.479 151.133C114.65 151.195 114.84 151.227 115.047 151.227C115.312 151.227 115.545 151.176 115.744 151.074C115.943 150.973 116.109 150.814 116.242 150.6C116.379 150.381 116.48 150.102 116.547 149.762C116.613 149.418 116.646 149.008 116.646 148.531ZM124.721 151.109V152H119.137V151.221L121.932 148.109C122.275 147.727 122.541 147.402 122.729 147.137C122.92 146.867 123.053 146.627 123.127 146.416C123.205 146.201 123.244 145.982 123.244 145.76C123.244 145.479 123.186 145.225 123.068 144.998C122.955 144.768 122.787 144.584 122.564 144.447C122.342 144.311 122.072 144.242 121.756 144.242C121.377 144.242 121.061 144.316 120.807 144.465C120.557 144.609 120.369 144.812 120.244 145.074C120.119 145.336 120.057 145.637 120.057 145.977H118.973C118.973 145.496 119.078 145.057 119.289 144.658C119.5 144.26 119.812 143.943 120.227 143.709C120.641 143.471 121.15 143.352 121.756 143.352C122.295 143.352 122.756 143.447 123.139 143.639C123.521 143.826 123.814 144.092 124.018 144.436C124.225 144.775 124.328 145.174 124.328 145.631C124.328 145.881 124.285 146.135 124.199 146.393C124.117 146.646 124.002 146.9 123.854 147.154C123.709 147.408 123.539 147.658 123.344 147.904C123.152 148.15 122.947 148.393 122.729 148.631L120.443 151.109H124.721ZM129.443 143.422V152H128.359V144.775L126.174 145.572V144.594L129.273 143.422H129.443ZM139.463 150.916V147.652C139.463 147.402 139.412 147.186 139.311 147.002C139.213 146.814 139.064 146.67 138.865 146.568C138.666 146.467 138.42 146.416 138.127 146.416C137.854 146.416 137.613 146.463 137.406 146.557C137.203 146.65 137.043 146.773 136.926 146.926C136.812 147.078 136.756 147.242 136.756 147.418H135.672C135.672 147.191 135.73 146.967 135.848 146.744C135.965 146.521 136.133 146.32 136.352 146.141C136.574 145.957 136.84 145.812 137.148 145.707C137.461 145.598 137.809 145.543 138.191 145.543C138.652 145.543 139.059 145.621 139.41 145.777C139.766 145.934 140.043 146.17 140.242 146.486C140.445 146.799 140.547 147.191 140.547 147.664V150.617C140.547 150.828 140.564 151.053 140.6 151.291C140.639 151.529 140.695 151.734 140.77 151.906V152H139.639C139.584 151.875 139.541 151.709 139.51 151.502C139.479 151.291 139.463 151.096 139.463 150.916ZM139.65 148.156L139.662 148.918H138.566C138.258 148.918 137.982 148.943 137.74 148.994C137.498 149.041 137.295 149.113 137.131 149.211C136.967 149.309 136.842 149.432 136.756 149.58C136.67 149.725 136.627 149.895 136.627 150.09C136.627 150.289 136.672 150.471 136.762 150.635C136.852 150.799 136.986 150.93 137.166 151.027C137.35 151.121 137.574 151.168 137.84 151.168C138.172 151.168 138.465 151.098 138.719 150.957C138.973 150.816 139.174 150.645 139.322 150.441C139.475 150.238 139.557 150.041 139.568 149.85L140.031 150.371C140.004 150.535 139.93 150.717 139.809 150.916C139.688 151.115 139.525 151.307 139.322 151.49C139.123 151.67 138.885 151.82 138.607 151.941C138.334 152.059 138.025 152.117 137.682 152.117C137.252 152.117 136.875 152.033 136.551 151.865C136.23 151.697 135.98 151.473 135.801 151.191C135.625 150.906 135.537 150.588 135.537 150.236C135.537 149.896 135.604 149.598 135.736 149.34C135.869 149.078 136.061 148.861 136.311 148.689C136.561 148.514 136.861 148.381 137.213 148.291C137.564 148.201 137.957 148.156 138.391 148.156H139.65ZM144.906 145.66V146.492H141.479V145.66H144.906ZM142.639 144.119H143.723V150.43C143.723 150.645 143.756 150.807 143.822 150.916C143.889 151.025 143.975 151.098 144.08 151.133C144.186 151.168 144.299 151.186 144.42 151.186C144.51 151.186 144.604 151.178 144.701 151.162C144.803 151.143 144.879 151.127 144.93 151.115L144.936 152C144.85 152.027 144.736 152.053 144.596 152.076C144.459 152.104 144.293 152.117 144.098 152.117C143.832 152.117 143.588 152.064 143.365 151.959C143.143 151.854 142.965 151.678 142.832 151.432C142.703 151.182 142.639 150.846 142.639 150.424V144.119ZM154.393 147.055V148.355C154.393 149.055 154.33 149.645 154.205 150.125C154.08 150.605 153.9 150.992 153.666 151.285C153.432 151.578 153.148 151.791 152.816 151.924C152.488 152.053 152.117 152.117 151.703 152.117C151.375 152.117 151.072 152.076 150.795 151.994C150.518 151.912 150.268 151.781 150.045 151.602C149.826 151.418 149.639 151.18 149.482 150.887C149.326 150.594 149.207 150.238 149.125 149.82C149.043 149.402 149.002 148.914 149.002 148.355V147.055C149.002 146.355 149.064 145.77 149.189 145.297C149.318 144.824 149.5 144.445 149.734 144.16C149.969 143.871 150.25 143.664 150.578 143.539C150.91 143.414 151.281 143.352 151.691 143.352C152.023 143.352 152.328 143.393 152.605 143.475C152.887 143.553 153.137 143.68 153.355 143.855C153.574 144.027 153.76 144.258 153.912 144.547C154.068 144.832 154.188 145.182 154.27 145.596C154.352 146.01 154.393 146.496 154.393 147.055ZM153.303 148.531V146.873C153.303 146.49 153.279 146.154 153.232 145.865C153.189 145.572 153.125 145.322 153.039 145.115C152.953 144.908 152.844 144.74 152.711 144.611C152.582 144.482 152.432 144.389 152.26 144.33C152.092 144.268 151.902 144.236 151.691 144.236C151.434 144.236 151.205 144.285 151.006 144.383C150.807 144.477 150.639 144.627 150.502 144.834C150.369 145.041 150.268 145.312 150.197 145.648C150.127 145.984 150.092 146.393 150.092 146.873V148.531C150.092 148.914 150.113 149.252 150.156 149.545C150.203 149.838 150.271 150.092 150.361 150.307C150.451 150.518 150.561 150.691 150.689 150.828C150.818 150.965 150.967 151.066 151.135 151.133C151.307 151.195 151.496 151.227 151.703 151.227C151.969 151.227 152.201 151.176 152.4 151.074C152.6 150.973 152.766 150.814 152.898 150.6C153.035 150.381 153.137 150.102 153.203 149.762C153.27 149.418 153.303 149.008 153.303 148.531ZM161.301 143.469V144.078L157.768 152H156.625L160.152 144.359H155.535V143.469H161.301ZM162.607 151.426C162.607 151.242 162.664 151.088 162.777 150.963C162.895 150.834 163.062 150.77 163.281 150.77C163.5 150.77 163.666 150.834 163.779 150.963C163.896 151.088 163.955 151.242 163.955 151.426C163.955 151.605 163.896 151.758 163.779 151.883C163.666 152.008 163.5 152.07 163.281 152.07C163.062 152.07 162.895 152.008 162.777 151.883C162.664 151.758 162.607 151.605 162.607 151.426ZM162.613 146.252C162.613 146.068 162.67 145.914 162.783 145.789C162.9 145.66 163.068 145.596 163.287 145.596C163.506 145.596 163.672 145.66 163.785 145.789C163.902 145.914 163.961 146.068 163.961 146.252C163.961 146.432 163.902 146.584 163.785 146.709C163.672 146.834 163.506 146.896 163.287 146.896C163.068 146.896 162.9 146.834 162.783 146.709C162.67 146.584 162.613 146.432 162.613 146.252ZM170.799 147.055V148.355C170.799 149.055 170.736 149.645 170.611 150.125C170.486 150.605 170.307 150.992 170.072 151.285C169.838 151.578 169.555 151.791 169.223 151.924C168.895 152.053 168.523 152.117 168.109 152.117C167.781 152.117 167.479 152.076 167.201 151.994C166.924 151.912 166.674 151.781 166.451 151.602C166.232 151.418 166.045 151.18 165.889 150.887C165.732 150.594 165.613 150.238 165.531 149.82C165.449 149.402 165.408 148.914 165.408 148.355V147.055C165.408 146.355 165.471 145.77 165.596 145.297C165.725 144.824 165.906 144.445 166.141 144.16C166.375 143.871 166.656 143.664 166.984 143.539C167.316 143.414 167.688 143.352 168.098 143.352C168.43 143.352 168.734 143.393 169.012 143.475C169.293 143.553 169.543 143.68 169.762 143.855C169.98 144.027 170.166 144.258 170.318 144.547C170.475 144.832 170.594 145.182 170.676 145.596C170.758 146.01 170.799 146.496 170.799 147.055ZM169.709 148.531V146.873C169.709 146.49 169.686 146.154 169.639 145.865C169.596 145.572 169.531 145.322 169.445 145.115C169.359 144.908 169.25 144.74 169.117 144.611C168.988 144.482 168.838 144.389 168.666 144.33C168.498 144.268 168.309 144.236 168.098 144.236C167.84 144.236 167.611 144.285 167.412 144.383C167.213 144.477 167.045 144.627 166.908 144.834C166.775 145.041 166.674 145.312 166.604 145.648C166.533 145.984 166.498 146.393 166.498 146.873V148.531C166.498 148.914 166.52 149.252 166.562 149.545C166.609 149.838 166.678 150.092 166.768 150.307C166.857 150.518 166.967 150.691 167.096 150.828C167.225 150.965 167.373 151.066 167.541 151.133C167.713 151.195 167.902 151.227 168.109 151.227C168.375 151.227 168.607 151.176 168.807 151.074C169.006 150.973 169.172 150.814 169.305 150.6C169.441 150.381 169.543 150.102 169.609 149.762C169.676 149.418 169.709 149.008 169.709 148.531ZM173.564 147.939L172.697 147.717L173.125 143.469H177.502V144.471H174.045L173.787 146.791C173.943 146.701 174.141 146.617 174.379 146.539C174.621 146.461 174.898 146.422 175.211 146.422C175.605 146.422 175.959 146.49 176.271 146.627C176.584 146.76 176.85 146.951 177.068 147.201C177.291 147.451 177.461 147.752 177.578 148.104C177.695 148.455 177.754 148.848 177.754 149.281C177.754 149.691 177.697 150.068 177.584 150.412C177.475 150.756 177.309 151.057 177.086 151.314C176.863 151.568 176.582 151.766 176.242 151.906C175.906 152.047 175.51 152.117 175.053 152.117C174.709 152.117 174.383 152.07 174.074 151.977C173.77 151.879 173.496 151.732 173.254 151.537C173.016 151.338 172.82 151.092 172.668 150.799C172.52 150.502 172.426 150.154 172.387 149.756H173.418C173.465 150.076 173.559 150.346 173.699 150.564C173.84 150.783 174.023 150.949 174.25 151.062C174.48 151.172 174.748 151.227 175.053 151.227C175.311 151.227 175.539 151.182 175.738 151.092C175.938 151.002 176.105 150.873 176.242 150.705C176.379 150.537 176.482 150.334 176.553 150.096C176.627 149.857 176.664 149.59 176.664 149.293C176.664 149.023 176.627 148.773 176.553 148.543C176.479 148.312 176.367 148.111 176.219 147.939C176.074 147.768 175.896 147.635 175.686 147.541C175.475 147.443 175.232 147.395 174.959 147.395C174.596 147.395 174.32 147.443 174.133 147.541C173.949 147.639 173.76 147.771 173.564 147.939ZM185.348 148.654H183.068V147.734H185.348C185.789 147.734 186.146 147.664 186.42 147.523C186.693 147.383 186.893 147.188 187.018 146.938C187.146 146.688 187.211 146.402 187.211 146.082C187.211 145.789 187.146 145.514 187.018 145.256C186.893 144.998 186.693 144.791 186.42 144.635C186.146 144.475 185.789 144.395 185.348 144.395H183.332V152H182.201V143.469H185.348C185.992 143.469 186.537 143.58 186.982 143.803C187.428 144.025 187.766 144.334 187.996 144.729C188.227 145.119 188.342 145.566 188.342 146.07C188.342 146.617 188.227 147.084 187.996 147.471C187.766 147.857 187.428 148.152 186.982 148.355C186.537 148.555 185.992 148.654 185.348 148.654ZM190.129 143.469H191.225L194.02 150.424L196.809 143.469H197.91L194.441 152H193.586L190.129 143.469ZM189.771 143.469H190.738L190.896 148.672V152H189.771V143.469ZM197.295 143.469H198.262V152H197.137V148.672L197.295 143.469Z" fill="#827D9D"/>
<defs>
<clipPath id="clip0_0_1342">
<rect width="145" height="37" fill="white" transform="translate(67 16)"/>
</clipPath>
<clipPath id="clip1_0_1342">
<rect width="145" height="37" fill="white" transform="translate(67 97)"/>
</clipPath>
</defs>
</svg>
