<svg width="280" height="642" viewBox="0 0 280 642" fill="none" xmlns="http://www.w3.org/2000/svg">
<rect width="280" height="642" fill="white"/>
<rect x="16" y="16" width="248" height="297" rx="18" fill="#030A1D"/>
<path d="M43.1406 256.191H44.2656C44.207 256.73 44.0527 257.212 43.8027 257.638C43.5527 258.064 43.1992 258.402 42.7422 258.652C42.2852 258.898 41.7148 259.021 41.0312 259.021C40.5312 259.021 40.0762 258.927 39.666 258.74C39.2598 258.552 38.9102 258.286 38.6172 257.943C38.3242 257.595 38.0977 257.179 37.9375 256.695C37.7812 256.206 37.7031 255.663 37.7031 255.066V254.216C37.7031 253.618 37.7812 253.077 37.9375 252.593C38.0977 252.105 38.3262 251.687 38.623 251.339C38.9238 250.991 39.2852 250.724 39.707 250.536C40.1289 250.349 40.6035 250.255 41.1309 250.255C41.7754 250.255 42.3203 250.376 42.7656 250.618C43.2109 250.861 43.5566 251.197 43.8027 251.626C44.0527 252.052 44.207 252.546 44.2656 253.109H43.1406C43.0859 252.71 42.9844 252.368 42.8359 252.083C42.6875 251.794 42.4766 251.572 42.2031 251.415C41.9297 251.259 41.5723 251.181 41.1309 251.181C40.752 251.181 40.418 251.253 40.1289 251.398C39.8438 251.542 39.6035 251.747 39.4082 252.013C39.2168 252.279 39.0723 252.597 38.9746 252.968C38.877 253.339 38.8281 253.751 38.8281 254.204V255.066C38.8281 255.484 38.8711 255.876 38.957 256.243C39.0469 256.611 39.1816 256.933 39.3613 257.21C39.541 257.488 39.7695 257.706 40.0469 257.866C40.3242 258.023 40.6523 258.101 41.0312 258.101C41.5117 258.101 41.8945 258.025 42.1797 257.872C42.4648 257.72 42.6797 257.501 42.8242 257.216C42.9727 256.931 43.0781 256.589 43.1406 256.191ZM46.7266 253.56V258.904H45.6426V252.564H46.6973L46.7266 253.56ZM48.707 252.529L48.7012 253.536C48.6113 253.517 48.5254 253.505 48.4434 253.501C48.3652 253.493 48.2754 253.49 48.1738 253.49C47.9238 253.49 47.7031 253.529 47.5117 253.607C47.3203 253.685 47.1582 253.794 47.0254 253.935C46.8926 254.075 46.7871 254.243 46.709 254.439C46.6348 254.63 46.5859 254.841 46.5625 255.072L46.2578 255.247C46.2578 254.865 46.2949 254.505 46.3691 254.169C46.4473 253.833 46.5664 253.536 46.7266 253.279C46.8867 253.017 47.0898 252.814 47.3359 252.669C47.5859 252.521 47.8828 252.447 48.2266 252.447C48.3047 252.447 48.3945 252.456 48.4961 252.476C48.5977 252.491 48.668 252.509 48.707 252.529ZM51.5957 258.247L53.3594 252.564H54.5195L51.9766 259.882C51.918 260.038 51.8398 260.206 51.7422 260.386C51.6484 260.57 51.5273 260.743 51.3789 260.907C51.2305 261.072 51.0508 261.204 50.8398 261.306C50.6328 261.411 50.3848 261.464 50.0957 261.464C50.0098 261.464 49.9004 261.452 49.7676 261.429C49.6348 261.406 49.541 261.386 49.4863 261.37L49.4805 260.491C49.5117 260.495 49.5605 260.499 49.627 260.503C49.6973 260.511 49.7461 260.515 49.7734 260.515C50.0195 260.515 50.2285 260.482 50.4004 260.415C50.5723 260.353 50.7168 260.245 50.834 260.093C50.9551 259.945 51.0586 259.74 51.1445 259.478L51.5957 258.247ZM50.3008 252.564L51.9473 257.486L52.2285 258.628L51.4492 259.027L49.1172 252.564H50.3008ZM56.582 253.782V261.341H55.4922V252.564H56.4883L56.582 253.782ZM60.8535 255.681V255.804C60.8535 256.265 60.7988 256.693 60.6895 257.087C60.5801 257.478 60.4199 257.818 60.209 258.107C60.002 258.396 59.7461 258.62 59.4414 258.781C59.1367 258.941 58.7871 259.021 58.3926 259.021C57.9902 259.021 57.6348 258.954 57.3262 258.822C57.0176 258.689 56.7559 258.495 56.541 258.241C56.3262 257.988 56.1543 257.683 56.0254 257.327C55.9004 256.972 55.8145 256.572 55.7676 256.126V255.47C55.8145 255.001 55.9023 254.581 56.0312 254.21C56.1602 253.839 56.3301 253.523 56.541 253.261C56.7559 252.995 57.0156 252.794 57.3203 252.657C57.625 252.517 57.9766 252.447 58.375 252.447C58.7734 252.447 59.127 252.525 59.4355 252.681C59.7441 252.833 60.0039 253.052 60.2148 253.337C60.4258 253.622 60.584 253.964 60.6895 254.363C60.7988 254.757 60.8535 255.197 60.8535 255.681ZM59.7637 255.804V255.681C59.7637 255.365 59.7305 255.068 59.6641 254.79C59.5977 254.509 59.4941 254.263 59.3535 254.052C59.2168 253.837 59.041 253.669 58.8262 253.548C58.6113 253.423 58.3555 253.361 58.0586 253.361C57.7852 253.361 57.5469 253.407 57.3438 253.501C57.1445 253.595 56.9746 253.722 56.834 253.882C56.6934 254.038 56.5781 254.218 56.4883 254.421C56.4023 254.62 56.3379 254.827 56.2949 255.042V256.56C56.373 256.833 56.4824 257.091 56.623 257.333C56.7637 257.572 56.9512 257.765 57.1855 257.913C57.4199 258.058 57.7148 258.13 58.0703 258.13C58.3633 258.13 58.6152 258.07 58.8262 257.948C59.041 257.823 59.2168 257.654 59.3535 257.439C59.4941 257.224 59.5977 256.978 59.6641 256.7C59.7305 256.419 59.7637 256.12 59.7637 255.804ZM64.8906 252.564V253.396H61.4629V252.564H64.8906ZM62.623 251.023H63.707V257.333C63.707 257.548 63.7402 257.71 63.8066 257.82C63.873 257.929 63.959 258.001 64.0645 258.036C64.1699 258.072 64.2832 258.089 64.4043 258.089C64.4941 258.089 64.5879 258.081 64.6855 258.066C64.7871 258.046 64.8633 258.031 64.9141 258.019L64.9199 258.904C64.834 258.931 64.7207 258.956 64.5801 258.98C64.4434 259.007 64.2773 259.021 64.082 259.021C63.8164 259.021 63.5723 258.968 63.3496 258.863C63.127 258.757 62.9492 258.581 62.8164 258.335C62.6875 258.085 62.623 257.749 62.623 257.327V251.023ZM65.7578 255.804V255.669C65.7578 255.212 65.8242 254.788 65.957 254.398C66.0898 254.003 66.2812 253.661 66.5312 253.372C66.7812 253.079 67.084 252.853 67.4395 252.693C67.7949 252.529 68.1934 252.447 68.6348 252.447C69.0801 252.447 69.4805 252.529 69.8359 252.693C70.1953 252.853 70.5 253.079 70.75 253.372C71.0039 253.661 71.1973 254.003 71.3301 254.398C71.4629 254.788 71.5293 255.212 71.5293 255.669V255.804C71.5293 256.261 71.4629 256.685 71.3301 257.075C71.1973 257.466 71.0039 257.808 70.75 258.101C70.5 258.39 70.1973 258.616 69.8418 258.781C69.4902 258.941 69.0918 259.021 68.6465 259.021C68.2012 259.021 67.8008 258.941 67.4453 258.781C67.0898 258.616 66.7852 258.39 66.5312 258.101C66.2812 257.808 66.0898 257.466 65.957 257.075C65.8242 256.685 65.7578 256.261 65.7578 255.804ZM66.8418 255.669V255.804C66.8418 256.12 66.8789 256.419 66.9531 256.7C67.0273 256.978 67.1387 257.224 67.2871 257.439C67.4395 257.654 67.6289 257.823 67.8555 257.948C68.082 258.07 68.3457 258.13 68.6465 258.13C68.9434 258.13 69.2031 258.07 69.4258 257.948C69.6523 257.823 69.8398 257.654 69.9883 257.439C70.1367 257.224 70.248 256.978 70.3223 256.7C70.4004 256.419 70.4395 256.12 70.4395 255.804V255.669C70.4395 255.357 70.4004 255.062 70.3223 254.784C70.248 254.503 70.1348 254.255 69.9824 254.04C69.834 253.822 69.6465 253.65 69.4199 253.525C69.1973 253.4 68.9355 253.337 68.6348 253.337C68.3379 253.337 68.0762 253.4 67.8496 253.525C67.627 253.65 67.4395 253.822 67.2871 254.04C67.1387 254.255 67.0273 254.503 66.9531 254.784C66.8789 255.062 66.8418 255.357 66.8418 255.669ZM81.6016 254.04V254.96H76.9844V254.04H81.6016ZM77.1602 250.372V258.904H76.0293V250.372H77.1602ZM82.5859 250.372V258.904H81.4609V250.372H82.5859ZM87.0625 259.021C86.6211 259.021 86.2207 258.947 85.8613 258.798C85.5059 258.646 85.1992 258.433 84.9414 258.159C84.6875 257.886 84.4922 257.562 84.3555 257.187C84.2188 256.812 84.1504 256.402 84.1504 255.956V255.71C84.1504 255.195 84.2266 254.736 84.3789 254.333C84.5312 253.927 84.7383 253.583 85 253.302C85.2617 253.021 85.5586 252.808 85.8906 252.663C86.2227 252.519 86.5664 252.447 86.9219 252.447C87.375 252.447 87.7656 252.525 88.0938 252.681C88.4258 252.837 88.6973 253.056 88.9082 253.337C89.1191 253.615 89.2754 253.943 89.377 254.322C89.4785 254.697 89.5293 255.107 89.5293 255.552V256.038H84.7949V255.154H88.4453V255.072C88.4297 254.79 88.3711 254.517 88.2695 254.251C88.1719 253.986 88.0156 253.767 87.8008 253.595C87.5859 253.423 87.293 253.337 86.9219 253.337C86.6758 253.337 86.4492 253.39 86.2422 253.495C86.0352 253.597 85.8574 253.749 85.709 253.952C85.5605 254.156 85.4453 254.404 85.3633 254.697C85.2812 254.99 85.2402 255.327 85.2402 255.71V255.956C85.2402 256.257 85.2812 256.54 85.3633 256.806C85.4492 257.068 85.5723 257.298 85.7324 257.497C85.8965 257.697 86.0938 257.853 86.3242 257.966C86.5586 258.079 86.8242 258.136 87.1211 258.136C87.5039 258.136 87.8281 258.058 88.0938 257.902C88.3594 257.745 88.5918 257.536 88.791 257.275L89.4473 257.796C89.3105 258.003 89.1367 258.2 88.9258 258.388C88.7148 258.575 88.4551 258.728 88.1465 258.845C87.8418 258.962 87.4805 259.021 87.0625 259.021ZM91.8789 253.56V258.904H90.7949V252.564H91.8496L91.8789 253.56ZM93.8594 252.529L93.8535 253.536C93.7637 253.517 93.6777 253.505 93.5957 253.501C93.5176 253.493 93.4277 253.49 93.3262 253.49C93.0762 253.49 92.8555 253.529 92.6641 253.607C92.4727 253.685 92.3105 253.794 92.1777 253.935C92.0449 254.075 91.9395 254.243 91.8613 254.439C91.7871 254.63 91.7383 254.841 91.7148 255.072L91.4102 255.247C91.4102 254.865 91.4473 254.505 91.5215 254.169C91.5996 253.833 91.7188 253.536 91.8789 253.279C92.0391 253.017 92.2422 252.814 92.4883 252.669C92.7383 252.521 93.0352 252.447 93.3789 252.447C93.457 252.447 93.5469 252.456 93.6484 252.476C93.75 252.491 93.8203 252.509 93.8594 252.529ZM94.457 255.804V255.669C94.457 255.212 94.5234 254.788 94.6562 254.398C94.7891 254.003 94.9805 253.661 95.2305 253.372C95.4805 253.079 95.7832 252.853 96.1387 252.693C96.4941 252.529 96.8926 252.447 97.334 252.447C97.7793 252.447 98.1797 252.529 98.5352 252.693C98.8945 252.853 99.1992 253.079 99.4492 253.372C99.7031 253.661 99.8965 254.003 100.029 254.398C100.162 254.788 100.229 255.212 100.229 255.669V255.804C100.229 256.261 100.162 256.685 100.029 257.075C99.8965 257.466 99.7031 257.808 99.4492 258.101C99.1992 258.39 98.8965 258.616 98.541 258.781C98.1895 258.941 97.791 259.021 97.3457 259.021C96.9004 259.021 96.5 258.941 96.1445 258.781C95.7891 258.616 95.4844 258.39 95.2305 258.101C94.9805 257.808 94.7891 257.466 94.6562 257.075C94.5234 256.685 94.457 256.261 94.457 255.804ZM95.541 255.669V255.804C95.541 256.12 95.5781 256.419 95.6523 256.7C95.7266 256.978 95.8379 257.224 95.9863 257.439C96.1387 257.654 96.3281 257.823 96.5547 257.948C96.7812 258.07 97.0449 258.13 97.3457 258.13C97.6426 258.13 97.9023 258.07 98.125 257.948C98.3516 257.823 98.5391 257.654 98.6875 257.439C98.8359 257.224 98.9473 256.978 99.0215 256.7C99.0996 256.419 99.1387 256.12 99.1387 255.804V255.669C99.1387 255.357 99.0996 255.062 99.0215 254.784C98.9473 254.503 98.834 254.255 98.6816 254.04C98.5332 253.822 98.3457 253.65 98.1191 253.525C97.8965 253.4 97.6348 253.337 97.334 253.337C97.0371 253.337 96.7754 253.4 96.5488 253.525C96.3262 253.65 96.1387 253.822 95.9863 254.04C95.8379 254.255 95.7266 254.503 95.6523 254.784C95.5781 255.062 95.541 255.357 95.541 255.669ZM105.086 250.372H106.182L108.977 257.327L111.766 250.372H112.867L109.398 258.904H108.543L105.086 250.372ZM104.729 250.372H105.695L105.854 255.575V258.904H104.729V250.372ZM112.252 250.372H113.219V258.904H112.094V255.575L112.252 250.372ZM118.779 257.82V254.556C118.779 254.306 118.729 254.089 118.627 253.906C118.529 253.718 118.381 253.573 118.182 253.472C117.982 253.37 117.736 253.32 117.443 253.32C117.17 253.32 116.93 253.366 116.723 253.46C116.52 253.554 116.359 253.677 116.242 253.829C116.129 253.982 116.072 254.146 116.072 254.322H114.988C114.988 254.095 115.047 253.87 115.164 253.648C115.281 253.425 115.449 253.224 115.668 253.044C115.891 252.861 116.156 252.716 116.465 252.611C116.777 252.501 117.125 252.447 117.508 252.447C117.969 252.447 118.375 252.525 118.727 252.681C119.082 252.837 119.359 253.073 119.559 253.39C119.762 253.702 119.863 254.095 119.863 254.568V257.521C119.863 257.732 119.881 257.956 119.916 258.195C119.955 258.433 120.012 258.638 120.086 258.81V258.904H118.955C118.9 258.779 118.857 258.613 118.826 258.406C118.795 258.195 118.779 257.999 118.779 257.82ZM118.967 255.06L118.979 255.822H117.883C117.574 255.822 117.299 255.847 117.057 255.898C116.814 255.945 116.611 256.017 116.447 256.115C116.283 256.212 116.158 256.335 116.072 256.484C115.986 256.628 115.943 256.798 115.943 256.993C115.943 257.193 115.988 257.374 116.078 257.538C116.168 257.702 116.303 257.833 116.482 257.931C116.666 258.025 116.891 258.072 117.156 258.072C117.488 258.072 117.781 258.001 118.035 257.861C118.289 257.72 118.49 257.548 118.639 257.345C118.791 257.142 118.873 256.945 118.885 256.753L119.348 257.275C119.32 257.439 119.246 257.62 119.125 257.82C119.004 258.019 118.842 258.21 118.639 258.394C118.439 258.573 118.201 258.724 117.924 258.845C117.65 258.962 117.342 259.021 116.998 259.021C116.568 259.021 116.191 258.937 115.867 258.769C115.547 258.601 115.297 258.376 115.117 258.095C114.941 257.81 114.854 257.491 114.854 257.14C114.854 256.8 114.92 256.501 115.053 256.243C115.186 255.982 115.377 255.765 115.627 255.593C115.877 255.417 116.178 255.284 116.529 255.195C116.881 255.105 117.273 255.06 117.707 255.06H118.967ZM122.652 253.56V258.904H121.568V252.564H122.623L122.652 253.56ZM124.633 252.529L124.627 253.536C124.537 253.517 124.451 253.505 124.369 253.501C124.291 253.493 124.201 253.49 124.1 253.49C123.85 253.49 123.629 253.529 123.438 253.607C123.246 253.685 123.084 253.794 122.951 253.935C122.818 254.075 122.713 254.243 122.635 254.439C122.561 254.63 122.512 254.841 122.488 255.072L122.184 255.247C122.184 254.865 122.221 254.505 122.295 254.169C122.373 253.833 122.492 253.536 122.652 253.279C122.812 253.017 123.016 252.814 123.262 252.669C123.512 252.521 123.809 252.447 124.152 252.447C124.23 252.447 124.32 252.456 124.422 252.476C124.523 252.491 124.594 252.509 124.633 252.529ZM128.055 258.13C128.312 258.13 128.551 258.077 128.77 257.972C128.988 257.866 129.168 257.722 129.309 257.538C129.449 257.351 129.529 257.138 129.549 256.9H130.58C130.561 257.275 130.434 257.624 130.199 257.948C129.969 258.269 129.666 258.529 129.291 258.728C128.916 258.923 128.504 259.021 128.055 259.021C127.578 259.021 127.162 258.937 126.807 258.769C126.455 258.601 126.162 258.37 125.928 258.077C125.697 257.784 125.523 257.448 125.406 257.07C125.293 256.687 125.236 256.282 125.236 255.857V255.611C125.236 255.185 125.293 254.782 125.406 254.404C125.523 254.021 125.697 253.683 125.928 253.39C126.162 253.097 126.455 252.866 126.807 252.698C127.162 252.531 127.578 252.447 128.055 252.447C128.551 252.447 128.984 252.548 129.355 252.751C129.727 252.95 130.018 253.224 130.229 253.572C130.443 253.915 130.561 254.306 130.58 254.743H129.549C129.529 254.482 129.455 254.245 129.326 254.034C129.201 253.823 129.029 253.656 128.811 253.531C128.596 253.402 128.344 253.337 128.055 253.337C127.723 253.337 127.443 253.404 127.217 253.536C126.994 253.665 126.816 253.841 126.684 254.064C126.555 254.282 126.461 254.527 126.402 254.796C126.348 255.062 126.32 255.333 126.32 255.611V255.857C126.32 256.134 126.348 256.407 126.402 256.677C126.457 256.947 126.549 257.191 126.678 257.409C126.811 257.628 126.988 257.804 127.211 257.937C127.438 258.066 127.719 258.13 128.055 258.13ZM134.43 259.021C133.988 259.021 133.588 258.947 133.229 258.798C132.873 258.646 132.566 258.433 132.309 258.159C132.055 257.886 131.859 257.562 131.723 257.187C131.586 256.812 131.518 256.402 131.518 255.956V255.71C131.518 255.195 131.594 254.736 131.746 254.333C131.898 253.927 132.105 253.583 132.367 253.302C132.629 253.021 132.926 252.808 133.258 252.663C133.59 252.519 133.934 252.447 134.289 252.447C134.742 252.447 135.133 252.525 135.461 252.681C135.793 252.837 136.064 253.056 136.275 253.337C136.486 253.615 136.643 253.943 136.744 254.322C136.846 254.697 136.896 255.107 136.896 255.552V256.038H132.162V255.154H135.812V255.072C135.797 254.79 135.738 254.517 135.637 254.251C135.539 253.986 135.383 253.767 135.168 253.595C134.953 253.423 134.66 253.337 134.289 253.337C134.043 253.337 133.816 253.39 133.609 253.495C133.402 253.597 133.225 253.749 133.076 253.952C132.928 254.156 132.812 254.404 132.73 254.697C132.648 254.99 132.607 255.327 132.607 255.71V255.956C132.607 256.257 132.648 256.54 132.73 256.806C132.816 257.068 132.939 257.298 133.1 257.497C133.264 257.697 133.461 257.853 133.691 257.966C133.926 258.079 134.191 258.136 134.488 258.136C134.871 258.136 135.195 258.058 135.461 257.902C135.727 257.745 135.959 257.536 136.158 257.275L136.814 257.796C136.678 258.003 136.504 258.2 136.293 258.388C136.082 258.575 135.822 258.728 135.514 258.845C135.209 258.962 134.848 259.021 134.43 259.021Z" fill="#827D9D"/>
<path d="M44.875 279.05H46.8281C46.7656 279.795 46.5573 280.459 46.2031 281.043C45.849 281.621 45.3516 282.076 44.7109 282.41C44.0703 282.743 43.2917 282.91 42.375 282.91C41.6719 282.91 41.0391 282.785 40.4766 282.535C39.9141 282.28 39.4323 281.92 39.0312 281.457C38.6302 280.988 38.3229 280.423 38.1094 279.761C37.901 279.1 37.7969 278.36 37.7969 277.543V276.597C37.7969 275.78 37.9036 275.04 38.1172 274.379C38.3359 273.717 38.6484 273.152 39.0547 272.683C39.4609 272.209 39.9479 271.847 40.5156 271.597C41.0885 271.347 41.7318 271.222 42.4453 271.222C43.3516 271.222 44.1172 271.389 44.7422 271.722C45.3672 272.056 45.8516 272.517 46.1953 273.105C46.5443 273.694 46.7578 274.368 46.8359 275.129H44.8828C44.8307 274.639 44.7161 274.22 44.5391 273.871C44.3672 273.522 44.112 273.256 43.7734 273.074C43.4349 272.886 42.9922 272.793 42.4453 272.793C41.9974 272.793 41.6068 272.876 41.2734 273.043C40.9401 273.209 40.6615 273.454 40.4375 273.777C40.2135 274.1 40.0443 274.498 39.9297 274.972C39.8203 275.441 39.7656 275.977 39.7656 276.582V277.543C39.7656 278.116 39.8151 278.636 39.9141 279.105C40.0182 279.569 40.1745 279.967 40.3828 280.3C40.5964 280.634 40.8672 280.892 41.1953 281.074C41.5234 281.256 41.9167 281.347 42.375 281.347C42.9323 281.347 43.3828 281.259 43.7266 281.082C44.0755 280.905 44.3385 280.647 44.5156 280.308C44.6979 279.964 44.8177 279.545 44.875 279.05ZM50.3125 275.91V282.754H48.4297V274.3H50.2266L50.3125 275.91ZM52.8984 274.246L52.8828 275.996C52.7682 275.975 52.6432 275.959 52.5078 275.949C52.3776 275.938 52.2474 275.933 52.1172 275.933C51.7943 275.933 51.5104 275.98 51.2656 276.074C51.0208 276.162 50.8151 276.293 50.6484 276.464C50.487 276.631 50.362 276.834 50.2734 277.074C50.1849 277.313 50.1328 277.582 50.1172 277.879L49.6875 277.91C49.6875 277.379 49.7396 276.886 49.8438 276.433C49.9479 275.98 50.1042 275.582 50.3125 275.238C50.526 274.894 50.7917 274.626 51.1094 274.433C51.4323 274.241 51.8047 274.144 52.2266 274.144C52.3411 274.144 52.4635 274.155 52.5938 274.175C52.7292 274.196 52.8307 274.22 52.8984 274.246ZM56.6719 281.832L58.9688 274.3H60.9844L57.5938 284.043C57.5156 284.251 57.4141 284.477 57.2891 284.722C57.1641 284.967 57 285.199 56.7969 285.418C56.599 285.642 56.3516 285.821 56.0547 285.957C55.7578 286.097 55.3984 286.168 54.9766 286.168C54.8099 286.168 54.6484 286.152 54.4922 286.121C54.3411 286.095 54.1979 286.066 54.0625 286.035L54.0547 284.597C54.1068 284.602 54.1693 284.608 54.2422 284.613C54.3203 284.618 54.3828 284.621 54.4297 284.621C54.7422 284.621 55.0026 284.582 55.2109 284.504C55.4193 284.431 55.5885 284.311 55.7188 284.144C55.8542 283.977 55.9688 283.754 56.0625 283.472L56.6719 281.832ZM55.375 274.3L57.3828 280.629L57.7188 282.613L56.4141 282.949L53.3438 274.3H55.375ZM63.9531 275.925V286.004H62.0703V274.3H63.8047L63.9531 275.925ZM69.4609 278.449V278.613C69.4609 279.227 69.388 279.798 69.2422 280.324C69.1016 280.845 68.8906 281.3 68.6094 281.691C68.3333 282.076 67.9922 282.376 67.5859 282.589C67.1797 282.803 66.7109 282.91 66.1797 282.91C65.6536 282.91 65.1927 282.813 64.7969 282.621C64.4062 282.423 64.0755 282.144 63.8047 281.785C63.5339 281.425 63.3151 281.004 63.1484 280.519C62.987 280.03 62.8724 279.493 62.8047 278.91V278.277C62.8724 277.657 62.987 277.095 63.1484 276.589C63.3151 276.084 63.5339 275.649 63.8047 275.285C64.0755 274.92 64.4062 274.639 64.7969 274.441C65.1875 274.243 65.6432 274.144 66.1641 274.144C66.6953 274.144 67.1667 274.248 67.5781 274.457C67.9896 274.66 68.3359 274.951 68.6172 275.332C68.8984 275.707 69.1094 276.16 69.25 276.691C69.3906 277.217 69.4609 277.803 69.4609 278.449ZM67.5781 278.613V278.449C67.5781 278.058 67.5417 277.696 67.4688 277.363C67.3958 277.024 67.2812 276.727 67.125 276.472C66.9688 276.217 66.7682 276.019 66.5234 275.879C66.2839 275.733 65.9948 275.66 65.6562 275.66C65.3229 275.66 65.0365 275.717 64.7969 275.832C64.5573 275.941 64.3568 276.095 64.1953 276.293C64.0339 276.491 63.9089 276.722 63.8203 276.988C63.7318 277.248 63.6693 277.532 63.6328 277.839V279.355C63.6953 279.73 63.8021 280.074 63.9531 280.386C64.1042 280.699 64.3177 280.949 64.5938 281.136C64.875 281.319 65.2344 281.41 65.6719 281.41C66.0104 281.41 66.2995 281.337 66.5391 281.191C66.7786 281.045 66.974 280.845 67.125 280.589C67.2812 280.329 67.3958 280.03 67.4688 279.691C67.5417 279.352 67.5781 278.993 67.5781 278.613ZM74.9375 274.3V275.675H70.1719V274.3H74.9375ZM71.5469 272.23H73.4297V280.418C73.4297 280.678 73.4661 280.879 73.5391 281.019C73.6172 281.155 73.724 281.246 73.8594 281.293C73.9948 281.339 74.1536 281.363 74.3359 281.363C74.4661 281.363 74.5911 281.355 74.7109 281.339C74.8307 281.324 74.9271 281.308 75 281.293L75.0078 282.73C74.8516 282.777 74.6693 282.819 74.4609 282.855C74.2578 282.892 74.0234 282.91 73.7578 282.91C73.3255 282.91 72.9427 282.834 72.6094 282.683C72.276 282.527 72.0156 282.274 71.8281 281.925C71.6406 281.576 71.5469 281.113 71.5469 280.535V272.23ZM75.8438 278.621V278.441C75.8438 277.832 75.9323 277.267 76.1094 276.746C76.2865 276.22 76.5417 275.764 76.875 275.379C77.2135 274.988 77.625 274.686 78.1094 274.472C78.599 274.254 79.151 274.144 79.7656 274.144C80.3854 274.144 80.9375 274.254 81.4219 274.472C81.9115 274.686 82.3255 274.988 82.6641 275.379C83.0026 275.764 83.2604 276.22 83.4375 276.746C83.6146 277.267 83.7031 277.832 83.7031 278.441V278.621C83.7031 279.23 83.6146 279.795 83.4375 280.316C83.2604 280.837 83.0026 281.293 82.6641 281.683C82.3255 282.069 81.9141 282.371 81.4297 282.589C80.9453 282.803 80.3958 282.91 79.7812 282.91C79.1615 282.91 78.6068 282.803 78.1172 282.589C77.6328 282.371 77.2214 282.069 76.8828 281.683C76.5443 281.293 76.2865 280.837 76.1094 280.316C75.9323 279.795 75.8438 279.23 75.8438 278.621ZM77.7266 278.441V278.621C77.7266 279.001 77.7656 279.36 77.8438 279.699C77.9219 280.037 78.0443 280.334 78.2109 280.589C78.3776 280.845 78.5911 281.045 78.8516 281.191C79.112 281.337 79.4219 281.41 79.7812 281.41C80.1302 281.41 80.4323 281.337 80.6875 281.191C80.9479 281.045 81.1615 280.845 81.3281 280.589C81.4948 280.334 81.6172 280.037 81.6953 279.699C81.7786 279.36 81.8203 279.001 81.8203 278.621V278.441C81.8203 278.066 81.7786 277.712 81.6953 277.379C81.6172 277.04 81.4922 276.741 81.3203 276.48C81.1536 276.22 80.9401 276.017 80.6797 275.871C80.4245 275.72 80.1198 275.644 79.7656 275.644C79.4115 275.644 79.1042 275.72 78.8438 275.871C78.5885 276.017 78.3776 276.22 78.2109 276.48C78.0443 276.741 77.9219 277.04 77.8438 277.379C77.7656 277.712 77.7266 278.066 77.7266 278.441ZM96.9688 276.129V277.683H90.9297V276.129H96.9688ZM91.4141 271.379V282.754H89.4531V271.379H91.4141ZM98.4766 271.379V282.754H96.5234V271.379H98.4766ZM104.352 282.91C103.727 282.91 103.161 282.808 102.656 282.605C102.156 282.397 101.729 282.108 101.375 281.738C101.026 281.368 100.758 280.933 100.57 280.433C100.383 279.933 100.289 279.394 100.289 278.816V278.504C100.289 277.842 100.385 277.243 100.578 276.707C100.771 276.17 101.039 275.712 101.383 275.332C101.727 274.946 102.133 274.652 102.602 274.449C103.07 274.246 103.578 274.144 104.125 274.144C104.729 274.144 105.258 274.246 105.711 274.449C106.164 274.652 106.539 274.938 106.836 275.308C107.138 275.673 107.362 276.108 107.508 276.613C107.659 277.118 107.734 277.675 107.734 278.285V279.089H101.203V277.738H105.875V277.589C105.865 277.251 105.797 276.933 105.672 276.636C105.552 276.339 105.367 276.1 105.117 275.918C104.867 275.735 104.534 275.644 104.117 275.644C103.805 275.644 103.526 275.712 103.281 275.847C103.042 275.977 102.841 276.168 102.68 276.418C102.518 276.668 102.393 276.97 102.305 277.324C102.221 277.673 102.18 278.066 102.18 278.504V278.816C102.18 279.186 102.229 279.53 102.328 279.847C102.432 280.16 102.583 280.433 102.781 280.668C102.979 280.902 103.219 281.087 103.5 281.222C103.781 281.352 104.102 281.418 104.461 281.418C104.914 281.418 105.318 281.326 105.672 281.144C106.026 280.962 106.333 280.704 106.594 280.371L107.586 281.332C107.404 281.597 107.167 281.852 106.875 282.097C106.583 282.337 106.227 282.532 105.805 282.683C105.388 282.834 104.904 282.91 104.352 282.91ZM111.094 275.91V282.754H109.211V274.3H111.008L111.094 275.91ZM113.68 274.246L113.664 275.996C113.549 275.975 113.424 275.959 113.289 275.949C113.159 275.938 113.029 275.933 112.898 275.933C112.576 275.933 112.292 275.98 112.047 276.074C111.802 276.162 111.596 276.293 111.43 276.464C111.268 276.631 111.143 276.834 111.055 277.074C110.966 277.313 110.914 277.582 110.898 277.879L110.469 277.91C110.469 277.379 110.521 276.886 110.625 276.433C110.729 275.98 110.885 275.582 111.094 275.238C111.307 274.894 111.573 274.626 111.891 274.433C112.214 274.241 112.586 274.144 113.008 274.144C113.122 274.144 113.245 274.155 113.375 274.175C113.51 274.196 113.612 274.22 113.68 274.246ZM114.297 278.621V278.441C114.297 277.832 114.385 277.267 114.562 276.746C114.74 276.22 114.995 275.764 115.328 275.379C115.667 274.988 116.078 274.686 116.562 274.472C117.052 274.254 117.604 274.144 118.219 274.144C118.839 274.144 119.391 274.254 119.875 274.472C120.365 274.686 120.779 274.988 121.117 275.379C121.456 275.764 121.714 276.22 121.891 276.746C122.068 277.267 122.156 277.832 122.156 278.441V278.621C122.156 279.23 122.068 279.795 121.891 280.316C121.714 280.837 121.456 281.293 121.117 281.683C120.779 282.069 120.367 282.371 119.883 282.589C119.398 282.803 118.849 282.91 118.234 282.91C117.615 282.91 117.06 282.803 116.57 282.589C116.086 282.371 115.674 282.069 115.336 281.683C114.997 281.293 114.74 280.837 114.562 280.316C114.385 279.795 114.297 279.23 114.297 278.621ZM116.18 278.441V278.621C116.18 279.001 116.219 279.36 116.297 279.699C116.375 280.037 116.497 280.334 116.664 280.589C116.831 280.845 117.044 281.045 117.305 281.191C117.565 281.337 117.875 281.41 118.234 281.41C118.583 281.41 118.885 281.337 119.141 281.191C119.401 281.045 119.615 280.845 119.781 280.589C119.948 280.334 120.07 280.037 120.148 279.699C120.232 279.36 120.273 279.001 120.273 278.621V278.441C120.273 278.066 120.232 277.712 120.148 277.379C120.07 277.04 119.945 276.741 119.773 276.48C119.607 276.22 119.393 276.017 119.133 275.871C118.878 275.72 118.573 275.644 118.219 275.644C117.865 275.644 117.557 275.72 117.297 275.871C117.042 276.017 116.831 276.22 116.664 276.48C116.497 276.741 116.375 277.04 116.297 277.379C116.219 277.712 116.18 278.066 116.18 278.441ZM128.703 271.379H130.453L133.742 280.152L137.023 271.379H138.773L134.43 282.754H133.039L128.703 271.379ZM127.906 271.379H129.57L129.859 278.972V282.754H127.906V271.379ZM137.906 271.379H139.578V282.754H137.617V278.972L137.906 271.379ZM146.484 281.058V277.027C146.484 276.725 146.43 276.464 146.32 276.246C146.211 276.027 146.044 275.858 145.82 275.738C145.602 275.618 145.326 275.558 144.992 275.558C144.685 275.558 144.419 275.61 144.195 275.714C143.971 275.819 143.797 275.959 143.672 276.136C143.547 276.313 143.484 276.514 143.484 276.738H141.609C141.609 276.405 141.69 276.082 141.852 275.769C142.013 275.457 142.247 275.178 142.555 274.933C142.862 274.688 143.229 274.496 143.656 274.355C144.083 274.214 144.562 274.144 145.094 274.144C145.729 274.144 146.292 274.251 146.781 274.464C147.276 274.678 147.664 275.001 147.945 275.433C148.232 275.86 148.375 276.397 148.375 277.043V280.8C148.375 281.186 148.401 281.532 148.453 281.839C148.51 282.142 148.591 282.405 148.695 282.629V282.754H146.766C146.677 282.55 146.607 282.293 146.555 281.98C146.508 281.662 146.484 281.355 146.484 281.058ZM146.758 277.613L146.773 278.777H145.422C145.073 278.777 144.766 278.811 144.5 278.879C144.234 278.941 144.013 279.035 143.836 279.16C143.659 279.285 143.526 279.436 143.438 279.613C143.349 279.79 143.305 279.991 143.305 280.214C143.305 280.438 143.357 280.644 143.461 280.832C143.565 281.014 143.716 281.157 143.914 281.261C144.117 281.366 144.362 281.418 144.648 281.418C145.034 281.418 145.37 281.339 145.656 281.183C145.948 281.022 146.177 280.826 146.344 280.597C146.51 280.363 146.599 280.142 146.609 279.933L147.219 280.769C147.156 280.983 147.049 281.212 146.898 281.457C146.747 281.701 146.549 281.936 146.305 282.16C146.065 282.379 145.776 282.558 145.438 282.699C145.104 282.839 144.719 282.91 144.281 282.91C143.729 282.91 143.237 282.8 142.805 282.582C142.372 282.358 142.034 282.058 141.789 281.683C141.544 281.303 141.422 280.873 141.422 280.394C141.422 279.946 141.505 279.55 141.672 279.207C141.844 278.858 142.094 278.566 142.422 278.332C142.755 278.097 143.161 277.92 143.641 277.8C144.12 277.675 144.667 277.613 145.281 277.613H146.758ZM152.234 275.91V282.754H150.352V274.3H152.148L152.234 275.91ZM154.82 274.246L154.805 275.996C154.69 275.975 154.565 275.959 154.43 275.949C154.299 275.938 154.169 275.933 154.039 275.933C153.716 275.933 153.432 275.98 153.188 276.074C152.943 276.162 152.737 276.293 152.57 276.464C152.409 276.631 152.284 276.834 152.195 277.074C152.107 277.313 152.055 277.582 152.039 277.879L151.609 277.91C151.609 277.379 151.661 276.886 151.766 276.433C151.87 275.98 152.026 275.582 152.234 275.238C152.448 274.894 152.714 274.626 153.031 274.433C153.354 274.241 153.727 274.144 154.148 274.144C154.263 274.144 154.385 274.155 154.516 274.175C154.651 274.196 154.753 274.22 154.82 274.246ZM159.297 281.41C159.604 281.41 159.88 281.35 160.125 281.23C160.375 281.105 160.576 280.933 160.727 280.714C160.883 280.496 160.969 280.243 160.984 279.957H162.758C162.747 280.504 162.586 281.001 162.273 281.449C161.961 281.897 161.547 282.254 161.031 282.519C160.516 282.78 159.945 282.91 159.32 282.91C158.674 282.91 158.112 282.8 157.633 282.582C157.154 282.358 156.755 282.05 156.438 281.66C156.12 281.269 155.88 280.819 155.719 280.308C155.562 279.798 155.484 279.251 155.484 278.668V278.394C155.484 277.811 155.562 277.264 155.719 276.754C155.88 276.238 156.12 275.785 156.438 275.394C156.755 275.004 157.154 274.699 157.633 274.48C158.112 274.256 158.672 274.144 159.312 274.144C159.99 274.144 160.583 274.28 161.094 274.55C161.604 274.816 162.005 275.188 162.297 275.668C162.594 276.142 162.747 276.694 162.758 277.324H160.984C160.969 277.011 160.891 276.73 160.75 276.48C160.615 276.225 160.422 276.022 160.172 275.871C159.927 275.72 159.633 275.644 159.289 275.644C158.909 275.644 158.594 275.722 158.344 275.879C158.094 276.03 157.898 276.238 157.758 276.504C157.617 276.764 157.516 277.058 157.453 277.386C157.396 277.709 157.367 278.045 157.367 278.394V278.668C157.367 279.017 157.396 279.355 157.453 279.683C157.51 280.011 157.609 280.306 157.75 280.566C157.896 280.821 158.094 281.027 158.344 281.183C158.594 281.334 158.911 281.41 159.297 281.41ZM167.93 282.91C167.305 282.91 166.74 282.808 166.234 282.605C165.734 282.397 165.307 282.108 164.953 281.738C164.604 281.368 164.336 280.933 164.148 280.433C163.961 279.933 163.867 279.394 163.867 278.816V278.504C163.867 277.842 163.964 277.243 164.156 276.707C164.349 276.17 164.617 275.712 164.961 275.332C165.305 274.946 165.711 274.652 166.18 274.449C166.648 274.246 167.156 274.144 167.703 274.144C168.307 274.144 168.836 274.246 169.289 274.449C169.742 274.652 170.117 274.938 170.414 275.308C170.716 275.673 170.94 276.108 171.086 276.613C171.237 277.118 171.312 277.675 171.312 278.285V279.089H164.781V277.738H169.453V277.589C169.443 277.251 169.375 276.933 169.25 276.636C169.13 276.339 168.945 276.1 168.695 275.918C168.445 275.735 168.112 275.644 167.695 275.644C167.383 275.644 167.104 275.712 166.859 275.847C166.62 275.977 166.419 276.168 166.258 276.418C166.096 276.668 165.971 276.97 165.883 277.324C165.799 277.673 165.758 278.066 165.758 278.504V278.816C165.758 279.186 165.807 279.53 165.906 279.847C166.01 280.16 166.161 280.433 166.359 280.668C166.557 280.902 166.797 281.087 167.078 281.222C167.359 281.352 167.68 281.418 168.039 281.418C168.492 281.418 168.896 281.326 169.25 281.144C169.604 280.962 169.911 280.704 170.172 280.371L171.164 281.332C170.982 281.597 170.745 281.852 170.453 282.097C170.161 282.337 169.805 282.532 169.383 282.683C168.966 282.834 168.482 282.91 167.93 282.91Z" fill="white"/>
<path opacity="0.4" d="M229.875 285.778L229.145 285.021C228.862 284.729 228.483 284.568 228.081 284.567H227.054C225.394 284.567 224.043 283.168 224.043 281.448V280.384C224.042 279.968 223.886 279.576 223.603 279.281L222.885 278.538C221.709 277.327 221.704 275.348 222.874 274.129L223.604 273.372C223.886 273.079 224.042 272.686 224.043 272.27V271.207C224.043 269.487 225.394 268.088 227.054 268.088H228.082C228.483 268.088 228.861 267.926 229.146 267.631L229.865 266.888C231.034 265.67 232.944 265.664 234.122 266.877L234.852 267.633C235.136 267.926 235.514 268.088 235.915 268.088H236.943C238.603 268.088 239.954 269.487 239.954 271.207V272.271C239.955 272.686 240.111 273.079 240.394 273.374L241.112 274.117C241.681 274.704 241.996 275.485 241.999 276.318C242.001 277.147 241.693 277.927 241.132 278.516C241.122 278.527 241.113 278.538 241.103 278.547L240.393 279.283C240.111 279.576 239.955 279.968 239.954 280.385V281.448C239.954 283.168 238.603 284.567 236.943 284.567H235.915C235.514 284.568 235.135 284.729 234.851 285.023L234.132 285.766C233.546 286.377 232.772 286.684 231.999 286.684C231.23 286.684 230.462 286.381 229.875 285.778Z" fill="#00A2FD"/>
<path fill-rule="evenodd" clip-rule="evenodd" d="M230.312 273.667C230.312 273.913 230.217 274.142 230.043 274.31C229.878 274.481 229.664 274.573 229.427 274.573C229.205 274.573 228.987 274.479 228.812 274.309C228.646 274.138 228.552 273.904 228.552 273.667C228.552 273.441 228.644 273.209 228.806 273.03C228.895 272.936 229.001 272.866 229.107 272.829C229.409 272.686 229.81 272.77 230.048 273.029C230.133 273.117 230.198 273.213 230.241 273.313C230.288 273.421 230.312 273.543 230.312 273.667ZM233.953 273.024L228.813 278.348C228.472 278.701 228.472 279.276 228.813 279.63C228.979 279.801 229.198 279.895 229.432 279.895C229.666 279.895 229.885 279.801 230.05 279.63L235.19 274.307C235.531 273.952 235.531 273.379 235.19 273.024C234.849 272.672 234.294 272.672 233.953 273.024ZM233.942 278.356C233.889 278.421 233.814 278.52 233.763 278.637C233.709 278.763 233.702 278.899 233.702 278.99C233.702 279.081 233.709 279.216 233.763 279.342C233.813 279.458 233.873 279.553 233.952 279.634C234.133 279.808 234.343 279.896 234.577 279.896C234.799 279.896 235.017 279.803 235.196 279.63C235.355 279.466 235.442 279.238 235.442 278.99C235.442 278.742 235.355 278.515 235.195 278.349C235.107 278.259 235.001 278.189 234.906 278.155C234.582 278.015 234.198 278.091 233.942 278.356Z" fill="#00A2FD"/>
<rect x="16" y="329" width="248" height="297" rx="18" fill="#030A1D"/>
<rect x="16" y="329" width="248" height="297" rx="21" fill="#030A1D"/>
<g clip-path="url(#clip0_0_1108)">
<path d="M43.1406 569.191H44.2656C44.207 569.73 44.0527 570.212 43.8027 570.638C43.5527 571.064 43.1992 571.402 42.7422 571.652C42.2852 571.898 41.7148 572.021 41.0312 572.021C40.5312 572.021 40.0762 571.927 39.666 571.74C39.2598 571.552 38.9102 571.286 38.6172 570.943C38.3242 570.595 38.0977 570.179 37.9375 569.695C37.7812 569.206 37.7031 568.663 37.7031 568.066V567.216C37.7031 566.618 37.7812 566.077 37.9375 565.593C38.0977 565.105 38.3262 564.687 38.623 564.339C38.9238 563.991 39.2852 563.724 39.707 563.536C40.1289 563.349 40.6035 563.255 41.1309 563.255C41.7754 563.255 42.3203 563.376 42.7656 563.618C43.2109 563.861 43.5566 564.197 43.8027 564.626C44.0527 565.052 44.207 565.546 44.2656 566.109H43.1406C43.0859 565.71 42.9844 565.368 42.8359 565.083C42.6875 564.794 42.4766 564.572 42.2031 564.415C41.9297 564.259 41.5723 564.181 41.1309 564.181C40.752 564.181 40.418 564.253 40.1289 564.398C39.8438 564.542 39.6035 564.747 39.4082 565.013C39.2168 565.279 39.0723 565.597 38.9746 565.968C38.877 566.339 38.8281 566.751 38.8281 567.204V568.066C38.8281 568.484 38.8711 568.876 38.957 569.243C39.0469 569.611 39.1816 569.933 39.3613 570.21C39.541 570.488 39.7695 570.706 40.0469 570.866C40.3242 571.023 40.6523 571.101 41.0312 571.101C41.5117 571.101 41.8945 571.025 42.1797 570.872C42.4648 570.72 42.6797 570.501 42.8242 570.216C42.9727 569.931 43.0781 569.589 43.1406 569.191ZM46.7266 566.56V571.904H45.6426V565.564H46.6973L46.7266 566.56ZM48.707 565.529L48.7012 566.536C48.6113 566.517 48.5254 566.505 48.4434 566.501C48.3652 566.493 48.2754 566.49 48.1738 566.49C47.9238 566.49 47.7031 566.529 47.5117 566.607C47.3203 566.685 47.1582 566.794 47.0254 566.935C46.8926 567.075 46.7871 567.243 46.709 567.439C46.6348 567.63 46.5859 567.841 46.5625 568.072L46.2578 568.247C46.2578 567.865 46.2949 567.505 46.3691 567.169C46.4473 566.833 46.5664 566.536 46.7266 566.279C46.8867 566.017 47.0898 565.814 47.3359 565.669C47.5859 565.521 47.8828 565.447 48.2266 565.447C48.3047 565.447 48.3945 565.456 48.4961 565.476C48.5977 565.491 48.668 565.509 48.707 565.529ZM51.5957 571.247L53.3594 565.564H54.5195L51.9766 572.882C51.918 573.038 51.8398 573.206 51.7422 573.386C51.6484 573.57 51.5273 573.743 51.3789 573.907C51.2305 574.072 51.0508 574.204 50.8398 574.306C50.6328 574.411 50.3848 574.464 50.0957 574.464C50.0098 574.464 49.9004 574.452 49.7676 574.429C49.6348 574.406 49.541 574.386 49.4863 574.37L49.4805 573.491C49.5117 573.495 49.5605 573.499 49.627 573.503C49.6973 573.511 49.7461 573.515 49.7734 573.515C50.0195 573.515 50.2285 573.482 50.4004 573.415C50.5723 573.353 50.7168 573.245 50.834 573.093C50.9551 572.945 51.0586 572.74 51.1445 572.478L51.5957 571.247ZM50.3008 565.564L51.9473 570.486L52.2285 571.628L51.4492 572.027L49.1172 565.564H50.3008ZM56.582 566.782V574.341H55.4922V565.564H56.4883L56.582 566.782ZM60.8535 568.681V568.804C60.8535 569.265 60.7988 569.693 60.6895 570.087C60.5801 570.478 60.4199 570.818 60.209 571.107C60.002 571.396 59.7461 571.62 59.4414 571.781C59.1367 571.941 58.7871 572.021 58.3926 572.021C57.9902 572.021 57.6348 571.954 57.3262 571.822C57.0176 571.689 56.7559 571.495 56.541 571.241C56.3262 570.988 56.1543 570.683 56.0254 570.327C55.9004 569.972 55.8145 569.572 55.7676 569.126V568.47C55.8145 568.001 55.9023 567.581 56.0312 567.21C56.1602 566.839 56.3301 566.523 56.541 566.261C56.7559 565.995 57.0156 565.794 57.3203 565.657C57.625 565.517 57.9766 565.447 58.375 565.447C58.7734 565.447 59.127 565.525 59.4355 565.681C59.7441 565.833 60.0039 566.052 60.2148 566.337C60.4258 566.622 60.584 566.964 60.6895 567.363C60.7988 567.757 60.8535 568.197 60.8535 568.681ZM59.7637 568.804V568.681C59.7637 568.365 59.7305 568.068 59.6641 567.79C59.5977 567.509 59.4941 567.263 59.3535 567.052C59.2168 566.837 59.041 566.669 58.8262 566.548C58.6113 566.423 58.3555 566.361 58.0586 566.361C57.7852 566.361 57.5469 566.407 57.3438 566.501C57.1445 566.595 56.9746 566.722 56.834 566.882C56.6934 567.038 56.5781 567.218 56.4883 567.421C56.4023 567.62 56.3379 567.827 56.2949 568.042V569.56C56.373 569.833 56.4824 570.091 56.623 570.333C56.7637 570.572 56.9512 570.765 57.1855 570.913C57.4199 571.058 57.7148 571.13 58.0703 571.13C58.3633 571.13 58.6152 571.07 58.8262 570.948C59.041 570.823 59.2168 570.654 59.3535 570.439C59.4941 570.224 59.5977 569.978 59.6641 569.7C59.7305 569.419 59.7637 569.12 59.7637 568.804ZM64.8906 565.564V566.396H61.4629V565.564H64.8906ZM62.623 564.023H63.707V570.333C63.707 570.548 63.7402 570.71 63.8066 570.82C63.873 570.929 63.959 571.001 64.0645 571.036C64.1699 571.072 64.2832 571.089 64.4043 571.089C64.4941 571.089 64.5879 571.081 64.6855 571.066C64.7871 571.046 64.8633 571.031 64.9141 571.019L64.9199 571.904C64.834 571.931 64.7207 571.956 64.5801 571.98C64.4434 572.007 64.2773 572.021 64.082 572.021C63.8164 572.021 63.5723 571.968 63.3496 571.863C63.127 571.757 62.9492 571.581 62.8164 571.335C62.6875 571.085 62.623 570.749 62.623 570.327V564.023ZM65.7578 568.804V568.669C65.7578 568.212 65.8242 567.788 65.957 567.398C66.0898 567.003 66.2812 566.661 66.5312 566.372C66.7812 566.079 67.084 565.853 67.4395 565.693C67.7949 565.529 68.1934 565.447 68.6348 565.447C69.0801 565.447 69.4805 565.529 69.8359 565.693C70.1953 565.853 70.5 566.079 70.75 566.372C71.0039 566.661 71.1973 567.003 71.3301 567.398C71.4629 567.788 71.5293 568.212 71.5293 568.669V568.804C71.5293 569.261 71.4629 569.685 71.3301 570.075C71.1973 570.466 71.0039 570.808 70.75 571.101C70.5 571.39 70.1973 571.616 69.8418 571.781C69.4902 571.941 69.0918 572.021 68.6465 572.021C68.2012 572.021 67.8008 571.941 67.4453 571.781C67.0898 571.616 66.7852 571.39 66.5312 571.101C66.2812 570.808 66.0898 570.466 65.957 570.075C65.8242 569.685 65.7578 569.261 65.7578 568.804ZM66.8418 568.669V568.804C66.8418 569.12 66.8789 569.419 66.9531 569.7C67.0273 569.978 67.1387 570.224 67.2871 570.439C67.4395 570.654 67.6289 570.823 67.8555 570.948C68.082 571.07 68.3457 571.13 68.6465 571.13C68.9434 571.13 69.2031 571.07 69.4258 570.948C69.6523 570.823 69.8398 570.654 69.9883 570.439C70.1367 570.224 70.248 569.978 70.3223 569.7C70.4004 569.419 70.4395 569.12 70.4395 568.804V568.669C70.4395 568.357 70.4004 568.062 70.3223 567.784C70.248 567.503 70.1348 567.255 69.9824 567.04C69.834 566.822 69.6465 566.65 69.4199 566.525C69.1973 566.4 68.9355 566.337 68.6348 566.337C68.3379 566.337 68.0762 566.4 67.8496 566.525C67.627 566.65 67.4395 566.822 67.2871 567.04C67.1387 567.255 67.0273 567.503 66.9531 567.784C66.8789 568.062 66.8418 568.357 66.8418 568.669ZM81.6016 567.04V567.96H76.9844V567.04H81.6016ZM77.1602 563.372V571.904H76.0293V563.372H77.1602ZM82.5859 563.372V571.904H81.4609V563.372H82.5859ZM87.0625 572.021C86.6211 572.021 86.2207 571.947 85.8613 571.798C85.5059 571.646 85.1992 571.433 84.9414 571.159C84.6875 570.886 84.4922 570.562 84.3555 570.187C84.2188 569.812 84.1504 569.402 84.1504 568.956V568.71C84.1504 568.195 84.2266 567.736 84.3789 567.333C84.5312 566.927 84.7383 566.583 85 566.302C85.2617 566.021 85.5586 565.808 85.8906 565.663C86.2227 565.519 86.5664 565.447 86.9219 565.447C87.375 565.447 87.7656 565.525 88.0938 565.681C88.4258 565.837 88.6973 566.056 88.9082 566.337C89.1191 566.615 89.2754 566.943 89.377 567.322C89.4785 567.697 89.5293 568.107 89.5293 568.552V569.038H84.7949V568.154H88.4453V568.072C88.4297 567.79 88.3711 567.517 88.2695 567.251C88.1719 566.986 88.0156 566.767 87.8008 566.595C87.5859 566.423 87.293 566.337 86.9219 566.337C86.6758 566.337 86.4492 566.39 86.2422 566.495C86.0352 566.597 85.8574 566.749 85.709 566.952C85.5605 567.156 85.4453 567.404 85.3633 567.697C85.2812 567.99 85.2402 568.327 85.2402 568.71V568.956C85.2402 569.257 85.2812 569.54 85.3633 569.806C85.4492 570.068 85.5723 570.298 85.7324 570.497C85.8965 570.697 86.0938 570.853 86.3242 570.966C86.5586 571.079 86.8242 571.136 87.1211 571.136C87.5039 571.136 87.8281 571.058 88.0938 570.902C88.3594 570.745 88.5918 570.536 88.791 570.275L89.4473 570.796C89.3105 571.003 89.1367 571.2 88.9258 571.388C88.7148 571.575 88.4551 571.728 88.1465 571.845C87.8418 571.962 87.4805 572.021 87.0625 572.021ZM91.8789 566.56V571.904H90.7949V565.564H91.8496L91.8789 566.56ZM93.8594 565.529L93.8535 566.536C93.7637 566.517 93.6777 566.505 93.5957 566.501C93.5176 566.493 93.4277 566.49 93.3262 566.49C93.0762 566.49 92.8555 566.529 92.6641 566.607C92.4727 566.685 92.3105 566.794 92.1777 566.935C92.0449 567.075 91.9395 567.243 91.8613 567.439C91.7871 567.63 91.7383 567.841 91.7148 568.072L91.4102 568.247C91.4102 567.865 91.4473 567.505 91.5215 567.169C91.5996 566.833 91.7188 566.536 91.8789 566.279C92.0391 566.017 92.2422 565.814 92.4883 565.669C92.7383 565.521 93.0352 565.447 93.3789 565.447C93.457 565.447 93.5469 565.456 93.6484 565.476C93.75 565.491 93.8203 565.509 93.8594 565.529ZM94.457 568.804V568.669C94.457 568.212 94.5234 567.788 94.6562 567.398C94.7891 567.003 94.9805 566.661 95.2305 566.372C95.4805 566.079 95.7832 565.853 96.1387 565.693C96.4941 565.529 96.8926 565.447 97.334 565.447C97.7793 565.447 98.1797 565.529 98.5352 565.693C98.8945 565.853 99.1992 566.079 99.4492 566.372C99.7031 566.661 99.8965 567.003 100.029 567.398C100.162 567.788 100.229 568.212 100.229 568.669V568.804C100.229 569.261 100.162 569.685 100.029 570.075C99.8965 570.466 99.7031 570.808 99.4492 571.101C99.1992 571.39 98.8965 571.616 98.541 571.781C98.1895 571.941 97.791 572.021 97.3457 572.021C96.9004 572.021 96.5 571.941 96.1445 571.781C95.7891 571.616 95.4844 571.39 95.2305 571.101C94.9805 570.808 94.7891 570.466 94.6562 570.075C94.5234 569.685 94.457 569.261 94.457 568.804ZM95.541 568.669V568.804C95.541 569.12 95.5781 569.419 95.6523 569.7C95.7266 569.978 95.8379 570.224 95.9863 570.439C96.1387 570.654 96.3281 570.823 96.5547 570.948C96.7812 571.07 97.0449 571.13 97.3457 571.13C97.6426 571.13 97.9023 571.07 98.125 570.948C98.3516 570.823 98.5391 570.654 98.6875 570.439C98.8359 570.224 98.9473 569.978 99.0215 569.7C99.0996 569.419 99.1387 569.12 99.1387 568.804V568.669C99.1387 568.357 99.0996 568.062 99.0215 567.784C98.9473 567.503 98.834 567.255 98.6816 567.04C98.5332 566.822 98.3457 566.65 98.1191 566.525C97.8965 566.4 97.6348 566.337 97.334 566.337C97.0371 566.337 96.7754 566.4 96.5488 566.525C96.3262 566.65 96.1387 566.822 95.9863 567.04C95.8379 567.255 95.7266 567.503 95.6523 567.784C95.5781 568.062 95.541 568.357 95.541 568.669ZM105.086 563.372H106.182L108.977 570.327L111.766 563.372H112.867L109.398 571.904H108.543L105.086 563.372ZM104.729 563.372H105.695L105.854 568.575V571.904H104.729V563.372ZM112.252 563.372H113.219V571.904H112.094V568.575L112.252 563.372ZM118.779 570.82V567.556C118.779 567.306 118.729 567.089 118.627 566.906C118.529 566.718 118.381 566.573 118.182 566.472C117.982 566.37 117.736 566.32 117.443 566.32C117.17 566.32 116.93 566.366 116.723 566.46C116.52 566.554 116.359 566.677 116.242 566.829C116.129 566.982 116.072 567.146 116.072 567.322H114.988C114.988 567.095 115.047 566.87 115.164 566.648C115.281 566.425 115.449 566.224 115.668 566.044C115.891 565.861 116.156 565.716 116.465 565.611C116.777 565.501 117.125 565.447 117.508 565.447C117.969 565.447 118.375 565.525 118.727 565.681C119.082 565.837 119.359 566.073 119.559 566.39C119.762 566.702 119.863 567.095 119.863 567.568V570.521C119.863 570.732 119.881 570.956 119.916 571.195C119.955 571.433 120.012 571.638 120.086 571.81V571.904H118.955C118.9 571.779 118.857 571.613 118.826 571.406C118.795 571.195 118.779 570.999 118.779 570.82ZM118.967 568.06L118.979 568.822H117.883C117.574 568.822 117.299 568.847 117.057 568.898C116.814 568.945 116.611 569.017 116.447 569.115C116.283 569.212 116.158 569.335 116.072 569.484C115.986 569.628 115.943 569.798 115.943 569.993C115.943 570.193 115.988 570.374 116.078 570.538C116.168 570.702 116.303 570.833 116.482 570.931C116.666 571.025 116.891 571.072 117.156 571.072C117.488 571.072 117.781 571.001 118.035 570.861C118.289 570.72 118.49 570.548 118.639 570.345C118.791 570.142 118.873 569.945 118.885 569.753L119.348 570.275C119.32 570.439 119.246 570.62 119.125 570.82C119.004 571.019 118.842 571.21 118.639 571.394C118.439 571.573 118.201 571.724 117.924 571.845C117.65 571.962 117.342 572.021 116.998 572.021C116.568 572.021 116.191 571.937 115.867 571.769C115.547 571.601 115.297 571.376 115.117 571.095C114.941 570.81 114.854 570.491 114.854 570.14C114.854 569.8 114.92 569.501 115.053 569.243C115.186 568.982 115.377 568.765 115.627 568.593C115.877 568.417 116.178 568.284 116.529 568.195C116.881 568.105 117.273 568.06 117.707 568.06H118.967ZM122.652 566.56V571.904H121.568V565.564H122.623L122.652 566.56ZM124.633 565.529L124.627 566.536C124.537 566.517 124.451 566.505 124.369 566.501C124.291 566.493 124.201 566.49 124.1 566.49C123.85 566.49 123.629 566.529 123.438 566.607C123.246 566.685 123.084 566.794 122.951 566.935C122.818 567.075 122.713 567.243 122.635 567.439C122.561 567.63 122.512 567.841 122.488 568.072L122.184 568.247C122.184 567.865 122.221 567.505 122.295 567.169C122.373 566.833 122.492 566.536 122.652 566.279C122.812 566.017 123.016 565.814 123.262 565.669C123.512 565.521 123.809 565.447 124.152 565.447C124.23 565.447 124.32 565.456 124.422 565.476C124.523 565.491 124.594 565.509 124.633 565.529ZM128.055 571.13C128.312 571.13 128.551 571.077 128.77 570.972C128.988 570.866 129.168 570.722 129.309 570.538C129.449 570.351 129.529 570.138 129.549 569.9H130.58C130.561 570.275 130.434 570.624 130.199 570.948C129.969 571.269 129.666 571.529 129.291 571.728C128.916 571.923 128.504 572.021 128.055 572.021C127.578 572.021 127.162 571.937 126.807 571.769C126.455 571.601 126.162 571.37 125.928 571.077C125.697 570.784 125.523 570.448 125.406 570.07C125.293 569.687 125.236 569.282 125.236 568.857V568.611C125.236 568.185 125.293 567.782 125.406 567.404C125.523 567.021 125.697 566.683 125.928 566.39C126.162 566.097 126.455 565.866 126.807 565.698C127.162 565.531 127.578 565.447 128.055 565.447C128.551 565.447 128.984 565.548 129.355 565.751C129.727 565.95 130.018 566.224 130.229 566.572C130.443 566.915 130.561 567.306 130.58 567.743H129.549C129.529 567.482 129.455 567.245 129.326 567.034C129.201 566.823 129.029 566.656 128.811 566.531C128.596 566.402 128.344 566.337 128.055 566.337C127.723 566.337 127.443 566.404 127.217 566.536C126.994 566.665 126.816 566.841 126.684 567.064C126.555 567.282 126.461 567.527 126.402 567.796C126.348 568.062 126.32 568.333 126.32 568.611V568.857C126.32 569.134 126.348 569.407 126.402 569.677C126.457 569.947 126.549 570.191 126.678 570.409C126.811 570.628 126.988 570.804 127.211 570.937C127.438 571.066 127.719 571.13 128.055 571.13ZM134.43 572.021C133.988 572.021 133.588 571.947 133.229 571.798C132.873 571.646 132.566 571.433 132.309 571.159C132.055 570.886 131.859 570.562 131.723 570.187C131.586 569.812 131.518 569.402 131.518 568.956V568.71C131.518 568.195 131.594 567.736 131.746 567.333C131.898 566.927 132.105 566.583 132.367 566.302C132.629 566.021 132.926 565.808 133.258 565.663C133.59 565.519 133.934 565.447 134.289 565.447C134.742 565.447 135.133 565.525 135.461 565.681C135.793 565.837 136.064 566.056 136.275 566.337C136.486 566.615 136.643 566.943 136.744 567.322C136.846 567.697 136.896 568.107 136.896 568.552V569.038H132.162V568.154H135.812V568.072C135.797 567.79 135.738 567.517 135.637 567.251C135.539 566.986 135.383 566.767 135.168 566.595C134.953 566.423 134.66 566.337 134.289 566.337C134.043 566.337 133.816 566.39 133.609 566.495C133.402 566.597 133.225 566.749 133.076 566.952C132.928 567.156 132.812 567.404 132.73 567.697C132.648 567.99 132.607 568.327 132.607 568.71V568.956C132.607 569.257 132.648 569.54 132.73 569.806C132.816 570.068 132.939 570.298 133.1 570.497C133.264 570.697 133.461 570.853 133.691 570.966C133.926 571.079 134.191 571.136 134.488 571.136C134.871 571.136 135.195 571.058 135.461 570.902C135.727 570.745 135.959 570.536 136.158 570.275L136.814 570.796C136.678 571.003 136.504 571.2 136.293 571.388C136.082 571.575 135.822 571.728 135.514 571.845C135.209 571.962 134.848 572.021 134.43 572.021Z" fill="#827D9D"/>
<path d="M44.875 592.05H46.8281C46.7656 592.795 46.5573 593.459 46.2031 594.043C45.849 594.621 45.3516 595.076 44.7109 595.41C44.0703 595.743 43.2917 595.91 42.375 595.91C41.6719 595.91 41.0391 595.785 40.4766 595.535C39.9141 595.28 39.4323 594.92 39.0312 594.457C38.6302 593.988 38.3229 593.423 38.1094 592.761C37.901 592.1 37.7969 591.36 37.7969 590.543V589.597C37.7969 588.78 37.9036 588.04 38.1172 587.379C38.3359 586.717 38.6484 586.152 39.0547 585.683C39.4609 585.209 39.9479 584.847 40.5156 584.597C41.0885 584.347 41.7318 584.222 42.4453 584.222C43.3516 584.222 44.1172 584.389 44.7422 584.722C45.3672 585.056 45.8516 585.517 46.1953 586.105C46.5443 586.694 46.7578 587.368 46.8359 588.129H44.8828C44.8307 587.639 44.7161 587.22 44.5391 586.871C44.3672 586.522 44.112 586.256 43.7734 586.074C43.4349 585.886 42.9922 585.793 42.4453 585.793C41.9974 585.793 41.6068 585.876 41.2734 586.043C40.9401 586.209 40.6615 586.454 40.4375 586.777C40.2135 587.1 40.0443 587.498 39.9297 587.972C39.8203 588.441 39.7656 588.977 39.7656 589.582V590.543C39.7656 591.116 39.8151 591.636 39.9141 592.105C40.0182 592.569 40.1745 592.967 40.3828 593.3C40.5964 593.634 40.8672 593.892 41.1953 594.074C41.5234 594.256 41.9167 594.347 42.375 594.347C42.9323 594.347 43.3828 594.259 43.7266 594.082C44.0755 593.905 44.3385 593.647 44.5156 593.308C44.6979 592.964 44.8177 592.545 44.875 592.05ZM50.3125 588.91V595.754H48.4297V587.3H50.2266L50.3125 588.91ZM52.8984 587.246L52.8828 588.996C52.7682 588.975 52.6432 588.959 52.5078 588.949C52.3776 588.938 52.2474 588.933 52.1172 588.933C51.7943 588.933 51.5104 588.98 51.2656 589.074C51.0208 589.162 50.8151 589.293 50.6484 589.464C50.487 589.631 50.362 589.834 50.2734 590.074C50.1849 590.313 50.1328 590.582 50.1172 590.879L49.6875 590.91C49.6875 590.379 49.7396 589.886 49.8438 589.433C49.9479 588.98 50.1042 588.582 50.3125 588.238C50.526 587.894 50.7917 587.626 51.1094 587.433C51.4323 587.241 51.8047 587.144 52.2266 587.144C52.3411 587.144 52.4635 587.155 52.5938 587.175C52.7292 587.196 52.8307 587.22 52.8984 587.246ZM56.6719 594.832L58.9688 587.3H60.9844L57.5938 597.043C57.5156 597.251 57.4141 597.477 57.2891 597.722C57.1641 597.967 57 598.199 56.7969 598.418C56.599 598.642 56.3516 598.821 56.0547 598.957C55.7578 599.097 55.3984 599.168 54.9766 599.168C54.8099 599.168 54.6484 599.152 54.4922 599.121C54.3411 599.095 54.1979 599.066 54.0625 599.035L54.0547 597.597C54.1068 597.602 54.1693 597.608 54.2422 597.613C54.3203 597.618 54.3828 597.621 54.4297 597.621C54.7422 597.621 55.0026 597.582 55.2109 597.504C55.4193 597.431 55.5885 597.311 55.7188 597.144C55.8542 596.977 55.9688 596.754 56.0625 596.472L56.6719 594.832ZM55.375 587.3L57.3828 593.629L57.7188 595.613L56.4141 595.949L53.3438 587.3H55.375ZM63.9531 588.925V599.004H62.0703V587.3H63.8047L63.9531 588.925ZM69.4609 591.449V591.613C69.4609 592.227 69.388 592.798 69.2422 593.324C69.1016 593.845 68.8906 594.3 68.6094 594.691C68.3333 595.076 67.9922 595.376 67.5859 595.589C67.1797 595.803 66.7109 595.91 66.1797 595.91C65.6536 595.91 65.1927 595.813 64.7969 595.621C64.4062 595.423 64.0755 595.144 63.8047 594.785C63.5339 594.425 63.3151 594.004 63.1484 593.519C62.987 593.03 62.8724 592.493 62.8047 591.91V591.277C62.8724 590.657 62.987 590.095 63.1484 589.589C63.3151 589.084 63.5339 588.649 63.8047 588.285C64.0755 587.92 64.4062 587.639 64.7969 587.441C65.1875 587.243 65.6432 587.144 66.1641 587.144C66.6953 587.144 67.1667 587.248 67.5781 587.457C67.9896 587.66 68.3359 587.951 68.6172 588.332C68.8984 588.707 69.1094 589.16 69.25 589.691C69.3906 590.217 69.4609 590.803 69.4609 591.449ZM67.5781 591.613V591.449C67.5781 591.058 67.5417 590.696 67.4688 590.363C67.3958 590.024 67.2812 589.727 67.125 589.472C66.9688 589.217 66.7682 589.019 66.5234 588.879C66.2839 588.733 65.9948 588.66 65.6562 588.66C65.3229 588.66 65.0365 588.717 64.7969 588.832C64.5573 588.941 64.3568 589.095 64.1953 589.293C64.0339 589.491 63.9089 589.722 63.8203 589.988C63.7318 590.248 63.6693 590.532 63.6328 590.839V592.355C63.6953 592.73 63.8021 593.074 63.9531 593.386C64.1042 593.699 64.3177 593.949 64.5938 594.136C64.875 594.319 65.2344 594.41 65.6719 594.41C66.0104 594.41 66.2995 594.337 66.5391 594.191C66.7786 594.045 66.974 593.845 67.125 593.589C67.2812 593.329 67.3958 593.03 67.4688 592.691C67.5417 592.352 67.5781 591.993 67.5781 591.613ZM74.9375 587.3V588.675H70.1719V587.3H74.9375ZM71.5469 585.23H73.4297V593.418C73.4297 593.678 73.4661 593.879 73.5391 594.019C73.6172 594.155 73.724 594.246 73.8594 594.293C73.9948 594.339 74.1536 594.363 74.3359 594.363C74.4661 594.363 74.5911 594.355 74.7109 594.339C74.8307 594.324 74.9271 594.308 75 594.293L75.0078 595.73C74.8516 595.777 74.6693 595.819 74.4609 595.855C74.2578 595.892 74.0234 595.91 73.7578 595.91C73.3255 595.91 72.9427 595.834 72.6094 595.683C72.276 595.527 72.0156 595.274 71.8281 594.925C71.6406 594.576 71.5469 594.113 71.5469 593.535V585.23ZM75.8438 591.621V591.441C75.8438 590.832 75.9323 590.267 76.1094 589.746C76.2865 589.22 76.5417 588.764 76.875 588.379C77.2135 587.988 77.625 587.686 78.1094 587.472C78.599 587.254 79.151 587.144 79.7656 587.144C80.3854 587.144 80.9375 587.254 81.4219 587.472C81.9115 587.686 82.3255 587.988 82.6641 588.379C83.0026 588.764 83.2604 589.22 83.4375 589.746C83.6146 590.267 83.7031 590.832 83.7031 591.441V591.621C83.7031 592.23 83.6146 592.795 83.4375 593.316C83.2604 593.837 83.0026 594.293 82.6641 594.683C82.3255 595.069 81.9141 595.371 81.4297 595.589C80.9453 595.803 80.3958 595.91 79.7812 595.91C79.1615 595.91 78.6068 595.803 78.1172 595.589C77.6328 595.371 77.2214 595.069 76.8828 594.683C76.5443 594.293 76.2865 593.837 76.1094 593.316C75.9323 592.795 75.8438 592.23 75.8438 591.621ZM77.7266 591.441V591.621C77.7266 592.001 77.7656 592.36 77.8438 592.699C77.9219 593.037 78.0443 593.334 78.2109 593.589C78.3776 593.845 78.5911 594.045 78.8516 594.191C79.112 594.337 79.4219 594.41 79.7812 594.41C80.1302 594.41 80.4323 594.337 80.6875 594.191C80.9479 594.045 81.1615 593.845 81.3281 593.589C81.4948 593.334 81.6172 593.037 81.6953 592.699C81.7786 592.36 81.8203 592.001 81.8203 591.621V591.441C81.8203 591.066 81.7786 590.712 81.6953 590.379C81.6172 590.04 81.4922 589.741 81.3203 589.48C81.1536 589.22 80.9401 589.017 80.6797 588.871C80.4245 588.72 80.1198 588.644 79.7656 588.644C79.4115 588.644 79.1042 588.72 78.8438 588.871C78.5885 589.017 78.3776 589.22 78.2109 589.48C78.0443 589.741 77.9219 590.04 77.8438 590.379C77.7656 590.712 77.7266 591.066 77.7266 591.441ZM96.9688 589.129V590.683H90.9297V589.129H96.9688ZM91.4141 584.379V595.754H89.4531V584.379H91.4141ZM98.4766 584.379V595.754H96.5234V584.379H98.4766ZM104.352 595.91C103.727 595.91 103.161 595.808 102.656 595.605C102.156 595.397 101.729 595.108 101.375 594.738C101.026 594.368 100.758 593.933 100.57 593.433C100.383 592.933 100.289 592.394 100.289 591.816V591.504C100.289 590.842 100.385 590.243 100.578 589.707C100.771 589.17 101.039 588.712 101.383 588.332C101.727 587.946 102.133 587.652 102.602 587.449C103.07 587.246 103.578 587.144 104.125 587.144C104.729 587.144 105.258 587.246 105.711 587.449C106.164 587.652 106.539 587.938 106.836 588.308C107.138 588.673 107.362 589.108 107.508 589.613C107.659 590.118 107.734 590.675 107.734 591.285V592.089H101.203V590.738H105.875V590.589C105.865 590.251 105.797 589.933 105.672 589.636C105.552 589.339 105.367 589.1 105.117 588.918C104.867 588.735 104.534 588.644 104.117 588.644C103.805 588.644 103.526 588.712 103.281 588.847C103.042 588.977 102.841 589.168 102.68 589.418C102.518 589.668 102.393 589.97 102.305 590.324C102.221 590.673 102.18 591.066 102.18 591.504V591.816C102.18 592.186 102.229 592.53 102.328 592.847C102.432 593.16 102.583 593.433 102.781 593.668C102.979 593.902 103.219 594.087 103.5 594.222C103.781 594.352 104.102 594.418 104.461 594.418C104.914 594.418 105.318 594.326 105.672 594.144C106.026 593.962 106.333 593.704 106.594 593.371L107.586 594.332C107.404 594.597 107.167 594.852 106.875 595.097C106.583 595.337 106.227 595.532 105.805 595.683C105.388 595.834 104.904 595.91 104.352 595.91ZM111.094 588.91V595.754H109.211V587.3H111.008L111.094 588.91ZM113.68 587.246L113.664 588.996C113.549 588.975 113.424 588.959 113.289 588.949C113.159 588.938 113.029 588.933 112.898 588.933C112.576 588.933 112.292 588.98 112.047 589.074C111.802 589.162 111.596 589.293 111.43 589.464C111.268 589.631 111.143 589.834 111.055 590.074C110.966 590.313 110.914 590.582 110.898 590.879L110.469 590.91C110.469 590.379 110.521 589.886 110.625 589.433C110.729 588.98 110.885 588.582 111.094 588.238C111.307 587.894 111.573 587.626 111.891 587.433C112.214 587.241 112.586 587.144 113.008 587.144C113.122 587.144 113.245 587.155 113.375 587.175C113.51 587.196 113.612 587.22 113.68 587.246ZM114.297 591.621V591.441C114.297 590.832 114.385 590.267 114.562 589.746C114.74 589.22 114.995 588.764 115.328 588.379C115.667 587.988 116.078 587.686 116.562 587.472C117.052 587.254 117.604 587.144 118.219 587.144C118.839 587.144 119.391 587.254 119.875 587.472C120.365 587.686 120.779 587.988 121.117 588.379C121.456 588.764 121.714 589.22 121.891 589.746C122.068 590.267 122.156 590.832 122.156 591.441V591.621C122.156 592.23 122.068 592.795 121.891 593.316C121.714 593.837 121.456 594.293 121.117 594.683C120.779 595.069 120.367 595.371 119.883 595.589C119.398 595.803 118.849 595.91 118.234 595.91C117.615 595.91 117.06 595.803 116.57 595.589C116.086 595.371 115.674 595.069 115.336 594.683C114.997 594.293 114.74 593.837 114.562 593.316C114.385 592.795 114.297 592.23 114.297 591.621ZM116.18 591.441V591.621C116.18 592.001 116.219 592.36 116.297 592.699C116.375 593.037 116.497 593.334 116.664 593.589C116.831 593.845 117.044 594.045 117.305 594.191C117.565 594.337 117.875 594.41 118.234 594.41C118.583 594.41 118.885 594.337 119.141 594.191C119.401 594.045 119.615 593.845 119.781 593.589C119.948 593.334 120.07 593.037 120.148 592.699C120.232 592.36 120.273 592.001 120.273 591.621V591.441C120.273 591.066 120.232 590.712 120.148 590.379C120.07 590.04 119.945 589.741 119.773 589.48C119.607 589.22 119.393 589.017 119.133 588.871C118.878 588.72 118.573 588.644 118.219 588.644C117.865 588.644 117.557 588.72 117.297 588.871C117.042 589.017 116.831 589.22 116.664 589.48C116.497 589.741 116.375 590.04 116.297 590.379C116.219 590.712 116.18 591.066 116.18 591.441ZM128.703 584.379H130.453L133.742 593.152L137.023 584.379H138.773L134.43 595.754H133.039L128.703 584.379ZM127.906 584.379H129.57L129.859 591.972V595.754H127.906V584.379ZM137.906 584.379H139.578V595.754H137.617V591.972L137.906 584.379ZM146.484 594.058V590.027C146.484 589.725 146.43 589.464 146.32 589.246C146.211 589.027 146.044 588.858 145.82 588.738C145.602 588.618 145.326 588.558 144.992 588.558C144.685 588.558 144.419 588.61 144.195 588.714C143.971 588.819 143.797 588.959 143.672 589.136C143.547 589.313 143.484 589.514 143.484 589.738H141.609C141.609 589.405 141.69 589.082 141.852 588.769C142.013 588.457 142.247 588.178 142.555 587.933C142.862 587.688 143.229 587.496 143.656 587.355C144.083 587.214 144.562 587.144 145.094 587.144C145.729 587.144 146.292 587.251 146.781 587.464C147.276 587.678 147.664 588.001 147.945 588.433C148.232 588.86 148.375 589.397 148.375 590.043V593.8C148.375 594.186 148.401 594.532 148.453 594.839C148.51 595.142 148.591 595.405 148.695 595.629V595.754H146.766C146.677 595.55 146.607 595.293 146.555 594.98C146.508 594.662 146.484 594.355 146.484 594.058ZM146.758 590.613L146.773 591.777H145.422C145.073 591.777 144.766 591.811 144.5 591.879C144.234 591.941 144.013 592.035 143.836 592.16C143.659 592.285 143.526 592.436 143.438 592.613C143.349 592.79 143.305 592.991 143.305 593.214C143.305 593.438 143.357 593.644 143.461 593.832C143.565 594.014 143.716 594.157 143.914 594.261C144.117 594.366 144.362 594.418 144.648 594.418C145.034 594.418 145.37 594.339 145.656 594.183C145.948 594.022 146.177 593.826 146.344 593.597C146.51 593.363 146.599 593.142 146.609 592.933L147.219 593.769C147.156 593.983 147.049 594.212 146.898 594.457C146.747 594.701 146.549 594.936 146.305 595.16C146.065 595.379 145.776 595.558 145.438 595.699C145.104 595.839 144.719 595.91 144.281 595.91C143.729 595.91 143.237 595.8 142.805 595.582C142.372 595.358 142.034 595.058 141.789 594.683C141.544 594.303 141.422 593.873 141.422 593.394C141.422 592.946 141.505 592.55 141.672 592.207C141.844 591.858 142.094 591.566 142.422 591.332C142.755 591.097 143.161 590.92 143.641 590.8C144.12 590.675 144.667 590.613 145.281 590.613H146.758ZM152.234 588.91V595.754H150.352V587.3H152.148L152.234 588.91ZM154.82 587.246L154.805 588.996C154.69 588.975 154.565 588.959 154.43 588.949C154.299 588.938 154.169 588.933 154.039 588.933C153.716 588.933 153.432 588.98 153.188 589.074C152.943 589.162 152.737 589.293 152.57 589.464C152.409 589.631 152.284 589.834 152.195 590.074C152.107 590.313 152.055 590.582 152.039 590.879L151.609 590.91C151.609 590.379 151.661 589.886 151.766 589.433C151.87 588.98 152.026 588.582 152.234 588.238C152.448 587.894 152.714 587.626 153.031 587.433C153.354 587.241 153.727 587.144 154.148 587.144C154.263 587.144 154.385 587.155 154.516 587.175C154.651 587.196 154.753 587.22 154.82 587.246ZM159.297 594.41C159.604 594.41 159.88 594.35 160.125 594.23C160.375 594.105 160.576 593.933 160.727 593.714C160.883 593.496 160.969 593.243 160.984 592.957H162.758C162.747 593.504 162.586 594.001 162.273 594.449C161.961 594.897 161.547 595.254 161.031 595.519C160.516 595.78 159.945 595.91 159.32 595.91C158.674 595.91 158.112 595.8 157.633 595.582C157.154 595.358 156.755 595.05 156.438 594.66C156.12 594.269 155.88 593.819 155.719 593.308C155.562 592.798 155.484 592.251 155.484 591.668V591.394C155.484 590.811 155.562 590.264 155.719 589.754C155.88 589.238 156.12 588.785 156.438 588.394C156.755 588.004 157.154 587.699 157.633 587.48C158.112 587.256 158.672 587.144 159.312 587.144C159.99 587.144 160.583 587.28 161.094 587.55C161.604 587.816 162.005 588.188 162.297 588.668C162.594 589.142 162.747 589.694 162.758 590.324H160.984C160.969 590.011 160.891 589.73 160.75 589.48C160.615 589.225 160.422 589.022 160.172 588.871C159.927 588.72 159.633 588.644 159.289 588.644C158.909 588.644 158.594 588.722 158.344 588.879C158.094 589.03 157.898 589.238 157.758 589.504C157.617 589.764 157.516 590.058 157.453 590.386C157.396 590.709 157.367 591.045 157.367 591.394V591.668C157.367 592.017 157.396 592.355 157.453 592.683C157.51 593.011 157.609 593.306 157.75 593.566C157.896 593.821 158.094 594.027 158.344 594.183C158.594 594.334 158.911 594.41 159.297 594.41ZM167.93 595.91C167.305 595.91 166.74 595.808 166.234 595.605C165.734 595.397 165.307 595.108 164.953 594.738C164.604 594.368 164.336 593.933 164.148 593.433C163.961 592.933 163.867 592.394 163.867 591.816V591.504C163.867 590.842 163.964 590.243 164.156 589.707C164.349 589.17 164.617 588.712 164.961 588.332C165.305 587.946 165.711 587.652 166.18 587.449C166.648 587.246 167.156 587.144 167.703 587.144C168.307 587.144 168.836 587.246 169.289 587.449C169.742 587.652 170.117 587.938 170.414 588.308C170.716 588.673 170.94 589.108 171.086 589.613C171.237 590.118 171.312 590.675 171.312 591.285V592.089H164.781V590.738H169.453V590.589C169.443 590.251 169.375 589.933 169.25 589.636C169.13 589.339 168.945 589.1 168.695 588.918C168.445 588.735 168.112 588.644 167.695 588.644C167.383 588.644 167.104 588.712 166.859 588.847C166.62 588.977 166.419 589.168 166.258 589.418C166.096 589.668 165.971 589.97 165.883 590.324C165.799 590.673 165.758 591.066 165.758 591.504V591.816C165.758 592.186 165.807 592.53 165.906 592.847C166.01 593.16 166.161 593.433 166.359 593.668C166.557 593.902 166.797 594.087 167.078 594.222C167.359 594.352 167.68 594.418 168.039 594.418C168.492 594.418 168.896 594.326 169.25 594.144C169.604 593.962 169.911 593.704 170.172 593.371L171.164 594.332C170.982 594.597 170.745 594.852 170.453 595.097C170.161 595.337 169.805 595.532 169.383 595.683C168.966 595.834 168.482 595.91 167.93 595.91Z" fill="#00A2FD"/>
<path opacity="0.4" d="M229.875 598.854L229.145 598.098C228.862 597.806 228.483 597.645 228.081 597.644H227.054C225.394 597.644 224.043 596.244 224.043 594.525V593.46C224.042 593.045 223.886 592.653 223.603 592.357L222.885 591.615C221.709 590.404 221.704 588.425 222.874 587.206L223.604 586.449C223.886 586.156 224.042 585.763 224.043 585.347V584.284C224.043 582.564 225.394 581.164 227.054 581.164H228.082C228.483 581.164 228.861 581.003 229.146 580.708L229.865 579.965C231.034 578.747 232.944 578.741 234.122 579.954L234.852 580.71C235.136 581.003 235.514 581.164 235.915 581.164H236.943C238.603 581.164 239.954 582.564 239.954 584.284V585.348C239.955 585.763 240.111 586.156 240.394 586.451L241.112 587.194C241.681 587.781 241.996 588.561 241.999 589.395C242.001 590.224 241.693 591.004 241.132 591.593C241.122 591.603 241.113 591.615 241.103 591.624L240.393 592.359C240.111 592.653 239.955 593.045 239.954 593.461V594.525C239.954 596.244 238.603 597.644 236.943 597.644H235.915C235.514 597.645 235.135 597.806 234.851 598.099L234.132 598.843C233.546 599.454 232.772 599.761 231.999 599.761C231.23 599.761 230.462 599.458 229.875 598.854Z" fill="#00A2FD"/>
<path fill-rule="evenodd" clip-rule="evenodd" d="M230.312 586.743C230.312 586.99 230.217 587.219 230.043 587.387C229.878 587.558 229.664 587.65 229.427 587.65C229.205 587.65 228.987 587.555 228.812 587.386C228.646 587.215 228.552 586.981 228.552 586.743C228.552 586.518 228.644 586.286 228.806 586.106C228.895 586.013 229.001 585.943 229.107 585.906C229.409 585.763 229.81 585.847 230.048 586.105C230.133 586.193 230.198 586.29 230.241 586.39C230.288 586.498 230.312 586.62 230.312 586.743ZM233.953 586.101L228.813 591.425C228.472 591.778 228.472 592.353 228.813 592.707C228.979 592.878 229.198 592.972 229.432 592.972C229.666 592.972 229.885 592.878 230.05 592.707L235.19 587.383C235.531 587.029 235.531 586.455 235.19 586.101C234.849 585.749 234.294 585.749 233.953 586.101ZM233.942 591.433C233.889 591.497 233.814 591.597 233.763 591.714C233.709 591.84 233.702 591.976 233.702 592.067C233.702 592.158 233.709 592.293 233.763 592.419C233.813 592.535 233.873 592.629 233.952 592.711C234.133 592.885 234.343 592.973 234.577 592.973C234.799 592.973 235.017 592.88 235.196 592.707C235.355 592.542 235.442 592.315 235.442 592.067C235.442 591.818 235.355 591.592 235.195 591.426C235.107 591.336 235.001 591.265 234.906 591.232C234.582 591.091 234.198 591.168 233.942 591.433Z" fill="#00A2FD"/>
</g>
<defs>
<clipPath id="clip0_0_1108">
<rect width="207" height="43.0036" fill="white" transform="translate(37 567.904)"/>
</clipPath>
</defs>
</svg>
