<svg width="72" height="128" viewBox="0 0 72 128" fill="none" xmlns="http://www.w3.org/2000/svg">
<rect width="72" height="128" fill="white"/>
<circle cx="36" cy="36" r="20" fill="#00A2FD"/>
<path d="M28.8714 41H26.5645L30.0795 30.8182H32.8536L36.3635 41H34.0567L31.5063 33.1449H31.4268L28.8714 41ZM28.7272 36.9979H34.176V38.6783H28.7272V36.9979ZM37.589 41V30.8182H41.6061C42.3783 30.8182 43.0363 30.9657 43.5798 31.2607C44.1234 31.5523 44.5377 31.9583 44.8227 32.4787C45.1111 32.9957 45.2552 33.5923 45.2552 34.2685C45.2552 34.9446 45.1094 35.5412 44.8177 36.0582C44.5261 36.5753 44.1035 36.978 43.55 37.2663C42.9998 37.5547 42.3336 37.6989 41.5514 37.6989H38.991V35.9737H41.2034C41.6177 35.9737 41.9591 35.9025 42.2275 35.7599C42.4993 35.6141 42.7015 35.4136 42.8341 35.1584C42.97 34.8999 43.0379 34.6032 43.0379 34.2685C43.0379 33.9304 42.97 33.6354 42.8341 33.3835C42.7015 33.1283 42.4993 32.9311 42.2275 32.7919C41.9558 32.6494 41.6111 32.5781 41.1934 32.5781H39.7417V41H37.589Z" fill="white"/>
</svg>
