<svg id="Group_9" data-name="Group 9" xmlns="http://www.w3.org/2000/svg" width="40" height="40" viewBox="0 0 40 40">
  <rect id="Rectangle" width="40" height="40" rx="20" fill="#4267b2"/>
  <g id="facebook-logo_4_" data-name="facebook-logo (4)" transform="translate(14 10)">
    <path id="Path" d="M10.586,0,7.947,0c-2.964,0-4.88,1.835-4.88,4.676V6.832H.415A.4.4,0,0,0,0,7.219v3.124a.4.4,0,0,0,.415.387H3.068v7.882A.4.4,0,0,0,3.483,19H6.944a.4.4,0,0,0,.415-.387V10.731h3.1a.4.4,0,0,0,.415-.387V7.219a.375.375,0,0,0-.121-.274.43.43,0,0,0-.294-.114h-3.1V5c0-.878.224-1.324,1.449-1.324h1.777A.4.4,0,0,0,11,3.292V.391A.4.4,0,0,0,10.586,0Z" fill="#fff"/>
  </g>
</svg>
