<svg xmlns="http://www.w3.org/2000/svg" width="14.75" height="18.4" viewBox="0 0 14.75 18.4">
  <path id="Shape" d="M1.228,18A1.206,1.206,0,0,1,0,16.772V1.228A1.206,1.206,0,0,1,1.228,0H9.41a1.205,1.205,0,0,1,1.227,1.228V4.91a.409.409,0,0,1-.818,0V4.09h-9V13.91h9V13.09a.409.409,0,0,1,.818,0v3.682A1.205,1.205,0,0,1,9.41,18Zm5.727-6.136a.409.409,0,0,1,0-.818h5.318a.387.387,0,0,0,.41-.41V9.164l-.123.122a.4.4,0,0,1-.571-.572l.818-.818c.04-.04.081-.041.122-.082a.572.572,0,0,1,.179-.031.329.329,0,0,1,.148.031c.041,0,.082.041.122.082l.818.818a.4.4,0,0,1,0,.572.393.393,0,0,1-.571,0L13.5,9.164v1.472a1.206,1.206,0,0,1-1.228,1.228Zm-.164-1.678c-.041,0-.081-.041-.122-.082L5.85,9.286a.4.4,0,0,1,.572-.572l.123.122V7.364A1.205,1.205,0,0,1,7.772,6.136H13.09a.409.409,0,1,1,0,.818H7.772a.387.387,0,0,0-.409.409V8.836l.123-.122a.4.4,0,0,1,.572.572L7.24,10.1c-.04.04-.081.041-.122.082a.345.345,0,0,1-.328,0Z" transform="translate(0.2 0.2)" fill="rgba(255,255,255,0.8)" stroke="rgba(255,255,255,0.8)" stroke-miterlimit="10" stroke-width="0.4"/>
</svg>
