<svg id="Group_9" data-name="Group 9" xmlns="http://www.w3.org/2000/svg" width="40" height="40" viewBox="0 0 40 40">
  <rect id="Rectangle" width="40" height="40" rx="20" fill="#03a9f4"/>
  <g id="facebook-logo_4_" data-name="facebook-logo (4)" transform="translate(10 13)">
    <g id="twitter_3_" data-name="twitter (3)">
      <path id="Path" d="M21.333,1.894a9.719,9.719,0,0,1-2.52.638A4.09,4.09,0,0,0,20.737.3a9.194,9.194,0,0,1-2.773.977A4.56,4.56,0,0,0,14.769,0,4.214,4.214,0,0,0,10.4,4.038a3.85,3.85,0,0,0,.1.921A12.748,12.748,0,0,1,1.485.736a3.829,3.829,0,0,0-.6,2.041A3.972,3.972,0,0,0,2.829,6.132a4.6,4.6,0,0,1-1.976-.5v.044a4.151,4.151,0,0,0,3.5,3.967,4.709,4.709,0,0,1-1.147.133,4.18,4.18,0,0,1-.828-.069,4.385,4.385,0,0,0,4.087,2.812,9.264,9.264,0,0,1-5.423,1.722A8.867,8.867,0,0,1,0,14.188,13.069,13.069,0,0,0,6.709,16c8.048,0,12.448-6.154,12.448-11.488,0-.178-.007-.351-.016-.522A8.387,8.387,0,0,0,21.333,1.894Z" fill="#fff"/>
    </g>
  </g>
</svg>
