<svg id="Group_9" data-name="Group 9" xmlns="http://www.w3.org/2000/svg" width="40" height="40" viewBox="0 0 40 40">
  <rect id="Rectangle" width="40" height="40" rx="20" fill="#18aa21"/>
  <g id="facebook-logo_4_" data-name="facebook-logo (4)" transform="translate(9 11)">
    <g id="wechat">
      <path id="Path" d="M15.182,4.793A7.646,7.646,0,0,0,7.756,0C3.479,0,0,3.018,0,6.729a6.353,6.353,0,0,0,2.735,5.123L1.82,13.706a.451.451,0,0,0,.192.6A.439.439,0,0,0,2.44,14.3l2.345-1.357a8.742,8.742,0,0,0,1.967.456A.444.444,0,0,0,7.243,13a.454.454,0,0,0-.009-.154,5.264,5.264,0,0,1-.144-1.182c0-3.462,3.38-6.28,7.534-6.28l.13.006a.466.466,0,0,0,.367-.186A.453.453,0,0,0,15.182,4.793Z" transform="translate(0 0.028)" fill="#fff"/>
      <g id="Group" transform="translate(3.532 2.692)">
        <path id="Path-2" data-name="Path" d="M1.33,0A1.338,1.338,0,0,0,0,1.346,1.338,1.338,0,0,0,1.33,2.692a1.338,1.338,0,0,0,1.33-1.346A1.338,1.338,0,0,0,1.33,0Z" transform="translate(0.014 0.028)" fill="#18aa21"/>
        <path id="Path-3" data-name="Path" d="M1.33,0A1.338,1.338,0,0,0,0,1.346,1.338,1.338,0,0,0,1.33,2.692a1.338,1.338,0,0,0,1.33-1.346A1.338,1.338,0,0,0,1.33,0Z" transform="translate(5.332 0.028)" fill="#18aa21"/>
      </g>
      <path id="Path-4" data-name="Path" d="M13.3,5.383C13.3,2.414,10.314,0,6.648,0S0,2.414,0,5.383s2.982,5.383,6.648,5.383A8.089,8.089,0,0,0,8.686,10.5l2.2,1.112a.441.441,0,0,0,.595-.2.454.454,0,0,0,.015-.368l-.6-1.525A5.07,5.07,0,0,0,13.3,5.383Z" transform="translate(7.977 6.308)" fill="#fff"/>
      <g id="Group-2" data-name="Group" transform="translate(11.509 9)">
        <path id="Path-5" data-name="Path" d="M.886,0A.892.892,0,0,0,0,.9a.892.892,0,0,0,.886.9A.892.892,0,0,0,1.773.9.892.892,0,0,0,.886,0Z" transform="translate(0.014)" fill="#18aa21"/>
        <path id="Path-6" data-name="Path" d="M.886,0A.892.892,0,0,0,0,.9a.892.892,0,0,0,.886.9A.892.892,0,0,0,1.773.9.892.892,0,0,0,.886,0Z" transform="translate(4.446)" fill="#18aa21"/>
      </g>
    </g>
  </g>
</svg>
