<svg width="40" height="42" viewBox="0 0 40 42" fill="none" xmlns="http://www.w3.org/2000/svg">
<g id="Iconly/Bulk/Category" filter="url(#filter0_d_0_636)">
<g id="Category">
<path id="Fill 1" opacity="0.4" d="M31.814 3.08337C34.0343 3.08337 35.8334 4.8499 35.8334 7.02998V12.2941C35.8334 14.4742 34.0343 16.2407 31.814 16.2407H26.4529C24.2327 16.2407 22.4336 14.4742 22.4336 12.2941V7.02998C22.4336 4.8499 24.2327 3.08337 26.4529 3.08337H31.814Z" fill="white"/>
<path id="Combined Shape" fill-rule="evenodd" clip-rule="evenodd" d="M13.5471 3.08337C15.7673 3.08337 17.5664 4.8499 17.5664 7.02998V12.2941C17.5664 14.4742 15.7673 16.2407 13.5471 16.2407H8.18596C5.9657 16.2407 4.16663 14.4742 4.16663 12.2941V7.02998C4.16663 4.8499 5.9657 3.08337 8.18596 3.08337H13.5471ZM13.5471 20.7592C15.7674 20.7592 17.5664 22.5258 17.5664 24.7059V29.97C17.5664 32.1486 15.7674 33.9166 13.5471 33.9166H8.186C5.96574 33.9166 4.16667 32.1486 4.16667 29.97V24.7059C4.16667 22.5258 5.96574 20.7592 8.186 20.7592H13.5471ZM35.8333 24.7059C35.8333 22.5258 34.0343 20.7592 31.814 20.7592H26.4529C24.2326 20.7592 22.4336 22.5258 22.4336 24.7059V29.97C22.4336 32.1486 24.2326 33.9166 26.4529 33.9166H31.814C34.0343 33.9166 35.8333 32.1486 35.8333 29.97V24.7059Z" fill="white"/>
</g>
</g>
<defs>
<filter id="filter0_d_0_636" x="0.166626" y="3.08337" width="39.6667" height="38.8333" filterUnits="userSpaceOnUse" color-interpolation-filters="sRGB">
<feFlood flood-opacity="0" result="BackgroundImageFix"/>
<feColorMatrix in="SourceAlpha" type="matrix" values="0 0 0 0 0 0 0 0 0 0 0 0 0 0 0 0 0 0 127 0" result="hardAlpha"/>
<feOffset dy="4"/>
<feGaussianBlur stdDeviation="2"/>
<feComposite in2="hardAlpha" operator="out"/>
<feColorMatrix type="matrix" values="0 0 0 0 0 0 0 0 0 0 0 0 0 0 0 0 0 0 0.25 0"/>
<feBlend mode="normal" in2="BackgroundImageFix" result="effect1_dropShadow_0_636"/>
<feBlend mode="normal" in="SourceGraphic" in2="effect1_dropShadow_0_636" result="shape"/>
</filter>
</defs>
</svg>
