<svg width="24" height="24" viewBox="0 0 24 24" fill="none" xmlns="http://www.w3.org/2000/svg">
<g id="Iconly/Bulk/Discount">
<path id="Fill 1" opacity="0.4" d="M9.87526 21.1231L9.14526 20.3931C8.86226 20.1111 8.48326 19.9551 8.08126 19.9541H7.05426C5.39426 19.9541 4.04326 18.6031 4.04326 16.9431V15.9151C4.04226 15.5141 3.88626 15.1351 3.60326 14.8501L2.88526 14.1331C1.70926 12.9641 1.70426 11.0531 2.87426 9.87615L3.60426 9.14515C3.88626 8.86215 4.04226 8.48315 4.04326 8.08115V7.05515C4.04326 5.39415 5.39426 4.04315 7.05426 4.04315H8.08226C8.48326 4.04315 8.86126 3.88715 9.14626 3.60215L9.86526 2.88515C11.0343 1.70915 12.9443 1.70315 14.1223 2.87415L14.8523 3.60415C15.1363 3.88715 15.5143 4.04315 15.9153 4.04315H16.9433C18.6033 4.04315 19.9543 5.39415 19.9543 7.05515V8.08215C19.9553 8.48315 20.1113 8.86215 20.3943 9.14715L21.1123 9.86515C21.6813 10.4311 21.9963 11.1851 21.9993 11.9901C22.0013 12.7901 21.6933 13.5431 21.1323 14.1121C21.1223 14.1221 21.1133 14.1331 21.1033 14.1421L20.3933 14.8521C20.1113 15.1351 19.9553 15.5141 19.9543 15.9161V16.9431C19.9543 18.6031 18.6033 19.9541 16.9433 19.9541H15.9153C15.5143 19.9551 15.1353 20.1111 14.8513 20.3941L14.1323 21.1121C13.5463 21.7021 12.7723 21.9981 11.9993 21.9981C11.2303 21.9981 10.4623 21.7061 9.87526 21.1231Z" fill="white"/>
<path id="Combined Shape" fill-rule="evenodd" clip-rule="evenodd" d="M10.3118 9.42995C10.3118 9.66795 10.2168 9.88895 10.0428 10.051C9.87776 10.216 9.66376 10.305 9.42676 10.305C9.20476 10.305 8.98676 10.214 8.81176 10.05C8.64576 9.88495 8.55176 9.65895 8.55176 9.42995C8.55176 9.21195 8.64376 8.98795 8.80576 8.81495C8.89476 8.72495 9.00076 8.65695 9.10676 8.62095C9.40876 8.48295 9.80976 8.56395 10.0478 8.81395C10.1328 8.89895 10.1978 8.99195 10.2408 9.08895C10.2878 9.19295 10.3118 9.31095 10.3118 9.42995ZM13.9535 8.80981L8.81349 13.9498C8.47249 14.2908 8.47249 14.8458 8.81349 15.1878C8.97949 15.3528 9.19849 15.4438 9.43249 15.4438C9.66649 15.4438 9.88549 15.3528 10.0505 15.1878L15.1905 10.0478C15.5315 9.70581 15.5315 9.15181 15.1905 8.80981C14.8495 8.46981 14.2945 8.46981 13.9535 8.80981ZM13.9418 13.9579C13.8888 14.0199 13.8138 14.1159 13.7628 14.2289C13.7088 14.3509 13.7018 14.4819 13.7018 14.5699C13.7018 14.6579 13.7088 14.7879 13.7628 14.9099C13.8128 15.0219 13.8728 15.1129 13.9518 15.1919C14.1328 15.3599 14.3428 15.4449 14.5768 15.4449C14.7988 15.4449 15.0168 15.3549 15.1958 15.1879C15.3548 15.0289 15.4418 14.8089 15.4418 14.5699C15.4418 14.3299 15.3548 14.1109 15.1948 13.9509C15.1068 13.8639 15.0008 13.7959 14.9058 13.7639C14.5818 13.6279 14.1978 13.7019 13.9418 13.9579Z" fill="white"/>
</g>
</svg>
