<svg width="206" height="85" viewBox="0 0 206 85" fill="none" xmlns="http://www.w3.org/2000/svg">
<mask id="mask0_0_1645" style="mask-type:alpha" maskUnits="userSpaceOnUse" x="0" y="0" width="206" height="85">
<rect width="206" height="85" fill="white"/>
</mask>
<g mask="url(#mask0_0_1645)">
<path d="M70.211 34.447C71.3839 40.5696 70.674 47.2383 68.1588 53.7287C68.1588 53.7303 68.1572 53.7335 68.1572 53.7351C68.1153 53.8443 68.07 53.9551 68.0298 54.0579C68.0282 54.0611 68.0282 54.0627 68.0265 54.0644C67.9055 54.3712 67.7716 54.7004 67.6167 55.0649C66.9376 56.6551 66.1502 58.2354 65.2774 59.7661C64.5789 60.9932 63.806 62.2252 62.9799 63.4233C62.1265 64.6648 61.1924 65.9063 60.2067 67.1109C59.8146 67.5896 59.4452 68.0265 59.0757 68.4504C57.9754 69.7193 56.7896 70.9802 55.5505 72.1943C55.5393 72.204 55.528 72.2136 55.5183 72.2249C55.4828 72.2601 55.4441 72.2971 55.4086 72.3325C55.3634 72.3758 55.3199 72.4192 55.2747 72.4625L55.2521 72.4834C55.1521 72.5814 55.0504 72.6793 54.9472 72.7758C54.9375 72.7854 54.9262 72.7951 54.9133 72.8079C54.902 72.8191 54.8892 72.8336 54.8762 72.8464C54.8714 72.8529 54.8633 72.8593 54.8584 72.8657L54.8439 72.8801L54.8343 72.8882L54.8326 72.8914C54.8261 72.8978 54.8198 72.9026 54.8133 72.9091C54.81 72.9124 54.8068 72.9155 54.8036 72.9187C54.7939 72.9268 54.7859 72.9364 54.7778 72.9461C54.7761 72.9476 54.7745 72.9492 54.7729 72.9508C54.7713 72.9524 54.7698 72.954 54.7681 72.9557C54.6277 73.0873 54.4777 73.2271 54.2777 73.407C54.2712 73.4135 54.2632 73.4214 54.255 73.4279C54.2422 73.4375 54.2309 73.4472 54.2195 73.4568C53.963 73.6833 53.7033 73.9097 53.4402 74.1346C53.7291 73.7508 54.0082 73.362 54.2793 72.9685C54.3293 72.8947 54.3793 72.8207 54.431 72.7468C54.4826 72.6714 54.5373 72.5943 54.589 72.5188C57.6673 68.0458 59.4904 62.9961 59.8599 57.9158C60.2163 53.0236 59.2339 48.2758 57.0154 44.1899C55.0133 40.5021 52.0351 37.4618 48.405 35.401C44.4847 33.175 39.9302 32.0989 34.866 32.1968C34.853 32.1968 34.8401 32.1968 34.8272 32.1968L34.7304 32.1984C34.6643 32.2001 34.5997 32.2017 34.5351 32.2049C34.4835 32.2049 34.4319 32.2112 34.3819 32.2242C34.3771 32.2258 34.3739 32.2258 34.369 32.2273C34.319 32.237 34.2706 32.2466 34.219 32.261C33.9899 32.2724 33.7752 32.2836 33.564 32.2964C33.5591 32.2964 33.5527 32.2964 33.5478 32.298C33.4607 32.3029 33.3719 32.3093 33.2848 32.3157H33.2703C33.2541 32.3173 33.2364 32.3189 33.2203 32.3205C31.21 32.4715 29.1192 32.8184 27.0008 33.3532C26.9961 33.3548 26.9896 33.3565 26.9847 33.3581C26.8783 33.3869 26.7008 33.3999 26.5297 33.4143C26.3023 33.432 26.0458 33.4513 25.7941 33.5155C25.7892 33.5171 25.7843 33.5188 25.778 33.5203C23.2144 34.219 20.7636 34.2575 18.6905 33.6312C16.8433 33.0738 15.3155 32.009 14.2731 30.5521C13.3455 29.2528 12.8551 27.7173 12.8567 26.1096C12.8567 24.4216 13.4101 22.7288 14.4523 21.2141C15.3929 19.8473 16.7061 18.6475 18.3549 17.6437C18.9987 17.3385 19.6279 17.0301 20.2378 16.7314L20.462 16.6206C20.4733 16.6158 20.483 16.6093 20.4942 16.6046L20.6846 16.5113C20.7298 16.5001 20.775 16.4857 20.8185 16.468C20.9363 16.4182 21.08 16.3427 21.3025 16.2078L21.3623 16.1789C21.4203 16.1516 21.4768 16.1226 21.5349 16.0954C21.5574 16.0873 21.5817 16.0777 21.6042 16.0681C25.8296 14.2018 30.0275 12.8992 34.0834 12.1957C37.9152 11.5324 41.6451 11.3991 45.167 11.799C51.7851 12.5523 57.6398 15.1847 62.1023 19.4136C66.2825 23.3727 69.0849 28.5718 70.211 34.447Z" fill="#00A2FD"/>
<path d="M49.5473 73.256C44.4782 80.6233 36.2002 84.5713 27.5946 84.6355C25.6763 84.5969 23.7533 84.4187 21.843 84.099C21.8414 84.099 21.8382 84.099 21.8349 84.0974C14.8395 82.925 8.02314 79.8587 2.19737 74.8509C1.43265 74.194 0.701804 73.5177 0 72.8175C1.96828 73.868 4.0027 74.7401 6.07746 75.4339C16.8836 79.0557 28.8014 77.8816 38.6009 72.1382C42.1969 70.0309 45.5092 67.3053 48.3761 63.9774C50.6347 61.353 52.482 58.5069 53.921 55.5227C54.6117 61.626 53.2305 67.9028 49.5473 73.256Z" fill="#00A2FD"/>
<path d="M66.4472 16.1179C66.5343 16.2496 66.6198 16.378 66.7037 16.5082C68.9689 20.0128 70.6371 23.9253 71.626 28.0996L71.6276 28.1044C73.1974 35.3417 72.5601 42.0553 70.8 47.9915C71.9373 42.9949 72.0359 37.9966 71.0678 33.289C69.8029 27.1424 66.778 21.6815 62.3202 17.496C57.561 13.0229 51.3544 10.1993 44.3783 9.32714C40.6611 8.86298 36.7326 8.95132 32.7041 9.59217C29.8727 10.0435 26.9784 10.7695 24.0566 11.7604C24.0018 9.89573 21.4543 8.65579 18.1067 9.87002C11.0128 12.4045 7.98127 7.91857 14.1959 4.45736C14.5395 4.30638 14.8832 4.16022 15.2284 4.01888V4.01728C15.7592 3.87112 16.3432 3.63984 16.8175 3.39089C16.8175 3.38929 16.8175 3.38929 16.8208 3.39089C16.8304 3.38768 16.8386 3.38446 16.8466 3.38285C16.9998 3.32664 17.1547 3.27363 17.3064 3.21903C25.7296 0.257324 33.535 -0.542529 40.4708 0.337631C40.7256 0.37136 40.9789 0.403484 41.2322 0.442031C41.3646 0.461304 41.4953 0.480576 41.6275 0.501457C52.1078 2.13489 60.5102 7.65356 65.9197 15.3421C66.1003 15.5975 66.2761 15.8561 66.4472 16.1179Z" fill="#00669F"/>
<path fill-rule="evenodd" clip-rule="evenodd" d="M33.5218 34.3186C33.7428 33.9989 34.0753 33.8013 34.4317 33.7435C34.5172 33.7291 34.6011 33.7226 34.6866 33.7259C39.7267 33.4127 44.9039 34.7088 49.3939 37.7685C53.2917 40.4266 56.1312 44.0469 57.8107 48.0927C60.3275 55.476 59.2304 64.4447 53.7403 72.2794L53.7313 72.2925C53.6261 72.4456 53.5211 72.5986 53.4143 72.7517C53.4127 72.7517 53.4127 72.7533 53.4127 72.7533C53.3916 72.7863 53.3693 72.8186 53.3468 72.8511C53.3332 72.8708 53.3196 72.8906 53.3062 72.9106C53.2627 72.9749 53.2192 73.0392 53.1739 73.1018C52.0188 74.7529 50.7233 76.2466 49.3132 77.578C49.31 77.5813 49.3052 77.5861 49.3003 77.5894C48.0193 78.7987 46.6448 79.8716 45.1991 80.8097C46.7173 79.4235 48.0613 77.9523 49.2325 76.4249C54.6888 69.3209 56.4151 60.9867 54.5469 54.1558C52.6367 47.1723 46.9706 41.7597 37.6907 40.8329C37.189 40.7848 37.0131 40.1632 37.4051 39.85C37.9489 39.4148 38.2731 38.8591 38.1828 38.2968C38.0521 37.2208 36.6469 36.4981 35.0126 36.6474C35.0101 36.6482 35.0081 36.6486 35.0061 36.649C35.0041 36.6494 35.0021 36.6499 34.9997 36.6507C34.2931 36.6956 33.7783 36.3327 33.4911 35.817C33.4218 35.6934 33.3654 35.5616 33.3234 35.4252C33.3225 35.4236 33.3221 35.4215 33.3217 35.4195C33.3213 35.4175 33.3209 35.4155 33.3201 35.4139C33.2315 35.0509 33.2927 34.6526 33.5218 34.3186ZM56.9701 46.5123C56.9685 46.5058 56.9652 46.4995 56.9621 46.493C56.9652 46.4979 56.9685 46.5042 56.9701 46.5123Z" fill="#00669F"/>
<path fill-rule="evenodd" clip-rule="evenodd" d="M86.5511 38.7828C87.7654 40.8228 89.3972 42.422 91.4463 43.5806C93.5208 44.7139 95.7849 45.2806 98.2389 45.2806C100.718 45.2806 102.982 44.7139 105.031 43.5806C107.106 42.422 108.738 40.8228 109.927 38.7828C111.116 36.7176 111.71 34.4006 111.71 31.8317C111.71 29.2628 111.116 26.9584 109.927 24.9184C108.738 22.8784 107.106 21.2917 105.031 20.1584C102.982 18.9998 100.718 18.4206 98.2389 18.4206C95.7849 18.4206 93.5208 18.9998 91.4463 20.1584C89.3972 21.2917 87.7654 22.8784 86.5511 24.9184C85.3621 26.9584 84.7676 29.2628 84.7676 31.8317C84.7676 34.4006 85.3621 36.7176 86.5511 38.7828ZM106.094 36.9695C105.335 38.4301 104.273 39.5635 102.906 40.3695C101.54 41.1501 99.9845 41.5406 98.2389 41.5406C96.4933 41.5406 94.9375 41.1501 93.5714 40.3695C92.2053 39.5635 91.1301 38.4301 90.3458 36.9695C89.5869 35.4835 89.2074 33.7709 89.2074 31.8317C89.2074 29.8924 89.5869 28.1924 90.3458 26.7317C91.1301 25.2709 92.2053 24.1501 93.5714 23.3695C94.9375 22.5887 96.4933 22.1984 98.2389 22.1984C99.9845 22.1984 101.54 22.5887 102.906 23.3695C104.273 24.1501 105.335 25.2709 106.094 26.7317C106.878 28.1924 107.27 29.8924 107.27 31.8317C107.27 33.7709 106.878 35.4835 106.094 36.9695ZM129.287 41.5028V45.0161H114.791V41.5028L124.316 27.7139H114.791V24.2006H129.287V27.7139L119.8 41.5028H129.287ZM136.865 36.2139H152.841C152.941 35.5843 152.993 34.879 152.993 34.0984C152.993 32.0835 152.562 30.3079 151.703 28.7717C150.842 27.2101 149.64 26.0012 148.098 25.145C146.554 24.2887 144.796 23.8606 142.823 23.8606C140.774 23.8606 138.952 24.3012 137.359 25.1828C135.789 26.0643 134.563 27.3235 133.677 28.9606C132.817 30.5724 132.387 32.4487 132.387 34.5895C132.387 36.7301 132.83 38.619 133.715 40.2562C134.626 41.8679 135.865 43.1273 137.434 44.0339C139.028 44.9154 140.824 45.3561 142.823 45.3561C145.276 45.3561 147.325 44.7517 148.97 43.5428C150.64 42.3087 151.791 40.7346 152.424 38.8206H147.756C146.794 40.7598 145.15 41.7295 142.823 41.7295C141.203 41.7295 139.837 41.2257 138.725 40.2184C137.611 39.2109 136.991 37.8762 136.865 36.2139ZM146.77 28.9228C145.655 27.9657 144.277 27.4873 142.633 27.4873C141.14 27.4873 139.863 27.9657 138.801 28.9228C137.738 29.8546 137.105 31.1265 136.903 32.7384H148.477C148.451 31.1517 147.882 29.8798 146.77 28.9228ZM160.665 25.2206C159.173 26.102 157.983 27.3487 157.098 28.9606C156.237 30.5724 155.808 32.4235 155.808 34.5139C155.808 36.6043 156.237 38.4806 157.098 40.1428C157.983 41.7798 159.173 43.0642 160.665 43.9961C162.157 44.9028 163.802 45.3561 165.598 45.3561C167.218 45.3561 168.66 45.0287 169.924 44.3739C171.189 43.719 172.189 42.9006 172.922 41.9184V45.0161H177.286V24.2006H172.922V27.2228C172.189 26.2657 171.202 25.4724 169.962 24.8428C168.748 24.1879 167.318 23.8606 165.674 23.8606C163.853 23.8606 162.183 24.3139 160.665 25.2206ZM172.011 30.8495C171.43 29.7917 170.657 28.9857 169.696 28.4317C168.736 27.8776 167.697 27.6006 166.585 27.6006C165.472 27.6006 164.434 27.8776 163.473 28.4317C162.512 28.9606 161.728 29.7539 161.12 30.8117C160.539 31.8443 160.248 33.0784 160.248 34.5139C160.248 35.9495 160.539 37.2087 161.12 38.2917C161.728 39.3746 162.512 40.2057 163.473 40.785C164.46 41.339 165.497 41.6161 166.585 41.6161C167.697 41.6161 168.736 41.339 169.696 40.785C170.657 40.2309 171.43 39.425 172.011 38.3673C172.618 37.2843 172.922 36.025 172.922 34.5895C172.922 33.1539 172.618 31.9073 172.011 30.8495ZM200.994 27.9028C200.259 26.5679 199.234 25.5606 197.92 24.8806C196.63 24.2006 195.162 23.8606 193.518 23.8606C192.278 23.8606 191.102 24.0998 189.989 24.5784C188.901 25.0568 188.002 25.7243 187.295 26.5806V24.2006H182.969V45.0161H187.295V33.3806C187.295 31.5168 187.762 30.0939 188.699 29.1117C189.66 28.1043 190.95 27.6006 192.569 27.6006C194.187 27.6006 195.465 28.1043 196.402 29.1117C197.337 30.0939 197.806 31.5168 197.806 33.3806V45.0161H202.094V32.7384C202.094 30.8495 201.727 29.2376 200.994 27.9028Z" fill="white"/>
<path fill-rule="evenodd" clip-rule="evenodd" d="M93.4576 72.0002L86.9496 62.1969V72.0002H84.7866V58.8536H86.9496L93.4576 68.638V58.8536H95.6206V72.0002H93.4576ZM108.932 60.6291H103.334V64.5014H107.698V66.258H103.334V72.0002H101.171V58.8725H108.932V60.6291ZM118.656 60.6291H122.166V58.8725H112.964V60.6291H116.493V72.0002H118.656V60.6291Z" fill="white"/>
</g>
</svg>
