<svg width="216" height="89" viewBox="0 0 216 89" fill="none" xmlns="http://www.w3.org/2000/svg">
<g opacity="0.3">
<path d="M0 88.0685C0 88.0685 9.2786 53.9256 24.9933 48.2525C34.192 44.9305 36.3547 19.4959 48.4715 20.6021C60.5904 21.7084 79.1455 88.0685 79.1455 88.0685H34.082H0Z" fill="black"/>
<path d="M48.4737 20.6021C48.4737 20.6021 53.0191 47.2911 43.3606 45.6301C33.7043 43.9723 31.9992 52.2645 36.5446 61.392C41.0901 70.5163 16.6622 88.0684 16.6622 88.0684H34.082H67.605L74.4425 72.5429C68.1402 52.8571 56.7918 21.3616 48.4737 20.6021Z" fill="black"/>
<path d="M89.9565 88.0685H34.082C34.082 88.0685 39.9527 56.4155 72.8994 40.6536C94.012 30.5522 99.2179 0.560145 110.959 0.00858875C122.698 -0.542968 137.09 25.5787 146.936 47.1462C156.782 68.7136 163.788 87.9361 163.788 87.9361L127.999 88.0685H89.9565Z" fill="black"/>
<path d="M113.376 20.5297C118.807 38.1416 124.278 55.3912 108.358 54.2439C96.7379 53.4056 91.4673 84.1761 93.6364 88.0685H127.999L163.786 87.9361C163.786 87.9361 156.78 68.7136 146.934 47.1462C138.251 28.1285 126.035 5.57459 115.217 0.887939C112.34 4.43051 111.399 14.1158 113.376 20.5297Z" fill="black"/>
<path d="M48.7996 80.1388C53.8177 81.6044 60.8451 87.9552 67.5359 86.0011C74.2267 84.047 74.5634 73.7849 79.916 74.7619C85.2687 75.739 89.9544 88.0655 89.9544 88.0655H34.082V88.0686C34.082 88.0686 43.7815 78.6733 48.7996 80.1388Z" fill="black"/>
<path d="M168.521 49.3588C153.752 48.8072 128.001 88.0686 128.001 88.0686H215.858C215.48 86.4108 183.289 49.9103 168.521 49.3588Z" fill="black"/>
<path d="M168.256 49.2925C166.279 51.6909 164.882 54.5401 165.064 57.7297C165.631 67.6829 174.152 64.3673 182.673 71.8306C191.194 79.2971 181.538 88.0023 181.538 88.0023H216L212.73 83.8325C204.116 73.8698 180.651 49.74 168.662 49.2893C168.528 49.283 168.392 49.2893 168.256 49.2925Z" fill="black"/>
<path d="M186.789 82.0928C191.659 82.0959 190.616 57.2034 186.789 56.6928C183.325 56.2327 181.918 82.0928 186.789 82.0928Z" fill="black"/>
<path d="M195.682 81.7682C202.8 81.7682 198.677 62.6214 195.682 62.073C192.707 61.5309 188.564 81.7682 195.682 81.7682Z" fill="black"/>
<path d="M78.7009 84.5354C82.5405 84.5385 81.7182 64.9094 78.7009 64.5092C75.9685 64.1467 74.8612 84.5354 78.7009 84.5354Z" fill="black"/>
<path d="M86.6607 84.466C91.2234 84.466 88.5816 72.1931 86.6607 71.8401C84.7549 71.4934 82.098 84.466 86.6607 84.466Z" fill="black"/>
<path d="M96.7703 84.3462C93.4357 84.3493 94.1501 67.3015 96.7703 66.9517C99.1423 66.6365 100.105 84.3462 96.7703 84.3462Z" fill="black"/>
<path d="M103.67 85.0964C100.282 85.0964 102.244 75.9815 103.67 75.72C105.086 75.4615 107.059 85.0964 103.67 85.0964Z" fill="black"/>
<path d="M161.125 83.073C160.223 83.073 159.862 88.0811 159.862 88.0811H161.667C161.667 88.0811 162.027 83.073 161.125 83.073Z" fill="black"/>
<path fill-rule="evenodd" clip-rule="evenodd" d="M78.9145 76.8831V88.0686H78.4678V76.8831H78.9145Z" fill="black"/>
<path fill-rule="evenodd" clip-rule="evenodd" d="M86.7212 80.7913V88.0686H86.4989V80.7913H86.7212Z" fill="black"/>
<path fill-rule="evenodd" clip-rule="evenodd" d="M103.45 80.7913V88.0686H103.228V80.7913H103.45Z" fill="black"/>
<path fill-rule="evenodd" clip-rule="evenodd" d="M96.9818 79.4895V88.0686H96.535V79.4895H96.9818Z" fill="black"/>
<path fill-rule="evenodd" clip-rule="evenodd" d="M195.798 72.3223V87.9581H195.129V72.3223H195.798Z" fill="black"/>
<path fill-rule="evenodd" clip-rule="evenodd" d="M187.044 66.1355V87.9582H186.429V66.1355H187.044Z" fill="black"/>
<path d="M179.313 54.6536C176.498 54.6536 177.101 40.2658 179.313 39.9727C181.316 39.708 182.127 54.6536 179.313 54.6536Z" fill="black"/>
<path d="M174.174 54.4646C170.06 54.4646 172.441 43.3988 174.174 43.0805C175.892 42.7653 178.288 54.4646 174.174 54.4646Z" fill="black"/>
<path fill-rule="evenodd" clip-rule="evenodd" d="M174.106 58.8481V49.8121H174.493V58.8481H174.106Z" fill="black"/>
<path fill-rule="evenodd" clip-rule="evenodd" d="M179.063 58.0422V45.4289H179.521V58.0422H179.063Z" fill="black"/>
<path d="M172.711 85.1468C172.124 85.4305 171.692 87.2648 171.528 88.0685H173.714C173.706 87.955 173.451 84.7875 172.711 85.1468Z" fill="black"/>
<path d="M178.732 82.9502C177.74 82.9502 176.995 87.952 176.978 88.0686H179.982C179.881 86.644 179.542 82.9502 178.732 82.9502Z" fill="black"/>
<path d="M168.446 81.1157C167.203 81.1157 166.698 87.9487 166.689 88.0685H169.199C169.208 87.9519 169.689 81.1157 168.446 81.1157Z" fill="black"/>
<path d="M156.633 85.1469C156.051 85.4463 155.641 87.2933 155.487 88.0969L157.672 88.0402C157.661 87.9268 157.369 84.7655 156.633 85.1469Z" fill="black"/>
<path d="M91.9637 81.1157C91.1111 81.1157 90.1442 86.4485 89.8701 88.0685H93.6839C93.4184 85.9095 92.7407 81.1157 91.9637 81.1157Z" fill="black"/>
<path d="M71.8871 81.1157C70.8014 81.1157 69.7546 86.1617 69.3964 88.0685H73.8252C73.5641 85.7992 72.9015 81.1157 71.8871 81.1157Z" fill="black"/>
<path d="M63.8559 84.0502C63.0443 84.4441 62.4508 87.079 62.2544 88.0687H65.1854C65.0365 86.6567 64.6264 83.6751 63.8559 84.0502Z" fill="black"/>
<path d="M58.1688 78.6731C56.7961 78.6731 55.9133 85.5817 55.6414 88.0685H59.3364C59.4227 85.2287 59.4788 78.6731 58.1688 78.6731Z" fill="black"/>
</g>
</svg>
