<svg width="24" height="24" viewBox="0 0 24 24" fill="none" xmlns="http://www.w3.org/2000/svg">
<path opacity="0.4" d="M12.189 11.3408C12.5812 11.3408 12.8995 11.6591 12.8995 12.0513C12.8995 12.4435 12.5812 12.7618 12.189 12.7618H3.71101C3.3188 12.7618 3.00049 12.4435 3.00049 12.0513C3.00049 11.6591 3.3188 11.3408 3.71101 11.3408H12.189Z" fill="white"/>
<path fill-rule="evenodd" clip-rule="evenodd" d="M11.479 6.60348H20.4185V17.4999H11.479V6.60348Z" fill="black"/>
<mask id="mask0_0_105" style="mask-type:alpha" maskUnits="userSpaceOnUse" x="11" y="6" width="10" height="12">
<path fill-rule="evenodd" clip-rule="evenodd" d="M11.479 6.60348H20.4185V17.4999H11.479V6.60348Z" fill="white"/>
</mask>
<g mask="url(#mask0_0_105)">
<path d="M12.5685 6.71214L20.0868 11.4499C20.2933 11.5807 20.4193 11.8071 20.4193 12.0515C20.4193 12.2959 20.2933 12.5224 20.0868 12.6531L12.5685 17.3909C12.3496 17.5282 12.073 17.5368 11.8466 17.4108C11.6192 17.2857 11.479 17.0479 11.479 16.7893V7.31372C11.479 7.05509 11.6192 6.8173 11.8466 6.69225C11.9536 6.63256 12.0721 6.6032 12.1895 6.6032C12.3222 6.6032 12.4529 6.64014 12.5685 6.71214Z" fill="white"/>
</g>
</svg>
