<svg width="24" height="24" viewBox="0 0 24 24" fill="none" xmlns="http://www.w3.org/2000/svg">
<g id="Iconly/Bulk/Bag">
<g id="Bag">
<path id="Combined Shape" fill-rule="evenodd" clip-rule="evenodd" d="M20.1444 10.1201C19.676 7.90964 18.3503 7 17.0865 7H6.93171C5.65022 7 4.28034 7.84597 3.88264 10.1201L3.1049 16.3147C2.46858 20.8629 4.81062 22 7.86853 22H16.1585C19.2075 22 21.4789 20.3535 20.9133 16.3147L20.1444 10.1201ZM8.21326 11.239C8.21326 10.7366 8.60894 10.3293 9.09705 10.3293C9.58515 10.3293 9.98084 10.7366 9.98084 11.239C9.98084 11.7414 9.58515 12.1486 9.09705 12.1486C8.60894 12.1486 8.21326 11.7414 8.21326 11.239ZM14.8859 10.3293C14.3978 10.3293 14.0021 10.7366 14.0021 11.239C14.0021 11.7414 14.3978 12.1486 14.8859 12.1486C15.374 12.1486 15.7697 11.7414 15.7697 11.239C15.7697 10.7366 15.374 10.3293 14.8859 10.3293Z" fill="white"/>
<path id="Path_34167" opacity="0.4" d="M16.9303 7H15.4932C15.4654 6.92794 15.4506 6.85153 15.4497 6.77432C15.4497 4.85682 13.8899 3.30238 11.9657 3.30238C10.0416 3.30238 8.48184 4.85682 8.48184 6.77432C8.49502 6.84898 8.49502 6.92535 8.48184 7H7.00989C6.9967 6.92535 6.9967 6.84898 7.00989 6.77432C7.12172 4.10591 9.32499 2 12.0049 2C14.6849 2 16.8882 4.10591 17 6.77432H16.9739C16.977 6.85189 16.9621 6.92913 16.9303 7Z" fill="white"/>
</g>
</g>
</svg>
