<svg width="24" height="24" viewBox="0 0 24 24" fill="none" xmlns="http://www.w3.org/2000/svg">
<g id="Iconly/Bulk/Bookmark">
<g id="Bookmark">
<path id="Bookmark 2" opacity="0.4" d="M5.49945 21.8642C5.00921 22.1303 4.39768 21.9526 4.12348 21.4644C4.0434 21.3109 4.00106 21.1403 4 20.9669V13.7089C4 14.4284 4.40573 14.8726 5.47299 15.3701L11.9912 18.6216L5.49945 21.8642Z" fill="white"/>
<path id="Bookmark_2" fill-rule="evenodd" clip-rule="evenodd" d="M4 5.79337C4 3.06605 6.19625 2 8.89526 2H15.0695C17.7773 2 19.9735 3.06605 20 5.79337V20.9668C19.9989 21.1374 19.9565 21.3051 19.8765 21.4554C19.7479 21.7007 19.5259 21.8827 19.2615 21.9598C18.997 22.0368 18.7128 22.0023 18.4741 21.8641L11.9912 18.6215L5.47299 15.3701C4.40573 14.8726 4 14.4284 4 13.7088V5.79337ZM7.43994 8.83167C7.43994 9.26834 7.7914 9.62233 8.22495 9.62233H15.7487C16.1822 9.62233 16.5337 9.26834 16.5337 8.83167C16.5337 8.395 16.1822 8.04102 15.7487 8.04102H8.22495C7.7914 8.04102 7.43994 8.395 7.43994 8.83167Z" fill="white"/>
</g>
</g>
</svg>
