<svg width="24" height="24" viewBox="0 0 24 24" fill="none" xmlns="http://www.w3.org/2000/svg">
<g id="Iconly/Bulk/Buy">
<g id="Buy">
<path id="Combined Shape" opacity="0.4" fill-rule="evenodd" clip-rule="evenodd" d="M7.43052 22.0985C6.59052 22.0985 5.91052 21.4185 5.91052 20.5885C5.91052 19.7485 6.59052 19.0685 7.43052 19.0685C8.26052 19.0685 8.94052 19.7485 8.94052 20.5885C8.94052 21.4185 8.26052 22.0985 7.43052 22.0985ZM18.6805 22.0985C17.8405 22.0985 17.1605 21.4185 17.1605 20.5885C17.1605 19.7485 17.8405 19.0685 18.6805 19.0685C19.5105 19.0685 20.1905 19.7485 20.1905 20.5885C20.1905 21.4185 19.5105 22.0985 18.6805 22.0985Z" fill="white"/>
<path id="Fill 7" fill-rule="evenodd" clip-rule="evenodd" d="M14.1307 11.548C13.7107 11.548 13.3807 11.208 13.3807 10.798C13.3807 10.378 13.7107 10.048 14.1307 10.048H16.9007C17.3207 10.048 17.6507 10.378 17.6507 10.798C17.6507 11.208 17.3207 11.548 16.9007 11.548H14.1307ZM20.1907 6.34896H6.68574C6.36574 6.34896 6.10574 6.10896 6.07574 5.78796L5.88574 3.54796C5.85574 3.20796 5.60574 2.92896 5.26574 2.86796L2.88074 2.50796C2.47074 2.44796 2.08074 2.71796 2.01074 3.12796C1.94074 3.52796 2.22074 3.91796 2.62074 3.98796L4.13074 4.24796L5.05074 15.149C5.16074 16.468 6.26074 17.488 7.59074 17.488H18.5007C19.7707 17.488 20.8507 16.559 21.0307 15.298L21.9807 8.73796C22.0707 8.13896 22.0007 7.47896 21.6007 7.01896C21.2007 6.55896 20.8007 6.34896 20.1907 6.34896Z" fill="white"/>
</g>
</g>
</svg>
