<svg width="15" height="14" viewBox="0 0 15 14" fill="none" xmlns="http://www.w3.org/2000/svg">
<rect x="0.274658" y="0.0908203" width="13.8186" height="13.8184" rx="6.90918" fill="#373B3B"/>
<path d="M7.90593 7.00051L8.9431 5.96334C9.1426 5.76442 9.1426 5.44067 8.9431 5.24176C8.7436 5.04109 8.42101 5.04167 8.22151 5.24117L7.18376 6.27834L6.14601 5.24001C5.94651 5.04051 5.62335 5.04167 5.42385 5.24001C5.22493 5.43951 5.22493 5.76326 5.42385 5.96218L6.46218 7.00051L5.42618 8.03593C5.22668 8.23543 5.22668 8.55918 5.42618 8.75751C5.52593 8.85784 5.65601 8.90743 5.78668 8.90743C5.91793 8.90743 6.04801 8.85784 6.14776 8.75809L7.18376 7.72209L8.2221 8.75984C8.32185 8.85959 8.45193 8.90918 8.5826 8.90918C8.71326 8.90918 8.84393 8.85901 8.94368 8.75984C9.14318 8.56034 9.14318 8.23718 8.94368 8.03768L7.90593 7.00051Z" fill="white"/>
</svg>
