<svg width="20" height="21" viewBox="0 0 20 21" fill="none" xmlns="http://www.w3.org/2000/svg">
<path fill-rule="evenodd" clip-rule="evenodd" d="M5.92449 0.5C7.32676 0.5 8.46301 1.64585 8.46301 3.05996V6.47452C8.46301 7.88864 7.32676 9.03449 5.92449 9.03449H2.53852C1.13626 9.03449 0 7.88864 0 6.47452V3.05996C0 1.64585 1.13626 0.5 2.53852 0.5H5.92449ZM5.92449 11.9655C7.32676 11.9655 8.46301 13.1114 8.46301 14.5255V17.94C8.46301 19.3532 7.32676 20.5 5.92449 20.5H2.53852C1.13626 20.5 0 19.3532 0 17.94V14.5255C0 13.1114 1.13626 11.9655 2.53852 11.9655H5.92449ZM19.9999 14.5255C19.9999 13.1114 18.8636 11.9655 17.4614 11.9655H14.0754C12.6731 11.9655 11.5369 13.1114 11.5369 14.5255V17.94C11.5369 19.3532 12.6731 20.5 14.0754 20.5H17.4614C18.8636 20.5 19.9999 19.3532 19.9999 17.94V14.5255Z" fill="white"/>
<path opacity="0.4" d="M17.4616 0.5C18.8639 0.5 20.0001 1.64585 20.0001 3.05996V6.47452C20.0001 7.88864 18.8639 9.03449 17.4616 9.03449H14.0756C12.6734 9.03449 11.5371 7.88864 11.5371 6.47452V3.05996C11.5371 1.64585 12.6734 0.5 14.0756 0.5H17.4616Z" fill="white"/>
</svg>
