<svg width="24" height="26" viewBox="0 0 24 26" fill="none" xmlns="http://www.w3.org/2000/svg">
<path opacity="0.4" d="M9.87502 22.7776L9.14502 22.0215C8.86202 21.7295 8.48302 21.5679 8.08102 21.5669H7.05402C5.39402 21.5669 4.04302 20.1676 4.04302 18.4483V17.3836C4.04202 16.9683 3.88602 16.5757 3.60302 16.2806L2.88502 15.538C1.70902 14.3272 1.70402 12.348 2.87402 11.1289L3.60402 10.3718C3.88602 10.0787 4.04202 9.68617 4.04302 9.26982V8.20717C4.04302 6.48685 5.39402 5.0876 7.05402 5.0876H8.08202C8.48302 5.0876 8.86102 4.92603 9.14602 4.63085L9.86502 3.88824C11.034 2.67024 12.944 2.66403 14.122 3.87685L14.852 4.63292C15.136 4.92603 15.514 5.0876 15.915 5.0876H16.943C18.603 5.0876 19.954 6.48685 19.954 8.20717V9.27085C19.955 9.68617 20.111 10.0787 20.394 10.3739L21.112 11.1175C21.681 11.7037 21.996 12.4847 21.999 13.3184C22.001 14.147 21.693 14.9269 21.132 15.5162C21.122 15.5266 21.113 15.538 21.103 15.5473L20.393 16.2826C20.111 16.5757 19.955 16.9683 19.954 17.3846V18.4483C19.954 20.1676 18.603 21.5669 16.943 21.5669H15.915C15.514 21.5679 15.135 21.7295 14.851 22.0226L14.132 22.7662C13.546 23.3773 12.772 23.6839 11.999 23.6839C11.23 23.6839 10.462 23.3814 9.87502 22.7776Z" fill="#00A2FD"/>
<path fill-rule="evenodd" clip-rule="evenodd" d="M10.3118 10.6667C10.3118 10.9132 10.2168 11.1421 10.0428 11.3099C9.87776 11.4807 9.66376 11.5729 9.42676 11.5729C9.20476 11.5729 8.98676 11.4787 8.81176 11.3088C8.64576 11.1379 8.55176 10.9039 8.55176 10.6667C8.55176 10.4409 8.64376 10.2089 8.80576 10.0297C8.89476 9.9365 9.00076 9.86607 9.10676 9.82878C9.40876 9.68586 9.80976 9.76975 10.0478 10.0287C10.1328 10.1167 10.1978 10.213 10.2408 10.3135C10.2878 10.4212 10.3118 10.5434 10.3118 10.6667ZM13.9534 10.0244L8.81337 15.348C8.47237 15.7011 8.47237 16.276 8.81337 16.6302C8.97937 16.8011 9.19837 16.8953 9.43237 16.8953C9.66637 16.8953 9.88537 16.8011 10.0504 16.6302L15.1904 11.3066C15.5314 10.9524 15.5314 10.3786 15.1904 10.0244C14.8494 9.67225 14.2944 9.67225 13.9534 10.0244ZM13.9417 15.3564C13.8887 15.4206 13.8137 15.52 13.7627 15.6371C13.7087 15.7634 13.7017 15.8991 13.7017 15.9902C13.7017 16.0814 13.7087 16.216 13.7627 16.3424C13.8127 16.4584 13.8727 16.5526 13.9517 16.6345C14.1327 16.8085 14.3427 16.8965 14.5767 16.8965C14.7987 16.8965 15.0167 16.8033 15.1957 16.6303C15.3547 16.4656 15.4417 16.2378 15.4417 15.9902C15.4417 15.7417 15.3547 15.5149 15.1947 15.3491C15.1067 15.259 15.0007 15.1886 14.9057 15.1555C14.5817 15.0146 14.1977 15.0912 13.9417 15.3564Z" fill="#00A2FD"/>
</svg>
