<svg width="28" height="28" viewBox="0 0 28 28" fill="none" xmlns="http://www.w3.org/2000/svg">
<g clip-path="url(#clip0_0_2045)">
<mask id="mask0_0_2045" style="mask-type:alpha" maskUnits="userSpaceOnUse" x="0" y="0" width="28" height="28">
<rect width="28" height="28" fill="white"/>
</mask>
<g mask="url(#mask0_0_2045)">
<path d="M10.525 20.0014V7.52908H17.465V20.0014H10.525Z" fill="#FF5F00"/>
<path d="M13.9995 7.5293C12.6505 6.46725 10.948 5.83335 9.09773 5.83335C4.71739 5.83335 1.16663 9.38462 1.16663 13.7655C1.16663 18.1463 4.71739 21.6976 9.09773 21.6976C10.948 21.6976 12.6505 21.0637 13.9995 20.0016C12.1548 18.5492 10.9702 16.2955 10.9702 13.7655C10.9702 11.2354 12.1548 8.98168 13.9995 7.5293Z" fill="#EB001B"/>
<path d="M18.8951 21.6976C17.0448 21.6976 15.3423 21.0637 13.9928 20.0016C15.838 18.5492 17.0226 16.2955 17.0226 13.7655C17.0226 11.2354 15.838 8.98168 13.9928 7.5293C15.3423 6.46725 17.0448 5.83335 18.8951 5.83335C23.2754 5.83335 26.8262 9.38462 26.8262 13.7655C26.8262 18.1463 23.2754 21.6976 18.8951 21.6976Z" fill="#F79E1B"/>
<path fill-rule="evenodd" clip-rule="evenodd" d="M19.7737 12.0432L20.1516 10.3024C19.6843 10.118 18.8718 9.91675 18.2267 9.91666C18.227 9.91666 18.2272 9.91666 18.2274 9.91666H18.2263C18.2264 9.91666 18.2266 9.91666 18.2267 9.91666C16.0279 9.91688 14.4797 11.0136 14.4607 12.6481C14.4451 13.9164 15.5969 14.5526 16.4276 15.0114L16.4441 15.0206C17.2759 15.479 17.504 15.6635 17.4996 16.0347C17.494 16.5568 16.8578 16.8564 16.1165 16.8564C15.307 16.8564 14.9057 16.7301 13.9587 16.3332L13.5651 18.15C14.4953 18.4798 14.9068 18.576 16.0472 18.5928C18.5472 18.5928 19.7323 17.2075 19.7468 15.8032C19.7603 15.1268 19.6194 14.504 18.5472 13.8108C18.2784 13.6368 18.0118 13.4895 17.7681 13.355C17.1605 13.0194 16.6957 12.7626 16.6957 12.3652C16.6957 12.0231 17.2212 11.6664 18.0709 11.6519C18.6556 11.6441 19.3511 11.8733 19.7737 12.0432ZM7.24028 18.4687L10.742 10.0721L8.47685 10.0698L6.20608 15.754L5.98835 14.5946L5.98793 14.5924C5.63596 12.718 5.41096 11.5198 5.31163 10.9978C5.19424 10.3762 4.82863 10.0732 4.20252 10.0732H0.583374V10.3024C1.46887 10.5763 2.10058 10.7776 2.4796 10.9084C2.90558 11.0548 3.12695 11.3645 3.23876 11.8073C3.80104 14.0288 4.37051 16.2486 4.94715 18.4664L7.24028 18.4687ZM25.1772 17.2097H22.3665L21.9192 18.4586L19.6663 18.4631C20.7389 15.8839 21.8137 13.3056 22.8908 10.7284C23.0742 10.2912 23.3995 10.0687 23.8792 10.0709C24.2459 10.0743 24.8441 10.0743 25.6748 10.0721L27.4167 18.4642L25.4288 18.4675L25.1772 17.2097ZM24.8105 15.4868L24.1341 12.3339L22.9993 15.4868H24.8105ZM12.0636 18.4664L9.90796 18.4642L11.6968 10.0698L13.8547 10.0721L12.0636 18.4664Z" fill="white"/>
</g>
</g>
<defs>
<clipPath id="clip0_0_2045">
<rect width="28" height="28" fill="white"/>
</clipPath>
</defs>
</svg>
