<svg width="27" height="30" viewBox="0 0 27 30" fill="none" xmlns="http://www.w3.org/2000/svg">
<g clip-path="url(#clip0_0_1679)">
<g filter="url(#filter0_f_0_1679)">
<ellipse cx="14.02" cy="19.872" rx="3.036" ry="9.936" fill="#00A2FD"/>
</g>
<circle cx="13.744" cy="13.248" r="12.748" fill="#202425" stroke="url(#paint0_linear_0_1679)"/>
<path d="M14.7294 7.40601C15.2777 7.40601 15.722 7.85403 15.722 8.40695V9.74205C15.722 10.295 15.2777 10.743 14.7294 10.743H13.4055C12.8572 10.743 12.413 10.295 12.413 9.74205V8.40695C12.413 7.85403 12.8572 7.40601 13.4055 7.40601H14.7294Z" fill="#00A2FD"/>
<path fill-rule="evenodd" clip-rule="evenodd" d="M10.2185 7.40601C10.7667 7.40601 11.211 7.85403 11.211 8.40695V9.74205C11.211 10.295 10.7667 10.743 10.2185 10.743H8.89454C8.34625 10.743 7.90198 10.295 7.90198 9.74205V8.40695C7.90198 7.85403 8.34625 7.40601 8.89454 7.40601H10.2185ZM10.2185 11.889C10.7667 11.889 11.211 12.3371 11.211 12.89V14.2251C11.211 14.7776 10.7667 15.226 10.2185 15.226H8.89454C8.34625 15.226 7.90198 14.7776 7.90198 14.2251V12.89C7.90198 12.3371 8.34625 11.889 8.89454 11.889H10.2185ZM15.722 12.89C15.722 12.3371 15.2777 11.889 14.7294 11.889H13.4055C12.8572 11.889 12.413 12.3371 12.413 12.89V14.2251C12.413 14.7776 12.8572 15.226 13.4055 15.226H14.7294C15.2777 15.226 15.722 14.7776 15.722 14.2251V12.89Z" fill="#00A2FD"/>
<path d="M14.7294 16.238C15.2777 16.238 15.722 16.686 15.722 17.2389V18.574C15.722 19.1269 15.2777 19.575 14.7294 19.575H13.4055C12.8572 19.575 12.413 19.1269 12.413 18.574V17.2389C12.413 16.686 12.8572 16.238 13.4055 16.238H14.7294Z" fill="#00A2FD"/>
<path fill-rule="evenodd" clip-rule="evenodd" d="M10.2185 16.238C10.7667 16.238 11.211 16.686 11.211 17.2389V18.574C11.211 19.1269 10.7667 19.575 10.2185 19.575H8.89454C8.34625 19.575 7.90198 19.1269 7.90198 18.574V17.2389C7.90198 16.686 8.34625 16.238 8.89454 16.238H10.2185Z" fill="#00A2FD"/>
<path d="M18.8205 11.8892C19.3688 11.8892 19.8131 12.3372 19.8131 12.8901V14.2252C19.8131 14.7777 19.3688 15.2261 18.8205 15.2261H17.4966C16.9483 15.2261 16.504 14.7777 16.504 14.2252V12.8901C16.504 12.3372 16.9483 11.8892 17.4966 11.8892H18.8205Z" fill="#00A2FD"/>
<path d="M18.8205 7.40607C19.3688 7.40607 19.8131 7.85409 19.8131 8.40701V9.74211C19.8131 10.295 19.3688 10.7431 18.8205 10.7431H17.4966C16.9483 10.7431 16.504 10.295 16.504 9.74211V8.40701C16.504 7.85409 16.9483 7.40607 17.4966 7.40607H18.8205Z" fill="#00A2FD"/>
<path d="M18.8205 16.2382C19.3688 16.2382 19.8131 16.6862 19.8131 17.2391V18.5742C19.8131 19.1271 19.3688 19.5751 18.8205 19.5751H17.4966C16.9483 19.5751 16.504 19.1271 16.504 18.5742V17.2391C16.504 16.6862 16.9483 16.2382 17.4966 16.2382H18.8205Z" fill="#00A2FD"/>
</g>
<defs>
<filter id="filter0_f_0_1679" x="-9.67493" y="-10.723" width="47.3899" height="61.1899" filterUnits="userSpaceOnUse" color-interpolation-filters="sRGB">
<feFlood flood-opacity="0" result="BackgroundImageFix"/>
<feBlend mode="normal" in="SourceGraphic" in2="BackgroundImageFix" result="shape"/>
<feGaussianBlur stdDeviation="10.3295" result="effect1_foregroundBlur_0_1679"/>
</filter>
<linearGradient id="paint0_linear_0_1679" x1="19.816" y1="25.392" x2="19.816" y2="13.248" gradientUnits="userSpaceOnUse">
<stop stop-color="#00A2FD" stop-opacity="0.23"/>
<stop offset="1" stop-color="#00A2FD" stop-opacity="0.11"/>
</linearGradient>
<clipPath id="clip0_0_1679">
<rect width="26.496" height="29.808" fill="white" transform="translate(0.495972)"/>
</clipPath>
</defs>
</svg>
