<svg width="24" height="24" viewBox="0 0 24 24" fill="none" xmlns="http://www.w3.org/2000/svg">
<g id="Iconly/Bulk/Info Square">
<path id="Fill 1" opacity="0.4" d="M7.67 1.99976C4.28 1.99976 2 4.37976 2 7.91976V16.0898C2 19.6198 4.28 21.9998 7.67 21.9998H16.34C19.73 21.9998 22 19.6198 22 16.0898V7.91976C22 4.37976 19.73 1.99976 16.34 1.99976H7.67Z" fill="white"/>
<path id="Combined Shape" fill-rule="evenodd" clip-rule="evenodd" d="M12.0048 7.31433C11.5198 7.31433 11.1248 7.70733 11.1248 8.18933C11.1248 8.67133 11.5158 9.06433 11.9948 9.06433C12.4878 9.06433 12.8798 8.67133 12.8798 8.18933C12.8798 7.70733 12.4878 7.31433 12.0048 7.31433ZM12.8698 15.7822V11.3622C12.8698 10.8802 12.4768 10.4872 11.9948 10.4872C11.5128 10.4872 11.1198 10.8802 11.1198 11.3622V15.7822C11.1198 16.2642 11.5128 16.6572 11.9948 16.6572C12.4768 16.6572 12.8698 16.2642 12.8698 15.7822Z" fill="white"/>
</g>
</svg>
