<svg width="152" height="63" viewBox="0 0 152 63" fill="none" xmlns="http://www.w3.org/2000/svg">
<rect width="152" height="63" fill="white"/>
<mask id="mask0_0_750" style="mask-type:alpha" maskUnits="userSpaceOnUse" x="0" y="0" width="152" height="63">
<rect width="152" height="63" fill="white"/>
</mask>
<g mask="url(#mask0_0_750)">
<path d="M51.8061 25.5314C52.6716 30.0693 52.1478 35.012 50.2919 39.8225C50.2919 39.8237 50.2907 39.8261 50.2907 39.8273C50.2598 39.9082 50.2264 39.9903 50.1967 40.0665C50.1955 40.0689 50.1955 40.0701 50.1943 40.0713C50.105 40.2987 50.0062 40.5427 49.8919 40.8129C49.3908 41.9915 48.8098 43.1628 48.1658 44.2973C47.6504 45.2068 47.0801 46.1199 46.4706 47.0079C45.8409 47.9281 45.1516 48.8483 44.4243 49.7411C44.135 50.0959 43.8624 50.4197 43.5898 50.7339C42.7779 51.6744 41.903 52.6089 40.9887 53.5088C40.9804 53.516 40.9721 53.5231 40.9649 53.5315C40.9387 53.5576 40.9102 53.585 40.884 53.6112C40.8506 53.6433 40.8185 53.6755 40.7852 53.7076L40.7685 53.7231C40.6947 53.7957 40.6197 53.8683 40.5435 53.9398C40.5364 53.9469 40.528 53.9541 40.5185 53.9636C40.5102 53.9719 40.5007 53.9826 40.4911 53.9921C40.4876 53.9969 40.4816 54.0017 40.478 54.0064L40.4673 54.0171L40.4602 54.0231L40.459 54.0255C40.4542 54.0302 40.4495 54.0338 40.4447 54.0386C40.4423 54.041 40.4399 54.0433 40.4376 54.0457C40.4304 54.0517 40.4245 54.0588 40.4185 54.066C40.4173 54.0671 40.4161 54.0683 40.4149 54.0695C40.4137 54.0707 40.4126 54.0719 40.4114 54.0731C40.3078 54.1707 40.1971 54.2743 40.0495 54.4076C40.0447 54.4124 40.0388 54.4183 40.0328 54.4231C40.0233 54.4302 40.015 54.4374 40.0066 54.4445C39.8173 54.6124 39.6257 54.7802 39.4316 54.9469C39.6447 54.6624 39.8507 54.3743 40.0507 54.0826C40.0876 54.0279 40.1245 53.9731 40.1626 53.9183C40.2007 53.8624 40.2411 53.8053 40.2792 53.7493C42.5506 50.434 43.8958 46.6913 44.1684 42.9259C44.4314 39.2999 43.7065 35.781 42.0696 32.7526C40.5923 30.0193 38.3948 27.7659 35.7163 26.2385C32.8236 24.5886 29.463 23.791 25.7263 23.8636C25.7167 23.8636 25.7072 23.8636 25.6977 23.8636L25.6263 23.8648C25.5775 23.866 25.5298 23.8672 25.4822 23.8696C25.4441 23.8696 25.406 23.8743 25.3691 23.8839C25.3656 23.8851 25.3632 23.8851 25.3596 23.8862C25.3227 23.8934 25.287 23.9005 25.2489 23.9112C25.0799 23.9196 24.9215 23.9279 24.7656 23.9374C24.762 23.9374 24.7573 23.9374 24.7537 23.9386C24.6894 23.9422 24.6239 23.947 24.5596 23.9517H24.5489C24.537 23.9529 24.5239 23.9541 24.512 23.9553C23.0287 24.0672 21.486 24.3243 19.9229 24.7207C19.9194 24.7219 19.9146 24.7231 19.911 24.7243C19.8325 24.7457 19.7015 24.7553 19.5753 24.766C19.4075 24.7791 19.2182 24.7934 19.0325 24.841C19.0289 24.8422 19.0253 24.8434 19.0206 24.8445C17.129 25.3624 15.3207 25.3909 13.791 24.9267C12.428 24.5136 11.3007 23.7244 10.5316 22.6446C9.84715 21.6816 9.48526 20.5435 9.48645 19.3519C9.48645 18.1008 9.89477 16.8461 10.6638 15.7235C11.3578 14.7104 12.3268 13.8212 13.5434 13.0772C14.0184 12.851 14.4827 12.6224 14.9327 12.401L15.0981 12.3189C15.1065 12.3153 15.1136 12.3105 15.1219 12.307L15.2624 12.2379C15.2957 12.2296 15.3291 12.2189 15.3612 12.2058C15.4481 12.1689 15.5541 12.1129 15.7183 12.0129L15.7624 11.9915C15.8052 11.9713 15.8469 11.9498 15.8898 11.9296C15.9064 11.9236 15.9243 11.9165 15.9409 11.9094C19.0587 10.5261 22.1562 9.56067 25.1489 9.03926C27.9762 8.54762 30.7284 8.44881 33.3271 8.74523C38.2103 9.30354 42.5303 11.2546 45.823 14.389C48.9074 17.3234 50.9752 21.1768 51.8061 25.5314Z" fill="#00A2FD"/>
<path d="M36.5592 54.2956C32.8189 59.7561 26.7108 62.6822 20.3611 62.7298C18.9456 62.7012 17.5267 62.5691 16.1172 62.3322C16.116 62.3322 16.1136 62.3322 16.1112 62.331C10.9495 61.462 5.91999 59.1894 1.62136 55.4777C1.0571 54.9908 0.517836 54.4896 0 53.9706C1.45232 54.7492 2.95345 55.3956 4.48434 55.9098C12.4578 58.5942 21.2515 57.724 28.4822 53.4671C31.1356 51.9052 33.5796 49.8851 35.695 47.4185C37.3615 45.4734 38.7246 43.3639 39.7864 41.1521C40.296 45.6757 39.2769 50.3279 36.5592 54.2956Z" fill="#00A2FD"/>
<path d="M49.0289 11.9462C49.0932 12.0438 49.1563 12.139 49.2182 12.2355C50.8896 14.833 52.1205 17.7329 52.8502 20.8268L52.8514 20.8303C54.0097 26.1944 53.5394 31.1704 52.2407 35.5702C53.0799 31.8668 53.1526 28.1622 52.4383 24.673C51.505 20.1173 49.273 16.0698 45.9838 12.9676C42.4721 9.65224 37.8925 7.55947 32.7451 6.91306C30.0023 6.56903 27.1036 6.63451 24.1311 7.10949C22.0419 7.444 19.9063 7.98207 17.7504 8.71656C17.71 7.33448 15.8303 6.41547 13.3602 7.31543C8.12584 9.19392 5.88902 5.86906 10.4746 3.30369C10.7281 3.19179 10.9817 3.08346 11.2364 2.9787V2.97751C11.6281 2.86918 12.059 2.69776 12.409 2.51325C12.409 2.51206 12.409 2.51206 12.4114 2.51325C12.4185 2.51087 12.4245 2.50848 12.4304 2.50729C12.5435 2.46563 12.6578 2.42634 12.7697 2.38587C18.9849 0.190723 24.7442 -0.40211 29.8619 0.250244C30.0499 0.275243 30.2368 0.299053 30.4237 0.327623C30.5214 0.341908 30.6178 0.356192 30.7154 0.371668C38.4484 1.58233 44.6482 5.67264 48.6397 11.3712C48.773 11.5605 48.9027 11.7522 49.0289 11.9462Z" fill="#00669F"/>
<path fill-rule="evenodd" clip-rule="evenodd" d="M24.7346 25.4362C24.8977 25.1993 25.143 25.0528 25.406 25.01C25.4691 24.9993 25.531 24.9945 25.5941 24.9969C29.313 24.7648 33.1331 25.7254 36.4461 27.9932C39.3221 29.9633 41.4173 32.6466 42.6565 35.6453C44.5136 41.1176 43.7041 47.765 39.6531 53.5719L39.6466 53.5813C39.569 53.6949 39.4914 53.8084 39.4126 53.9219C39.4114 53.9219 39.4114 53.9231 39.4114 53.9231C39.3958 53.9476 39.3793 53.9716 39.3628 53.9957C39.3527 54.0103 39.3427 54.0249 39.3328 54.0397C39.3007 54.0874 39.2686 54.135 39.2352 54.1814C38.3829 55.4052 37.427 56.5123 36.3865 57.4991C36.3842 57.5015 36.3806 57.5051 36.377 57.5075C35.4318 58.4038 34.4176 59.199 33.3509 59.8943C34.4711 58.8669 35.4628 57.7765 36.327 56.6444C40.353 51.3791 41.6268 45.202 40.2483 40.1391C38.8388 34.9631 34.658 30.9514 27.8107 30.2645C27.4405 30.2288 27.3107 29.7681 27.6 29.536C28.0012 29.2134 28.2404 28.8015 28.1738 28.3848C28.0774 27.5873 27.0405 27.0516 25.8346 27.1623C25.8328 27.1629 25.8313 27.1632 25.8299 27.1635C25.8284 27.1638 25.8269 27.1641 25.8251 27.1647C25.3037 27.198 24.9239 26.929 24.712 26.5468C24.6608 26.4552 24.6192 26.3575 24.5882 26.2564C24.5876 26.2552 24.5873 26.2537 24.587 26.2522C24.5867 26.2507 24.5864 26.2492 24.5858 26.248C24.5204 25.979 24.5656 25.6838 24.7346 25.4362ZM42.0363 34.4739C42.0351 34.4691 42.0327 34.4644 42.0304 34.4596C42.0327 34.4632 42.0351 34.4679 42.0363 34.4739Z" fill="#00669F"/>
<path fill-rule="evenodd" clip-rule="evenodd" d="M63.863 28.7448C64.759 30.2568 65.963 31.4421 67.475 32.3008C69.0057 33.1408 70.6763 33.5608 72.487 33.5608C74.3163 33.5608 75.987 33.1408 77.499 32.3008C79.0297 31.4421 80.2337 30.2568 81.111 28.7448C81.9883 27.2141 82.427 25.4968 82.427 23.5928C82.427 21.6888 81.9883 19.9808 81.111 18.4688C80.2337 16.9568 79.0297 15.7808 77.499 14.9408C75.987 14.0821 74.3163 13.6528 72.487 13.6528C70.6763 13.6528 69.0057 14.0821 67.475 14.9408C65.963 15.7808 64.759 16.9568 63.863 18.4688C62.9857 19.9808 62.547 21.6888 62.547 23.5928C62.547 25.4968 62.9857 27.2141 63.863 28.7448ZM78.283 27.4008C77.723 28.4834 76.939 29.3234 75.931 29.9208C74.923 30.4994 73.775 30.7888 72.487 30.7888C71.199 30.7888 70.051 30.4994 69.043 29.9208C68.035 29.3234 67.2417 28.4834 66.663 27.4008C66.103 26.2994 65.823 25.0301 65.823 23.5928C65.823 22.1554 66.103 20.8954 66.663 19.8128C67.2417 18.7301 68.035 17.8994 69.043 17.3208C70.051 16.7421 71.199 16.4528 72.487 16.4528C73.775 16.4528 74.923 16.7421 75.931 17.3208C76.939 17.8994 77.723 18.7301 78.283 19.8128C78.8617 20.8954 79.151 22.1554 79.151 23.5928C79.151 25.0301 78.8617 26.2994 78.283 27.4008ZM95.396 30.7608V33.3648H84.7V30.7608L91.728 20.5408H84.7V17.9368H95.396V20.5408L88.396 30.7608H95.396ZM100.988 26.8408H112.776C112.85 26.3741 112.888 25.8514 112.888 25.2728C112.888 23.7794 112.57 22.4634 111.936 21.3248C111.301 20.1674 110.414 19.2714 109.276 18.6368C108.137 18.0021 106.84 17.6848 105.384 17.6848C103.872 17.6848 102.528 18.0114 101.352 18.6648C100.194 19.3181 99.289 20.2514 98.6357 21.4648C98.001 22.6594 97.6837 24.0501 97.6837 25.6368C97.6837 27.2234 98.0104 28.6234 98.6637 29.8368C99.3357 31.0314 100.25 31.9648 101.408 32.6368C102.584 33.2901 103.909 33.6168 105.384 33.6168C107.194 33.6168 108.706 33.1688 109.92 32.2728C111.152 31.3581 112.001 30.1914 112.468 28.7728H109.024C108.314 30.2101 107.101 30.9288 105.384 30.9288C104.189 30.9288 103.181 30.5554 102.36 29.8088C101.538 29.0621 101.081 28.0728 100.988 26.8408ZM108.296 21.4368C107.474 20.7274 106.457 20.3728 105.244 20.3728C104.142 20.3728 103.2 20.7274 102.416 21.4368C101.632 22.1274 101.165 23.0701 101.016 24.2648H109.556C109.537 23.0888 109.117 22.1461 108.296 21.4368ZM118.549 18.6928C117.448 19.3461 116.57 20.2701 115.917 21.4648C115.282 22.6594 114.965 24.0314 114.965 25.5808C114.965 27.1301 115.282 28.5208 115.917 29.7528C116.57 30.9661 117.448 31.9181 118.549 32.6088C119.65 33.2808 120.864 33.6168 122.189 33.6168C123.384 33.6168 124.448 33.3741 125.381 32.8888C126.314 32.4034 127.052 31.7968 127.593 31.0688V33.3648H130.813V17.9368H127.593V20.1768C127.052 19.4674 126.324 18.8794 125.409 18.4128C124.513 17.9274 123.458 17.6848 122.245 17.6848C120.901 17.6848 119.669 18.0208 118.549 18.6928ZM126.921 22.8648C126.492 22.0808 125.922 21.4834 125.213 21.0728C124.504 20.6621 123.738 20.4568 122.917 20.4568C122.096 20.4568 121.33 20.6621 120.621 21.0728C119.912 21.4648 119.333 22.0528 118.885 22.8368C118.456 23.6021 118.241 24.5168 118.241 25.5808C118.241 26.6448 118.456 27.5781 118.885 28.3808C119.333 29.1834 119.912 29.7994 120.621 30.2288C121.349 30.6394 122.114 30.8448 122.917 30.8448C123.738 30.8448 124.504 30.6394 125.213 30.2288C125.922 29.8181 126.492 29.2208 126.921 28.4368C127.369 27.6341 127.593 26.7008 127.593 25.6368C127.593 24.5728 127.369 23.6488 126.921 22.8648ZM148.306 20.6808C147.764 19.6914 147.008 18.9448 146.038 18.4408C145.086 17.9368 144.003 17.6848 142.79 17.6848C141.875 17.6848 141.007 17.8621 140.186 18.2168C139.383 18.5714 138.72 19.0661 138.198 19.7008V17.9368H135.006V33.3648H138.198V24.7408C138.198 23.3594 138.543 22.3048 139.234 21.5768C139.943 20.8301 140.895 20.4568 142.09 20.4568C143.284 20.4568 144.227 20.8301 144.918 21.5768C145.608 22.3048 145.954 23.3594 145.954 24.7408V33.3648H149.118V24.2648C149.118 22.8648 148.847 21.6701 148.306 20.6808Z" fill="white"/>
<path fill-rule="evenodd" clip-rule="evenodd" d="M68.959 53.3648L64.157 46.0989V53.3648H62.561V43.6208H64.157L68.959 50.8728V43.6208H70.555V53.3648H68.959ZM80.3768 44.9369H76.2468V47.8069H79.4668V49.1088H76.2468V53.3648H74.6508V43.6348H80.3768V44.9369ZM87.5519 44.9369H90.1419V43.6348H83.3519V44.9369H85.9559V53.3648H87.5519V44.9369Z" fill="white"/>
</g>
</svg>
