<svg width="24" height="24" viewBox="0 0 24 24" fill="none" xmlns="http://www.w3.org/2000/svg">
<g id="Iconly/Bulk/More Circle">
<g id="Group">
<path id="Fill 1" opacity="0.4" d="M12.0002 21.9998C6.47724 21.9998 2.00024 17.5238 2.00024 11.9998C2.00024 6.47776 6.47724 1.99976 12.0002 1.99976C17.5232 1.99976 22.0002 6.47776 22.0002 11.9998C22.0002 17.5238 17.5232 21.9998 12.0002 21.9998Z" fill="white"/>
<path id="Combined Shape" fill-rule="evenodd" clip-rule="evenodd" d="M6.32312 11.9995C6.32312 12.6595 6.86012 13.1975 7.52112 13.1975C8.18212 13.1975 8.71912 12.6595 8.71912 11.9995C8.71912 11.3405 8.18212 10.8035 7.52112 10.8035C6.86012 10.8035 6.32312 11.3405 6.32312 11.9995ZM10.8022 11.9995C10.8022 12.6595 11.3392 13.1975 12.0002 13.1975C12.6612 13.1975 13.1982 12.6595 13.1982 11.9995C13.1982 11.3405 12.6612 10.8035 12.0002 10.8035C11.3392 10.8035 10.8022 11.3405 10.8022 11.9995ZM16.4796 13.1975C15.8186 13.1975 15.2816 12.6595 15.2816 11.9995C15.2816 11.3405 15.8186 10.8035 16.4796 10.8035C17.1406 10.8035 17.6776 11.3405 17.6776 11.9995C17.6776 12.6595 17.1406 13.1975 16.4796 13.1975Z" fill="white"/>
</g>
</g>
</svg>
