<svg width="24" height="24" viewBox="0 0 24 24" fill="none" xmlns="http://www.w3.org/2000/svg">
<g id="Iconly/Bulk/Paper Download">
<g id="Paper Download">
<path id="Fill 3" opacity="0.4" d="M17.0149 9.011C15.199 9.011 13.7059 7.508 13.7059 5.675V2.459C13.7059 2.206 13.503 2 13.2525 2H7.96436C5.49604 2 3.5 4.026 3.5 6.509V17.284C3.5 19.889 5.59109 22 8.1703 22H16.0455C18.5059 22 20.5 19.987 20.5 17.502V9.471C20.5 9.217 20.298 9.012 20.0465 9.013C19.6238 9.016 19.1168 9.021 18.8089 9.021C18.3574 9.021 17.7594 9.011 17.0149 9.011Z" fill="white"/>
<path id="Fill 1" opacity="0.4" d="M15.2633 2.90125V5.53825C15.2633 6.64425 16.1733 7.55425 17.2793 7.55425C17.9773 7.56225 18.9453 7.56425 19.7673 7.56225C20.1883 7.56125 20.4023 7.05825 20.1103 6.75425C19.0553 5.65725 17.1663 3.69125 16.0843 2.56725C15.7853 2.25625 15.2633 2.47025 15.2633 2.90125Z" fill="white"/>
<path id="Fill 6" d="M14.0512 12.7108L12.4622 14.3078V9.48084C12.4622 9.06984 12.1282 8.73584 11.7172 8.73584C11.3062 8.73584 10.9722 9.06984 10.9722 9.48084V14.3078L9.38224 12.7108C9.09124 12.4178 8.62024 12.4198 8.32924 12.7088C8.03724 12.9988 8.03724 13.4698 8.32624 13.7618L11.1892 16.6378H11.1902C11.2582 16.7058 11.3392 16.7608 11.4302 16.7988C11.5202 16.8358 11.6182 16.8558 11.7172 16.8558C11.8172 16.8558 11.9152 16.8358 12.0052 16.7978C12.0942 16.7608 12.1752 16.7058 12.2432 16.6388L12.2452 16.6378L15.1072 13.7618C15.3972 13.4698 15.3972 12.9988 15.1052 12.7088C14.8132 12.4198 14.3432 12.4178 14.0512 12.7108Z" fill="white"/>
</g>
</g>
</svg>
