<svg width="24" height="24" viewBox="0 0 24 24" fill="none" xmlns="http://www.w3.org/2000/svg">
<g id="Iconly/Bulk/Shield Fail">
<g id="Shield Fail">
<path id="Fill 1" opacity="0.4" d="M11.7276 21.9137L8.12627 20.0496C7.10336 19.5201 6.30397 18.9259 5.68076 18.2336C4.31353 16.7195 3.55441 14.776 3.54132 12.7599L3.50004 6.12426C3.495 5.35842 3.98833 4.67103 4.72732 4.41215L11.34 2.10679C11.7336 1.96656 12.1716 1.9646 12.5703 2.09992L19.2081 4.32684C19.9511 4.57493 20.4535 5.25742 20.4575 6.02228L20.4998 12.6628C20.5129 14.676 19.7799 16.6274 18.4349 18.1581C17.8167 18.8602 17.0253 19.4632 16.0135 20.0025L12.4444 21.9088C12.3337 21.9686 12.2098 21.999 12.086 22C11.9622 22 11.8393 21.9716 11.7276 21.9137Z" fill="white"/>
<path id="Fill 4" d="M14.4259 10.4021C14.7209 10.1148 14.7209 9.65001 14.4259 9.3627C14.1309 9.07539 13.6527 9.07539 13.3577 9.3627L11.9995 10.6845L10.6424 9.3627C10.3474 9.07539 9.86914 9.07539 9.57415 9.3627C9.27916 9.65001 9.27916 10.1148 9.57415 10.4021L10.9323 11.7249L9.57415 13.0478C9.27916 13.3351 9.27916 13.7999 9.57415 14.0872C9.72215 14.2313 9.91545 14.3029 10.1088 14.3029C10.3011 14.3029 10.4944 14.2313 10.6424 14.0872L11.9995 12.7653L13.3577 14.0872C13.5057 14.2313 13.698 14.3029 13.8913 14.3029C14.0846 14.3029 14.2779 14.2313 14.4259 14.0872C14.7209 13.7999 14.7209 13.3351 14.4259 13.0478L13.0677 11.7249L14.4259 10.4021Z" fill="white"/>
</g>
</g>
</svg>
