<svg width="24" height="24" viewBox="0 0 24 24" fill="none" xmlns="http://www.w3.org/2000/svg">
<g id="Iconly/Bulk/Show">
<g id="Show">
<path id="Fill 1" opacity="0.4" fill-rule="evenodd" clip-rule="evenodd" d="M8.09753 12C8.09753 9.85697 9.84388 8.12122 12 8.12122C14.1463 8.12122 15.8927 9.85697 15.8927 12C15.8927 14.1333 14.1463 15.8691 12 15.8691C9.84388 15.8691 8.09753 14.1333 8.09753 12ZM17.7366 6.04606C16.0293 4.71758 14.0683 4 12 4H11.9902C7.86341 4 4.14634 6.87903 2.05854 11.7091C1.98049 11.8924 1.98049 12.1067 2.05854 12.2812C4.14634 17.1103 7.86341 20 11.9902 20H12C16.1366 20 19.8537 17.1103 21.9415 12.2812C22.0195 12.1067 22.0195 11.8924 21.9415 11.7091C20.8976 9.29455 19.4439 7.36388 17.7366 6.04606Z" fill="white"/>
<path id="Fill 4" d="M12.0016 14.4114C10.6553 14.4114 9.56262 13.3254 9.56262 11.9969C9.56262 11.832 9.58213 11.6778 9.6114 11.5227H9.66018C10.7431 11.5227 11.6212 10.6694 11.6602 9.60172C11.7675 9.5833 11.8846 9.57263 12.0016 9.57263C13.3382 9.57263 14.4309 10.6587 14.4309 11.9969C14.4309 13.3254 13.3382 14.4114 12.0016 14.4114Z" fill="white"/>
</g>
</g>
</svg>
