<svg width="24" height="24" viewBox="0 0 24 24" fill="none" xmlns="http://www.w3.org/2000/svg">
<g id="Iconly/Bulk/Video">
<g id="Video">
<path id="Fill 1" opacity="0.4" d="M19.958 7.37855L18.476 8.12677C17.928 8.40291 17.588 8.96129 17.588 9.58261V15.4161C17.588 16.0374 17.928 16.5948 18.476 16.873L19.957 17.6202C20.158 17.7237 20.373 17.7735 20.588 17.7735C20.846 17.7735 21.102 17.7004 21.3311 17.5572C21.7501 17.2943 22.0001 16.8384 22.0001 16.339V8.66179C22.0001 8.1623 21.7501 7.70646 21.3311 7.44251C20.912 7.17855 20.397 7.1552 19.958 7.37855Z" fill="white"/>
<path id="Fill 3" d="M6.11304 20C3.69102 20 2 18.3299 2 15.9391V9.06091C2 6.66904 3.69102 5 6.11304 5H11.9051C14.3271 5 16.0181 6.66904 16.0181 9.06091V15.9391C16.0181 18.3299 14.3271 20 11.9051 20H6.11304Z" fill="white"/>
</g>
</g>
</svg>
