<svg width="24" height="24" viewBox="0 0 24 24" fill="none" xmlns="http://www.w3.org/2000/svg">
<g id="Iconly/Bulk/Activity">
<g id="Activity">
<path id="Path_34168" fill-rule="evenodd" clip-rule="evenodd" d="M15.2428 4.73756C15.2423 4.49001 15.2659 4.243 15.3131 4H7.34636C3.97851 4 2 6.00195 2 9.3561V16.6615C2 20.0156 3.97851 22 7.34636 22H14.6624C18.0215 22 20 20.0156 20 16.6615V8.68878C19.7594 8.73431 19.5151 8.75782 19.2702 8.75902V8.75902C17.0459 8.75902 15.2428 6.95855 15.2428 4.73756ZM13.15 14.8966C13.0297 15.0569 12.8494 15.1615 12.6504 15.1863C12.4514 15.2111 12.2508 15.1541 12.0948 15.0283L9.35125 12.8771L6.88031 16.0732C6.70138 16.3573 6.35288 16.485 6.03238 16.3838C5.71187 16.2826 5.5002 15.9781 5.51734 15.6429V15.6429C5.51586 15.4771 5.57177 15.3158 5.67562 15.1863L8.63019 11.3756C8.74898 11.2166 8.92691 11.1121 9.12381 11.0857C9.32071 11.0592 9.51997 11.1131 9.6766 11.2351L12.4201 13.3951L14.8295 10.2956C14.9453 10.1358 15.1211 10.0297 15.3167 10.0016C15.5122 9.97346 15.7108 10.0257 15.8671 10.1463C16.1901 10.3989 16.2525 10.8625 16.0078 11.1912V11.2088L13.15 14.8966Z" fill="#00A2FD"/>
<circle id="Ellipse_742" cx="19.5" cy="4.5" r="2.5" fill="#F63983"/>
</g>
</g>
</svg>
