<svg width="24" height="24" viewBox="0 0 24 24" fill="none" xmlns="http://www.w3.org/2000/svg">
<path opacity="0.4" d="M12.6593 12.1889C12.6593 12.5811 12.341 12.8994 11.9488 12.8994C11.5566 12.8994 11.2383 12.5811 11.2383 12.1889V3.71089C11.2383 3.31868 11.5566 3.00037 11.9488 3.00037C12.341 3.00037 12.6593 3.31868 12.6593 3.71089V12.1889Z" fill="white"/>
<path fill-rule="evenodd" clip-rule="evenodd" d="M17.3966 11.4785V20.418H6.50024V11.4785H17.3966Z" fill="black"/>
<mask id="mask0_0_219" style="mask-type:alpha" maskUnits="userSpaceOnUse" x="6" y="11" width="12" height="10">
<path fill-rule="evenodd" clip-rule="evenodd" d="M17.3966 11.4785V20.418H6.50024V11.4785H17.3966Z" fill="white"/>
</mask>
<g mask="url(#mask0_0_219)">
<path d="M17.288 12.568L12.5502 20.0863C12.4195 20.2928 12.193 20.4188 11.9486 20.4188C11.7042 20.4188 11.4778 20.2928 11.347 20.0863L6.60924 12.568C6.47187 12.3491 6.46335 12.0725 6.58935 11.8461C6.7144 11.6187 6.95219 11.4785 7.21082 11.4785H16.6864C16.945 11.4785 17.1828 11.6187 17.3079 11.8461C17.3676 11.9531 17.3969 12.0716 17.3969 12.189C17.3969 12.3217 17.36 12.4524 17.288 12.568Z" fill="white"/>
</g>
</svg>
