<svg width="24" height="24" viewBox="0 0 24 24" fill="none" xmlns="http://www.w3.org/2000/svg">
<g id="Iconly/Bulk/Calendar">
<g id="Calendar">
<path id="Fill 1" fill-rule="evenodd" clip-rule="evenodd" d="M15.2305 17.24C15.2207 16.78 15.5862 16.401 16.0406 16.391H16.0505C16.5148 16.391 16.8903 16.771 16.8903 17.24C16.8903 17.71 16.5148 18.09 16.0505 18.09C15.5961 18.08 15.2305 17.7 15.2305 17.24ZM11.1702 13.611C11.1702 13.151 11.5258 12.771 11.9803 12.75C12.4248 12.75 12.7904 13.101 12.8002 13.55C12.82 14.011 12.4643 14.391 12.0198 14.41C11.5653 14.431 11.1899 14.07 11.1702 13.611ZM11.1702 17.24C11.1702 16.78 11.5258 16.401 11.9803 16.38C12.4248 16.38 12.7904 16.731 12.8002 17.181C12.82 17.641 12.4643 18.021 12.0198 18.04C11.5653 18.061 11.1899 17.7 11.1702 17.24ZM7.10974 13.611C7.10974 13.151 7.46539 12.771 7.91984 12.75C8.36441 12.75 8.72994 13.101 8.73982 13.55C8.75958 14.011 8.40392 14.391 7.95936 14.41C7.50491 14.431 7.1295 14.07 7.10974 13.611ZM7.09991 17.24C7.09991 16.78 7.45557 16.401 7.91001 16.38C8.35458 16.38 8.72011 16.731 8.72999 17.181C8.74975 17.641 8.3941 18.021 7.94953 18.04C7.49508 18.061 7.11967 17.7 7.09991 17.24ZM16.0505 12.761C16.4951 12.761 16.8507 13.12 16.8705 13.561C16.8804 14.021 16.5247 14.401 16.0802 14.41C15.6257 14.42 15.2503 14.07 15.2404 13.611V13.601C15.2404 13.141 15.5961 12.771 16.0505 12.761ZM3 16.87C3 20.03 4.99561 22 8.12733 22H15.8628C19.0241 22 21 20.07 21 16.931V9.25696H3V16.87Z" fill="white"/>
<path id="Fill 4" opacity="0.4" d="M3.15846 7.12987C3.63267 5.02087 5.24298 3.68087 7.54485 3.48987H16.4559C18.738 3.69087 20.3681 5.03987 20.8423 7.12987C20.9342 7.49487 20.9836 8.66887 20.9964 9.25687H3.00336C3.0162 8.66987 3.0656 7.50487 3.15846 7.12987Z" fill="white"/>
<path id="Fill 6" d="M9.06559 5.82V2.771C9.06559 2.33 8.73958 2 8.30489 2C7.8702 2 7.54419 2.33 7.54419 2.771V5.82C7.54419 6.261 7.8702 6.59 8.30489 6.59C8.73958 6.59 9.06559 6.261 9.06559 5.82Z" fill="white"/>
<path id="Fill 9" d="M16.4557 5.82V2.771C16.4557 2.33 16.1198 2 15.695 2C15.2603 2 14.9343 2.33 14.9343 2.771V5.82C14.9343 6.261 15.2603 6.59 15.695 6.59C16.1198 6.59 16.4557 6.261 16.4557 5.82Z" fill="white"/>
</g>
</g>
</svg>
