<svg width="10" height="11" viewBox="0 0 10 11" fill="none" xmlns="http://www.w3.org/2000/svg">
<path d="M7.72944 1.40601C8.27773 1.40601 8.722 1.85403 8.722 2.40695V3.74205C8.722 4.29496 8.27773 4.74299 7.72944 4.74299H6.40553C5.85724 4.74299 5.41296 4.29496 5.41296 3.74205V2.40695C5.41296 1.85403 5.85724 1.40601 6.40553 1.40601H7.72944Z" fill="#00A2FD"/>
<path fill-rule="evenodd" clip-rule="evenodd" d="M3.21845 1.40601C3.76674 1.40601 4.21102 1.85403 4.21102 2.40695V3.74205C4.21102 4.29496 3.76674 4.74299 3.21845 4.74299H1.89454C1.34625 4.74299 0.901978 4.29496 0.901978 3.74205V2.40695C0.901978 1.85403 1.34625 1.40601 1.89454 1.40601H3.21845ZM3.21845 5.88904C3.76674 5.88904 4.21102 6.33707 4.21102 6.88998V8.22508C4.21102 8.77762 3.76674 9.22602 3.21845 9.22602H1.89454C1.34625 9.22602 0.901978 8.77762 0.901978 8.22508V6.88998C0.901978 6.33707 1.34625 5.88904 1.89454 5.88904H3.21845ZM8.722 6.88998C8.722 6.33707 8.27773 5.88904 7.72944 5.88904H6.40553C5.85724 5.88904 5.41296 6.33707 5.41296 6.88998V8.22508C5.41296 8.77762 5.85724 9.22602 6.40553 9.22602H7.72944C8.27773 9.22602 8.722 8.77762 8.722 8.22508V6.88998Z" fill="#00A2FD"/>
</svg>
