<svg width="24" height="24" viewBox="0 0 24 24" fill="none" xmlns="http://www.w3.org/2000/svg">
<g id="Iconly/Bulk/Chat">
<g id="Chat">
<path id="Fill 1" opacity="0.4" d="M2 12C2 13.68 2.49 15.41 3.35 16.99C3.51 17.25 3.53 17.58 3.42 17.89L2.75 20.13C2.6 20.67 3.06 21.07 3.57 20.91L5.59 20.31C6.14 20.13 6.57 20.36 7.081 20.67C8.541 21.53 10.36 21.97 12 21.97C16.96 21.97 22 18.14 22 11.97C22 6.65 17.7 2 12.02 2C6.21 2 2 6.74 2 12Z" fill="white"/>
<path id="Combined Shape" fill-rule="evenodd" clip-rule="evenodd" d="M10.7004 12.0001C10.7004 11.3001 11.2804 10.7201 11.9804 10.7301C12.6904 10.7301 13.2604 11.3001 13.2604 12.0101C13.2604 12.7101 12.6904 13.2901 11.9804 13.2901C11.2704 13.2801 10.7004 12.7101 10.7004 12.0001ZM6.09009 12.0101C6.09009 11.3001 6.66009 10.7301 7.37009 10.7301C8.08009 10.7301 8.65009 11.3001 8.65009 12.0101C8.65009 12.7101 8.08009 13.2801 7.37009 13.2901C6.67009 13.2901 6.09009 12.7101 6.09009 12.0101ZM16.5903 10.7301C15.8803 10.7301 15.3103 11.3001 15.3103 12.0101C15.3103 12.7101 15.8803 13.2901 16.5903 13.2901C17.3003 13.2901 17.8703 12.7101 17.8703 12.0101C17.8703 11.3001 17.3003 10.7301 16.5903 10.7301Z" fill="white"/>
</g>
</g>
</svg>
