<svg width="24" height="24" viewBox="0 0 24 24" fill="none" xmlns="http://www.w3.org/2000/svg">
<g id="Iconly/Bulk/Document">
<g id="Document">
<path id="Path" opacity="0.4" d="M7.81 2C4.77 2 3 3.78 3 6.83V17.16C3 20.26 4.77 22 7.81 22H16.191C19.28 22 21 20.26 21 17.16V6.83C21 3.78 19.28 2 16.191 2H7.81Z" fill="white"/>
<path id="Combined Shape" fill-rule="evenodd" clip-rule="evenodd" d="M11.069 6.65002H8.08005V6.66002C7.64905 6.66002 7.30005 7.01002 7.30005 7.44002C7.30005 7.87002 7.64905 8.22002 8.08005 8.22002H11.069C11.5 8.22002 11.85 7.87002 11.85 7.42902C11.85 7.00002 11.5 6.65002 11.069 6.65002ZM8.08005 12.7401C7.64905 12.7401 7.30005 12.3901 7.30005 11.9601C7.30005 11.5301 7.64905 11.1791 8.08005 11.1791H15.92C16.35 11.1791 16.7 11.5301 16.7 11.9601C16.7 12.3901 16.35 12.7401 15.92 12.7401H8.08005ZM8.08002 17.31C7.78002 17.35 7.49002 17.2 7.33002 16.95C7.17002 16.69 7.17002 16.36 7.33002 16.11C7.49002 15.85 7.78002 15.71 8.08002 15.74H15.92C16.319 15.78 16.62 16.12 16.62 16.53C16.62 16.929 16.319 17.27 15.92 17.31H8.08002Z" fill="white"/>
</g>
</g>
</svg>
