<svg width="8" height="7" viewBox="0 0 8 7" fill="none" xmlns="http://www.w3.org/2000/svg">
<path d="M3.28554 6.29546C3.24569 6.26989 3.08141 6.15057 2.97448 6.05682L2.91616 6.00568C2.03062 5.28977 0.698907 3.50852 0.272175 2.60511C0.262455 2.60511 0.00874908 2.06818 5.34208e-07 1.8125L5.32718e-07 1.77841C5.15581e-07 1.38636 0.251762 1.01989 0.660025 0.832387C0.884569 0.730114 1.53584 0.636364 1.54459 0.627841C2.1288 0.551137 3.02309 0.5 4.00486 0.5C5.03427 0.5 5.96841 0.551136 6.54192 0.644886C6.55164 0.644886 7.07655 0.738636 7.25152 0.798296C7.50328 0.892046 7.7181 1.0625 7.85419 1.27557C7.95043 1.44602 8 1.625 8 1.8125C7.98931 2.00852 7.84447 2.375 7.77643 2.51989C7.34872 3.47443 5.94897 5.2983 5.09356 5.99716C4.95747 6.11648 4.79125 6.24432 4.75334 6.27841C4.53949 6.4233 4.27704 6.5 3.99514 6.5C3.74241 6.5 3.4887 6.43182 3.28554 6.29546Z" fill="#00A2FD"/>
</svg>
