<svg width="8" height="6" viewBox="0 0 8 6" fill="none" xmlns="http://www.w3.org/2000/svg">
<path d="M3.28554 5.79546C3.24569 5.76989 3.08141 5.65057 2.97448 5.55682L2.91616 5.50568C2.03062 4.78977 0.698907 3.00852 0.272175 2.10511C0.262455 2.10511 0.00874908 1.56818 5.34208e-07 1.3125L5.32718e-07 1.27841C5.15581e-07 0.886364 0.251762 0.519887 0.660025 0.332387C0.884569 0.230114 1.53584 0.136364 1.54459 0.127841C2.1288 0.0511366 3.02309 2.17548e-07 4.00486 1.74633e-07C5.03427 1.29636e-07 5.96841 0.0511365 6.54192 0.144886C6.55164 0.144886 7.07655 0.238636 7.25152 0.298296C7.50328 0.392046 7.7181 0.5625 7.85419 0.775568C7.95043 0.946023 8 1.125 8 1.3125C7.98931 1.50852 7.84447 1.875 7.77643 2.01989C7.34872 2.97443 5.94897 4.7983 5.09356 5.49716C4.95747 5.61648 4.79125 5.74432 4.75334 5.77841C4.53949 5.9233 4.27704 6 3.99514 6C3.74241 6 3.4887 5.93182 3.28554 5.79546Z" fill="#F63983"/>
</svg>
