<svg width="24" height="24" viewBox="0 0 24 24" fill="none" xmlns="http://www.w3.org/2000/svg">
<g id="Iconly/Bulk/Filter">
<g id="Filter">
<path id="Fill 1" opacity="0.4" d="M3.50777 15.958C2.67555 15.958 2 16.6217 2 17.4393C2 18.2559 2.67555 18.9207 3.50777 18.9207H10.0833C10.9155 18.9207 11.5911 18.2559 11.5911 17.4393C11.5911 16.6217 10.9155 15.958 10.0833 15.958H3.50777Z" fill="white"/>
<path id="Fill 4" opacity="0.4" d="M20.4933 4.89832H13.9178C13.0856 4.89832 12.41 5.56202 12.41 6.37855C12.41 7.19617 13.0856 7.85988 13.9178 7.85988H20.4933C21.3244 7.85988 22 7.19617 22 6.37855C22 5.56202 21.3244 4.89832 20.4933 4.89832Z" fill="white"/>
<path id="Fill 6" d="M5.43887 9.75821C3.53999 9.75821 2 8.24523 2 6.37856C2 4.51298 3.53999 3 5.43887 3C7.33886 3 8.87774 4.51298 8.87774 6.37856C8.87774 8.24523 7.33886 9.75821 5.43887 9.75821Z" fill="white"/>
<path id="Fill 9" d="M18.5612 20.7777C16.6623 20.7777 15.1223 19.2648 15.1223 17.3992C15.1223 15.5325 16.6623 14.0195 18.5612 14.0195C20.4612 14.0195 22.0001 15.5325 22.0001 17.3992C22.0001 19.2648 20.4612 20.7777 18.5612 20.7777Z" fill="white"/>
</g>
</g>
</svg>
