<svg width="24" height="24" viewBox="0 0 24 24" fill="none" xmlns="http://www.w3.org/2000/svg">
<g id="Iconly/Bulk/Game">
<g id="Game">
<path id="Game 2" opacity="0.4" d="M13.3051 6.06547C12.8144 6.05584 12.3237 6.05584 11.8331 6.05584V5.89206C11.8331 5.22733 11.2737 4.68784 10.6064 4.68784H9.63482C8.52589 4.68784 7.62305 3.80152 7.62305 2.72254C7.62305 2.32755 7.95671 2 8.35906 2C8.77123 2 9.09508 2.32755 9.09508 2.72254C9.09508 3.01155 9.34042 3.24276 9.63482 3.24276H10.6064C12.0882 3.2524 13.2953 4.43736 13.3051 5.88243V6.06547Z" fill="white"/>
<path id="Game_2" fill-rule="evenodd" clip-rule="evenodd" d="M9.8214 15.7669V14.7457H10.8518C11.2542 14.7457 11.5878 14.4278 11.5878 14.0232C11.5878 13.6282 11.2542 13.3006 10.8518 13.3006H9.8214V12.2891C9.8214 11.8941 9.48774 11.5665 9.08539 11.5665C8.67322 11.5665 8.34937 11.8941 8.34937 12.2891V13.3006H7.30914C6.90678 13.3006 6.57312 13.6282 6.57312 14.0232C6.57312 14.4278 6.90678 14.7457 7.30914 14.7457H8.34937V15.7669C8.34937 16.1619 8.67322 16.4894 9.08539 16.4894C9.48774 16.4894 9.8214 16.1619 9.8214 15.7669ZM15.0226 13.1176C14.6105 13.1176 14.2866 12.7996 14.2866 12.395C14.2866 12 14.6105 11.6725 15.0226 11.6725H15.1208C15.5231 11.6725 15.8568 12 15.8568 12.395C15.8568 12.7996 15.5231 13.1176 15.1208 13.1176H15.0226ZM16.7007 16.4316C16.2886 16.4316 15.9647 16.1137 15.9647 15.7091C15.9647 15.3141 16.2886 14.9866 16.7007 14.9866H16.7989C17.2012 14.9866 17.5349 15.3141 17.5349 15.7091C17.5349 16.1137 17.2012 16.4316 16.7989 16.4316H16.7007ZM13.3052 6.06566C12.8145 6.05603 12.3238 6.05603 11.8332 6.05603C10.4985 6.05603 9.18351 6.0753 7.89794 6.09457C4.48283 6.09457 2 8.52229 2 11.8749V16.1812C2 19.5337 4.48283 21.9615 7.88813 21.9615C9.25221 21.9904 10.6359 22 12.0098 22C13.3837 22 14.7478 21.9904 16.1119 21.9615C19.5172 21.9615 22 19.5337 22 16.1812V11.8749C22 8.52229 19.5172 6.09457 16.1119 6.09457C15.1698 6.08493 14.2375 6.06566 13.3052 6.06566Z" fill="white"/>
</g>
</g>
</svg>
