<svg width="4" height="13" viewBox="0 0 4 13" fill="none" xmlns="http://www.w3.org/2000/svg">
<path d="M2.8205 4.88916C3.36879 4.88916 3.81307 5.33719 3.81307 5.89011V7.2252C3.81307 7.77774 3.36879 8.22615 2.8205 8.22615H1.49659C0.948304 8.22615 0.504028 7.77774 0.504028 7.2252V5.89011C0.504028 5.33719 0.948304 4.88916 1.49659 4.88916H2.8205Z" fill="#00A2FD"/>
<path d="M2.8205 0.406067C3.36879 0.406067 3.81307 0.854095 3.81307 1.40701V2.74211C3.81307 3.29502 3.36879 3.74305 2.8205 3.74305H1.49659C0.948304 3.74305 0.504028 3.29502 0.504028 2.74211V1.40701C0.504028 0.854095 0.948304 0.406067 1.49659 0.406067H2.8205Z" fill="#00A2FD"/>
<path d="M2.8205 9.23816C3.36879 9.23816 3.81307 9.68619 3.81307 10.2391V11.5742C3.81307 12.1271 3.36879 12.5751 2.8205 12.5751H1.49659C0.948304 12.5751 0.504028 12.1271 0.504028 11.5742V10.2391C0.504028 9.68619 0.948304 9.23816 1.49659 9.23816H2.8205Z" fill="#00A2FD"/>
</svg>
