<svg width="24" height="24" viewBox="0 0 24 24" fill="none" xmlns="http://www.w3.org/2000/svg">
<g id="Iconly/Bulk/Hide">
<g id="Hide">
<path id="Fill 1" opacity="0.4" fill-rule="evenodd" clip-rule="evenodd" d="M11.9902 3.88184C7.86341 3.88184 4.14634 6.80583 2.05854 11.7087C1.98049 11.8957 1.98049 12.1123 2.05854 12.2895C2.73171 13.8736 3.58049 15.2529 4.5561 16.3949L8.16585 12.7523C8.12683 12.516 8.09756 12.26 8.09756 12.004C8.09756 9.82827 9.8439 8.066 12 8.066C12.2537 8.066 12.5073 8.09553 12.7415 8.13491L16 4.84567C14.7512 4.21657 13.3951 3.88184 12 3.88184H11.9902ZM18.4292 6.5498L15.2195 9.78884C15.639 10.4189 15.8926 11.1868 15.8926 12.004C15.8926 14.1699 14.1463 15.9322 12 15.9322C11.1902 15.9322 10.4292 15.6752 9.80484 15.2529L6.71216 18.3738C8.3024 19.5059 10.1073 20.1262 11.9902 20.1262H12C16.1365 20.1262 19.8536 17.1923 21.9414 12.2895C22.0195 12.1123 22.0195 11.8957 21.9414 11.7086C21.0439 9.60178 19.8439 7.84936 18.4292 6.5498Z" fill="white"/>
<path id="Combined Shape" fill-rule="evenodd" clip-rule="evenodd" d="M15.2197 9.78855L18.4295 6.54952L20.2051 4.75771C20.4978 4.4722 20.4978 3.99964 20.2051 3.71413C19.9222 3.42862 19.4636 3.42862 19.1709 3.71413L18.2539 4.63957C18.2441 4.65926 18.2246 4.67895 18.2051 4.69864C18.1953 4.71833 18.1758 4.73802 18.1563 4.75771L17.288 5.63491L14.1953 8.7558L3.72703 19.3186L3.69776 19.358C3.50264 19.6435 3.54167 20.0383 3.78557 20.2844C3.92215 20.4311 4.11728 20.5 4.30264 20.5C4.48801 20.5 4.67337 20.4311 4.81972 20.2844L15.2197 9.78855ZM10.8687 14.1799C11.2004 14.3571 11.5906 14.4555 12.0004 14.4555C13.3369 14.4555 14.4296 13.3529 14.4296 12.0041C14.4296 11.5906 14.3321 11.1968 14.1565 10.8621L10.8687 14.1799Z" fill="white"/>
</g>
</g>
</svg>
