<svg width="24" height="24" viewBox="0 0 24 24" fill="none" xmlns="http://www.w3.org/2000/svg">
<g id="Iconly/Bulk/Lock">
<g id="Lock">
<path id="Fill 1" fill-rule="evenodd" clip-rule="evenodd" d="M11.9949 17.3295C11.5071 17.3295 11.1108 16.942 11.1108 16.455V14.2489C11.1108 13.772 11.5071 13.3844 11.9949 13.3844C12.4928 13.3844 12.8891 13.772 12.8891 14.2489V16.455C12.8891 16.942 12.4928 17.3295 11.9949 17.3295ZM7.7688 8.71387C5.41136 8.71387 3.5 10.5831 3.5 12.8885V17.8254C3.5 20.1308 5.41136 22 7.7688 22H16.2312C18.5886 22 20.5 20.1308 20.5 17.8254V12.8885C20.5 10.5831 18.5886 8.71387 16.2312 8.71387V8.71387H7.7688Z" fill="white"/>
<path id="Fill 4" opacity="0.4" d="M17.5228 8.86667C17.1672 8.7673 16.7912 8.71761 16.4051 8.71761H15.7446V7.39595C15.7446 5.37868 14.068 3.73903 12.0052 3.73903C9.94245 3.73903 8.26582 5.36874 8.25566 7.37608V8.71761H7.60533C7.20904 8.71761 6.83307 8.7673 6.47742 8.87661V7.39595C6.48758 4.41476 8.9568 2 11.9849 2C15.0536 2 17.5228 4.41476 17.5228 7.39595V8.86667Z" fill="white"/>
</g>
</g>
</svg>
