<svg width="24" height="24" viewBox="0 0 24 24" fill="none" xmlns="http://www.w3.org/2000/svg">
<g id="Iconly/Bulk/Password">
<g id="Password">
<path id="Fill 1" opacity="0.4" d="M7.66537 1.99976C4.27637 1.99976 2.00037 4.37776 2.00037 7.91676V16.0838C2.00037 19.6218 4.27637 21.9998 7.66537 21.9998H16.3334C19.7224 21.9998 22.0004 19.6218 22.0004 16.0838V7.91676C22.0004 4.37776 19.7234 1.99976 16.3344 1.99976H7.66537Z" fill="white"/>
<path id="Combined Shape" fill-rule="evenodd" clip-rule="evenodd" d="M8.84413 9.39844C10.0141 9.39844 10.9941 10.1784 11.3141 11.2484H17.0141C17.4241 11.2484 17.7641 11.5884 17.7641 11.9984V13.8484C17.7641 14.2684 17.4241 14.5984 17.0141 14.5984C16.5941 14.5984 16.2641 14.2684 16.2641 13.8484V12.7484H14.9341V13.8484C14.9341 14.2684 14.5941 14.5984 14.1841 14.5984C13.7641 14.5984 13.4341 14.2684 13.4341 13.8484V12.7484H11.3141C10.9941 13.8184 10.0141 14.5984 8.84413 14.5984C7.40413 14.5984 6.23413 13.4384 6.23413 11.9984C6.23413 10.5684 7.40413 9.39844 8.84413 9.39844ZM8.84413 10.8984C8.23413 10.8984 7.73413 11.3884 7.73413 11.9984C7.73413 12.6084 8.23413 13.0984 8.84413 13.0984C9.44413 13.0984 9.94413 12.6084 9.94413 11.9984C9.94413 11.3884 9.44413 10.8984 8.84413 10.8984Z" fill="white"/>
</g>
</g>
</svg>
