<svg width="32" height="32" viewBox="0 0 32 32" fill="none" xmlns="http://www.w3.org/2000/svg">
<path d="M9.77786 2.66669C5.2386 2.66669 2.66675 5.23854 2.66675 9.7778V22.2222C2.66675 26.7497 5.22675 29.3334 9.77786 29.3334H22.2223C26.7616 29.3334 29.3334 26.7497 29.3334 22.2222V9.7778C29.3334 5.23854 26.7616 2.66669 22.2223 2.66669H9.77786Z" fill="#003452"/>
<path d="M16.9994 16.9445V20.3427C16.9994 20.8898 16.552 21.3334 16.0001 21.3334C15.4482 21.3334 15.0007 20.8898 15.0007 20.3427V16.9445H11.5728C11.058 16.8916 10.6667 16.4615 10.6667 15.9484C10.6667 15.4354 11.058 15.0053 11.5728 14.9524H14.99V11.5649C15.0433 11.0545 15.4771 10.6667 15.9947 10.6667C16.5123 10.6667 16.9461 11.0545 16.9994 11.5649V14.9524H20.4274C20.9422 15.0053 21.3334 15.4354 21.3334 15.9484C21.3334 16.4615 20.9422 16.8916 20.4274 16.9445H16.9994Z" fill="#00A2FD"/>
</svg>
