<svg width="24" height="24" viewBox="0 0 24 24" fill="none" xmlns="http://www.w3.org/2000/svg">
<g id="Iconly/Bulk/Scan">
<g id="Scan">
<path id="Combined Shape" opacity="0.4" fill-rule="evenodd" clip-rule="evenodd" d="M8.42773 3H8.42673L6.79773 3.00098C4.60673 3.00294 2.82373 4.75331 2.82373 6.90279V8.76201C2.82373 9.17386 3.16473 9.50923 3.58473 9.50923C4.00473 9.50923 4.34673 9.17386 4.34673 8.76201V6.90279C4.34673 5.57604 5.44673 4.4964 6.79873 4.49444L8.42773 4.49345C8.84873 4.49345 9.18873 4.15907 9.18873 3.74722C9.18873 3.33438 8.84773 3 8.42773 3ZM15.6006 3.00024C15.1806 3.00024 14.8396 3.33463 14.8396 3.74746C14.8396 4.15931 15.1806 4.49272 15.6006 4.49272H17.1936C18.5506 4.49272 19.6546 5.5753 19.6546 6.90598V8.76225C19.6546 9.1741 19.9956 9.50947 20.4156 9.50947C20.8366 9.50947 21.1766 9.1741 21.1766 8.76225V6.90598C21.1766 4.7516 19.3906 3.00024 17.1936 3.00024H15.6006ZM6.96951 9.00884C6.95851 7.76838 7.97451 6.75542 9.23851 6.74268H14.7625C15.3675 6.74268 15.9485 6.98096 16.3715 7.40556C16.7975 7.83408 17.0335 8.4097 17.0325 9.00884V10.2542C17.0275 10.4003 16.9085 10.519 16.7595 10.5229H7.23951C7.09151 10.518 6.97251 10.3993 6.96951 10.2542V9.00884Z" fill="white"/>
<path id="Fill 7" d="M1.762 12.0413C1.342 12.0413 1 12.3756 1 12.7885C1 13.2003 1.342 13.5337 1.762 13.5337H2.823V17.0972C2.823 19.2467 4.607 20.9971 6.798 20.999L8.427 21V21C8.848 21 9.188 20.6656 9.189 20.2528C9.189 19.841 8.848 19.5066 8.428 19.5066L6.8 19.5056C5.447 19.5036 4.346 18.424 4.346 17.0972V13.5337H6.969V14.5251C6.959 15.7656 7.974 16.7795 9.238 16.7913H14.762C16.027 16.7795 17.042 15.7656 17.032 14.5251V13.5337H19.655V17.0933C19.655 18.425 18.551 19.5066 17.194 19.5066H15.601C15.18 19.5066 14.839 19.841 14.839 20.2528C14.839 20.6656 15.18 21 15.601 21H17.194C19.39 21 21.177 19.2487 21.177 17.0933V13.5337H22.239C22.659 13.5337 23 13.2003 23 12.7885C23 12.3756 22.659 12.0413 22.239 12.0413H1.762Z" fill="white"/>
</g>
</g>
</svg>
