<svg width="24" height="24" viewBox="0 0 24 24" fill="none" xmlns="http://www.w3.org/2000/svg">
<g id="Iconly/Bulk/Wallet">
<g id="Wallet">
<path id="Fill 1" fill-rule="evenodd" clip-rule="evenodd" d="M6.73957 8.36733C6.31735 8.3656 5.97601 8.03019 5.97779 7.61852C5.97957 7.20859 6.32001 6.87665 6.73957 6.87492H12.3831C12.8053 6.87318 13.1502 7.20599 13.152 7.61766C13.1538 8.03019 12.8125 8.3656 12.3902 8.36733H12.3831H12.3796H6.73957ZM21.9964 8.37513V8.33786C21.9964 4.97862 19.96 3 16.5138 3H7.48356C4.03644 3 2 4.97862 2 8.33786V15.6543C2 19.0136 4.03644 21 7.48356 21H16.5173C19.9636 21 22 19.0136 22 15.6543V15.3484H17.7618C15.7867 15.3458 14.1884 13.7823 14.1911 11.8566C14.1947 9.93514 15.7911 8.37859 17.7618 8.37513V8.37513H21.9964Z" fill="#00A2FD"/>
<path id="Fill 4" opacity="0.4" d="M18.0326 13.8997H21.2825C21.6787 13.8997 22 13.5716 22 13.166V10.6345C21.9991 10.2298 21.6787 9.90086 21.2825 9.89999H17.9561C16.8731 9.90347 15.9983 10.8024 16 11.9103C16 12.0399 16.0128 12.1696 16.0374 12.2967C16.2465 13.2478 17.0805 13.9171 18.0326 13.8997Z" fill="#00A2FD"/>
<circle id="Oval" cx="18" cy="11.9" r="1" fill="#00A2FD"/>
</g>
</g>
</svg>
