<svg width="24" height="24" viewBox="0 0 24 24" fill="none" xmlns="http://www.w3.org/2000/svg">
<g id="Iconly/Bulk/Work">
<g id="Work">
<path id="Fill 1" opacity="0.4" d="M2.21024 17.8565C2.28124 18.7995 2.64224 19.7525 3.20424 20.4245C3.98624 21.3675 4.94924 21.7885 6.29224 21.7885C8.14824 21.7985 10.1942 21.7985 12.1812 21.7985C14.1762 21.7985 16.1122 21.7985 17.7472 21.7885C19.0712 21.7885 20.0642 21.3565 20.8362 20.4245C21.3982 19.7525 21.7592 18.7895 21.8102 17.8565C21.8302 17.4855 21.9302 13.1445 21.9902 11.0785H2.00024C2.05024 13.4165 2.19024 17.4155 2.21024 17.8565Z" fill="white"/>
<path id="Fill 4" d="M11.2455 16.6782C11.2455 17.0922 11.5815 17.4282 11.9955 17.4282C12.4095 17.4282 12.7455 17.0922 12.7455 16.6782V15.3842C12.7455 14.9702 12.4095 14.6342 11.9955 14.6342C11.5815 14.6342 11.2455 14.9702 11.2455 15.3842V16.6782Z" fill="white"/>
<path id="Fill 6" fill-rule="evenodd" clip-rule="evenodd" d="M13.2864 3.50037C13.9584 3.50037 14.5204 3.96037 14.6884 4.58137H9.30139C9.46939 3.96037 10.0314 3.50037 10.7044 3.50037H13.2864ZM10.2114 14.5564C10.4334 13.7444 11.1484 13.1994 11.9904 13.1994C12.8214 13.1994 13.5444 13.7564 13.7464 14.5524C13.8314 14.8884 14.1344 15.1174 14.4734 15.1174C14.5074 15.1174 14.5414 15.1154 14.5764 15.1104C17.1444 14.7554 19.5924 13.8464 21.6544 12.4814C21.8634 12.3424 21.9904 12.1074 21.9904 11.8554V8.38937C21.9904 6.28937 20.2824 4.58137 18.1834 4.58137H16.2064C16.0184 3.12937 14.7874 2.00037 13.2864 2.00037H10.7044C9.20237 2.00037 7.97237 3.12937 7.78437 4.58137H5.81737C3.71237 4.58137 2.00037 6.28937 2.00037 8.38937V11.8554C2.00037 12.1074 2.12637 12.3434 2.33737 12.4814C4.39537 13.8404 6.83337 14.7454 9.38437 15.1014C9.76237 15.1514 10.1114 14.9194 10.2114 14.5564Z" fill="white"/>
</g>
</g>
</svg>
